%TF.GenerationSoftware,KiCad,Pcbnew,8.0.5*%
%TF.CreationDate,2025-06-27T14:54:40-05:00*%
%TF.ProjectId,ULACIT 2025,554c4143-4954-4203-9230-32352e6b6963,rev?*%
%TF.SameCoordinates,Original*%
%TF.FileFunction,Copper,L1,Top*%
%TF.FilePolarity,Positive*%
%FSLAX46Y46*%
G04 Gerber Fmt 4.6, Leading zero omitted, Abs format (unit mm)*
G04 Created by KiCad (PCBNEW 8.0.5) date 2025-06-27 14:54:40*
%MOMM*%
%LPD*%
G01*
G04 APERTURE LIST*
G04 Aperture macros list*
%AMFreePoly0*
4,1,33,-1.500000,1.250000,-1.484505,1.401663,-1.429731,1.566964,-1.338312,1.715177,-1.215177,1.838312,-1.066964,1.929731,-0.901663,1.984505,-0.750000,2.000000,0.750000,2.000000,0.901663,1.984505,1.066964,1.929731,1.215177,1.838312,1.338312,1.715177,1.429731,1.566964,1.484505,1.401663,1.500000,1.250000,1.500000,-1.250000,1.484505,-1.401663,1.429731,-1.566964,1.338312,-1.715177,
1.215177,-1.838312,1.066964,-1.929731,0.901663,-1.984505,0.750000,-2.000000,-0.750000,-2.000000,-0.901663,-1.984505,-1.066964,-1.929731,-1.215177,-1.838312,-1.338312,-1.715177,-1.429731,-1.566964,-1.484505,-1.401663,-1.500000,-1.250000,-1.500000,1.250000,-1.500000,1.250000,$1*%
G04 Aperture macros list end*
%TA.AperFunction,ComponentPad*%
%ADD10R,1.700000X1.700000*%
%TD*%
%TA.AperFunction,ComponentPad*%
%ADD11O,1.700000X1.700000*%
%TD*%
%TA.AperFunction,SMDPad,CuDef*%
%ADD12FreePoly0,90.000000*%
%TD*%
%TA.AperFunction,ComponentPad*%
%ADD13C,1.600000*%
%TD*%
%TA.AperFunction,SMDPad,CuDef*%
%ADD14FreePoly0,270.000000*%
%TD*%
%TA.AperFunction,ComponentPad*%
%ADD15R,2.600000X2.600000*%
%TD*%
%TA.AperFunction,ComponentPad*%
%ADD16C,2.600000*%
%TD*%
%TA.AperFunction,ViaPad*%
%ADD17C,0.600000*%
%TD*%
%TA.AperFunction,Conductor*%
%ADD18C,1.000000*%
%TD*%
%TA.AperFunction,Conductor*%
%ADD19C,0.500000*%
%TD*%
G04 APERTURE END LIST*
D10*
%TO.P,J2,1,Pin_1*%
%TO.N,Net-(J2-Pin_1)*%
X48270000Y-80645000D03*
D11*
%TO.P,J2,2,Pin_2*%
%TO.N,Net-(J2-Pin_2)*%
X50810000Y-80645000D03*
%TO.P,J2,3,Pin_3*%
%TO.N,Net-(J2-Pin_3)*%
X53350000Y-80645000D03*
%TO.P,J2,4,Pin_4*%
%TO.N,GND*%
X55890000Y-80645000D03*
%TD*%
D12*
%TO.P,REF\u002A\u002A,1*%
%TO.N,GND*%
X73660000Y-72390000D03*
%TD*%
D13*
%TO.P,U1,1,GND*%
%TO.N,GND*%
X44070000Y-30940000D03*
%TO.P,U1,2,0_RX1_CRX2_CS1*%
%TO.N,unconnected-(U1-0_RX1_CRX2_CS1-Pad2)*%
X44070000Y-33480000D03*
%TO.P,U1,3,1_TX1_CTX2_MISO1*%
%TO.N,unconnected-(U1-1_TX1_CTX2_MISO1-Pad3)*%
X44070000Y-36020000D03*
%TO.P,U1,4,2_OUT2*%
%TO.N,unconnected-(U1-2_OUT2-Pad4)*%
X44070000Y-38560000D03*
%TO.P,U1,5,3_LRCLK2*%
%TO.N,Net-(J4-Pin_2)*%
X44070000Y-41100000D03*
%TO.P,U1,6,4_BCLK2*%
%TO.N,unconnected-(U1-4_BCLK2-Pad6)*%
X44070000Y-43640000D03*
%TO.P,U1,7,5_IN2*%
%TO.N,unconnected-(U1-5_IN2-Pad7)*%
X44070000Y-46180000D03*
%TO.P,U1,8,6_OUT1D*%
%TO.N,unconnected-(U1-6_OUT1D-Pad8)*%
X44070000Y-48720000D03*
%TO.P,U1,9,7_RX2_OUT1A*%
%TO.N,unconnected-(U1-7_RX2_OUT1A-Pad9)*%
X44070000Y-51260000D03*
%TO.P,U1,10,8_TX2_IN1*%
%TO.N,Net-(J6-Pin_2)*%
X44070000Y-53800000D03*
%TO.P,U1,11,9_OUT1C*%
%TO.N,unconnected-(U1-9_OUT1C-Pad11)*%
X44070000Y-56340000D03*
%TO.P,U1,12,10_CS_MQSR*%
%TO.N,unconnected-(U1-10_CS_MQSR-Pad12)*%
X44070000Y-58880000D03*
%TO.P,U1,13,11_MOSI_CTX1*%
%TO.N,Net-(J2-Pin_1)*%
X44070000Y-61420000D03*
%TO.P,U1,14,12_MISO_MQSL*%
%TO.N,Net-(J2-Pin_2)*%
X44070000Y-63960000D03*
%TO.P,U1,15,VBAT*%
%TO.N,unconnected-(U1-VBAT-Pad15)*%
X46610000Y-63960000D03*
%TO.P,U1,16,3V3*%
%TO.N,unconnected-(U1-3V3-Pad16)*%
X49150000Y-63960000D03*
%TO.P,U1,17,GND*%
%TO.N,GND*%
X51690000Y-63960000D03*
%TO.P,U1,18,PROGRAM*%
%TO.N,unconnected-(U1-PROGRAM-Pad18)*%
X54230000Y-63960000D03*
%TO.P,U1,19,ON_OFF*%
%TO.N,unconnected-(U1-ON_OFF-Pad19)*%
X56770000Y-63960000D03*
%TO.P,U1,20,13_SCK_CRX1_LED*%
%TO.N,unconnected-(U1-13_SCK_CRX1_LED-Pad20)*%
X59310000Y-63960000D03*
%TO.P,U1,21,14_A0_TX3_SPDIF_OUT*%
%TO.N,unconnected-(U1-14_A0_TX3_SPDIF_OUT-Pad21)*%
X59310000Y-61420000D03*
%TO.P,U1,22,15_A1_RX3_SPDIF_IN*%
%TO.N,unconnected-(U1-15_A1_RX3_SPDIF_IN-Pad22)*%
X59310000Y-58880000D03*
%TO.P,U1,23,16_A2_RX4_SCL1*%
%TO.N,unconnected-(U1-16_A2_RX4_SCL1-Pad23)*%
X59310000Y-56340000D03*
%TO.P,U1,24,17_A3_TX4_SDA1*%
%TO.N,unconnected-(U1-17_A3_TX4_SDA1-Pad24)*%
X59310000Y-53800000D03*
%TO.P,U1,25,18_A4_SDA0*%
%TO.N,Net-(J3-Pin_2)*%
X59310000Y-51260000D03*
%TO.P,U1,26,19_A5_SCL0*%
%TO.N,Net-(J3-Pin_3)*%
X59310000Y-48720000D03*
%TO.P,U1,27,20_A6_TX5_LRCLK1*%
%TO.N,Net-(J2-Pin_3)*%
X59310000Y-46180000D03*
%TO.P,U1,28,21_A7_RX5_BCLK1*%
%TO.N,unconnected-(U1-21_A7_RX5_BCLK1-Pad28)*%
X59310000Y-43640000D03*
%TO.P,U1,29,22_A8_CTX1*%
%TO.N,unconnected-(U1-22_A8_CTX1-Pad29)*%
X59310000Y-41100000D03*
%TO.P,U1,30,23_A9_CRX1_MCLK1*%
%TO.N,unconnected-(U1-23_A9_CRX1_MCLK1-Pad30)*%
X59310000Y-38560000D03*
%TO.P,U1,31,3V3*%
%TO.N,unconnected-(U1-3V3-Pad31)*%
X59310000Y-36020000D03*
%TO.P,U1,32,GND*%
%TO.N,GND*%
X59310000Y-33480000D03*
%TO.P,U1,33,VIN*%
%TO.N,+5V*%
X59310000Y-30940000D03*
%TO.P,U1,34,VUSB*%
%TO.N,unconnected-(U1-VUSB-Pad34)*%
X56770000Y-33480000D03*
%TO.P,U1,35,24_A10_TX6_SCL2*%
%TO.N,unconnected-(U1-24_A10_TX6_SCL2-Pad35)*%
X56770000Y-58880000D03*
%TO.P,U1,36,25_A11_RX6_SDA2*%
%TO.N,unconnected-(U1-25_A11_RX6_SDA2-Pad36)*%
X56770000Y-56340000D03*
%TO.P,U1,37,26_A12_MOSI1*%
%TO.N,unconnected-(U1-26_A12_MOSI1-Pad37)*%
X54230000Y-58880000D03*
%TO.P,U1,38,27_A13_SCK1*%
%TO.N,unconnected-(U1-27_A13_SCK1-Pad38)*%
X54230000Y-56340000D03*
%TO.P,U1,39,28_RX7*%
%TO.N,unconnected-(U1-28_RX7-Pad39)*%
X51690000Y-58880000D03*
%TO.P,U1,40,29_TX7*%
%TO.N,unconnected-(U1-29_TX7-Pad40)*%
X51690000Y-56340000D03*
%TO.P,U1,41,30_CRX3*%
%TO.N,unconnected-(U1-30_CRX3-Pad41)*%
X49150000Y-58880000D03*
%TO.P,U1,42,31_CTX3*%
%TO.N,unconnected-(U1-31_CTX3-Pad42)*%
X49150000Y-56340000D03*
%TO.P,U1,43,32_OUT1B*%
%TO.N,unconnected-(U1-32_OUT1B-Pad43)*%
X46610000Y-58880000D03*
%TO.P,U1,44,33_MCLK2*%
%TO.N,unconnected-(U1-33_MCLK2-Pad44)*%
X46610000Y-56340000D03*
%TD*%
D10*
%TO.P,J6,1,Pin_1*%
%TO.N,+5V*%
X31000000Y-50000000D03*
D11*
%TO.P,J6,2,Pin_2*%
%TO.N,Net-(J6-Pin_2)*%
X31000000Y-52540000D03*
%TO.P,J6,3,Pin_3*%
%TO.N,GND*%
X31000000Y-55080000D03*
%TD*%
D10*
%TO.P,J3,1,Pin_1*%
%TO.N,+5V*%
X72136000Y-35570000D03*
D11*
%TO.P,J3,2,Pin_2*%
%TO.N,Net-(J3-Pin_2)*%
X72136000Y-38110000D03*
%TO.P,J3,3,Pin_3*%
%TO.N,Net-(J3-Pin_3)*%
X72136000Y-40650000D03*
%TO.P,J3,4,Pin_4*%
%TO.N,GND*%
X72136000Y-43190000D03*
%TD*%
D14*
%TO.P,REF\u002A\u002A,1*%
%TO.N,+5V*%
X30480000Y-66040000D03*
%TD*%
D10*
%TO.P,J4,1,Pin_1*%
%TO.N,+5V*%
X72136000Y-51816000D03*
D11*
%TO.P,J4,2,Pin_2*%
%TO.N,Net-(J4-Pin_2)*%
X72136000Y-54356000D03*
%TO.P,J4,3,Pin_3*%
%TO.N,GND*%
X72136000Y-56896000D03*
%TD*%
D12*
%TO.P,REF\u002A\u002A,1*%
%TO.N,+5V*%
X73660000Y-66040000D03*
%TD*%
D14*
%TO.P,REF\u002A\u002A,1*%
%TO.N,GND*%
X30480000Y-72390000D03*
%TD*%
D15*
%TO.P,J1,1*%
%TO.N,+5V*%
X35560000Y-31400000D03*
D16*
%TO.P,J1,2*%
%TO.N,GND*%
X35560000Y-25400000D03*
%TO.P,J1,3*%
%TO.N,N/C*%
X40260000Y-28400000D03*
%TD*%
D17*
%TO.N,GND*%
X39370000Y-68580000D03*
X66040000Y-65532000D03*
X59182000Y-67564000D03*
%TO.N,Net-(J2-Pin_3)*%
X50800000Y-68834000D03*
X60452000Y-69088000D03*
%TO.N,Net-(J3-Pin_2)*%
X61338053Y-44960947D03*
%TO.N,Net-(J4-Pin_2)*%
X51943000Y-41148000D03*
%TD*%
D18*
%TO.N,+5V*%
X72146000Y-35570000D02*
X74930000Y-38354000D01*
X35560000Y-29100000D02*
X39160000Y-25500000D01*
X72136000Y-35570000D02*
X72146000Y-35570000D01*
X35560000Y-31400000D02*
X35560000Y-33020000D01*
X73660000Y-62230000D02*
X74930000Y-60960000D01*
X59310000Y-30940000D02*
X59310000Y-29590000D01*
X63246000Y-26670000D02*
X63246000Y-26680000D01*
X74930000Y-60960000D02*
X74930000Y-53340000D01*
X74930000Y-38354000D02*
X74930000Y-49022000D01*
X38100000Y-35560000D02*
X38100000Y-58420000D01*
X62076000Y-25500000D02*
X62738000Y-26162000D01*
X74930000Y-49022000D02*
X72009000Y-51943000D01*
X74930000Y-53340000D02*
X73406000Y-51816000D01*
X59310000Y-29590000D02*
X62738000Y-26162000D01*
X35560000Y-33020000D02*
X38100000Y-35560000D01*
X39160000Y-25500000D02*
X62076000Y-25500000D01*
X63246000Y-26680000D02*
X72136000Y-35570000D01*
X38100000Y-58420000D02*
X30480000Y-66040000D01*
X73406000Y-51816000D02*
X72136000Y-51816000D01*
X73660000Y-66040000D02*
X73660000Y-62230000D01*
X62738000Y-26162000D02*
X63246000Y-26670000D01*
X35560000Y-31400000D02*
X35560000Y-29100000D01*
D19*
%TO.N,Net-(J3-Pin_3)*%
X63500000Y-42418000D02*
X63500000Y-44530000D01*
X72136000Y-40650000D02*
X70749000Y-42037000D01*
X63881000Y-42037000D02*
X63500000Y-42418000D01*
X70749000Y-42037000D02*
X63881000Y-42037000D01*
X63500000Y-44530000D02*
X59310000Y-48720000D01*
D18*
%TO.N,GND*%
X37973000Y-69977000D02*
X39370000Y-68580000D01*
X30480000Y-72390000D02*
X32893000Y-69977000D01*
D19*
X59310000Y-33480000D02*
X52980000Y-39810000D01*
X64008000Y-67564000D02*
X66040000Y-65532000D01*
X52980000Y-39810000D02*
X52980000Y-62670000D01*
X52940000Y-39810000D02*
X52980000Y-39810000D01*
D18*
X32893000Y-69977000D02*
X37973000Y-69977000D01*
D19*
X44070000Y-30940000D02*
X52940000Y-39810000D01*
X52980000Y-62670000D02*
X51690000Y-63960000D01*
X59182000Y-67564000D02*
X64008000Y-67564000D01*
D18*
X73660000Y-72390000D02*
X72898000Y-72390000D01*
X72898000Y-72390000D02*
X66040000Y-65532000D01*
D19*
%TO.N,Net-(J2-Pin_3)*%
X51054000Y-69088000D02*
X60452000Y-69088000D01*
X50800000Y-68834000D02*
X51054000Y-69088000D01*
%TO.N,Net-(J3-Pin_2)*%
X63881000Y-39370000D02*
X62738000Y-40513000D01*
X70876000Y-39370000D02*
X63881000Y-39370000D01*
X62738000Y-43561000D02*
X61338053Y-44960947D01*
X72136000Y-38110000D02*
X70876000Y-39370000D01*
X62738000Y-40513000D02*
X62738000Y-43561000D01*
%TO.N,Net-(J4-Pin_2)*%
X51895000Y-41100000D02*
X51943000Y-41148000D01*
X44070000Y-41100000D02*
X51895000Y-41100000D01*
%TD*%
%TA.AperFunction,Conductor*%
%TO.N,GND*%
G36*
X60752257Y-26520185D02*
G01*
X60798012Y-26572989D01*
X60807956Y-26642147D01*
X60778931Y-26705703D01*
X60772900Y-26712179D01*
X58672221Y-28812858D01*
X58672218Y-28812861D01*
X58602538Y-28882540D01*
X58532859Y-28952219D01*
X58423371Y-29116079D01*
X58423364Y-29116092D01*
X58347950Y-29298160D01*
X58347947Y-29298170D01*
X58309500Y-29491456D01*
X58309500Y-30062410D01*
X58289815Y-30129449D01*
X58287076Y-30133532D01*
X58179431Y-30287267D01*
X58083261Y-30493502D01*
X58083258Y-30493511D01*
X58024366Y-30713302D01*
X58024364Y-30713313D01*
X58004532Y-30939998D01*
X58004532Y-30940001D01*
X58024364Y-31166686D01*
X58024366Y-31166697D01*
X58083258Y-31386488D01*
X58083261Y-31386497D01*
X58179431Y-31592732D01*
X58179432Y-31592734D01*
X58309954Y-31779141D01*
X58470858Y-31940045D01*
X58470861Y-31940047D01*
X58657266Y-32070568D01*
X58715865Y-32097893D01*
X58768305Y-32144065D01*
X58787457Y-32211258D01*
X58767242Y-32278139D01*
X58715867Y-32322657D01*
X58657513Y-32349868D01*
X58657512Y-32349868D01*
X58584526Y-32400973D01*
X58584526Y-32400974D01*
X59139765Y-32956212D01*
X59097708Y-32967482D01*
X58972292Y-33039890D01*
X58869890Y-33142292D01*
X58797482Y-33267708D01*
X58786212Y-33309764D01*
X58230974Y-32754526D01*
X58230973Y-32754526D01*
X58179868Y-32827512D01*
X58179868Y-32827513D01*
X58152657Y-32885867D01*
X58106484Y-32938306D01*
X58039290Y-32957457D01*
X57972409Y-32937241D01*
X57927893Y-32885865D01*
X57900682Y-32827512D01*
X57900568Y-32827266D01*
X57770047Y-32640861D01*
X57770045Y-32640858D01*
X57609141Y-32479954D01*
X57422734Y-32349432D01*
X57422732Y-32349431D01*
X57216497Y-32253261D01*
X57216488Y-32253258D01*
X56996697Y-32194366D01*
X56996693Y-32194365D01*
X56996692Y-32194365D01*
X56996691Y-32194364D01*
X56996686Y-32194364D01*
X56770002Y-32174532D01*
X56769998Y-32174532D01*
X56543313Y-32194364D01*
X56543302Y-32194366D01*
X56323511Y-32253258D01*
X56323502Y-32253261D01*
X56117267Y-32349431D01*
X56117265Y-32349432D01*
X55930858Y-32479954D01*
X55769954Y-32640858D01*
X55639432Y-32827265D01*
X55639431Y-32827267D01*
X55543261Y-33033502D01*
X55543258Y-33033511D01*
X55484366Y-33253302D01*
X55484364Y-33253313D01*
X55464532Y-33479998D01*
X55464532Y-33480001D01*
X55484364Y-33706686D01*
X55484366Y-33706697D01*
X55543258Y-33926488D01*
X55543261Y-33926497D01*
X55639431Y-34132732D01*
X55639432Y-34132734D01*
X55769954Y-34319141D01*
X55930858Y-34480045D01*
X55930861Y-34480047D01*
X56117266Y-34610568D01*
X56323504Y-34706739D01*
X56543308Y-34765635D01*
X56705230Y-34779801D01*
X56769998Y-34785468D01*
X56770000Y-34785468D01*
X56770002Y-34785468D01*
X56826673Y-34780509D01*
X56996692Y-34765635D01*
X57216496Y-34706739D01*
X57422734Y-34610568D01*
X57609139Y-34480047D01*
X57770047Y-34319139D01*
X57900568Y-34132734D01*
X57927893Y-34074134D01*
X57974065Y-34021695D01*
X58041258Y-34002543D01*
X58108139Y-34022758D01*
X58152657Y-34074134D01*
X58179864Y-34132480D01*
X58230974Y-34205472D01*
X58786212Y-33650234D01*
X58797482Y-33692292D01*
X58869890Y-33817708D01*
X58972292Y-33920110D01*
X59097708Y-33992518D01*
X59139765Y-34003787D01*
X58584526Y-34559025D01*
X58657513Y-34610132D01*
X58657521Y-34610136D01*
X58715864Y-34637342D01*
X58768304Y-34683514D01*
X58787456Y-34750707D01*
X58767241Y-34817589D01*
X58715866Y-34862105D01*
X58657272Y-34889428D01*
X58657265Y-34889432D01*
X58470858Y-35019954D01*
X58309954Y-35180858D01*
X58179432Y-35367265D01*
X58179431Y-35367267D01*
X58083261Y-35573502D01*
X58083258Y-35573511D01*
X58024366Y-35793302D01*
X58024364Y-35793313D01*
X58004532Y-36019998D01*
X58004532Y-36020001D01*
X58024364Y-36246686D01*
X58024366Y-36246697D01*
X58083258Y-36466488D01*
X58083261Y-36466497D01*
X58179431Y-36672732D01*
X58179432Y-36672734D01*
X58309954Y-36859141D01*
X58470858Y-37020045D01*
X58470861Y-37020047D01*
X58657266Y-37150568D01*
X58715275Y-37177618D01*
X58767714Y-37223791D01*
X58786866Y-37290984D01*
X58766650Y-37357865D01*
X58715275Y-37402382D01*
X58657267Y-37429431D01*
X58657265Y-37429432D01*
X58470858Y-37559954D01*
X58309954Y-37720858D01*
X58179432Y-37907265D01*
X58179431Y-37907267D01*
X58083261Y-38113502D01*
X58083258Y-38113511D01*
X58024366Y-38333302D01*
X58024364Y-38333313D01*
X58004532Y-38559998D01*
X58004532Y-38560001D01*
X58024364Y-38786684D01*
X58024366Y-38786697D01*
X58083258Y-39006488D01*
X58083261Y-39006497D01*
X58179431Y-39212732D01*
X58179432Y-39212734D01*
X58309954Y-39399141D01*
X58470858Y-39560045D01*
X58470861Y-39560047D01*
X58657266Y-39690568D01*
X58715275Y-39717618D01*
X58767714Y-39763791D01*
X58786866Y-39830984D01*
X58766650Y-39897865D01*
X58715275Y-39942382D01*
X58657267Y-39969431D01*
X58657265Y-39969432D01*
X58470858Y-40099954D01*
X58309954Y-40260858D01*
X58179432Y-40447265D01*
X58179431Y-40447267D01*
X58083261Y-40653502D01*
X58083258Y-40653511D01*
X58024366Y-40873302D01*
X58024364Y-40873313D01*
X58004532Y-41099998D01*
X58004532Y-41100001D01*
X58024364Y-41326686D01*
X58024366Y-41326697D01*
X58083258Y-41546488D01*
X58083261Y-41546497D01*
X58179431Y-41752732D01*
X58179432Y-41752734D01*
X58309954Y-41939141D01*
X58470858Y-42100045D01*
X58470861Y-42100047D01*
X58657266Y-42230568D01*
X58715275Y-42257618D01*
X58767714Y-42303791D01*
X58786866Y-42370984D01*
X58766650Y-42437865D01*
X58715275Y-42482382D01*
X58657267Y-42509431D01*
X58657265Y-42509432D01*
X58470858Y-42639954D01*
X58309954Y-42800858D01*
X58179432Y-42987265D01*
X58179431Y-42987267D01*
X58083261Y-43193502D01*
X58083258Y-43193511D01*
X58024366Y-43413302D01*
X58024364Y-43413313D01*
X58004532Y-43639998D01*
X58004532Y-43640001D01*
X58024364Y-43866686D01*
X58024366Y-43866697D01*
X58083258Y-44086488D01*
X58083261Y-44086497D01*
X58179431Y-44292732D01*
X58179432Y-44292734D01*
X58309954Y-44479141D01*
X58470858Y-44640045D01*
X58470861Y-44640047D01*
X58657266Y-44770568D01*
X58715275Y-44797618D01*
X58767714Y-44843791D01*
X58786866Y-44910984D01*
X58766650Y-44977865D01*
X58715275Y-45022382D01*
X58657267Y-45049431D01*
X58657265Y-45049432D01*
X58470858Y-45179954D01*
X58309954Y-45340858D01*
X58179432Y-45527265D01*
X58179431Y-45527267D01*
X58083261Y-45733502D01*
X58083258Y-45733511D01*
X58024366Y-45953302D01*
X58024364Y-45953313D01*
X58004532Y-46179998D01*
X58004532Y-46180001D01*
X58024364Y-46406686D01*
X58024366Y-46406697D01*
X58083258Y-46626488D01*
X58083261Y-46626497D01*
X58179431Y-46832732D01*
X58179432Y-46832734D01*
X58309954Y-47019141D01*
X58470858Y-47180045D01*
X58470861Y-47180047D01*
X58657266Y-47310568D01*
X58715275Y-47337618D01*
X58767714Y-47383791D01*
X58786866Y-47450984D01*
X58766650Y-47517865D01*
X58715275Y-47562382D01*
X58657267Y-47589431D01*
X58657265Y-47589432D01*
X58470858Y-47719954D01*
X58309954Y-47880858D01*
X58179432Y-48067265D01*
X58179431Y-48067267D01*
X58083261Y-48273502D01*
X58083258Y-48273511D01*
X58024366Y-48493302D01*
X58024364Y-48493313D01*
X58004532Y-48719998D01*
X58004532Y-48720001D01*
X58024364Y-48946686D01*
X58024366Y-48946697D01*
X58083258Y-49166488D01*
X58083261Y-49166497D01*
X58179431Y-49372732D01*
X58179432Y-49372734D01*
X58309954Y-49559141D01*
X58470858Y-49720045D01*
X58470861Y-49720047D01*
X58657266Y-49850568D01*
X58715275Y-49877618D01*
X58767714Y-49923791D01*
X58786866Y-49990984D01*
X58766650Y-50057865D01*
X58715275Y-50102382D01*
X58657267Y-50129431D01*
X58657265Y-50129432D01*
X58470858Y-50259954D01*
X58309954Y-50420858D01*
X58179432Y-50607265D01*
X58179431Y-50607267D01*
X58083261Y-50813502D01*
X58083258Y-50813511D01*
X58024366Y-51033302D01*
X58024364Y-51033313D01*
X58004532Y-51259998D01*
X58004532Y-51260001D01*
X58024364Y-51486686D01*
X58024366Y-51486697D01*
X58083258Y-51706488D01*
X58083261Y-51706497D01*
X58179431Y-51912732D01*
X58179432Y-51912734D01*
X58309954Y-52099141D01*
X58470858Y-52260045D01*
X58470861Y-52260047D01*
X58657266Y-52390568D01*
X58715275Y-52417618D01*
X58767714Y-52463791D01*
X58786866Y-52530984D01*
X58766650Y-52597865D01*
X58715275Y-52642382D01*
X58657267Y-52669431D01*
X58657265Y-52669432D01*
X58470858Y-52799954D01*
X58309954Y-52960858D01*
X58179432Y-53147265D01*
X58179431Y-53147267D01*
X58083261Y-53353502D01*
X58083258Y-53353511D01*
X58024366Y-53573302D01*
X58024364Y-53573313D01*
X58004532Y-53799998D01*
X58004532Y-53800001D01*
X58024364Y-54026686D01*
X58024366Y-54026697D01*
X58083258Y-54246488D01*
X58083261Y-54246497D01*
X58179431Y-54452732D01*
X58179432Y-54452734D01*
X58309954Y-54639141D01*
X58470858Y-54800045D01*
X58470861Y-54800047D01*
X58657266Y-54930568D01*
X58715275Y-54957618D01*
X58767714Y-55003791D01*
X58786866Y-55070984D01*
X58766650Y-55137865D01*
X58715275Y-55182382D01*
X58657267Y-55209431D01*
X58657265Y-55209432D01*
X58470858Y-55339954D01*
X58309954Y-55500858D01*
X58179432Y-55687265D01*
X58179431Y-55687267D01*
X58152382Y-55745275D01*
X58106209Y-55797714D01*
X58039016Y-55816866D01*
X57972135Y-55796650D01*
X57927618Y-55745275D01*
X57900568Y-55687266D01*
X57770047Y-55500861D01*
X57770045Y-55500858D01*
X57609141Y-55339954D01*
X57422734Y-55209432D01*
X57422732Y-55209431D01*
X57216497Y-55113261D01*
X57216488Y-55113258D01*
X56996697Y-55054366D01*
X56996693Y-55054365D01*
X56996692Y-55054365D01*
X56996691Y-55054364D01*
X56996686Y-55054364D01*
X56770002Y-55034532D01*
X56769998Y-55034532D01*
X56543313Y-55054364D01*
X56543302Y-55054366D01*
X56323511Y-55113258D01*
X56323502Y-55113261D01*
X56117267Y-55209431D01*
X56117265Y-55209432D01*
X55930858Y-55339954D01*
X55769954Y-55500858D01*
X55639432Y-55687265D01*
X55639431Y-55687267D01*
X55612382Y-55745275D01*
X55566209Y-55797714D01*
X55499016Y-55816866D01*
X55432135Y-55796650D01*
X55387618Y-55745275D01*
X55360568Y-55687266D01*
X55230047Y-55500861D01*
X55230045Y-55500858D01*
X55069141Y-55339954D01*
X54882734Y-55209432D01*
X54882732Y-55209431D01*
X54676497Y-55113261D01*
X54676488Y-55113258D01*
X54456697Y-55054366D01*
X54456693Y-55054365D01*
X54456692Y-55054365D01*
X54456691Y-55054364D01*
X54456686Y-55054364D01*
X54230002Y-55034532D01*
X54229998Y-55034532D01*
X54003313Y-55054364D01*
X54003302Y-55054366D01*
X53783511Y-55113258D01*
X53783502Y-55113261D01*
X53577267Y-55209431D01*
X53577265Y-55209432D01*
X53390858Y-55339954D01*
X53229954Y-55500858D01*
X53099432Y-55687265D01*
X53099431Y-55687267D01*
X53072382Y-55745275D01*
X53026209Y-55797714D01*
X52959016Y-55816866D01*
X52892135Y-55796650D01*
X52847618Y-55745275D01*
X52820568Y-55687266D01*
X52690047Y-55500861D01*
X52690045Y-55500858D01*
X52529141Y-55339954D01*
X52342734Y-55209432D01*
X52342732Y-55209431D01*
X52136497Y-55113261D01*
X52136488Y-55113258D01*
X51916697Y-55054366D01*
X51916693Y-55054365D01*
X51916692Y-55054365D01*
X51916691Y-55054364D01*
X51916686Y-55054364D01*
X51690002Y-55034532D01*
X51689998Y-55034532D01*
X51463313Y-55054364D01*
X51463302Y-55054366D01*
X51243511Y-55113258D01*
X51243502Y-55113261D01*
X51037267Y-55209431D01*
X51037265Y-55209432D01*
X50850858Y-55339954D01*
X50689954Y-55500858D01*
X50559432Y-55687265D01*
X50559431Y-55687267D01*
X50532382Y-55745275D01*
X50486209Y-55797714D01*
X50419016Y-55816866D01*
X50352135Y-55796650D01*
X50307618Y-55745275D01*
X50280568Y-55687266D01*
X50150047Y-55500861D01*
X50150045Y-55500858D01*
X49989141Y-55339954D01*
X49802734Y-55209432D01*
X49802732Y-55209431D01*
X49596497Y-55113261D01*
X49596488Y-55113258D01*
X49376697Y-55054366D01*
X49376693Y-55054365D01*
X49376692Y-55054365D01*
X49376691Y-55054364D01*
X49376686Y-55054364D01*
X49150002Y-55034532D01*
X49149998Y-55034532D01*
X48923313Y-55054364D01*
X48923302Y-55054366D01*
X48703511Y-55113258D01*
X48703502Y-55113261D01*
X48497267Y-55209431D01*
X48497265Y-55209432D01*
X48310858Y-55339954D01*
X48149954Y-55500858D01*
X48019432Y-55687265D01*
X48019431Y-55687267D01*
X47992382Y-55745275D01*
X47946209Y-55797714D01*
X47879016Y-55816866D01*
X47812135Y-55796650D01*
X47767618Y-55745275D01*
X47740568Y-55687266D01*
X47610047Y-55500861D01*
X47610045Y-55500858D01*
X47449141Y-55339954D01*
X47262734Y-55209432D01*
X47262732Y-55209431D01*
X47056497Y-55113261D01*
X47056488Y-55113258D01*
X46836697Y-55054366D01*
X46836693Y-55054365D01*
X46836692Y-55054365D01*
X46836691Y-55054364D01*
X46836686Y-55054364D01*
X46610002Y-55034532D01*
X46609998Y-55034532D01*
X46383313Y-55054364D01*
X46383302Y-55054366D01*
X46163511Y-55113258D01*
X46163502Y-55113261D01*
X45957267Y-55209431D01*
X45957265Y-55209432D01*
X45770858Y-55339954D01*
X45609954Y-55500858D01*
X45479432Y-55687265D01*
X45479431Y-55687267D01*
X45452382Y-55745275D01*
X45406209Y-55797714D01*
X45339016Y-55816866D01*
X45272135Y-55796650D01*
X45227618Y-55745275D01*
X45200568Y-55687266D01*
X45070047Y-55500861D01*
X45070045Y-55500858D01*
X44909141Y-55339954D01*
X44722734Y-55209432D01*
X44722728Y-55209429D01*
X44664725Y-55182382D01*
X44612285Y-55136210D01*
X44593133Y-55069017D01*
X44613348Y-55002135D01*
X44664725Y-54957618D01*
X44722734Y-54930568D01*
X44909139Y-54800047D01*
X45070047Y-54639139D01*
X45200568Y-54452734D01*
X45296739Y-54246496D01*
X45355635Y-54026692D01*
X45375468Y-53800000D01*
X45355635Y-53573308D01*
X45296739Y-53353504D01*
X45200568Y-53147266D01*
X45070047Y-52960861D01*
X45070045Y-52960858D01*
X44909141Y-52799954D01*
X44722734Y-52669432D01*
X44722728Y-52669429D01*
X44664725Y-52642382D01*
X44612285Y-52596210D01*
X44593133Y-52529017D01*
X44613348Y-52462135D01*
X44664725Y-52417618D01*
X44722734Y-52390568D01*
X44909139Y-52260047D01*
X45070047Y-52099139D01*
X45200568Y-51912734D01*
X45296739Y-51706496D01*
X45355635Y-51486692D01*
X45375468Y-51260000D01*
X45355635Y-51033308D01*
X45296739Y-50813504D01*
X45200568Y-50607266D01*
X45070047Y-50420861D01*
X45070045Y-50420858D01*
X44909141Y-50259954D01*
X44722734Y-50129432D01*
X44722728Y-50129429D01*
X44664725Y-50102382D01*
X44612285Y-50056210D01*
X44593133Y-49989017D01*
X44613348Y-49922135D01*
X44664725Y-49877618D01*
X44722734Y-49850568D01*
X44909139Y-49720047D01*
X45070047Y-49559139D01*
X45200568Y-49372734D01*
X45296739Y-49166496D01*
X45355635Y-48946692D01*
X45375468Y-48720000D01*
X45355635Y-48493308D01*
X45296739Y-48273504D01*
X45200568Y-48067266D01*
X45070047Y-47880861D01*
X45070045Y-47880858D01*
X44909141Y-47719954D01*
X44722734Y-47589432D01*
X44722728Y-47589429D01*
X44664725Y-47562382D01*
X44612285Y-47516210D01*
X44593133Y-47449017D01*
X44613348Y-47382135D01*
X44664725Y-47337618D01*
X44722734Y-47310568D01*
X44909139Y-47180047D01*
X45070047Y-47019139D01*
X45200568Y-46832734D01*
X45296739Y-46626496D01*
X45355635Y-46406692D01*
X45375468Y-46180000D01*
X45355635Y-45953308D01*
X45300172Y-45746315D01*
X45296741Y-45733511D01*
X45296738Y-45733502D01*
X45200568Y-45527266D01*
X45070047Y-45340861D01*
X45070045Y-45340858D01*
X44909141Y-45179954D01*
X44722734Y-45049432D01*
X44722728Y-45049429D01*
X44664725Y-45022382D01*
X44612285Y-44976210D01*
X44593133Y-44909017D01*
X44613348Y-44842135D01*
X44664725Y-44797618D01*
X44722734Y-44770568D01*
X44909139Y-44640047D01*
X45070047Y-44479139D01*
X45200568Y-44292734D01*
X45296739Y-44086496D01*
X45355635Y-43866692D01*
X45375468Y-43640000D01*
X45355635Y-43413308D01*
X45296739Y-43193504D01*
X45200568Y-42987266D01*
X45070047Y-42800861D01*
X45070045Y-42800858D01*
X44909141Y-42639954D01*
X44722734Y-42509432D01*
X44722728Y-42509429D01*
X44664725Y-42482382D01*
X44612285Y-42436210D01*
X44593133Y-42369017D01*
X44613348Y-42302135D01*
X44664725Y-42257618D01*
X44722734Y-42230568D01*
X44909139Y-42100047D01*
X45070047Y-41939139D01*
X45095088Y-41903377D01*
X45149665Y-41859752D01*
X45196663Y-41850500D01*
X51520689Y-41850500D01*
X51586660Y-41869506D01*
X51593474Y-41873787D01*
X51593475Y-41873787D01*
X51593478Y-41873789D01*
X51736696Y-41923903D01*
X51763745Y-41933368D01*
X51763750Y-41933369D01*
X51942996Y-41953565D01*
X51943000Y-41953565D01*
X51943004Y-41953565D01*
X52122249Y-41933369D01*
X52122252Y-41933368D01*
X52122255Y-41933368D01*
X52292522Y-41873789D01*
X52445262Y-41777816D01*
X52572816Y-41650262D01*
X52668789Y-41497522D01*
X52728368Y-41327255D01*
X52728431Y-41326697D01*
X52748565Y-41148003D01*
X52748565Y-41147996D01*
X52728369Y-40968750D01*
X52728368Y-40968745D01*
X52668788Y-40798476D01*
X52577700Y-40653511D01*
X52572816Y-40645738D01*
X52445262Y-40518184D01*
X52292523Y-40422211D01*
X52122254Y-40362631D01*
X52122249Y-40362630D01*
X51943004Y-40342435D01*
X51942997Y-40342435D01*
X51887218Y-40348720D01*
X51873334Y-40349500D01*
X45196663Y-40349500D01*
X45129624Y-40329815D01*
X45095088Y-40296623D01*
X45070045Y-40260858D01*
X44909141Y-40099954D01*
X44722734Y-39969432D01*
X44722728Y-39969429D01*
X44664725Y-39942382D01*
X44612285Y-39896210D01*
X44593133Y-39829017D01*
X44613348Y-39762135D01*
X44664725Y-39717618D01*
X44722734Y-39690568D01*
X44909139Y-39560047D01*
X45070047Y-39399139D01*
X45200568Y-39212734D01*
X45296739Y-39006496D01*
X45355635Y-38786692D01*
X45362790Y-38704916D01*
X45375468Y-38560001D01*
X45375468Y-38559998D01*
X45359335Y-38375604D01*
X45355635Y-38333308D01*
X45296739Y-38113504D01*
X45200568Y-37907266D01*
X45070047Y-37720861D01*
X45070045Y-37720858D01*
X44909141Y-37559954D01*
X44722734Y-37429432D01*
X44722728Y-37429429D01*
X44664725Y-37402382D01*
X44612285Y-37356210D01*
X44593133Y-37289017D01*
X44613348Y-37222135D01*
X44664725Y-37177618D01*
X44722734Y-37150568D01*
X44909139Y-37020047D01*
X45070047Y-36859139D01*
X45200568Y-36672734D01*
X45296739Y-36466496D01*
X45355635Y-36246692D01*
X45375468Y-36020000D01*
X45355635Y-35793308D01*
X45296739Y-35573504D01*
X45200568Y-35367266D01*
X45070047Y-35180861D01*
X45070045Y-35180858D01*
X44909141Y-35019954D01*
X44722734Y-34889432D01*
X44722728Y-34889429D01*
X44664725Y-34862382D01*
X44612285Y-34816210D01*
X44593133Y-34749017D01*
X44613348Y-34682135D01*
X44664725Y-34637618D01*
X44665319Y-34637341D01*
X44722734Y-34610568D01*
X44909139Y-34480047D01*
X45070047Y-34319139D01*
X45200568Y-34132734D01*
X45296739Y-33926496D01*
X45355635Y-33706692D01*
X45375468Y-33480000D01*
X45355635Y-33253308D01*
X45303181Y-33057546D01*
X45296741Y-33033511D01*
X45296738Y-33033502D01*
X45254224Y-32942331D01*
X45200568Y-32827266D01*
X45070047Y-32640861D01*
X45070045Y-32640858D01*
X44909141Y-32479954D01*
X44796343Y-32400973D01*
X44722734Y-32349432D01*
X44664132Y-32322105D01*
X44611694Y-32275933D01*
X44592543Y-32208739D01*
X44612759Y-32141858D01*
X44664135Y-32097341D01*
X44722482Y-32070133D01*
X44795471Y-32019024D01*
X44240234Y-31463787D01*
X44282292Y-31452518D01*
X44407708Y-31380110D01*
X44510110Y-31277708D01*
X44582518Y-31152292D01*
X44593787Y-31110234D01*
X45149024Y-31665471D01*
X45200136Y-31592478D01*
X45296264Y-31386331D01*
X45296269Y-31386317D01*
X45355139Y-31166610D01*
X45355141Y-31166599D01*
X45374966Y-30940002D01*
X45374966Y-30939997D01*
X45355141Y-30713400D01*
X45355139Y-30713389D01*
X45296269Y-30493682D01*
X45296264Y-30493668D01*
X45200136Y-30287521D01*
X45200132Y-30287513D01*
X45149025Y-30214526D01*
X44593787Y-30769764D01*
X44582518Y-30727708D01*
X44510110Y-30602292D01*
X44407708Y-30499890D01*
X44282292Y-30427482D01*
X44240234Y-30416212D01*
X44795472Y-29860974D01*
X44722478Y-29809863D01*
X44516331Y-29713735D01*
X44516317Y-29713730D01*
X44296610Y-29654860D01*
X44296599Y-29654858D01*
X44070002Y-29635034D01*
X44069998Y-29635034D01*
X43843400Y-29654858D01*
X43843389Y-29654860D01*
X43623682Y-29713730D01*
X43623673Y-29713734D01*
X43417516Y-29809866D01*
X43417512Y-29809868D01*
X43344526Y-29860973D01*
X43344526Y-29860974D01*
X43899765Y-30416212D01*
X43857708Y-30427482D01*
X43732292Y-30499890D01*
X43629890Y-30602292D01*
X43557482Y-30727708D01*
X43546212Y-30769764D01*
X42990974Y-30214526D01*
X42990973Y-30214526D01*
X42939868Y-30287512D01*
X42939866Y-30287516D01*
X42843734Y-30493673D01*
X42843730Y-30493682D01*
X42784860Y-30713389D01*
X42784858Y-30713400D01*
X42765034Y-30939997D01*
X42765034Y-30940002D01*
X42784858Y-31166599D01*
X42784860Y-31166610D01*
X42843730Y-31386317D01*
X42843735Y-31386331D01*
X42939863Y-31592478D01*
X42990974Y-31665472D01*
X43546212Y-31110234D01*
X43557482Y-31152292D01*
X43629890Y-31277708D01*
X43732292Y-31380110D01*
X43857708Y-31452518D01*
X43899765Y-31463787D01*
X43344526Y-32019025D01*
X43417513Y-32070132D01*
X43417521Y-32070136D01*
X43475864Y-32097342D01*
X43528304Y-32143514D01*
X43547456Y-32210707D01*
X43527241Y-32277589D01*
X43475866Y-32322105D01*
X43417272Y-32349428D01*
X43417265Y-32349432D01*
X43230858Y-32479954D01*
X43069954Y-32640858D01*
X42939432Y-32827265D01*
X42939431Y-32827267D01*
X42843261Y-33033502D01*
X42843258Y-33033511D01*
X42784366Y-33253302D01*
X42784364Y-33253313D01*
X42764532Y-33479998D01*
X42764532Y-33480001D01*
X42784364Y-33706686D01*
X42784366Y-33706697D01*
X42843258Y-33926488D01*
X42843261Y-33926497D01*
X42939431Y-34132732D01*
X42939432Y-34132734D01*
X43069954Y-34319141D01*
X43230858Y-34480045D01*
X43230861Y-34480047D01*
X43417266Y-34610568D01*
X43474681Y-34637341D01*
X43475275Y-34637618D01*
X43527714Y-34683791D01*
X43546866Y-34750984D01*
X43526650Y-34817865D01*
X43475275Y-34862382D01*
X43417267Y-34889431D01*
X43417265Y-34889432D01*
X43230858Y-35019954D01*
X43069954Y-35180858D01*
X42939432Y-35367265D01*
X42939431Y-35367267D01*
X42843261Y-35573502D01*
X42843258Y-35573511D01*
X42784366Y-35793302D01*
X42784364Y-35793313D01*
X42764532Y-36019998D01*
X42764532Y-36020001D01*
X42784364Y-36246686D01*
X42784366Y-36246697D01*
X42843258Y-36466488D01*
X42843261Y-36466497D01*
X42939431Y-36672732D01*
X42939432Y-36672734D01*
X43069954Y-36859141D01*
X43230858Y-37020045D01*
X43230861Y-37020047D01*
X43417266Y-37150568D01*
X43475275Y-37177618D01*
X43527714Y-37223791D01*
X43546866Y-37290984D01*
X43526650Y-37357865D01*
X43475275Y-37402382D01*
X43417267Y-37429431D01*
X43417265Y-37429432D01*
X43230858Y-37559954D01*
X43069954Y-37720858D01*
X42939432Y-37907265D01*
X42939431Y-37907267D01*
X42843261Y-38113502D01*
X42843258Y-38113511D01*
X42784366Y-38333302D01*
X42784364Y-38333313D01*
X42764532Y-38559998D01*
X42764532Y-38560001D01*
X42784364Y-38786684D01*
X42784366Y-38786697D01*
X42843258Y-39006488D01*
X42843261Y-39006497D01*
X42939431Y-39212732D01*
X42939432Y-39212734D01*
X43069954Y-39399141D01*
X43230858Y-39560045D01*
X43230861Y-39560047D01*
X43417266Y-39690568D01*
X43475275Y-39717618D01*
X43527714Y-39763791D01*
X43546866Y-39830984D01*
X43526650Y-39897865D01*
X43475275Y-39942382D01*
X43417267Y-39969431D01*
X43417265Y-39969432D01*
X43230858Y-40099954D01*
X43069954Y-40260858D01*
X42939432Y-40447265D01*
X42939431Y-40447267D01*
X42843261Y-40653502D01*
X42843258Y-40653511D01*
X42784366Y-40873302D01*
X42784364Y-40873313D01*
X42764532Y-41099998D01*
X42764532Y-41100001D01*
X42784364Y-41326686D01*
X42784366Y-41326697D01*
X42843258Y-41546488D01*
X42843261Y-41546497D01*
X42939431Y-41752732D01*
X42939432Y-41752734D01*
X43069954Y-41939141D01*
X43230858Y-42100045D01*
X43230861Y-42100047D01*
X43417266Y-42230568D01*
X43475275Y-42257618D01*
X43527714Y-42303791D01*
X43546866Y-42370984D01*
X43526650Y-42437865D01*
X43475275Y-42482382D01*
X43417267Y-42509431D01*
X43417265Y-42509432D01*
X43230858Y-42639954D01*
X43069954Y-42800858D01*
X42939432Y-42987265D01*
X42939431Y-42987267D01*
X42843261Y-43193502D01*
X42843258Y-43193511D01*
X42784366Y-43413302D01*
X42784364Y-43413313D01*
X42764532Y-43639998D01*
X42764532Y-43640001D01*
X42784364Y-43866686D01*
X42784366Y-43866697D01*
X42843258Y-44086488D01*
X42843261Y-44086497D01*
X42939431Y-44292732D01*
X42939432Y-44292734D01*
X43069954Y-44479141D01*
X43230858Y-44640045D01*
X43230861Y-44640047D01*
X43417266Y-44770568D01*
X43475275Y-44797618D01*
X43527714Y-44843791D01*
X43546866Y-44910984D01*
X43526650Y-44977865D01*
X43475275Y-45022382D01*
X43417267Y-45049431D01*
X43417265Y-45049432D01*
X43230858Y-45179954D01*
X43069954Y-45340858D01*
X42939432Y-45527265D01*
X42939431Y-45527267D01*
X42843261Y-45733502D01*
X42843258Y-45733511D01*
X42784366Y-45953302D01*
X42784364Y-45953313D01*
X42764532Y-46179998D01*
X42764532Y-46180001D01*
X42784364Y-46406686D01*
X42784366Y-46406697D01*
X42843258Y-46626488D01*
X42843261Y-46626497D01*
X42939431Y-46832732D01*
X42939432Y-46832734D01*
X43069954Y-47019141D01*
X43230858Y-47180045D01*
X43230861Y-47180047D01*
X43417266Y-47310568D01*
X43475275Y-47337618D01*
X43527714Y-47383791D01*
X43546866Y-47450984D01*
X43526650Y-47517865D01*
X43475275Y-47562382D01*
X43417267Y-47589431D01*
X43417265Y-47589432D01*
X43230858Y-47719954D01*
X43069954Y-47880858D01*
X42939432Y-48067265D01*
X42939431Y-48067267D01*
X42843261Y-48273502D01*
X42843258Y-48273511D01*
X42784366Y-48493302D01*
X42784364Y-48493313D01*
X42764532Y-48719998D01*
X42764532Y-48720001D01*
X42784364Y-48946686D01*
X42784366Y-48946697D01*
X42843258Y-49166488D01*
X42843261Y-49166497D01*
X42939431Y-49372732D01*
X42939432Y-49372734D01*
X43069954Y-49559141D01*
X43230858Y-49720045D01*
X43230861Y-49720047D01*
X43417266Y-49850568D01*
X43475275Y-49877618D01*
X43527714Y-49923791D01*
X43546866Y-49990984D01*
X43526650Y-50057865D01*
X43475275Y-50102382D01*
X43417267Y-50129431D01*
X43417265Y-50129432D01*
X43230858Y-50259954D01*
X43069954Y-50420858D01*
X42939432Y-50607265D01*
X42939431Y-50607267D01*
X42843261Y-50813502D01*
X42843258Y-50813511D01*
X42784366Y-51033302D01*
X42784364Y-51033313D01*
X42764532Y-51259998D01*
X42764532Y-51260001D01*
X42784364Y-51486686D01*
X42784366Y-51486697D01*
X42843258Y-51706488D01*
X42843261Y-51706497D01*
X42939431Y-51912732D01*
X42939432Y-51912734D01*
X43069954Y-52099141D01*
X43230858Y-52260045D01*
X43230861Y-52260047D01*
X43417266Y-52390568D01*
X43475275Y-52417618D01*
X43527714Y-52463791D01*
X43546866Y-52530984D01*
X43526650Y-52597865D01*
X43475275Y-52642382D01*
X43417267Y-52669431D01*
X43417265Y-52669432D01*
X43230858Y-52799954D01*
X43069954Y-52960858D01*
X42939432Y-53147265D01*
X42939431Y-53147267D01*
X42843261Y-53353502D01*
X42843258Y-53353511D01*
X42784366Y-53573302D01*
X42784364Y-53573313D01*
X42764532Y-53799998D01*
X42764532Y-53800001D01*
X42784364Y-54026686D01*
X42784366Y-54026697D01*
X42843258Y-54246488D01*
X42843261Y-54246497D01*
X42939431Y-54452732D01*
X42939432Y-54452734D01*
X43069954Y-54639141D01*
X43230858Y-54800045D01*
X43230861Y-54800047D01*
X43417266Y-54930568D01*
X43475275Y-54957618D01*
X43527714Y-55003791D01*
X43546866Y-55070984D01*
X43526650Y-55137865D01*
X43475275Y-55182382D01*
X43417267Y-55209431D01*
X43417265Y-55209432D01*
X43230858Y-55339954D01*
X43069954Y-55500858D01*
X42939432Y-55687265D01*
X42939431Y-55687267D01*
X42843261Y-55893502D01*
X42843258Y-55893511D01*
X42784366Y-56113302D01*
X42784364Y-56113313D01*
X42764532Y-56339998D01*
X42764532Y-56340001D01*
X42784364Y-56566686D01*
X42784366Y-56566697D01*
X42843258Y-56786488D01*
X42843261Y-56786497D01*
X42939431Y-56992732D01*
X42939432Y-56992734D01*
X43069954Y-57179141D01*
X43230858Y-57340045D01*
X43230861Y-57340047D01*
X43417266Y-57470568D01*
X43475275Y-57497618D01*
X43527714Y-57543791D01*
X43546866Y-57610984D01*
X43526650Y-57677865D01*
X43475275Y-57722382D01*
X43417267Y-57749431D01*
X43417265Y-57749432D01*
X43230858Y-57879954D01*
X43069954Y-58040858D01*
X42939432Y-58227265D01*
X42939431Y-58227267D01*
X42843261Y-58433502D01*
X42843258Y-58433511D01*
X42784366Y-58653302D01*
X42784364Y-58653313D01*
X42764532Y-58879998D01*
X42764532Y-58880001D01*
X42784364Y-59106686D01*
X42784366Y-59106697D01*
X42843258Y-59326488D01*
X42843261Y-59326497D01*
X42939431Y-59532732D01*
X42939432Y-59532734D01*
X43069954Y-59719141D01*
X43230858Y-59880045D01*
X43230861Y-59880047D01*
X43417266Y-60010568D01*
X43475275Y-60037618D01*
X43527714Y-60083791D01*
X43546866Y-60150984D01*
X43526650Y-60217865D01*
X43475275Y-60262382D01*
X43417267Y-60289431D01*
X43417265Y-60289432D01*
X43230858Y-60419954D01*
X43069954Y-60580858D01*
X42939432Y-60767265D01*
X42939431Y-60767267D01*
X42843261Y-60973502D01*
X42843258Y-60973511D01*
X42784366Y-61193302D01*
X42784364Y-61193313D01*
X42764532Y-61419998D01*
X42764532Y-61420001D01*
X42784364Y-61646686D01*
X42784366Y-61646697D01*
X42843258Y-61866488D01*
X42843261Y-61866497D01*
X42939431Y-62072732D01*
X42939432Y-62072734D01*
X43069954Y-62259141D01*
X43230858Y-62420045D01*
X43230861Y-62420047D01*
X43417266Y-62550568D01*
X43475275Y-62577618D01*
X43527714Y-62623791D01*
X43546866Y-62690984D01*
X43526650Y-62757865D01*
X43475275Y-62802382D01*
X43417267Y-62829431D01*
X43417265Y-62829432D01*
X43230858Y-62959954D01*
X43069954Y-63120858D01*
X42939432Y-63307265D01*
X42939431Y-63307267D01*
X42843261Y-63513502D01*
X42843258Y-63513511D01*
X42784366Y-63733302D01*
X42784364Y-63733313D01*
X42764532Y-63959998D01*
X42764532Y-63960001D01*
X42784364Y-64186686D01*
X42784366Y-64186697D01*
X42843258Y-64406488D01*
X42843261Y-64406497D01*
X42939431Y-64612732D01*
X42939432Y-64612734D01*
X43069954Y-64799141D01*
X43230858Y-64960045D01*
X43230861Y-64960047D01*
X43417266Y-65090568D01*
X43623504Y-65186739D01*
X43843308Y-65245635D01*
X44005230Y-65259801D01*
X44069998Y-65265468D01*
X44070000Y-65265468D01*
X44070002Y-65265468D01*
X44126673Y-65260509D01*
X44296692Y-65245635D01*
X44516496Y-65186739D01*
X44722734Y-65090568D01*
X44909139Y-64960047D01*
X45070047Y-64799139D01*
X45200568Y-64612734D01*
X45227618Y-64554724D01*
X45273790Y-64502285D01*
X45340983Y-64483133D01*
X45407865Y-64503348D01*
X45452382Y-64554725D01*
X45479429Y-64612728D01*
X45479432Y-64612734D01*
X45609954Y-64799141D01*
X45770858Y-64960045D01*
X45770861Y-64960047D01*
X45957266Y-65090568D01*
X46163504Y-65186739D01*
X46383308Y-65245635D01*
X46545230Y-65259801D01*
X46609998Y-65265468D01*
X46610000Y-65265468D01*
X46610002Y-65265468D01*
X46666673Y-65260509D01*
X46836692Y-65245635D01*
X47056496Y-65186739D01*
X47262734Y-65090568D01*
X47449139Y-64960047D01*
X47610047Y-64799139D01*
X47740568Y-64612734D01*
X47767618Y-64554724D01*
X47813790Y-64502285D01*
X47880983Y-64483133D01*
X47947865Y-64503348D01*
X47992382Y-64554725D01*
X48019429Y-64612728D01*
X48019432Y-64612734D01*
X48149954Y-64799141D01*
X48310858Y-64960045D01*
X48310861Y-64960047D01*
X48497266Y-65090568D01*
X48703504Y-65186739D01*
X48923308Y-65245635D01*
X49085230Y-65259801D01*
X49149998Y-65265468D01*
X49150000Y-65265468D01*
X49150002Y-65265468D01*
X49206673Y-65260509D01*
X49376692Y-65245635D01*
X49596496Y-65186739D01*
X49802734Y-65090568D01*
X49989139Y-64960047D01*
X50150047Y-64799139D01*
X50280568Y-64612734D01*
X50307893Y-64554134D01*
X50354065Y-64501695D01*
X50421258Y-64482543D01*
X50488139Y-64502758D01*
X50532657Y-64554134D01*
X50559864Y-64612480D01*
X50610974Y-64685472D01*
X51166212Y-64130234D01*
X51177482Y-64172292D01*
X51249890Y-64297708D01*
X51352292Y-64400110D01*
X51477708Y-64472518D01*
X51519765Y-64483787D01*
X50964526Y-65039025D01*
X51037513Y-65090132D01*
X51037521Y-65090136D01*
X51243668Y-65186264D01*
X51243682Y-65186269D01*
X51463389Y-65245139D01*
X51463400Y-65245141D01*
X51689998Y-65264966D01*
X51690002Y-65264966D01*
X51916599Y-65245141D01*
X51916610Y-65245139D01*
X52136317Y-65186269D01*
X52136331Y-65186264D01*
X52342478Y-65090136D01*
X52415471Y-65039024D01*
X51860234Y-64483787D01*
X51902292Y-64472518D01*
X52027708Y-64400110D01*
X52130110Y-64297708D01*
X52202518Y-64172292D01*
X52213787Y-64130234D01*
X52769024Y-64685471D01*
X52820133Y-64612482D01*
X52847341Y-64554135D01*
X52893513Y-64501696D01*
X52960707Y-64482543D01*
X53027588Y-64502758D01*
X53072105Y-64554132D01*
X53099432Y-64612734D01*
X53099433Y-64612735D01*
X53229954Y-64799141D01*
X53390858Y-64960045D01*
X53390861Y-64960047D01*
X53577266Y-65090568D01*
X53783504Y-65186739D01*
X54003308Y-65245635D01*
X54165230Y-65259801D01*
X54229998Y-65265468D01*
X54230000Y-65265468D01*
X54230002Y-65265468D01*
X54286673Y-65260509D01*
X54456692Y-65245635D01*
X54676496Y-65186739D01*
X54882734Y-65090568D01*
X55069139Y-64960047D01*
X55230047Y-64799139D01*
X55360568Y-64612734D01*
X55387618Y-64554724D01*
X55433790Y-64502285D01*
X55500983Y-64483133D01*
X55567865Y-64503348D01*
X55612382Y-64554725D01*
X55639429Y-64612728D01*
X55639432Y-64612734D01*
X55769954Y-64799141D01*
X55930858Y-64960045D01*
X55930861Y-64960047D01*
X56117266Y-65090568D01*
X56323504Y-65186739D01*
X56543308Y-65245635D01*
X56705230Y-65259801D01*
X56769998Y-65265468D01*
X56770000Y-65265468D01*
X56770002Y-65265468D01*
X56826673Y-65260509D01*
X56996692Y-65245635D01*
X57216496Y-65186739D01*
X57422734Y-65090568D01*
X57609139Y-64960047D01*
X57770047Y-64799139D01*
X57900568Y-64612734D01*
X57927618Y-64554724D01*
X57973790Y-64502285D01*
X58040983Y-64483133D01*
X58107865Y-64503348D01*
X58152382Y-64554725D01*
X58179429Y-64612728D01*
X58179432Y-64612734D01*
X58309954Y-64799141D01*
X58470858Y-64960045D01*
X58470861Y-64960047D01*
X58657266Y-65090568D01*
X58863504Y-65186739D01*
X59083308Y-65245635D01*
X59245230Y-65259801D01*
X59309998Y-65265468D01*
X59310000Y-65265468D01*
X59310002Y-65265468D01*
X59366673Y-65260509D01*
X59536692Y-65245635D01*
X59756496Y-65186739D01*
X59962734Y-65090568D01*
X60149139Y-64960047D01*
X60310047Y-64799139D01*
X60440568Y-64612734D01*
X60536739Y-64406496D01*
X60595635Y-64186692D01*
X60615468Y-63960000D01*
X60595635Y-63733308D01*
X60536739Y-63513504D01*
X60440568Y-63307266D01*
X60310047Y-63120861D01*
X60310045Y-63120858D01*
X60149141Y-62959954D01*
X59962734Y-62829432D01*
X59962728Y-62829429D01*
X59904725Y-62802382D01*
X59852285Y-62756210D01*
X59833133Y-62689017D01*
X59853348Y-62622135D01*
X59904725Y-62577618D01*
X59962734Y-62550568D01*
X60149139Y-62420047D01*
X60310047Y-62259139D01*
X60440568Y-62072734D01*
X60536739Y-61866496D01*
X60595635Y-61646692D01*
X60615468Y-61420000D01*
X60595635Y-61193308D01*
X60536739Y-60973504D01*
X60440568Y-60767266D01*
X60310047Y-60580861D01*
X60310045Y-60580858D01*
X60149141Y-60419954D01*
X59962734Y-60289432D01*
X59962728Y-60289429D01*
X59904725Y-60262382D01*
X59852285Y-60216210D01*
X59833133Y-60149017D01*
X59853348Y-60082135D01*
X59904725Y-60037618D01*
X59962734Y-60010568D01*
X60149139Y-59880047D01*
X60310047Y-59719139D01*
X60440568Y-59532734D01*
X60536739Y-59326496D01*
X60595635Y-59106692D01*
X60615468Y-58880000D01*
X60595635Y-58653308D01*
X60536739Y-58433504D01*
X60440568Y-58227266D01*
X60310047Y-58040861D01*
X60310045Y-58040858D01*
X60149141Y-57879954D01*
X59962734Y-57749432D01*
X59962728Y-57749429D01*
X59904725Y-57722382D01*
X59852285Y-57676210D01*
X59833133Y-57609017D01*
X59853348Y-57542135D01*
X59904725Y-57497618D01*
X59962734Y-57470568D01*
X60149139Y-57340047D01*
X60310047Y-57179139D01*
X60440568Y-56992734D01*
X60536739Y-56786496D01*
X60595635Y-56566692D01*
X60615468Y-56340000D01*
X60595635Y-56113308D01*
X60536739Y-55893504D01*
X60440568Y-55687266D01*
X60310047Y-55500861D01*
X60310045Y-55500858D01*
X60149141Y-55339954D01*
X59962734Y-55209432D01*
X59962728Y-55209429D01*
X59904725Y-55182382D01*
X59852285Y-55136210D01*
X59833133Y-55069017D01*
X59853348Y-55002135D01*
X59904725Y-54957618D01*
X59962734Y-54930568D01*
X60149139Y-54800047D01*
X60310047Y-54639139D01*
X60440568Y-54452734D01*
X60536739Y-54246496D01*
X60595635Y-54026692D01*
X60615468Y-53800000D01*
X60595635Y-53573308D01*
X60536739Y-53353504D01*
X60440568Y-53147266D01*
X60310047Y-52960861D01*
X60310045Y-52960858D01*
X60149141Y-52799954D01*
X59962734Y-52669432D01*
X59962728Y-52669429D01*
X59904725Y-52642382D01*
X59852285Y-52596210D01*
X59833133Y-52529017D01*
X59853348Y-52462135D01*
X59904725Y-52417618D01*
X59962734Y-52390568D01*
X60149139Y-52260047D01*
X60310047Y-52099139D01*
X60440568Y-51912734D01*
X60536739Y-51706496D01*
X60595635Y-51486692D01*
X60615468Y-51260000D01*
X60595635Y-51033308D01*
X60536739Y-50813504D01*
X60440568Y-50607266D01*
X60310047Y-50420861D01*
X60310045Y-50420858D01*
X60149141Y-50259954D01*
X59962734Y-50129432D01*
X59962728Y-50129429D01*
X59904725Y-50102382D01*
X59852285Y-50056210D01*
X59833133Y-49989017D01*
X59853348Y-49922135D01*
X59904725Y-49877618D01*
X59962734Y-49850568D01*
X60149139Y-49720047D01*
X60310047Y-49559139D01*
X60440568Y-49372734D01*
X60536739Y-49166496D01*
X60595635Y-48946692D01*
X60615468Y-48720000D01*
X60600869Y-48553137D01*
X60614635Y-48484639D01*
X60636713Y-48454653D01*
X64082952Y-45008416D01*
X64119805Y-44953261D01*
X64164048Y-44887047D01*
X64164050Y-44887043D01*
X64164575Y-44886255D01*
X64165084Y-44885495D01*
X64221658Y-44748913D01*
X64231096Y-44701462D01*
X64250500Y-44603920D01*
X64250500Y-42911500D01*
X64270185Y-42844461D01*
X64322989Y-42798706D01*
X64374500Y-42787500D01*
X70684627Y-42787500D01*
X70751666Y-42807185D01*
X70797421Y-42859989D01*
X70807365Y-42929147D01*
X70805186Y-42939768D01*
X70805364Y-42940000D01*
X71702988Y-42940000D01*
X71670075Y-42997007D01*
X71636000Y-43124174D01*
X71636000Y-43255826D01*
X71670075Y-43382993D01*
X71702988Y-43440000D01*
X70805364Y-43440000D01*
X70862567Y-43653486D01*
X70862570Y-43653492D01*
X70962399Y-43867578D01*
X71097894Y-44061082D01*
X71264917Y-44228105D01*
X71458421Y-44363600D01*
X71672507Y-44463429D01*
X71672516Y-44463433D01*
X71886000Y-44520634D01*
X71886000Y-43623012D01*
X71943007Y-43655925D01*
X72070174Y-43690000D01*
X72201826Y-43690000D01*
X72328993Y-43655925D01*
X72386000Y-43623012D01*
X72386000Y-44520633D01*
X72599483Y-44463433D01*
X72599492Y-44463429D01*
X72813578Y-44363600D01*
X73007082Y-44228105D01*
X73174105Y-44061082D01*
X73309600Y-43867578D01*
X73409429Y-43653492D01*
X73409432Y-43653486D01*
X73466636Y-43440000D01*
X72569012Y-43440000D01*
X72601925Y-43382993D01*
X72636000Y-43255826D01*
X72636000Y-43124174D01*
X72601925Y-42997007D01*
X72569012Y-42940000D01*
X73466636Y-42940000D01*
X73466635Y-42939999D01*
X73409432Y-42726513D01*
X73409429Y-42726507D01*
X73309600Y-42512422D01*
X73309599Y-42512420D01*
X73174113Y-42318926D01*
X73174108Y-42318920D01*
X73007078Y-42151890D01*
X72821405Y-42021879D01*
X72777780Y-41967302D01*
X72770588Y-41897804D01*
X72802110Y-41835449D01*
X72821406Y-41818730D01*
X73007401Y-41688495D01*
X73174495Y-41521401D01*
X73310035Y-41327830D01*
X73409903Y-41113663D01*
X73471063Y-40885408D01*
X73491659Y-40650000D01*
X73471063Y-40414592D01*
X73409903Y-40186337D01*
X73310035Y-39972171D01*
X73308118Y-39969432D01*
X73174494Y-39778597D01*
X73007402Y-39611506D01*
X73007396Y-39611501D01*
X72821842Y-39481575D01*
X72778217Y-39426998D01*
X72771023Y-39357500D01*
X72802546Y-39295145D01*
X72821842Y-39278425D01*
X72915661Y-39212732D01*
X73007401Y-39148495D01*
X73174495Y-38981401D01*
X73310035Y-38787830D01*
X73409903Y-38573663D01*
X73422962Y-38524924D01*
X73459324Y-38465267D01*
X73522170Y-38434736D01*
X73591546Y-38443030D01*
X73630417Y-38469338D01*
X73893181Y-38732101D01*
X73926666Y-38793424D01*
X73929500Y-38819782D01*
X73929500Y-48556217D01*
X73909815Y-48623256D01*
X73893181Y-48643898D01*
X72107897Y-50429181D01*
X72046574Y-50462666D01*
X72020216Y-50465500D01*
X71238129Y-50465500D01*
X71238123Y-50465501D01*
X71178516Y-50471908D01*
X71043671Y-50522202D01*
X71043664Y-50522206D01*
X70928455Y-50608452D01*
X70928452Y-50608455D01*
X70842206Y-50723664D01*
X70842202Y-50723671D01*
X70791908Y-50858517D01*
X70785501Y-50918116D01*
X70785500Y-50918135D01*
X70785500Y-52713870D01*
X70785501Y-52713876D01*
X70791908Y-52773483D01*
X70842202Y-52908328D01*
X70842206Y-52908335D01*
X70928452Y-53023544D01*
X70928455Y-53023547D01*
X71043664Y-53109793D01*
X71043671Y-53109797D01*
X71175081Y-53158810D01*
X71231015Y-53200681D01*
X71255432Y-53266145D01*
X71240580Y-53334418D01*
X71219430Y-53362673D01*
X71097503Y-53484600D01*
X70961965Y-53678169D01*
X70961964Y-53678171D01*
X70862098Y-53892335D01*
X70862094Y-53892344D01*
X70800938Y-54120586D01*
X70800936Y-54120596D01*
X70780341Y-54355999D01*
X70780341Y-54356000D01*
X70800936Y-54591403D01*
X70800938Y-54591413D01*
X70862094Y-54819655D01*
X70862096Y-54819659D01*
X70862097Y-54819663D01*
X70893500Y-54887007D01*
X70961965Y-55033830D01*
X70961967Y-55033834D01*
X71097501Y-55227395D01*
X71097506Y-55227402D01*
X71264597Y-55394493D01*
X71264603Y-55394498D01*
X71450594Y-55524730D01*
X71494219Y-55579307D01*
X71501413Y-55648805D01*
X71469890Y-55711160D01*
X71450595Y-55727880D01*
X71264922Y-55857890D01*
X71264920Y-55857891D01*
X71097891Y-56024920D01*
X71097886Y-56024926D01*
X70962400Y-56218420D01*
X70962399Y-56218422D01*
X70862570Y-56432507D01*
X70862567Y-56432513D01*
X70805364Y-56645999D01*
X70805364Y-56646000D01*
X71702988Y-56646000D01*
X71670075Y-56703007D01*
X71636000Y-56830174D01*
X71636000Y-56961826D01*
X71670075Y-57088993D01*
X71702988Y-57146000D01*
X70805364Y-57146000D01*
X70862567Y-57359486D01*
X70862570Y-57359492D01*
X70962399Y-57573578D01*
X71097894Y-57767082D01*
X71264917Y-57934105D01*
X71458421Y-58069600D01*
X71672507Y-58169429D01*
X71672516Y-58169433D01*
X71886000Y-58226634D01*
X71886000Y-57329012D01*
X71943007Y-57361925D01*
X72070174Y-57396000D01*
X72201826Y-57396000D01*
X72328993Y-57361925D01*
X72386000Y-57329012D01*
X72386000Y-58226633D01*
X72599483Y-58169433D01*
X72599492Y-58169429D01*
X72813578Y-58069600D01*
X73007082Y-57934105D01*
X73174105Y-57767082D01*
X73309600Y-57573578D01*
X73409429Y-57359492D01*
X73409432Y-57359486D01*
X73466636Y-57146000D01*
X72569012Y-57146000D01*
X72601925Y-57088993D01*
X72636000Y-56961826D01*
X72636000Y-56830174D01*
X72601925Y-56703007D01*
X72569012Y-56646000D01*
X73466636Y-56646000D01*
X73466635Y-56645999D01*
X73409432Y-56432513D01*
X73409429Y-56432507D01*
X73309600Y-56218422D01*
X73309599Y-56218420D01*
X73174113Y-56024926D01*
X73174108Y-56024920D01*
X73007078Y-55857890D01*
X72821405Y-55727879D01*
X72777780Y-55673302D01*
X72770588Y-55603804D01*
X72802110Y-55541449D01*
X72821406Y-55524730D01*
X73007401Y-55394495D01*
X73174495Y-55227401D01*
X73310035Y-55033830D01*
X73409903Y-54819663D01*
X73471063Y-54591408D01*
X73491659Y-54356000D01*
X73471063Y-54120592D01*
X73424626Y-53947285D01*
X73409905Y-53892344D01*
X73409904Y-53892343D01*
X73409903Y-53892337D01*
X73310035Y-53678171D01*
X73240241Y-53578495D01*
X73174496Y-53484600D01*
X73174495Y-53484599D01*
X73052567Y-53362671D01*
X73019084Y-53301351D01*
X73024068Y-53231659D01*
X73065939Y-53175725D01*
X73096915Y-53158810D01*
X73194851Y-53122282D01*
X73264541Y-53117299D01*
X73325864Y-53150784D01*
X73893181Y-53718101D01*
X73926666Y-53779424D01*
X73929500Y-53805782D01*
X73929500Y-60494217D01*
X73909815Y-60561256D01*
X73893181Y-60581898D01*
X73281777Y-61193302D01*
X73022221Y-61452858D01*
X73022218Y-61452861D01*
X72952538Y-61522540D01*
X72882859Y-61592219D01*
X72773371Y-61756080D01*
X72773364Y-61756093D01*
X72735863Y-61846632D01*
X72704625Y-61922048D01*
X72704624Y-61922052D01*
X72697948Y-61938167D01*
X72697947Y-61938171D01*
X72659500Y-62131454D01*
X72659500Y-63915500D01*
X72639815Y-63982539D01*
X72587011Y-64028294D01*
X72535501Y-64039500D01*
X72345792Y-64039500D01*
X72345776Y-64039501D01*
X72213586Y-64049904D01*
X72213579Y-64049905D01*
X71995321Y-64104902D01*
X71995318Y-64104903D01*
X71790377Y-64197991D01*
X71790367Y-64197997D01*
X71605354Y-64326174D01*
X71605342Y-64326184D01*
X71446184Y-64485342D01*
X71446174Y-64485354D01*
X71317997Y-64670367D01*
X71317991Y-64670377D01*
X71224903Y-64875318D01*
X71224902Y-64875321D01*
X71169905Y-65093579D01*
X71169904Y-65093586D01*
X71159500Y-65225777D01*
X71159500Y-66854208D01*
X71159501Y-66854223D01*
X71169904Y-66986413D01*
X71169905Y-66986420D01*
X71224902Y-67204678D01*
X71224903Y-67204681D01*
X71317991Y-67409622D01*
X71317997Y-67409632D01*
X71446174Y-67594645D01*
X71446178Y-67594650D01*
X71446181Y-67594654D01*
X71605346Y-67753819D01*
X71605350Y-67753822D01*
X71605354Y-67753825D01*
X71744603Y-67850297D01*
X71790374Y-67882007D01*
X71995317Y-67975096D01*
X71995321Y-67975097D01*
X72213579Y-68030094D01*
X72213581Y-68030094D01*
X72213588Y-68030096D01*
X72345783Y-68040500D01*
X74974216Y-68040499D01*
X75106412Y-68030096D01*
X75324683Y-67975096D01*
X75524219Y-67884463D01*
X75593398Y-67874660D01*
X75656894Y-67903815D01*
X75694548Y-67962670D01*
X75699500Y-67997362D01*
X75699500Y-70433187D01*
X75679815Y-70500226D01*
X75627011Y-70545981D01*
X75557853Y-70555925D01*
X75524219Y-70546086D01*
X75324519Y-70455377D01*
X75106332Y-70400400D01*
X74974190Y-70390000D01*
X72345817Y-70390000D01*
X72345804Y-70390001D01*
X72213666Y-70400400D01*
X72062135Y-70438582D01*
X73925871Y-72302318D01*
X73959356Y-72363641D01*
X73954372Y-72433333D01*
X73925871Y-72477680D01*
X72062134Y-74341417D01*
X72213658Y-74379598D01*
X72213665Y-74379599D01*
X72345809Y-74389999D01*
X74974182Y-74389999D01*
X74974197Y-74389998D01*
X75106332Y-74379599D01*
X75324516Y-74324622D01*
X75524218Y-74233913D01*
X75593397Y-74224110D01*
X75656893Y-74253265D01*
X75694548Y-74312119D01*
X75699500Y-74346812D01*
X75699500Y-78737293D01*
X75699382Y-78742702D01*
X75682310Y-79133723D01*
X75681367Y-79144500D01*
X75630634Y-79529848D01*
X75628756Y-79540501D01*
X75544628Y-79919978D01*
X75541828Y-79930427D01*
X75424949Y-80301120D01*
X75421249Y-80311285D01*
X75272507Y-80670381D01*
X75267935Y-80680185D01*
X75088465Y-81024942D01*
X75083057Y-81034310D01*
X74874213Y-81362130D01*
X74868008Y-81370991D01*
X74631394Y-81679353D01*
X74624440Y-81687640D01*
X74361853Y-81974204D01*
X74354204Y-81981853D01*
X74067640Y-82244440D01*
X74059353Y-82251394D01*
X73750991Y-82488008D01*
X73742130Y-82494213D01*
X73414310Y-82703057D01*
X73404942Y-82708465D01*
X73060185Y-82887935D01*
X73050381Y-82892507D01*
X72691285Y-83041249D01*
X72681120Y-83044949D01*
X72310427Y-83161828D01*
X72299978Y-83164628D01*
X71920501Y-83248756D01*
X71909848Y-83250634D01*
X71524500Y-83301367D01*
X71513723Y-83302310D01*
X71122703Y-83319382D01*
X71117294Y-83319500D01*
X33022706Y-83319500D01*
X33017297Y-83319382D01*
X32626276Y-83302310D01*
X32615501Y-83301367D01*
X32526792Y-83289688D01*
X32230151Y-83250634D01*
X32219498Y-83248756D01*
X31840021Y-83164628D01*
X31829572Y-83161828D01*
X31458879Y-83044949D01*
X31448714Y-83041249D01*
X31089618Y-82892507D01*
X31079814Y-82887935D01*
X30735057Y-82708465D01*
X30725689Y-82703057D01*
X30397869Y-82494213D01*
X30389008Y-82488008D01*
X30080646Y-82251394D01*
X30072359Y-82244440D01*
X29785795Y-81981853D01*
X29778146Y-81974204D01*
X29515559Y-81687640D01*
X29508605Y-81679353D01*
X29271991Y-81370991D01*
X29265786Y-81362130D01*
X29233560Y-81311546D01*
X29056941Y-81034309D01*
X29051534Y-81024942D01*
X28872064Y-80680185D01*
X28867492Y-80670381D01*
X28856979Y-80645000D01*
X28718744Y-80311270D01*
X28715055Y-80301135D01*
X28598168Y-79930416D01*
X28595374Y-79919990D01*
X28511241Y-79540493D01*
X28509365Y-79529848D01*
X28458630Y-79144477D01*
X28457690Y-79133742D01*
X28440618Y-78742701D01*
X28440500Y-78737293D01*
X28440500Y-78618711D01*
X31169500Y-78618711D01*
X31169500Y-78618712D01*
X31169500Y-78861288D01*
X31201162Y-79101789D01*
X31232554Y-79218944D01*
X31263947Y-79336104D01*
X31353652Y-79552671D01*
X31356776Y-79560212D01*
X31478064Y-79770289D01*
X31478066Y-79770292D01*
X31478067Y-79770293D01*
X31625732Y-79962735D01*
X31625739Y-79962743D01*
X31797256Y-80134260D01*
X31797263Y-80134266D01*
X31858829Y-80181507D01*
X31989711Y-80281936D01*
X32199788Y-80403224D01*
X32423900Y-80496054D01*
X32658211Y-80558838D01*
X32812681Y-80579174D01*
X32898711Y-80590500D01*
X32898712Y-80590500D01*
X33141289Y-80590500D01*
X33189388Y-80584167D01*
X33381789Y-80558838D01*
X33616100Y-80496054D01*
X33840212Y-80403224D01*
X34050289Y-80281936D01*
X34242738Y-80134265D01*
X34414265Y-79962738D01*
X34414268Y-79962735D01*
X34477552Y-79880259D01*
X34561936Y-79770289D01*
X34575304Y-79747135D01*
X46919500Y-79747135D01*
X46919500Y-81542870D01*
X46919501Y-81542876D01*
X46925908Y-81602483D01*
X46976202Y-81737328D01*
X46976206Y-81737335D01*
X47062452Y-81852544D01*
X47062455Y-81852547D01*
X47177664Y-81938793D01*
X47177671Y-81938797D01*
X47312517Y-81989091D01*
X47312516Y-81989091D01*
X47319444Y-81989835D01*
X47372127Y-81995500D01*
X49167872Y-81995499D01*
X49227483Y-81989091D01*
X49362331Y-81938796D01*
X49477546Y-81852546D01*
X49563796Y-81737331D01*
X49612810Y-81605916D01*
X49654681Y-81549984D01*
X49720145Y-81525566D01*
X49788418Y-81540417D01*
X49816673Y-81561569D01*
X49938599Y-81683495D01*
X50035384Y-81751265D01*
X50132165Y-81819032D01*
X50132167Y-81819033D01*
X50132170Y-81819035D01*
X50346337Y-81918903D01*
X50574592Y-81980063D01*
X50751034Y-81995500D01*
X50809999Y-82000659D01*
X50810000Y-82000659D01*
X50810001Y-82000659D01*
X50868966Y-81995500D01*
X51045408Y-81980063D01*
X51273663Y-81918903D01*
X51487830Y-81819035D01*
X51681401Y-81683495D01*
X51848495Y-81516401D01*
X51978425Y-81330842D01*
X52033002Y-81287217D01*
X52102500Y-81280023D01*
X52164855Y-81311546D01*
X52181575Y-81330842D01*
X52311281Y-81516082D01*
X52311505Y-81516401D01*
X52478599Y-81683495D01*
X52575384Y-81751265D01*
X52672165Y-81819032D01*
X52672167Y-81819033D01*
X52672170Y-81819035D01*
X52886337Y-81918903D01*
X53114592Y-81980063D01*
X53291034Y-81995500D01*
X53349999Y-82000659D01*
X53350000Y-82000659D01*
X53350001Y-82000659D01*
X53408966Y-81995500D01*
X53585408Y-81980063D01*
X53813663Y-81918903D01*
X54027830Y-81819035D01*
X54221401Y-81683495D01*
X54388495Y-81516401D01*
X54518730Y-81330405D01*
X54573307Y-81286781D01*
X54642805Y-81279587D01*
X54705160Y-81311110D01*
X54721879Y-81330405D01*
X54851890Y-81516078D01*
X55018917Y-81683105D01*
X55212421Y-81818600D01*
X55426507Y-81918429D01*
X55426516Y-81918433D01*
X55640000Y-81975634D01*
X55640000Y-81078012D01*
X55697007Y-81110925D01*
X55824174Y-81145000D01*
X55955826Y-81145000D01*
X56082993Y-81110925D01*
X56140000Y-81078012D01*
X56140000Y-81975633D01*
X56353483Y-81918433D01*
X56353492Y-81918429D01*
X56567578Y-81818600D01*
X56761082Y-81683105D01*
X56928105Y-81516082D01*
X57063600Y-81322578D01*
X57163429Y-81108492D01*
X57163432Y-81108486D01*
X57220636Y-80895000D01*
X56323012Y-80895000D01*
X56355925Y-80837993D01*
X56390000Y-80710826D01*
X56390000Y-80579174D01*
X56355925Y-80452007D01*
X56323012Y-80395000D01*
X57220636Y-80395000D01*
X57220635Y-80394999D01*
X57163432Y-80181513D01*
X57163429Y-80181507D01*
X57063600Y-79967422D01*
X57063599Y-79967420D01*
X56928113Y-79773926D01*
X56928108Y-79773920D01*
X56761082Y-79606894D01*
X56567578Y-79471399D01*
X56353492Y-79371570D01*
X56353486Y-79371567D01*
X56140000Y-79314364D01*
X56140000Y-80211988D01*
X56082993Y-80179075D01*
X55955826Y-80145000D01*
X55824174Y-80145000D01*
X55697007Y-80179075D01*
X55640000Y-80211988D01*
X55640000Y-79314364D01*
X55639999Y-79314364D01*
X55426513Y-79371567D01*
X55426507Y-79371570D01*
X55212422Y-79471399D01*
X55212420Y-79471400D01*
X55018926Y-79606886D01*
X55018920Y-79606891D01*
X54851891Y-79773920D01*
X54851890Y-79773922D01*
X54721880Y-79959595D01*
X54667303Y-80003219D01*
X54597804Y-80010412D01*
X54535450Y-79978890D01*
X54518730Y-79959594D01*
X54388494Y-79773597D01*
X54221402Y-79606506D01*
X54221395Y-79606501D01*
X54027834Y-79470967D01*
X54027830Y-79470965D01*
X54027828Y-79470964D01*
X53813663Y-79371097D01*
X53813659Y-79371096D01*
X53813655Y-79371094D01*
X53585413Y-79309938D01*
X53585403Y-79309936D01*
X53350001Y-79289341D01*
X53349999Y-79289341D01*
X53114596Y-79309936D01*
X53114586Y-79309938D01*
X52886344Y-79371094D01*
X52886335Y-79371098D01*
X52672171Y-79470964D01*
X52672169Y-79470965D01*
X52478597Y-79606505D01*
X52311505Y-79773597D01*
X52181575Y-79959158D01*
X52126998Y-80002783D01*
X52057500Y-80009977D01*
X51995145Y-79978454D01*
X51978425Y-79959158D01*
X51848494Y-79773597D01*
X51681402Y-79606506D01*
X51681395Y-79606501D01*
X51487834Y-79470967D01*
X51487830Y-79470965D01*
X51487828Y-79470964D01*
X51273663Y-79371097D01*
X51273659Y-79371096D01*
X51273655Y-79371094D01*
X51045413Y-79309938D01*
X51045403Y-79309936D01*
X50810001Y-79289341D01*
X50809999Y-79289341D01*
X50574596Y-79309936D01*
X50574586Y-79309938D01*
X50346344Y-79371094D01*
X50346335Y-79371098D01*
X50132171Y-79470964D01*
X50132169Y-79470965D01*
X49938600Y-79606503D01*
X49816673Y-79728430D01*
X49755350Y-79761914D01*
X49685658Y-79756930D01*
X49629725Y-79715058D01*
X49612810Y-79684081D01*
X49563797Y-79552671D01*
X49563793Y-79552664D01*
X49477547Y-79437455D01*
X49477544Y-79437452D01*
X49362335Y-79351206D01*
X49362328Y-79351202D01*
X49227482Y-79300908D01*
X49227483Y-79300908D01*
X49167883Y-79294501D01*
X49167881Y-79294500D01*
X49167873Y-79294500D01*
X49167864Y-79294500D01*
X47372129Y-79294500D01*
X47372123Y-79294501D01*
X47312516Y-79300908D01*
X47177671Y-79351202D01*
X47177664Y-79351206D01*
X47062455Y-79437452D01*
X47062452Y-79437455D01*
X46976206Y-79552664D01*
X46976202Y-79552671D01*
X46925908Y-79687517D01*
X46919501Y-79747116D01*
X46919500Y-79747135D01*
X34575304Y-79747135D01*
X34683224Y-79560212D01*
X34776054Y-79336100D01*
X34838838Y-79101789D01*
X34870500Y-78861288D01*
X34870500Y-78618712D01*
X34870500Y-78618711D01*
X69269500Y-78618711D01*
X69269500Y-78618712D01*
X69269500Y-78861288D01*
X69301162Y-79101789D01*
X69332554Y-79218944D01*
X69363947Y-79336104D01*
X69453652Y-79552671D01*
X69456776Y-79560212D01*
X69578064Y-79770289D01*
X69578066Y-79770292D01*
X69578067Y-79770293D01*
X69725732Y-79962735D01*
X69725739Y-79962743D01*
X69897256Y-80134260D01*
X69897263Y-80134266D01*
X69958829Y-80181507D01*
X70089711Y-80281936D01*
X70299788Y-80403224D01*
X70523900Y-80496054D01*
X70758211Y-80558838D01*
X70912681Y-80579174D01*
X70998711Y-80590500D01*
X70998712Y-80590500D01*
X71241289Y-80590500D01*
X71289388Y-80584167D01*
X71481789Y-80558838D01*
X71716100Y-80496054D01*
X71940212Y-80403224D01*
X72150289Y-80281936D01*
X72342738Y-80134265D01*
X72514265Y-79962738D01*
X72514268Y-79962735D01*
X72577552Y-79880259D01*
X72661936Y-79770289D01*
X72783224Y-79560212D01*
X72876054Y-79336100D01*
X72938838Y-79101789D01*
X72970500Y-78861288D01*
X72970500Y-78618712D01*
X72938838Y-78378211D01*
X72876054Y-78143900D01*
X72783224Y-77919788D01*
X72661936Y-77709711D01*
X72514265Y-77517262D01*
X72514260Y-77517256D01*
X72342743Y-77345739D01*
X72342736Y-77345733D01*
X72150293Y-77198067D01*
X72150292Y-77198066D01*
X72150289Y-77198064D01*
X71940212Y-77076776D01*
X71940205Y-77076773D01*
X71716104Y-76983947D01*
X71481785Y-76921161D01*
X71241289Y-76889500D01*
X71241288Y-76889500D01*
X70998712Y-76889500D01*
X70998711Y-76889500D01*
X70758214Y-76921161D01*
X70523895Y-76983947D01*
X70299794Y-77076773D01*
X70299785Y-77076777D01*
X70089706Y-77198067D01*
X69897263Y-77345733D01*
X69897256Y-77345739D01*
X69725739Y-77517256D01*
X69725733Y-77517263D01*
X69578067Y-77709706D01*
X69456777Y-77919785D01*
X69456773Y-77919794D01*
X69363947Y-78143895D01*
X69301161Y-78378214D01*
X69269500Y-78618711D01*
X34870500Y-78618711D01*
X34838838Y-78378211D01*
X34776054Y-78143900D01*
X34683224Y-77919788D01*
X34561936Y-77709711D01*
X34414265Y-77517262D01*
X34414260Y-77517256D01*
X34242743Y-77345739D01*
X34242736Y-77345733D01*
X34050293Y-77198067D01*
X34050292Y-77198066D01*
X34050289Y-77198064D01*
X33840212Y-77076776D01*
X33840205Y-77076773D01*
X33616104Y-76983947D01*
X33381785Y-76921161D01*
X33141289Y-76889500D01*
X33141288Y-76889500D01*
X32898712Y-76889500D01*
X32898711Y-76889500D01*
X32658214Y-76921161D01*
X32423895Y-76983947D01*
X32199794Y-77076773D01*
X32199785Y-77076777D01*
X31989706Y-77198067D01*
X31797263Y-77345733D01*
X31797256Y-77345739D01*
X31625739Y-77517256D01*
X31625733Y-77517263D01*
X31478067Y-77709706D01*
X31356777Y-77919785D01*
X31356773Y-77919794D01*
X31263947Y-78143895D01*
X31201161Y-78378214D01*
X31169500Y-78618711D01*
X28440500Y-78618711D01*
X28440500Y-74346812D01*
X28460185Y-74279773D01*
X28512989Y-74234018D01*
X28582147Y-74224074D01*
X28615782Y-74233913D01*
X28815483Y-74324622D01*
X29033667Y-74379599D01*
X29165809Y-74389999D01*
X31794182Y-74389999D01*
X31794197Y-74389998D01*
X31926334Y-74379599D01*
X31926338Y-74379598D01*
X32077864Y-74341417D01*
X30214128Y-72477681D01*
X30180643Y-72416358D01*
X30182528Y-72389999D01*
X30833553Y-72389999D01*
X30833553Y-72390000D01*
X32540658Y-74097106D01*
X32693436Y-73944329D01*
X32821568Y-73759380D01*
X32821571Y-73759374D01*
X32914622Y-73554519D01*
X32969599Y-73336332D01*
X32979999Y-73204196D01*
X32979999Y-71575817D01*
X32979998Y-71575803D01*
X71160000Y-71575803D01*
X71160000Y-73204182D01*
X71160001Y-73204197D01*
X71170400Y-73336332D01*
X71225377Y-73554519D01*
X71318428Y-73759374D01*
X71318431Y-73759380D01*
X71446559Y-73944323D01*
X71446569Y-73944335D01*
X71599340Y-74097106D01*
X73306447Y-72390000D01*
X71599340Y-70682893D01*
X71446563Y-70835670D01*
X71318431Y-71020619D01*
X71318428Y-71020625D01*
X71225377Y-71225480D01*
X71170400Y-71443667D01*
X71160000Y-71575803D01*
X32979998Y-71575803D01*
X32979998Y-71575802D01*
X32969599Y-71443667D01*
X32914622Y-71225480D01*
X32821571Y-71020625D01*
X32821568Y-71020619D01*
X32693440Y-70835676D01*
X32693430Y-70835664D01*
X32540659Y-70682893D01*
X32540658Y-70682893D01*
X30833553Y-72389999D01*
X30182528Y-72389999D01*
X30185627Y-72346666D01*
X30214128Y-72302319D01*
X30480000Y-72036447D01*
X32077864Y-70438582D01*
X31926332Y-70400400D01*
X31794190Y-70390000D01*
X29165817Y-70390000D01*
X29165802Y-70390001D01*
X29033667Y-70400400D01*
X28815480Y-70455377D01*
X28615781Y-70546086D01*
X28546603Y-70555889D01*
X28483106Y-70526734D01*
X28445452Y-70467879D01*
X28440500Y-70433187D01*
X28440500Y-68833996D01*
X49994435Y-68833996D01*
X49994435Y-68834003D01*
X50014630Y-69013249D01*
X50014631Y-69013254D01*
X50074211Y-69183523D01*
X50126820Y-69267249D01*
X50170184Y-69336262D01*
X50297738Y-69463816D01*
X50450478Y-69559789D01*
X50450485Y-69559791D01*
X50456752Y-69562810D01*
X50455867Y-69564646D01*
X50491938Y-69587305D01*
X50575584Y-69670951D01*
X50575585Y-69670952D01*
X50698498Y-69753080D01*
X50698511Y-69753087D01*
X50835082Y-69809656D01*
X50835087Y-69809658D01*
X50835091Y-69809658D01*
X50835092Y-69809659D01*
X50980079Y-69838500D01*
X50980082Y-69838500D01*
X51127917Y-69838500D01*
X60152028Y-69838500D01*
X60192983Y-69845458D01*
X60272745Y-69873368D01*
X60272750Y-69873369D01*
X60451996Y-69893565D01*
X60452000Y-69893565D01*
X60452004Y-69893565D01*
X60631249Y-69873369D01*
X60631252Y-69873368D01*
X60631255Y-69873368D01*
X60801522Y-69813789D01*
X60954262Y-69717816D01*
X61081816Y-69590262D01*
X61177789Y-69437522D01*
X61237368Y-69267255D01*
X61237369Y-69267249D01*
X61257565Y-69088003D01*
X61257565Y-69087996D01*
X61237369Y-68908750D01*
X61237368Y-68908745D01*
X61211215Y-68834003D01*
X61177789Y-68738478D01*
X61081816Y-68585738D01*
X60954262Y-68458184D01*
X60801523Y-68362211D01*
X60631254Y-68302631D01*
X60631249Y-68302630D01*
X60452004Y-68282435D01*
X60451996Y-68282435D01*
X60272750Y-68302630D01*
X60272745Y-68302631D01*
X60192983Y-68330542D01*
X60152028Y-68337500D01*
X51486941Y-68337500D01*
X51419902Y-68317815D01*
X51399260Y-68301182D01*
X51380513Y-68282435D01*
X51302262Y-68204184D01*
X51257961Y-68176348D01*
X51149523Y-68108211D01*
X50979254Y-68048631D01*
X50979249Y-68048630D01*
X50800004Y-68028435D01*
X50799996Y-68028435D01*
X50620750Y-68048630D01*
X50620745Y-68048631D01*
X50450476Y-68108211D01*
X50297737Y-68204184D01*
X50170184Y-68331737D01*
X50074211Y-68484476D01*
X50014631Y-68654745D01*
X50014630Y-68654750D01*
X49994435Y-68833996D01*
X28440500Y-68833996D01*
X28440500Y-67997362D01*
X28460185Y-67930323D01*
X28512989Y-67884568D01*
X28582147Y-67874624D01*
X28615781Y-67884463D01*
X28815317Y-67975096D01*
X28815321Y-67975097D01*
X29033579Y-68030094D01*
X29033581Y-68030094D01*
X29033588Y-68030096D01*
X29165783Y-68040500D01*
X31794216Y-68040499D01*
X31926412Y-68030096D01*
X32144683Y-67975096D01*
X32349626Y-67882007D01*
X32534654Y-67753819D01*
X32693819Y-67594654D01*
X32822007Y-67409626D01*
X32915096Y-67204683D01*
X32970096Y-66986412D01*
X32980500Y-66854217D01*
X32980499Y-65225784D01*
X32970096Y-65093588D01*
X32961372Y-65058966D01*
X32964079Y-64989149D01*
X32993930Y-64940988D01*
X38877139Y-59057782D01*
X38914129Y-59002421D01*
X38986631Y-58893916D01*
X38986636Y-58893906D01*
X39062049Y-58711839D01*
X39062051Y-58711835D01*
X39100500Y-58518541D01*
X39100500Y-35461459D01*
X39100500Y-35461456D01*
X39062052Y-35268170D01*
X39062051Y-35268169D01*
X39062051Y-35268165D01*
X39025888Y-35180858D01*
X38986635Y-35086092D01*
X38986628Y-35086079D01*
X38877140Y-34922219D01*
X38817026Y-34862105D01*
X38737782Y-34782861D01*
X38737781Y-34782860D01*
X37201452Y-33246531D01*
X37167967Y-33185208D01*
X37172951Y-33115516D01*
X37211491Y-33064033D01*
X37211275Y-33063817D01*
X37212780Y-33062311D01*
X37214820Y-33059586D01*
X37217546Y-33057546D01*
X37303796Y-32942331D01*
X37354091Y-32807483D01*
X37360500Y-32747873D01*
X37360499Y-30052128D01*
X37354091Y-29992517D01*
X37343326Y-29963655D01*
X37303797Y-29857671D01*
X37303793Y-29857664D01*
X37217547Y-29742455D01*
X37217544Y-29742452D01*
X37102335Y-29656206D01*
X37102328Y-29656202D01*
X36967482Y-29605908D01*
X36967483Y-29605908D01*
X36907883Y-29599501D01*
X36907881Y-29599500D01*
X36907873Y-29599500D01*
X36907865Y-29599500D01*
X36774782Y-29599500D01*
X36707743Y-29579815D01*
X36661988Y-29527011D01*
X36652044Y-29457853D01*
X36681069Y-29394297D01*
X36687101Y-29387819D01*
X37448841Y-28626079D01*
X38327223Y-27747696D01*
X38388544Y-27714213D01*
X38458236Y-27719197D01*
X38514169Y-27761069D01*
X38538586Y-27826533D01*
X38534448Y-27862996D01*
X38535698Y-27863282D01*
X38474616Y-28130898D01*
X38454451Y-28399995D01*
X38454451Y-28400004D01*
X38474616Y-28669101D01*
X38534664Y-28932188D01*
X38534666Y-28932195D01*
X38625147Y-29162736D01*
X38633257Y-29183398D01*
X38768185Y-29417102D01*
X38819889Y-29481936D01*
X38936442Y-29628089D01*
X39077357Y-29758838D01*
X39134259Y-29811635D01*
X39357226Y-29963651D01*
X39600359Y-30080738D01*
X39858228Y-30160280D01*
X39858229Y-30160280D01*
X39858232Y-30160281D01*
X40125063Y-30200499D01*
X40125068Y-30200499D01*
X40125071Y-30200500D01*
X40125072Y-30200500D01*
X40394928Y-30200500D01*
X40394929Y-30200500D01*
X40394936Y-30200499D01*
X40661767Y-30160281D01*
X40661768Y-30160280D01*
X40661772Y-30160280D01*
X40919641Y-30080738D01*
X41162775Y-29963651D01*
X41385741Y-29811635D01*
X41583561Y-29628085D01*
X41751815Y-29417102D01*
X41886743Y-29183398D01*
X41985334Y-28932195D01*
X42045383Y-28669103D01*
X42055350Y-28536100D01*
X42065549Y-28400004D01*
X42065549Y-28399995D01*
X42045383Y-28130898D01*
X42029495Y-28061288D01*
X41985334Y-27867805D01*
X41886743Y-27616602D01*
X41751815Y-27382898D01*
X41583561Y-27171915D01*
X41583560Y-27171914D01*
X41583557Y-27171910D01*
X41385741Y-26988365D01*
X41162775Y-26836349D01*
X41162771Y-26836347D01*
X41162768Y-26836345D01*
X41162767Y-26836344D01*
X40954855Y-26736220D01*
X40902995Y-26689398D01*
X40884682Y-26621971D01*
X40905730Y-26555347D01*
X40959456Y-26510678D01*
X41008656Y-26500500D01*
X60685218Y-26500500D01*
X60752257Y-26520185D01*
G37*
%TD.AperFunction*%
%TA.AperFunction,Conductor*%
G36*
X35426459Y-23380185D02*
G01*
X35472214Y-23432989D01*
X35482158Y-23502147D01*
X35453133Y-23565703D01*
X35394355Y-23603477D01*
X35377901Y-23607115D01*
X35158343Y-23640207D01*
X35158337Y-23640209D01*
X34900538Y-23719730D01*
X34657485Y-23836778D01*
X34657476Y-23836783D01*
X34474848Y-23961296D01*
X35197705Y-24684153D01*
X35181058Y-24691049D01*
X35050030Y-24778599D01*
X34938599Y-24890030D01*
X34851049Y-25021058D01*
X34844153Y-25037706D01*
X34122295Y-24315848D01*
X34068600Y-24383180D01*
X33933709Y-24616818D01*
X33835148Y-24867947D01*
X33835142Y-24867966D01*
X33775113Y-25130971D01*
X33775113Y-25130973D01*
X33754953Y-25399995D01*
X33754953Y-25400004D01*
X33775113Y-25669026D01*
X33775113Y-25669028D01*
X33835142Y-25932033D01*
X33835148Y-25932052D01*
X33933709Y-26183181D01*
X33933708Y-26183181D01*
X34068602Y-26416822D01*
X34122294Y-26484151D01*
X34122295Y-26484151D01*
X34844153Y-25762293D01*
X34851049Y-25778942D01*
X34938599Y-25909970D01*
X35050030Y-26021401D01*
X35181058Y-26108951D01*
X35197705Y-26115846D01*
X34474848Y-26838702D01*
X34657483Y-26963220D01*
X34657485Y-26963221D01*
X34900539Y-27080269D01*
X34900537Y-27080269D01*
X35158337Y-27159790D01*
X35158343Y-27159792D01*
X35425101Y-27199999D01*
X35425110Y-27200000D01*
X35694890Y-27200000D01*
X35694893Y-27199999D01*
X35734603Y-27194014D01*
X35803828Y-27203486D01*
X35856942Y-27248880D01*
X35877083Y-27315784D01*
X35857856Y-27382956D01*
X35840767Y-27404310D01*
X35114182Y-28130897D01*
X34922221Y-28322858D01*
X34922218Y-28322861D01*
X34852538Y-28392540D01*
X34782859Y-28462219D01*
X34673371Y-28626079D01*
X34673364Y-28626092D01*
X34597950Y-28808160D01*
X34597947Y-28808170D01*
X34559500Y-29001456D01*
X34559500Y-29475500D01*
X34539815Y-29542539D01*
X34487011Y-29588294D01*
X34435501Y-29599500D01*
X34212130Y-29599500D01*
X34212123Y-29599501D01*
X34152516Y-29605908D01*
X34017671Y-29656202D01*
X34017664Y-29656206D01*
X33902455Y-29742452D01*
X33902452Y-29742455D01*
X33816206Y-29857664D01*
X33816202Y-29857671D01*
X33765908Y-29992517D01*
X33759501Y-30052116D01*
X33759501Y-30052123D01*
X33759500Y-30052135D01*
X33759500Y-32747870D01*
X33759501Y-32747876D01*
X33765908Y-32807483D01*
X33816202Y-32942328D01*
X33816206Y-32942335D01*
X33902452Y-33057544D01*
X33902455Y-33057547D01*
X34017664Y-33143793D01*
X34017671Y-33143797D01*
X34020299Y-33144777D01*
X34152517Y-33194091D01*
X34212127Y-33200500D01*
X34474038Y-33200499D01*
X34541077Y-33220183D01*
X34586832Y-33272987D01*
X34595655Y-33300304D01*
X34597948Y-33311833D01*
X34597950Y-33311839D01*
X34673364Y-33493907D01*
X34673371Y-33493920D01*
X34782859Y-33657780D01*
X34782860Y-33657781D01*
X34782861Y-33657782D01*
X34922218Y-33797139D01*
X34922219Y-33797139D01*
X34929286Y-33804206D01*
X34929285Y-33804206D01*
X34929289Y-33804209D01*
X37063181Y-35938101D01*
X37096666Y-35999424D01*
X37099500Y-36025782D01*
X37099500Y-57954217D01*
X37079815Y-58021256D01*
X37063181Y-58041898D01*
X31101897Y-64003181D01*
X31040574Y-64036666D01*
X31014216Y-64039500D01*
X29165791Y-64039500D01*
X29165776Y-64039501D01*
X29033586Y-64049904D01*
X29033579Y-64049905D01*
X28815321Y-64104902D01*
X28815318Y-64104903D01*
X28615781Y-64195537D01*
X28546602Y-64205340D01*
X28483106Y-64176185D01*
X28445452Y-64117330D01*
X28440500Y-64082638D01*
X28440500Y-52539999D01*
X29644341Y-52539999D01*
X29644341Y-52540000D01*
X29664936Y-52775403D01*
X29664938Y-52775413D01*
X29726094Y-53003655D01*
X29726096Y-53003659D01*
X29726097Y-53003663D01*
X29799041Y-53160091D01*
X29825965Y-53217830D01*
X29825967Y-53217834D01*
X29961501Y-53411395D01*
X29961506Y-53411402D01*
X30128597Y-53578493D01*
X30128603Y-53578498D01*
X30314594Y-53708730D01*
X30358219Y-53763307D01*
X30365413Y-53832805D01*
X30333890Y-53895160D01*
X30314595Y-53911880D01*
X30128922Y-54041890D01*
X30128920Y-54041891D01*
X29961891Y-54208920D01*
X29961886Y-54208926D01*
X29826400Y-54402420D01*
X29826399Y-54402422D01*
X29726570Y-54616507D01*
X29726567Y-54616513D01*
X29669364Y-54829999D01*
X29669364Y-54830000D01*
X30566988Y-54830000D01*
X30534075Y-54887007D01*
X30500000Y-55014174D01*
X30500000Y-55145826D01*
X30534075Y-55272993D01*
X30566988Y-55330000D01*
X29669364Y-55330000D01*
X29726567Y-55543486D01*
X29726570Y-55543492D01*
X29826399Y-55757578D01*
X29961894Y-55951082D01*
X30128917Y-56118105D01*
X30322421Y-56253600D01*
X30536507Y-56353429D01*
X30536516Y-56353433D01*
X30750000Y-56410634D01*
X30750000Y-55513012D01*
X30807007Y-55545925D01*
X30934174Y-55580000D01*
X31065826Y-55580000D01*
X31192993Y-55545925D01*
X31250000Y-55513012D01*
X31250000Y-56410633D01*
X31463483Y-56353433D01*
X31463492Y-56353429D01*
X31677578Y-56253600D01*
X31871082Y-56118105D01*
X32038105Y-55951082D01*
X32173600Y-55757578D01*
X32273429Y-55543492D01*
X32273432Y-55543486D01*
X32330636Y-55330000D01*
X31433012Y-55330000D01*
X31465925Y-55272993D01*
X31500000Y-55145826D01*
X31500000Y-55014174D01*
X31465925Y-54887007D01*
X31433012Y-54830000D01*
X32330636Y-54830000D01*
X32330635Y-54829999D01*
X32273432Y-54616513D01*
X32273429Y-54616507D01*
X32173600Y-54402422D01*
X32173599Y-54402420D01*
X32038113Y-54208926D01*
X32038108Y-54208920D01*
X31871078Y-54041890D01*
X31685405Y-53911879D01*
X31641780Y-53857302D01*
X31634588Y-53787804D01*
X31666110Y-53725449D01*
X31685406Y-53708730D01*
X31729049Y-53678171D01*
X31871401Y-53578495D01*
X32038495Y-53411401D01*
X32174035Y-53217830D01*
X32273903Y-53003663D01*
X32335063Y-52775408D01*
X32355659Y-52540000D01*
X32335063Y-52304592D01*
X32273903Y-52076337D01*
X32174035Y-51862171D01*
X32065031Y-51706497D01*
X32038496Y-51668600D01*
X32038495Y-51668599D01*
X31916567Y-51546671D01*
X31883084Y-51485351D01*
X31888068Y-51415659D01*
X31929939Y-51359725D01*
X31960915Y-51342810D01*
X32092331Y-51293796D01*
X32207546Y-51207546D01*
X32293796Y-51092331D01*
X32344091Y-50957483D01*
X32350500Y-50897873D01*
X32350499Y-49102128D01*
X32344091Y-49042517D01*
X32308352Y-48946697D01*
X32293797Y-48907671D01*
X32293793Y-48907664D01*
X32207547Y-48792455D01*
X32207544Y-48792452D01*
X32092335Y-48706206D01*
X32092328Y-48706202D01*
X31957482Y-48655908D01*
X31957483Y-48655908D01*
X31897883Y-48649501D01*
X31897881Y-48649500D01*
X31897873Y-48649500D01*
X31897864Y-48649500D01*
X30102129Y-48649500D01*
X30102123Y-48649501D01*
X30042516Y-48655908D01*
X29907671Y-48706202D01*
X29907664Y-48706206D01*
X29792455Y-48792452D01*
X29792452Y-48792455D01*
X29706206Y-48907664D01*
X29706202Y-48907671D01*
X29655908Y-49042517D01*
X29649501Y-49102116D01*
X29649501Y-49102123D01*
X29649500Y-49102135D01*
X29649500Y-50897870D01*
X29649501Y-50897876D01*
X29655908Y-50957483D01*
X29706202Y-51092328D01*
X29706206Y-51092335D01*
X29792452Y-51207544D01*
X29792455Y-51207547D01*
X29907664Y-51293793D01*
X29907671Y-51293797D01*
X30039081Y-51342810D01*
X30095015Y-51384681D01*
X30119432Y-51450145D01*
X30104580Y-51518418D01*
X30083430Y-51546673D01*
X29961503Y-51668600D01*
X29825965Y-51862169D01*
X29825964Y-51862171D01*
X29726098Y-52076335D01*
X29726094Y-52076344D01*
X29664938Y-52304586D01*
X29664936Y-52304596D01*
X29644341Y-52539999D01*
X28440500Y-52539999D01*
X28440500Y-40518711D01*
X31169500Y-40518711D01*
X31169500Y-40761288D01*
X31201161Y-41001785D01*
X31263947Y-41236104D01*
X31330444Y-41396641D01*
X31356776Y-41460212D01*
X31478064Y-41670289D01*
X31478066Y-41670292D01*
X31478067Y-41670293D01*
X31625733Y-41862736D01*
X31625739Y-41862743D01*
X31797256Y-42034260D01*
X31797262Y-42034265D01*
X31989711Y-42181936D01*
X32199788Y-42303224D01*
X32423900Y-42396054D01*
X32658211Y-42458838D01*
X32837049Y-42482382D01*
X32898711Y-42490500D01*
X32898712Y-42490500D01*
X33141289Y-42490500D01*
X33202951Y-42482382D01*
X33381789Y-42458838D01*
X33616100Y-42396054D01*
X33840212Y-42303224D01*
X34050289Y-42181936D01*
X34242738Y-42034265D01*
X34414265Y-41862738D01*
X34561936Y-41670289D01*
X34683224Y-41460212D01*
X34776054Y-41236100D01*
X34838838Y-41001789D01*
X34870500Y-40761288D01*
X34870500Y-40518712D01*
X34870430Y-40518184D01*
X34856793Y-40414596D01*
X34838838Y-40278211D01*
X34776054Y-40043900D01*
X34683224Y-39819788D01*
X34561936Y-39609711D01*
X34414265Y-39417262D01*
X34414260Y-39417256D01*
X34242743Y-39245739D01*
X34242736Y-39245733D01*
X34050293Y-39098067D01*
X34050292Y-39098066D01*
X34050289Y-39098064D01*
X33878661Y-38998974D01*
X33840214Y-38976777D01*
X33840205Y-38976773D01*
X33616104Y-38883947D01*
X33381785Y-38821161D01*
X33141289Y-38789500D01*
X33141288Y-38789500D01*
X32898712Y-38789500D01*
X32898711Y-38789500D01*
X32658214Y-38821161D01*
X32423895Y-38883947D01*
X32199794Y-38976773D01*
X32199785Y-38976777D01*
X31989706Y-39098067D01*
X31797263Y-39245733D01*
X31797256Y-39245739D01*
X31625739Y-39417256D01*
X31625733Y-39417263D01*
X31478067Y-39609706D01*
X31356777Y-39819785D01*
X31356773Y-39819794D01*
X31263947Y-40043895D01*
X31201161Y-40278214D01*
X31169500Y-40518711D01*
X28440500Y-40518711D01*
X28440500Y-27942706D01*
X28440618Y-27937298D01*
X28443652Y-27867804D01*
X28457690Y-27546255D01*
X28458629Y-27535524D01*
X28509367Y-27150137D01*
X28511240Y-27139510D01*
X28595375Y-26760004D01*
X28598166Y-26749589D01*
X28715057Y-26378857D01*
X28718741Y-26368736D01*
X28867498Y-26009603D01*
X28872056Y-25999829D01*
X29051540Y-25655045D01*
X29056935Y-25645700D01*
X29265793Y-25317858D01*
X29271983Y-25309018D01*
X29508612Y-25000637D01*
X29515550Y-24992368D01*
X29778157Y-24705783D01*
X29785783Y-24698157D01*
X30072368Y-24435550D01*
X30080637Y-24428612D01*
X30389018Y-24191983D01*
X30397858Y-24185793D01*
X30725700Y-23976935D01*
X30735045Y-23971540D01*
X31079829Y-23792056D01*
X31089603Y-23787498D01*
X31448736Y-23638741D01*
X31458857Y-23635057D01*
X31829589Y-23518166D01*
X31840004Y-23515375D01*
X32219510Y-23431240D01*
X32230137Y-23429367D01*
X32615524Y-23378629D01*
X32626255Y-23377690D01*
X33004776Y-23361164D01*
X33017298Y-23360618D01*
X33022706Y-23360500D01*
X33085892Y-23360500D01*
X35359420Y-23360500D01*
X35426459Y-23380185D01*
G37*
%TD.AperFunction*%
%TA.AperFunction,Conductor*%
G36*
X58107865Y-59423348D02*
G01*
X58152382Y-59474725D01*
X58179429Y-59532728D01*
X58179432Y-59532734D01*
X58309954Y-59719141D01*
X58470858Y-59880045D01*
X58470861Y-59880047D01*
X58657266Y-60010568D01*
X58715275Y-60037618D01*
X58767714Y-60083791D01*
X58786866Y-60150984D01*
X58766650Y-60217865D01*
X58715275Y-60262382D01*
X58657267Y-60289431D01*
X58657265Y-60289432D01*
X58470858Y-60419954D01*
X58309954Y-60580858D01*
X58179432Y-60767265D01*
X58179431Y-60767267D01*
X58083261Y-60973502D01*
X58083258Y-60973511D01*
X58024366Y-61193302D01*
X58024364Y-61193313D01*
X58004532Y-61419998D01*
X58004532Y-61420001D01*
X58024364Y-61646686D01*
X58024366Y-61646697D01*
X58083258Y-61866488D01*
X58083261Y-61866497D01*
X58179431Y-62072732D01*
X58179432Y-62072734D01*
X58309954Y-62259141D01*
X58470858Y-62420045D01*
X58470861Y-62420047D01*
X58657266Y-62550568D01*
X58715275Y-62577618D01*
X58767714Y-62623791D01*
X58786866Y-62690984D01*
X58766650Y-62757865D01*
X58715275Y-62802382D01*
X58657267Y-62829431D01*
X58657265Y-62829432D01*
X58470858Y-62959954D01*
X58309954Y-63120858D01*
X58179432Y-63307265D01*
X58179431Y-63307267D01*
X58152382Y-63365275D01*
X58106209Y-63417714D01*
X58039016Y-63436866D01*
X57972135Y-63416650D01*
X57927618Y-63365275D01*
X57900568Y-63307266D01*
X57770047Y-63120861D01*
X57770045Y-63120858D01*
X57609141Y-62959954D01*
X57422734Y-62829432D01*
X57422732Y-62829431D01*
X57216497Y-62733261D01*
X57216488Y-62733258D01*
X56996697Y-62674366D01*
X56996693Y-62674365D01*
X56996692Y-62674365D01*
X56996691Y-62674364D01*
X56996686Y-62674364D01*
X56770002Y-62654532D01*
X56769998Y-62654532D01*
X56543313Y-62674364D01*
X56543302Y-62674366D01*
X56323511Y-62733258D01*
X56323502Y-62733261D01*
X56117267Y-62829431D01*
X56117265Y-62829432D01*
X55930858Y-62959954D01*
X55769954Y-63120858D01*
X55639432Y-63307265D01*
X55639431Y-63307267D01*
X55612382Y-63365275D01*
X55566209Y-63417714D01*
X55499016Y-63436866D01*
X55432135Y-63416650D01*
X55387618Y-63365275D01*
X55360568Y-63307266D01*
X55230047Y-63120861D01*
X55230045Y-63120858D01*
X55069141Y-62959954D01*
X54882734Y-62829432D01*
X54882732Y-62829431D01*
X54676497Y-62733261D01*
X54676488Y-62733258D01*
X54456697Y-62674366D01*
X54456693Y-62674365D01*
X54456692Y-62674365D01*
X54456691Y-62674364D01*
X54456686Y-62674364D01*
X54230002Y-62654532D01*
X54229998Y-62654532D01*
X54003313Y-62674364D01*
X54003302Y-62674366D01*
X53783511Y-62733258D01*
X53783502Y-62733261D01*
X53577267Y-62829431D01*
X53577265Y-62829432D01*
X53390858Y-62959954D01*
X53229954Y-63120858D01*
X53099432Y-63307265D01*
X53099428Y-63307272D01*
X53072105Y-63365866D01*
X53025932Y-63418305D01*
X52958738Y-63437456D01*
X52891858Y-63417239D01*
X52847342Y-63365864D01*
X52820136Y-63307521D01*
X52820132Y-63307513D01*
X52769025Y-63234526D01*
X52213787Y-63789764D01*
X52202518Y-63747708D01*
X52130110Y-63622292D01*
X52027708Y-63519890D01*
X51902292Y-63447482D01*
X51860234Y-63436212D01*
X52415472Y-62880974D01*
X52342478Y-62829863D01*
X52136331Y-62733735D01*
X52136317Y-62733730D01*
X51916610Y-62674860D01*
X51916599Y-62674858D01*
X51690002Y-62655034D01*
X51689998Y-62655034D01*
X51463400Y-62674858D01*
X51463389Y-62674860D01*
X51243682Y-62733730D01*
X51243673Y-62733734D01*
X51037516Y-62829866D01*
X51037512Y-62829868D01*
X50964526Y-62880973D01*
X50964526Y-62880974D01*
X51519765Y-63436212D01*
X51477708Y-63447482D01*
X51352292Y-63519890D01*
X51249890Y-63622292D01*
X51177482Y-63747708D01*
X51166212Y-63789764D01*
X50610974Y-63234526D01*
X50610973Y-63234526D01*
X50559868Y-63307512D01*
X50559868Y-63307513D01*
X50532657Y-63365867D01*
X50486484Y-63418306D01*
X50419290Y-63437457D01*
X50352409Y-63417241D01*
X50307893Y-63365865D01*
X50280682Y-63307512D01*
X50280568Y-63307266D01*
X50150047Y-63120861D01*
X50150045Y-63120858D01*
X49989141Y-62959954D01*
X49802734Y-62829432D01*
X49802732Y-62829431D01*
X49596497Y-62733261D01*
X49596488Y-62733258D01*
X49376697Y-62674366D01*
X49376693Y-62674365D01*
X49376692Y-62674365D01*
X49376691Y-62674364D01*
X49376686Y-62674364D01*
X49150002Y-62654532D01*
X49149998Y-62654532D01*
X48923313Y-62674364D01*
X48923302Y-62674366D01*
X48703511Y-62733258D01*
X48703502Y-62733261D01*
X48497267Y-62829431D01*
X48497265Y-62829432D01*
X48310858Y-62959954D01*
X48149954Y-63120858D01*
X48019432Y-63307265D01*
X48019431Y-63307267D01*
X47992382Y-63365275D01*
X47946209Y-63417714D01*
X47879016Y-63436866D01*
X47812135Y-63416650D01*
X47767618Y-63365275D01*
X47740568Y-63307266D01*
X47610047Y-63120861D01*
X47610045Y-63120858D01*
X47449141Y-62959954D01*
X47262734Y-62829432D01*
X47262732Y-62829431D01*
X47056497Y-62733261D01*
X47056488Y-62733258D01*
X46836697Y-62674366D01*
X46836693Y-62674365D01*
X46836692Y-62674365D01*
X46836691Y-62674364D01*
X46836686Y-62674364D01*
X46610002Y-62654532D01*
X46609998Y-62654532D01*
X46383313Y-62674364D01*
X46383302Y-62674366D01*
X46163511Y-62733258D01*
X46163502Y-62733261D01*
X45957267Y-62829431D01*
X45957265Y-62829432D01*
X45770858Y-62959954D01*
X45609954Y-63120858D01*
X45479432Y-63307265D01*
X45479431Y-63307267D01*
X45452382Y-63365275D01*
X45406209Y-63417714D01*
X45339016Y-63436866D01*
X45272135Y-63416650D01*
X45227618Y-63365275D01*
X45200568Y-63307266D01*
X45070047Y-63120861D01*
X45070045Y-63120858D01*
X44909141Y-62959954D01*
X44722734Y-62829432D01*
X44722728Y-62829429D01*
X44664725Y-62802382D01*
X44612285Y-62756210D01*
X44593133Y-62689017D01*
X44613348Y-62622135D01*
X44664725Y-62577618D01*
X44722734Y-62550568D01*
X44909139Y-62420047D01*
X45070047Y-62259139D01*
X45200568Y-62072734D01*
X45296739Y-61866496D01*
X45355635Y-61646692D01*
X45375468Y-61420000D01*
X45355635Y-61193308D01*
X45296739Y-60973504D01*
X45200568Y-60767266D01*
X45070047Y-60580861D01*
X45070045Y-60580858D01*
X44909141Y-60419954D01*
X44722734Y-60289432D01*
X44722728Y-60289429D01*
X44664725Y-60262382D01*
X44612285Y-60216210D01*
X44593133Y-60149017D01*
X44613348Y-60082135D01*
X44664725Y-60037618D01*
X44722734Y-60010568D01*
X44909139Y-59880047D01*
X45070047Y-59719139D01*
X45200568Y-59532734D01*
X45227618Y-59474724D01*
X45273790Y-59422285D01*
X45340983Y-59403133D01*
X45407865Y-59423348D01*
X45452382Y-59474725D01*
X45479429Y-59532728D01*
X45479432Y-59532734D01*
X45609954Y-59719141D01*
X45770858Y-59880045D01*
X45770861Y-59880047D01*
X45957266Y-60010568D01*
X46163504Y-60106739D01*
X46383308Y-60165635D01*
X46545230Y-60179801D01*
X46609998Y-60185468D01*
X46610000Y-60185468D01*
X46610002Y-60185468D01*
X46666673Y-60180509D01*
X46836692Y-60165635D01*
X47056496Y-60106739D01*
X47262734Y-60010568D01*
X47449139Y-59880047D01*
X47610047Y-59719139D01*
X47740568Y-59532734D01*
X47767618Y-59474724D01*
X47813790Y-59422285D01*
X47880983Y-59403133D01*
X47947865Y-59423348D01*
X47992382Y-59474725D01*
X48019429Y-59532728D01*
X48019432Y-59532734D01*
X48149954Y-59719141D01*
X48310858Y-59880045D01*
X48310861Y-59880047D01*
X48497266Y-60010568D01*
X48703504Y-60106739D01*
X48923308Y-60165635D01*
X49085230Y-60179801D01*
X49149998Y-60185468D01*
X49150000Y-60185468D01*
X49150002Y-60185468D01*
X49206673Y-60180509D01*
X49376692Y-60165635D01*
X49596496Y-60106739D01*
X49802734Y-60010568D01*
X49989139Y-59880047D01*
X50150047Y-59719139D01*
X50280568Y-59532734D01*
X50307618Y-59474724D01*
X50353790Y-59422285D01*
X50420983Y-59403133D01*
X50487865Y-59423348D01*
X50532382Y-59474725D01*
X50559429Y-59532728D01*
X50559432Y-59532734D01*
X50689954Y-59719141D01*
X50850858Y-59880045D01*
X50850861Y-59880047D01*
X51037266Y-60010568D01*
X51243504Y-60106739D01*
X51463308Y-60165635D01*
X51625230Y-60179801D01*
X51689998Y-60185468D01*
X51690000Y-60185468D01*
X51690002Y-60185468D01*
X51746673Y-60180509D01*
X51916692Y-60165635D01*
X52136496Y-60106739D01*
X52342734Y-60010568D01*
X52529139Y-59880047D01*
X52690047Y-59719139D01*
X52820568Y-59532734D01*
X52847618Y-59474724D01*
X52893790Y-59422285D01*
X52960983Y-59403133D01*
X53027865Y-59423348D01*
X53072382Y-59474725D01*
X53099429Y-59532728D01*
X53099432Y-59532734D01*
X53229954Y-59719141D01*
X53390858Y-59880045D01*
X53390861Y-59880047D01*
X53577266Y-60010568D01*
X53783504Y-60106739D01*
X54003308Y-60165635D01*
X54165230Y-60179801D01*
X54229998Y-60185468D01*
X54230000Y-60185468D01*
X54230002Y-60185468D01*
X54286673Y-60180509D01*
X54456692Y-60165635D01*
X54676496Y-60106739D01*
X54882734Y-60010568D01*
X55069139Y-59880047D01*
X55230047Y-59719139D01*
X55360568Y-59532734D01*
X55387618Y-59474724D01*
X55433790Y-59422285D01*
X55500983Y-59403133D01*
X55567865Y-59423348D01*
X55612382Y-59474725D01*
X55639429Y-59532728D01*
X55639432Y-59532734D01*
X55769954Y-59719141D01*
X55930858Y-59880045D01*
X55930861Y-59880047D01*
X56117266Y-60010568D01*
X56323504Y-60106739D01*
X56543308Y-60165635D01*
X56705230Y-60179801D01*
X56769998Y-60185468D01*
X56770000Y-60185468D01*
X56770002Y-60185468D01*
X56826673Y-60180509D01*
X56996692Y-60165635D01*
X57216496Y-60106739D01*
X57422734Y-60010568D01*
X57609139Y-59880047D01*
X57770047Y-59719139D01*
X57900568Y-59532734D01*
X57927618Y-59474724D01*
X57973790Y-59422285D01*
X58040983Y-59403133D01*
X58107865Y-59423348D01*
G37*
%TD.AperFunction*%
%TA.AperFunction,Conductor*%
G36*
X53027865Y-56883348D02*
G01*
X53072382Y-56934725D01*
X53099429Y-56992728D01*
X53099432Y-56992734D01*
X53229954Y-57179141D01*
X53390858Y-57340045D01*
X53390861Y-57340047D01*
X53577266Y-57470568D01*
X53635275Y-57497618D01*
X53687714Y-57543791D01*
X53706866Y-57610984D01*
X53686650Y-57677865D01*
X53635275Y-57722382D01*
X53577267Y-57749431D01*
X53577265Y-57749432D01*
X53390858Y-57879954D01*
X53229954Y-58040858D01*
X53099432Y-58227265D01*
X53099431Y-58227267D01*
X53072382Y-58285275D01*
X53026209Y-58337714D01*
X52959016Y-58356866D01*
X52892135Y-58336650D01*
X52847618Y-58285275D01*
X52820568Y-58227267D01*
X52820567Y-58227265D01*
X52820124Y-58226633D01*
X52690047Y-58040861D01*
X52690045Y-58040858D01*
X52529141Y-57879954D01*
X52342734Y-57749432D01*
X52342728Y-57749429D01*
X52284725Y-57722382D01*
X52232285Y-57676210D01*
X52213133Y-57609017D01*
X52233348Y-57542135D01*
X52284725Y-57497618D01*
X52342734Y-57470568D01*
X52529139Y-57340047D01*
X52690047Y-57179139D01*
X52820568Y-56992734D01*
X52847618Y-56934724D01*
X52893790Y-56882285D01*
X52960983Y-56863133D01*
X53027865Y-56883348D01*
G37*
%TD.AperFunction*%
%TA.AperFunction,Conductor*%
G36*
X62776333Y-27641100D02*
G01*
X62820680Y-27669601D01*
X70749181Y-35598102D01*
X70782666Y-35659425D01*
X70785500Y-35685783D01*
X70785500Y-36467870D01*
X70785501Y-36467876D01*
X70791908Y-36527483D01*
X70842202Y-36662328D01*
X70842206Y-36662335D01*
X70928452Y-36777544D01*
X70928455Y-36777547D01*
X71043664Y-36863793D01*
X71043671Y-36863797D01*
X71175081Y-36912810D01*
X71231015Y-36954681D01*
X71255432Y-37020145D01*
X71240580Y-37088418D01*
X71219430Y-37116673D01*
X71097503Y-37238600D01*
X70961965Y-37432169D01*
X70961964Y-37432171D01*
X70862098Y-37646335D01*
X70862094Y-37646344D01*
X70800938Y-37874586D01*
X70800936Y-37874596D01*
X70780341Y-38109999D01*
X70780341Y-38110001D01*
X70798977Y-38323012D01*
X70785210Y-38391512D01*
X70763130Y-38421500D01*
X70601449Y-38583182D01*
X70540129Y-38616666D01*
X70513770Y-38619500D01*
X63807080Y-38619500D01*
X63662092Y-38648340D01*
X63662082Y-38648343D01*
X63525506Y-38704914D01*
X63525503Y-38704916D01*
X63403128Y-38786683D01*
X63403129Y-38786684D01*
X63402590Y-38787043D01*
X63402581Y-38787051D01*
X62155052Y-40034578D01*
X62155046Y-40034585D01*
X62118107Y-40089869D01*
X62118108Y-40089870D01*
X62072913Y-40157508D01*
X62016343Y-40294082D01*
X62016340Y-40294092D01*
X61987500Y-40439079D01*
X61987500Y-43198769D01*
X61967815Y-43265808D01*
X61951181Y-43286450D01*
X61029990Y-44207640D01*
X60993929Y-44230309D01*
X60994809Y-44232135D01*
X60988531Y-44235158D01*
X60835790Y-44331131D01*
X60708237Y-44458684D01*
X60612264Y-44611423D01*
X60552684Y-44781692D01*
X60552683Y-44781697D01*
X60532488Y-44960943D01*
X60532488Y-44960950D01*
X60552683Y-45140196D01*
X60552684Y-45140201D01*
X60612264Y-45310470D01*
X60708237Y-45463209D01*
X60835791Y-45590763D01*
X60988531Y-45686736D01*
X60988533Y-45686737D01*
X61019578Y-45697600D01*
X61076355Y-45738320D01*
X61102104Y-45803272D01*
X61088649Y-45871834D01*
X61066307Y-45902323D01*
X60817431Y-46151199D01*
X60756108Y-46184684D01*
X60686416Y-46179700D01*
X60630483Y-46137828D01*
X60606222Y-46074327D01*
X60595635Y-45953308D01*
X60540172Y-45746315D01*
X60536741Y-45733511D01*
X60536738Y-45733502D01*
X60440568Y-45527266D01*
X60310047Y-45340861D01*
X60310045Y-45340858D01*
X60149141Y-45179954D01*
X59962734Y-45049432D01*
X59962728Y-45049429D01*
X59904725Y-45022382D01*
X59852285Y-44976210D01*
X59833133Y-44909017D01*
X59853348Y-44842135D01*
X59904725Y-44797618D01*
X59962734Y-44770568D01*
X60149139Y-44640047D01*
X60310047Y-44479139D01*
X60440568Y-44292734D01*
X60536739Y-44086496D01*
X60595635Y-43866692D01*
X60615468Y-43640000D01*
X60595635Y-43413308D01*
X60536739Y-43193504D01*
X60440568Y-42987266D01*
X60310047Y-42800861D01*
X60310045Y-42800858D01*
X60149141Y-42639954D01*
X59962734Y-42509432D01*
X59962728Y-42509429D01*
X59904725Y-42482382D01*
X59852285Y-42436210D01*
X59833133Y-42369017D01*
X59853348Y-42302135D01*
X59904725Y-42257618D01*
X59962734Y-42230568D01*
X60149139Y-42100047D01*
X60310047Y-41939139D01*
X60440568Y-41752734D01*
X60536739Y-41546496D01*
X60595635Y-41326692D01*
X60615468Y-41100000D01*
X60595635Y-40873308D01*
X60536739Y-40653504D01*
X60440568Y-40447266D01*
X60322198Y-40278214D01*
X60310045Y-40260858D01*
X60149141Y-40099954D01*
X59962734Y-39969432D01*
X59962728Y-39969429D01*
X59904725Y-39942382D01*
X59852285Y-39896210D01*
X59833133Y-39829017D01*
X59853348Y-39762135D01*
X59904725Y-39717618D01*
X59962734Y-39690568D01*
X60149139Y-39560047D01*
X60310047Y-39399139D01*
X60440568Y-39212734D01*
X60536739Y-39006496D01*
X60595635Y-38786692D01*
X60602790Y-38704916D01*
X60615468Y-38560001D01*
X60615468Y-38559998D01*
X60599335Y-38375604D01*
X60595635Y-38333308D01*
X60536739Y-38113504D01*
X60440568Y-37907266D01*
X60310047Y-37720861D01*
X60310045Y-37720858D01*
X60149141Y-37559954D01*
X59962734Y-37429432D01*
X59962728Y-37429429D01*
X59904725Y-37402382D01*
X59852285Y-37356210D01*
X59833133Y-37289017D01*
X59853348Y-37222135D01*
X59904725Y-37177618D01*
X59962734Y-37150568D01*
X60149139Y-37020047D01*
X60310047Y-36859139D01*
X60440568Y-36672734D01*
X60536739Y-36466496D01*
X60595635Y-36246692D01*
X60615468Y-36020000D01*
X60595635Y-35793308D01*
X60536739Y-35573504D01*
X60440568Y-35367266D01*
X60310047Y-35180861D01*
X60310045Y-35180858D01*
X60149141Y-35019954D01*
X59962735Y-34889433D01*
X59962736Y-34889433D01*
X59962734Y-34889432D01*
X59904132Y-34862105D01*
X59851694Y-34815933D01*
X59832543Y-34748739D01*
X59852759Y-34681858D01*
X59904135Y-34637341D01*
X59962482Y-34610133D01*
X60035471Y-34559024D01*
X59480234Y-34003787D01*
X59522292Y-33992518D01*
X59647708Y-33920110D01*
X59750110Y-33817708D01*
X59822518Y-33692292D01*
X59833787Y-33650234D01*
X60389024Y-34205471D01*
X60440136Y-34132478D01*
X60536264Y-33926331D01*
X60536269Y-33926317D01*
X60595139Y-33706610D01*
X60595141Y-33706599D01*
X60614966Y-33480002D01*
X60614966Y-33479997D01*
X60595141Y-33253400D01*
X60595139Y-33253389D01*
X60536269Y-33033682D01*
X60536264Y-33033668D01*
X60440136Y-32827521D01*
X60440132Y-32827513D01*
X60389025Y-32754526D01*
X59833787Y-33309764D01*
X59822518Y-33267708D01*
X59750110Y-33142292D01*
X59647708Y-33039890D01*
X59522292Y-32967482D01*
X59480234Y-32956212D01*
X60035472Y-32400974D01*
X59962480Y-32349864D01*
X59904134Y-32322657D01*
X59851695Y-32276484D01*
X59832543Y-32209291D01*
X59852759Y-32142410D01*
X59904134Y-32097893D01*
X59962734Y-32070568D01*
X60149139Y-31940047D01*
X60310047Y-31779139D01*
X60440568Y-31592734D01*
X60536739Y-31386496D01*
X60595635Y-31166692D01*
X60615468Y-30940000D01*
X60595635Y-30713308D01*
X60536739Y-30493504D01*
X60440568Y-30287266D01*
X60332924Y-30133532D01*
X60310597Y-30067326D01*
X60310500Y-30062410D01*
X60310500Y-30055781D01*
X60330185Y-29988742D01*
X60346814Y-29968105D01*
X62645318Y-27669600D01*
X62706641Y-27636116D01*
X62776333Y-27641100D01*
G37*
%TD.AperFunction*%
%TA.AperFunction,Conductor*%
G36*
X71122702Y-23360618D02*
G01*
X71135819Y-23361190D01*
X71513742Y-23377690D01*
X71524477Y-23378630D01*
X71909859Y-23429366D01*
X71920493Y-23431241D01*
X72299990Y-23515374D01*
X72310416Y-23518168D01*
X72681135Y-23635055D01*
X72691270Y-23638744D01*
X73050387Y-23787495D01*
X73060178Y-23792061D01*
X73385275Y-23961296D01*
X73404942Y-23971534D01*
X73414309Y-23976941D01*
X73684434Y-24149030D01*
X73742130Y-24185786D01*
X73750991Y-24191991D01*
X74059353Y-24428605D01*
X74067640Y-24435559D01*
X74354204Y-24698146D01*
X74361853Y-24705795D01*
X74624440Y-24992359D01*
X74631394Y-25000646D01*
X74868008Y-25309008D01*
X74874213Y-25317869D01*
X75083057Y-25645689D01*
X75088465Y-25655057D01*
X75267935Y-25999814D01*
X75272507Y-26009618D01*
X75421249Y-26368714D01*
X75424949Y-26378879D01*
X75541828Y-26749572D01*
X75544628Y-26760021D01*
X75628756Y-27139498D01*
X75630634Y-27150151D01*
X75681367Y-27535499D01*
X75682310Y-27546276D01*
X75696150Y-27863282D01*
X75699382Y-27937297D01*
X75699500Y-27942706D01*
X75699500Y-37409217D01*
X75679815Y-37476256D01*
X75627011Y-37522011D01*
X75557853Y-37531955D01*
X75494297Y-37502930D01*
X75487819Y-37496898D01*
X73522818Y-35531897D01*
X73489333Y-35470574D01*
X73486499Y-35444216D01*
X73486499Y-34672129D01*
X73486498Y-34672123D01*
X73482759Y-34637342D01*
X73480091Y-34612517D01*
X73479201Y-34610132D01*
X73429797Y-34477671D01*
X73429793Y-34477664D01*
X73343547Y-34362455D01*
X73343544Y-34362452D01*
X73228335Y-34276206D01*
X73228328Y-34276202D01*
X73093482Y-34225908D01*
X73093483Y-34225908D01*
X73033883Y-34219501D01*
X73033881Y-34219500D01*
X73033873Y-34219500D01*
X73033865Y-34219500D01*
X72251783Y-34219500D01*
X72184744Y-34199815D01*
X72164102Y-34183181D01*
X65799631Y-27818711D01*
X69269500Y-27818711D01*
X69269500Y-27818712D01*
X69269500Y-28061288D01*
X69301162Y-28301789D01*
X69306808Y-28322861D01*
X69363947Y-28536104D01*
X69456773Y-28760205D01*
X69456776Y-28760212D01*
X69578064Y-28970289D01*
X69578066Y-28970292D01*
X69578067Y-28970293D01*
X69725733Y-29162736D01*
X69725739Y-29162743D01*
X69897256Y-29334260D01*
X69897263Y-29334266D01*
X70010321Y-29421018D01*
X70089711Y-29481936D01*
X70299788Y-29603224D01*
X70523900Y-29696054D01*
X70758211Y-29758838D01*
X70938586Y-29782584D01*
X70998711Y-29790500D01*
X70998712Y-29790500D01*
X71241289Y-29790500D01*
X71289388Y-29784167D01*
X71481789Y-29758838D01*
X71716100Y-29696054D01*
X71940212Y-29603224D01*
X72150289Y-29481936D01*
X72342738Y-29334265D01*
X72514265Y-29162738D01*
X72661936Y-28970289D01*
X72783224Y-28760212D01*
X72876054Y-28536100D01*
X72938838Y-28301789D01*
X72970500Y-28061288D01*
X72970500Y-27818712D01*
X72938838Y-27578211D01*
X72876054Y-27343900D01*
X72783224Y-27119788D01*
X72661936Y-26909711D01*
X72514265Y-26717262D01*
X72514260Y-26717256D01*
X72342743Y-26545739D01*
X72342736Y-26545733D01*
X72150293Y-26398067D01*
X72150292Y-26398066D01*
X72150289Y-26398064D01*
X71940212Y-26276776D01*
X71940205Y-26276773D01*
X71716104Y-26183947D01*
X71481785Y-26121161D01*
X71241289Y-26089500D01*
X71241288Y-26089500D01*
X70998712Y-26089500D01*
X70998711Y-26089500D01*
X70758214Y-26121161D01*
X70523895Y-26183947D01*
X70299794Y-26276773D01*
X70299785Y-26276777D01*
X70089706Y-26398067D01*
X69897263Y-26545733D01*
X69897256Y-26545739D01*
X69725739Y-26717256D01*
X69725733Y-26717263D01*
X69578067Y-26909706D01*
X69456777Y-27119785D01*
X69456773Y-27119794D01*
X69363947Y-27343895D01*
X69301161Y-27578214D01*
X69269500Y-27818711D01*
X65799631Y-27818711D01*
X64051914Y-26070994D01*
X64036493Y-26052204D01*
X64023138Y-26032217D01*
X63990735Y-25999814D01*
X63883782Y-25892861D01*
X63883781Y-25892860D01*
X63522208Y-25531288D01*
X63522207Y-25531286D01*
X62860209Y-24869289D01*
X62860206Y-24869285D01*
X62860206Y-24869286D01*
X62853139Y-24862219D01*
X62853139Y-24862218D01*
X62713782Y-24722861D01*
X62713781Y-24722860D01*
X62713780Y-24722859D01*
X62549920Y-24613371D01*
X62549911Y-24613366D01*
X62477315Y-24583296D01*
X62421165Y-24560038D01*
X62367836Y-24537949D01*
X62367832Y-24537948D01*
X62367828Y-24537946D01*
X62271188Y-24518724D01*
X62174544Y-24499500D01*
X62174541Y-24499500D01*
X39061459Y-24499500D01*
X39061455Y-24499500D01*
X38964812Y-24518724D01*
X38868167Y-24537947D01*
X38868161Y-24537949D01*
X38814834Y-24560037D01*
X38814834Y-24560038D01*
X38769315Y-24578892D01*
X38686089Y-24613366D01*
X38686079Y-24613371D01*
X38522219Y-24722859D01*
X38466480Y-24778599D01*
X38382861Y-24862218D01*
X38382858Y-24862221D01*
X37562467Y-25682610D01*
X37501144Y-25716095D01*
X37431452Y-25711111D01*
X37375519Y-25669239D01*
X37351102Y-25603775D01*
X37351133Y-25585662D01*
X37365047Y-25400003D01*
X37365047Y-25399995D01*
X37344886Y-25130973D01*
X37344886Y-25130971D01*
X37284857Y-24867966D01*
X37284851Y-24867947D01*
X37186290Y-24616818D01*
X37186291Y-24616818D01*
X37051397Y-24383177D01*
X36997704Y-24315847D01*
X36275846Y-25037705D01*
X36268951Y-25021058D01*
X36181401Y-24890030D01*
X36069970Y-24778599D01*
X35938942Y-24691049D01*
X35922294Y-24684153D01*
X36645150Y-23961296D01*
X36462517Y-23836779D01*
X36462516Y-23836778D01*
X36219460Y-23719730D01*
X36219462Y-23719730D01*
X35961662Y-23640209D01*
X35961656Y-23640207D01*
X35742099Y-23607115D01*
X35678742Y-23577659D01*
X35641368Y-23518625D01*
X35641843Y-23448757D01*
X35680016Y-23390237D01*
X35743768Y-23361645D01*
X35760580Y-23360500D01*
X71054108Y-23360500D01*
X71117294Y-23360500D01*
X71122702Y-23360618D01*
G37*
%TD.AperFunction*%
%TD*%
M02*
