%TF.GenerationSoftware,KiCad,Pcbnew,8.0.5*%
%TF.CreationDate,2025-06-27T14:54:40-05:00*%
%TF.ProjectId,ULACIT 2025,554c4143-4954-4203-9230-32352e6b6963,rev?*%
%TF.SameCoordinates,Original*%
%TF.FileFunction,Legend,Bot*%
%TF.FilePolarity,Positive*%
%FSLAX46Y46*%
G04 Gerber Fmt 4.6, Leading zero omitted, Abs format (unit mm)*
G04 Created by KiCad (PCBNEW 8.0.5) date 2025-06-27 14:54:40*
%MOMM*%
%LPD*%
G01*
G04 APERTURE LIST*
%ADD10C,0.120000*%
%ADD11C,0.000000*%
%ADD12R,1.700000X1.700000*%
%ADD13O,1.700000X1.700000*%
%ADD14C,3.200000*%
%ADD15C,1.600000*%
%ADD16R,2.600000X2.600000*%
%ADD17C,2.600000*%
G04 APERTURE END LIST*
D10*
%TO.C,J1*%
X30720000Y-32440000D02*
X30720000Y-30700000D01*
X30960000Y-17600000D02*
X40160000Y-17600000D01*
X30960000Y-32200000D02*
X30960000Y-17600000D01*
X32460000Y-32440000D02*
X30720000Y-32440000D01*
X33760000Y-32200000D02*
X30960000Y-32200000D01*
X40160000Y-17600000D02*
X40160000Y-26600000D01*
X40160000Y-30200000D02*
X40160000Y-32200000D01*
X40160000Y-32200000D02*
X37360000Y-32200000D01*
D11*
%TO.C,G\u002A\u002A\u002A*%
G36*
X37930666Y-53721000D02*
G01*
X37888333Y-53763334D01*
X37846000Y-53721000D01*
X37888333Y-53678667D01*
X37930666Y-53721000D01*
G37*
G36*
X37930666Y-62865000D02*
G01*
X37888333Y-62907334D01*
X37846000Y-62865000D01*
X37888333Y-62822667D01*
X37930666Y-62865000D01*
G37*
G36*
X64516000Y-39327667D02*
G01*
X64473666Y-39370000D01*
X64431333Y-39327667D01*
X64473666Y-39285334D01*
X64516000Y-39327667D01*
G37*
G36*
X64516000Y-40682334D02*
G01*
X64473666Y-40724667D01*
X64431333Y-40682334D01*
X64473666Y-40640000D01*
X64516000Y-40682334D01*
G37*
G36*
X64685333Y-39327667D02*
G01*
X64643000Y-39370000D01*
X64600666Y-39327667D01*
X64643000Y-39285334D01*
X64685333Y-39327667D01*
G37*
G36*
X64685333Y-40682334D02*
G01*
X64643000Y-40724667D01*
X64600666Y-40682334D01*
X64643000Y-40640000D01*
X64685333Y-40682334D01*
G37*
G36*
X65024000Y-29675667D02*
G01*
X64981666Y-29718000D01*
X64939333Y-29675667D01*
X64981666Y-29633334D01*
X65024000Y-29675667D01*
G37*
G36*
X38242866Y-31399038D02*
G01*
X38311666Y-31538334D01*
X38288461Y-31623798D01*
X38163500Y-31713271D01*
X38055544Y-31689624D01*
X38015333Y-31538334D01*
X38045083Y-31399394D01*
X38163500Y-31363397D01*
X38242866Y-31399038D01*
G37*
G36*
X38265508Y-37504784D02*
G01*
X38338722Y-37663164D01*
X38323083Y-37804050D01*
X38190555Y-37846000D01*
X38057151Y-37802969D01*
X38015333Y-37641825D01*
X38045995Y-37516596D01*
X38148076Y-37454617D01*
X38265508Y-37504784D01*
G37*
G36*
X38265508Y-46479450D02*
G01*
X38338722Y-46637831D01*
X38323083Y-46778716D01*
X38190555Y-46820667D01*
X38057151Y-46777636D01*
X38015333Y-46616492D01*
X38045995Y-46491263D01*
X38148076Y-46429284D01*
X38265508Y-46479450D01*
G37*
G36*
X38265508Y-52575450D02*
G01*
X38338722Y-52733831D01*
X38323083Y-52874716D01*
X38190555Y-52916667D01*
X38057151Y-52873636D01*
X38015333Y-52712492D01*
X38045995Y-52587263D01*
X38148076Y-52525284D01*
X38265508Y-52575450D01*
G37*
G36*
X65447333Y-42450340D02*
G01*
X65443523Y-42465226D01*
X65362666Y-42545000D01*
X65332690Y-42560771D01*
X65278000Y-42554994D01*
X65281810Y-42540108D01*
X65362666Y-42460334D01*
X65392643Y-42444564D01*
X65447333Y-42450340D01*
G37*
G36*
X65131762Y-42548003D02*
G01*
X65024000Y-42602919D01*
X64879086Y-42663284D01*
X64627249Y-42730902D01*
X64440382Y-42710462D01*
X64365762Y-42668659D01*
X64389868Y-42610520D01*
X64552665Y-42562002D01*
X64836115Y-42531274D01*
X64956953Y-42525015D01*
X65115513Y-42524360D01*
X65131762Y-42548003D01*
G37*
G36*
X65442192Y-70389139D02*
G01*
X65390067Y-70420182D01*
X65230525Y-70464369D01*
X65132987Y-70485285D01*
X64981666Y-70542434D01*
X64977318Y-70544993D01*
X64821039Y-70591223D01*
X64594823Y-70620911D01*
X64393233Y-70621372D01*
X64361326Y-70609216D01*
X64393233Y-70533135D01*
X64417496Y-70517896D01*
X64560810Y-70473378D01*
X64779464Y-70429249D01*
X65025195Y-70392135D01*
X65249736Y-70368662D01*
X65404823Y-70365455D01*
X65442192Y-70389139D01*
G37*
G36*
X37272588Y-46439914D02*
G01*
X37579726Y-46455649D01*
X37763851Y-46496159D01*
X37858548Y-46572598D01*
X37897403Y-46696118D01*
X37877076Y-46757880D01*
X37773839Y-46796195D01*
X37558880Y-46815407D01*
X37203508Y-46820667D01*
X36905690Y-46819152D01*
X36673975Y-46808205D01*
X36550092Y-46778683D01*
X36500419Y-46721462D01*
X36491333Y-46627419D01*
X36493135Y-46572577D01*
X36521033Y-46495751D01*
X36611084Y-46454898D01*
X36799000Y-46439275D01*
X37120494Y-46438136D01*
X37272588Y-46439914D01*
G37*
G36*
X37272588Y-52535914D02*
G01*
X37579726Y-52551649D01*
X37763851Y-52592159D01*
X37858548Y-52668598D01*
X37897403Y-52792118D01*
X37877076Y-52853880D01*
X37773839Y-52892195D01*
X37558880Y-52911407D01*
X37203508Y-52916667D01*
X36905690Y-52915152D01*
X36673975Y-52904205D01*
X36550092Y-52874683D01*
X36500419Y-52817462D01*
X36491333Y-52723419D01*
X36493135Y-52668577D01*
X36521033Y-52591751D01*
X36611084Y-52550898D01*
X36799000Y-52535275D01*
X37120494Y-52534136D01*
X37272588Y-52535914D01*
G37*
G36*
X37418597Y-31367462D02*
G01*
X37678124Y-31376794D01*
X37821972Y-31402916D01*
X37883683Y-31454029D01*
X37896800Y-31538334D01*
X37892906Y-31593233D01*
X37854739Y-31656689D01*
X37747905Y-31691861D01*
X37538861Y-31706950D01*
X37194066Y-31710157D01*
X36969536Y-31709205D01*
X36710009Y-31699873D01*
X36566161Y-31673751D01*
X36504450Y-31622639D01*
X36491333Y-31538334D01*
X36495227Y-31483434D01*
X36533394Y-31419978D01*
X36640228Y-31384806D01*
X36849272Y-31369717D01*
X37194066Y-31366510D01*
X37418597Y-31367462D01*
G37*
G36*
X37474867Y-37463871D02*
G01*
X37710208Y-37474475D01*
X37836423Y-37503586D01*
X37887344Y-37560436D01*
X37896800Y-37654255D01*
X37891813Y-37730873D01*
X37852951Y-37795088D01*
X37746260Y-37829526D01*
X37537908Y-37843420D01*
X37194066Y-37846000D01*
X36913266Y-37844640D01*
X36677925Y-37834036D01*
X36551710Y-37804925D01*
X36500789Y-37748075D01*
X36491333Y-37654255D01*
X36496320Y-37577637D01*
X36535182Y-37513423D01*
X36641873Y-37478984D01*
X36850225Y-37465090D01*
X37194066Y-37462510D01*
X37474867Y-37463871D01*
G37*
G36*
X37803441Y-47144870D02*
G01*
X37911854Y-47196966D01*
X37918745Y-47240710D01*
X37853954Y-47361417D01*
X37808969Y-47436277D01*
X37834348Y-47533132D01*
X37872573Y-47579180D01*
X37894109Y-47731170D01*
X37893006Y-47737981D01*
X37853163Y-47811050D01*
X37743485Y-47857656D01*
X37530812Y-47885827D01*
X37181984Y-47903591D01*
X36858095Y-47913609D01*
X36646342Y-47909532D01*
X36537428Y-47881042D01*
X36497157Y-47818705D01*
X36491333Y-47713091D01*
X36491353Y-47702778D01*
X36503659Y-47587916D01*
X36565898Y-47526731D01*
X36717859Y-47502375D01*
X36999333Y-47498000D01*
X37296823Y-47487111D01*
X37464390Y-47439141D01*
X37527659Y-47331941D01*
X37519091Y-47143362D01*
X37537291Y-47121634D01*
X37651873Y-47116113D01*
X37803441Y-47144870D01*
G37*
G36*
X65853748Y-60645142D02*
G01*
X65934468Y-60691155D01*
X65955333Y-60783141D01*
X65930238Y-60890465D01*
X65828333Y-60970584D01*
X65647795Y-60987045D01*
X65397116Y-61020449D01*
X65151000Y-61072312D01*
X65124600Y-61078374D01*
X64852537Y-61128340D01*
X64557563Y-61167706D01*
X64514647Y-61172519D01*
X64233619Y-61218730D01*
X64007229Y-61276982D01*
X63822910Y-61325716D01*
X63549825Y-61309250D01*
X63518933Y-61284431D01*
X63527002Y-61179375D01*
X63605747Y-61059520D01*
X63718705Y-60993120D01*
X63726798Y-60991938D01*
X63927660Y-60957479D01*
X64177333Y-60909048D01*
X64190488Y-60906365D01*
X64443103Y-60859422D01*
X64643000Y-60829380D01*
X64822800Y-60802614D01*
X65066333Y-60756384D01*
X65404005Y-60687764D01*
X65685988Y-60644285D01*
X65853748Y-60645142D01*
G37*
G36*
X65853748Y-76223809D02*
G01*
X65934468Y-76269822D01*
X65955333Y-76361807D01*
X65930238Y-76469132D01*
X65828333Y-76549250D01*
X65647795Y-76565711D01*
X65397116Y-76599116D01*
X65151000Y-76650978D01*
X65124600Y-76657040D01*
X64852537Y-76707007D01*
X64557563Y-76746373D01*
X64514647Y-76751186D01*
X64233619Y-76797396D01*
X64007229Y-76855648D01*
X63822910Y-76904383D01*
X63549825Y-76887917D01*
X63518933Y-76863097D01*
X63527002Y-76758042D01*
X63605747Y-76638187D01*
X63718705Y-76571787D01*
X63726798Y-76570605D01*
X63927660Y-76536146D01*
X64177333Y-76487714D01*
X64190488Y-76485031D01*
X64443103Y-76438089D01*
X64643000Y-76408047D01*
X64822800Y-76381281D01*
X65066333Y-76335050D01*
X65404005Y-76266431D01*
X65685988Y-76222951D01*
X65853748Y-76223809D01*
G37*
G36*
X65868856Y-32579751D02*
G01*
X65929868Y-32652427D01*
X65941118Y-32719475D01*
X65881909Y-32873292D01*
X65832482Y-32914486D01*
X65786000Y-32912029D01*
X65736088Y-32893110D01*
X65588586Y-32929915D01*
X65489923Y-32959985D01*
X65231978Y-33015995D01*
X64932419Y-33063081D01*
X64748303Y-33088772D01*
X64525076Y-33127804D01*
X64413010Y-33158502D01*
X64348757Y-33181537D01*
X64154515Y-33215323D01*
X63913604Y-33237970D01*
X63697218Y-33243680D01*
X63576549Y-33226651D01*
X63541907Y-33133076D01*
X63585008Y-33000128D01*
X63678392Y-32924750D01*
X63731929Y-32917901D01*
X63902166Y-32898804D01*
X64072626Y-32871733D01*
X64306465Y-32822174D01*
X64565777Y-32771007D01*
X64856798Y-32729411D01*
X64909487Y-32723157D01*
X65208128Y-32675643D01*
X65516459Y-32612693D01*
X65736065Y-32570470D01*
X65868856Y-32579751D01*
G37*
G36*
X37297042Y-51059264D02*
G01*
X37608635Y-51106075D01*
X37794351Y-51219299D01*
X37880390Y-51420523D01*
X37892952Y-51731334D01*
X37877168Y-52112334D01*
X37177900Y-52137027D01*
X36869586Y-52146483D01*
X36649290Y-52143688D01*
X36537001Y-52118647D01*
X36500146Y-52063226D01*
X36506149Y-51969291D01*
X36526932Y-51882465D01*
X36594648Y-51812656D01*
X36746857Y-51781035D01*
X37025928Y-51771478D01*
X37168517Y-51767167D01*
X37456811Y-51726811D01*
X37594701Y-51642881D01*
X37612729Y-51588186D01*
X37557917Y-51541810D01*
X37390162Y-51513389D01*
X37081273Y-51494791D01*
X36952113Y-51489050D01*
X36695191Y-51470300D01*
X36557345Y-51435907D01*
X36501688Y-51371312D01*
X36491333Y-51261958D01*
X36492081Y-51215264D01*
X36513293Y-51124644D01*
X36591974Y-51076479D01*
X36765409Y-51057390D01*
X37070878Y-51054000D01*
X37297042Y-51059264D01*
G37*
G36*
X37551525Y-28975609D02*
G01*
X37740979Y-29071471D01*
X37870019Y-29285275D01*
X37909635Y-29569482D01*
X37856827Y-29727570D01*
X37677749Y-29889455D01*
X37416820Y-29991598D01*
X37120529Y-30024259D01*
X36835366Y-29977701D01*
X36607820Y-29842184D01*
X36478865Y-29623132D01*
X36460907Y-29340145D01*
X36575693Y-29083371D01*
X36688002Y-29011480D01*
X36854407Y-28977754D01*
X36998988Y-28994106D01*
X37052728Y-29063422D01*
X37019957Y-29182617D01*
X36925207Y-29315911D01*
X36816010Y-29328355D01*
X36768660Y-29325352D01*
X36759065Y-29432807D01*
X36770319Y-29471814D01*
X36877371Y-29571437D01*
X37114774Y-29617809D01*
X37159038Y-29620877D01*
X37406026Y-29619476D01*
X37579737Y-29590352D01*
X37643984Y-29558569D01*
X37650879Y-29495635D01*
X37528500Y-29380639D01*
X37429655Y-29285755D01*
X37341500Y-29122527D01*
X37381097Y-29008049D01*
X37546951Y-28975191D01*
X37551525Y-28975609D01*
G37*
G36*
X37829836Y-30294252D02*
G01*
X37911966Y-30381565D01*
X37956642Y-30435493D01*
X38107055Y-30480000D01*
X38223573Y-30518962D01*
X38269333Y-30680638D01*
X38269237Y-30692909D01*
X38226730Y-30839128D01*
X38078833Y-30871138D01*
X37962381Y-30887021D01*
X37906874Y-30958957D01*
X37893058Y-31008614D01*
X37779874Y-31032377D01*
X37705393Y-31007743D01*
X37649663Y-30930764D01*
X37608774Y-30898453D01*
X37440438Y-30870522D01*
X37183996Y-30863729D01*
X36981227Y-30860934D01*
X36735876Y-30836107D01*
X36597166Y-30793518D01*
X36588410Y-30786240D01*
X36510627Y-30633784D01*
X36493974Y-30432851D01*
X36547962Y-30282260D01*
X36617204Y-30276564D01*
X36750976Y-30358107D01*
X36774489Y-30376182D01*
X36943847Y-30439385D01*
X37167918Y-30466164D01*
X37391441Y-30457694D01*
X37559153Y-30415151D01*
X37615792Y-30339711D01*
X37621998Y-30295900D01*
X37708015Y-30262141D01*
X37829836Y-30294252D01*
G37*
G36*
X38200108Y-56264241D02*
G01*
X38269358Y-56330439D01*
X38302908Y-56488579D01*
X38311666Y-56777072D01*
X38311666Y-57277000D01*
X37401500Y-57301032D01*
X36491333Y-57325063D01*
X36491333Y-56779357D01*
X36494592Y-56538111D01*
X36513711Y-56347884D01*
X36558734Y-56265241D01*
X36639500Y-56255397D01*
X36745847Y-56321218D01*
X36788963Y-56523072D01*
X36802523Y-56699754D01*
X36880564Y-56897433D01*
X37020836Y-56949579D01*
X37126802Y-56923299D01*
X37269338Y-56797431D01*
X37295780Y-56558670D01*
X37291420Y-56480879D01*
X37321122Y-56340456D01*
X37433026Y-56303334D01*
X37510126Y-56316540D01*
X37575043Y-56408531D01*
X37592000Y-56625067D01*
X37604807Y-56835235D01*
X37664724Y-56926994D01*
X37803666Y-56946800D01*
X37840100Y-56946280D01*
X37955911Y-56918814D01*
X38005092Y-56815677D01*
X38015333Y-56590225D01*
X38024598Y-56384912D01*
X38068243Y-56272047D01*
X38163500Y-56255397D01*
X38200108Y-56264241D01*
G37*
G36*
X37856880Y-41042842D02*
G01*
X37997772Y-41106382D01*
X38125041Y-41226095D01*
X38175148Y-41285797D01*
X38288784Y-41514897D01*
X38317399Y-41825334D01*
X38311666Y-42206334D01*
X37401500Y-42230365D01*
X37386634Y-42230758D01*
X36491333Y-42254396D01*
X36491333Y-41798987D01*
X36493638Y-41737478D01*
X36763621Y-41737478D01*
X36786505Y-41811697D01*
X36874901Y-41851483D01*
X37063410Y-41867518D01*
X37386634Y-41870489D01*
X37622717Y-41869683D01*
X37849989Y-41860050D01*
X37965454Y-41829883D01*
X38003342Y-41767451D01*
X37997884Y-41661025D01*
X37966709Y-41540426D01*
X37863805Y-41458521D01*
X37642447Y-41419807D01*
X37617413Y-41417605D01*
X37316664Y-41412448D01*
X37047048Y-41437738D01*
X37013783Y-41444483D01*
X36829787Y-41525584D01*
X36766352Y-41678956D01*
X36763621Y-41737478D01*
X36493638Y-41737478D01*
X36499000Y-41594420D01*
X36562476Y-41319896D01*
X36712396Y-41148663D01*
X36975259Y-41057528D01*
X37377566Y-41023295D01*
X37647853Y-41020685D01*
X37856880Y-41042842D01*
G37*
G36*
X37481219Y-39599815D02*
G01*
X37570833Y-39628106D01*
X37574873Y-39630760D01*
X37672433Y-39655750D01*
X37775154Y-39694224D01*
X37893224Y-39865419D01*
X37915667Y-40141812D01*
X37897813Y-40237458D01*
X37750011Y-40471622D01*
X37507333Y-40599175D01*
X37476892Y-40615175D01*
X37098900Y-40655266D01*
X36929897Y-40636217D01*
X36658046Y-40510939D01*
X36492875Y-40261940D01*
X36468707Y-40066501D01*
X36525328Y-39861617D01*
X36638695Y-39701552D01*
X36779336Y-39626814D01*
X36917779Y-39677913D01*
X36958361Y-39771902D01*
X36869553Y-39911019D01*
X36824835Y-39965201D01*
X36774845Y-40128386D01*
X36831441Y-40254318D01*
X36977910Y-40285265D01*
X37084047Y-40213353D01*
X37102619Y-40124074D01*
X37338000Y-40124074D01*
X37372060Y-40237243D01*
X37507333Y-40241199D01*
X37605731Y-40193516D01*
X37676666Y-40079792D01*
X37644658Y-40011470D01*
X37507333Y-39962667D01*
X37401630Y-39988317D01*
X37338000Y-40124074D01*
X37102619Y-40124074D01*
X37127630Y-40003841D01*
X37147071Y-39786432D01*
X37236316Y-39612914D01*
X37401836Y-39582730D01*
X37481219Y-39599815D01*
G37*
G36*
X37441802Y-54873355D02*
G01*
X37706916Y-54912338D01*
X37840787Y-54984719D01*
X37900126Y-55104028D01*
X37901910Y-55314196D01*
X37803666Y-55476537D01*
X37769993Y-55509456D01*
X37817342Y-55540037D01*
X37883728Y-55589363D01*
X37887580Y-55719996D01*
X37814390Y-55855166D01*
X37808479Y-55859613D01*
X37678943Y-55890783D01*
X37433792Y-55913767D01*
X37120494Y-55923865D01*
X36941909Y-55924437D01*
X36691212Y-55917448D01*
X36556360Y-55890639D01*
X36501638Y-55833265D01*
X36491333Y-55734582D01*
X36491420Y-55719941D01*
X36507598Y-55621482D01*
X36578383Y-55567925D01*
X36741998Y-55545724D01*
X37036670Y-55541334D01*
X37303940Y-55532075D01*
X37525880Y-55504968D01*
X37628404Y-55466260D01*
X37645686Y-55404637D01*
X37558950Y-55312669D01*
X37330836Y-55256638D01*
X36978166Y-55242340D01*
X36731927Y-55243738D01*
X36571371Y-55224212D01*
X36504620Y-55167459D01*
X36491333Y-55058224D01*
X36492980Y-55005057D01*
X36520206Y-54926628D01*
X36609218Y-54884405D01*
X36795858Y-54867244D01*
X37115966Y-54864000D01*
X37441802Y-54873355D01*
G37*
G36*
X37444945Y-48278005D02*
G01*
X37677788Y-48377662D01*
X37858196Y-48573198D01*
X37930666Y-48813176D01*
X37872410Y-49007171D01*
X37690300Y-49180652D01*
X37517090Y-49254548D01*
X37427936Y-49292584D01*
X37130169Y-49331677D01*
X36841847Y-49286641D01*
X36607820Y-49146184D01*
X36476954Y-48922804D01*
X36463083Y-48638714D01*
X36584716Y-48376498D01*
X36601395Y-48358377D01*
X36750878Y-48294477D01*
X36892503Y-48341761D01*
X36953151Y-48479738D01*
X36932371Y-48568388D01*
X36847318Y-48619834D01*
X36821013Y-48617208D01*
X36752277Y-48674580D01*
X36768042Y-48800059D01*
X36864795Y-48931078D01*
X36888351Y-48948750D01*
X37012175Y-48963440D01*
X37094334Y-48827934D01*
X37094728Y-48824445D01*
X37338000Y-48824445D01*
X37390950Y-48912693D01*
X37517090Y-48933099D01*
X37628404Y-48862260D01*
X37637225Y-48838023D01*
X37596366Y-48731658D01*
X37491445Y-48650045D01*
X37393710Y-48655846D01*
X37375074Y-48681017D01*
X37338000Y-48824445D01*
X37094728Y-48824445D01*
X37125037Y-48556334D01*
X37129972Y-48456209D01*
X37188771Y-48325028D01*
X37351333Y-48276299D01*
X37444945Y-48278005D01*
G37*
G36*
X37241182Y-58550257D02*
G01*
X37521649Y-58581109D01*
X37705840Y-58630776D01*
X37775801Y-58682174D01*
X37875193Y-58856903D01*
X37890347Y-59055367D01*
X37807756Y-59201871D01*
X37768404Y-59237813D01*
X37817342Y-59265371D01*
X37883728Y-59314697D01*
X37887580Y-59445329D01*
X37814390Y-59580500D01*
X37808479Y-59584946D01*
X37678943Y-59616116D01*
X37433792Y-59639100D01*
X37120494Y-59649199D01*
X36941909Y-59649771D01*
X36691212Y-59642782D01*
X36556360Y-59615972D01*
X36501638Y-59558598D01*
X36491333Y-59459915D01*
X36491367Y-59450600D01*
X36506350Y-59349302D01*
X36575024Y-59294137D01*
X36735916Y-59271221D01*
X37027555Y-59266667D01*
X37049470Y-59266643D01*
X37389642Y-59255459D01*
X37579890Y-59218991D01*
X37637785Y-59150095D01*
X37580898Y-59041624D01*
X37537177Y-59007833D01*
X37324246Y-58948820D01*
X36983078Y-58928000D01*
X36711425Y-58923726D01*
X36559870Y-58900714D01*
X36504078Y-58844118D01*
X36506611Y-58739097D01*
X36526985Y-58655203D01*
X36595134Y-58586013D01*
X36748269Y-58554433D01*
X37028507Y-58544782D01*
X37241182Y-58550257D01*
G37*
G36*
X37390427Y-24648037D02*
G01*
X37650026Y-24690395D01*
X37797619Y-24771048D01*
X37877836Y-24873259D01*
X37925705Y-25056118D01*
X37841889Y-25190875D01*
X37808711Y-25225128D01*
X37825916Y-25344038D01*
X37852298Y-25389077D01*
X37893528Y-25569334D01*
X37870527Y-25622814D01*
X37765081Y-25671165D01*
X37547743Y-25701809D01*
X37189833Y-25720925D01*
X36854948Y-25731089D01*
X36644858Y-25726635D01*
X36536896Y-25697889D01*
X36497056Y-25635577D01*
X36491333Y-25530425D01*
X36491574Y-25498141D01*
X36507915Y-25395162D01*
X36577809Y-25340590D01*
X36739844Y-25319092D01*
X37032608Y-25315334D01*
X37033588Y-25315334D01*
X37357039Y-25303382D01*
X37543190Y-25263242D01*
X37622618Y-25188334D01*
X37640719Y-25127663D01*
X37619789Y-25080738D01*
X37523197Y-25053875D01*
X37319728Y-25039387D01*
X36978166Y-25029584D01*
X36838548Y-25024791D01*
X36638358Y-25000380D01*
X36542509Y-24941259D01*
X36506611Y-24828500D01*
X36501379Y-24785180D01*
X36512655Y-24703091D01*
X36588181Y-24659064D01*
X36762977Y-24641300D01*
X37072064Y-24638000D01*
X37390427Y-24648037D01*
G37*
G36*
X37390427Y-44968037D02*
G01*
X37650026Y-45010395D01*
X37797619Y-45091048D01*
X37877836Y-45193259D01*
X37925705Y-45376118D01*
X37841889Y-45510875D01*
X37808711Y-45545128D01*
X37825916Y-45664038D01*
X37852298Y-45709077D01*
X37893528Y-45889334D01*
X37870527Y-45942814D01*
X37765081Y-45991165D01*
X37547743Y-46021809D01*
X37189833Y-46040925D01*
X36854948Y-46051089D01*
X36644858Y-46046635D01*
X36536896Y-46017889D01*
X36497056Y-45955577D01*
X36491333Y-45850425D01*
X36491574Y-45818141D01*
X36507915Y-45715162D01*
X36577809Y-45660590D01*
X36739844Y-45639092D01*
X37032608Y-45635334D01*
X37033588Y-45635334D01*
X37357039Y-45623382D01*
X37543190Y-45583242D01*
X37622618Y-45508334D01*
X37640719Y-45447663D01*
X37619789Y-45400738D01*
X37523197Y-45373875D01*
X37319728Y-45359387D01*
X36978166Y-45349584D01*
X36838548Y-45344791D01*
X36638358Y-45320380D01*
X36542509Y-45261259D01*
X36506611Y-45148500D01*
X36501379Y-45105180D01*
X36512655Y-45023091D01*
X36588181Y-44979064D01*
X36762977Y-44961300D01*
X37072064Y-44958000D01*
X37390427Y-44968037D01*
G37*
G36*
X37436820Y-49660991D02*
G01*
X37672467Y-49767581D01*
X37856439Y-49951915D01*
X37930666Y-50163794D01*
X37920972Y-50268409D01*
X37796472Y-50501514D01*
X37537349Y-50645518D01*
X37466622Y-50654249D01*
X37154876Y-50692735D01*
X37054482Y-50690515D01*
X36758590Y-50652343D01*
X36578294Y-50553335D01*
X36474300Y-50375155D01*
X36464316Y-50338124D01*
X36456842Y-50134035D01*
X36493052Y-49913883D01*
X36559898Y-49769910D01*
X36614240Y-49736185D01*
X36778049Y-49685243D01*
X36850747Y-49688275D01*
X36949736Y-49775551D01*
X36961608Y-49908437D01*
X36865610Y-50009963D01*
X36775539Y-50078657D01*
X36757889Y-50213869D01*
X36869622Y-50321578D01*
X36990478Y-50322754D01*
X37077177Y-50203855D01*
X37343067Y-50203855D01*
X37413073Y-50328405D01*
X37466622Y-50335577D01*
X37583451Y-50259968D01*
X37632835Y-50165518D01*
X37564087Y-50049969D01*
X37495433Y-50008316D01*
X37393710Y-50010513D01*
X37366570Y-50047468D01*
X37343067Y-50203855D01*
X37077177Y-50203855D01*
X37089311Y-50187214D01*
X37125037Y-49911000D01*
X37130242Y-49805631D01*
X37186044Y-49684103D01*
X37338000Y-49651436D01*
X37436820Y-49660991D01*
G37*
G36*
X37489182Y-63614427D02*
G01*
X37758772Y-63708431D01*
X37891489Y-63873959D01*
X37898626Y-64118289D01*
X37888520Y-64184292D01*
X37906946Y-64296570D01*
X38020276Y-64303382D01*
X38069284Y-64298078D01*
X38235683Y-64369352D01*
X38322961Y-64579500D01*
X38323358Y-64583388D01*
X38278418Y-64631465D01*
X38124428Y-64662937D01*
X37841385Y-64680121D01*
X37409286Y-64685334D01*
X37131783Y-64684945D01*
X36819124Y-64680096D01*
X36628884Y-64664807D01*
X36532457Y-64633091D01*
X36501235Y-64578961D01*
X36506611Y-64496431D01*
X36526551Y-64413569D01*
X36594173Y-64343737D01*
X36746557Y-64311861D01*
X37025928Y-64302145D01*
X37168517Y-64297834D01*
X37456811Y-64257478D01*
X37594701Y-64173548D01*
X37612729Y-64118853D01*
X37557917Y-64072477D01*
X37390162Y-64044056D01*
X37081273Y-64025458D01*
X36952113Y-64019716D01*
X36695191Y-64000966D01*
X36557345Y-63966573D01*
X36501688Y-63901979D01*
X36491333Y-63792625D01*
X36492081Y-63745931D01*
X36513293Y-63655311D01*
X36591974Y-63607146D01*
X36765409Y-63588057D01*
X37070878Y-63584667D01*
X37071429Y-63584667D01*
X37489182Y-63614427D01*
G37*
G36*
X37508718Y-66422463D02*
G01*
X37804285Y-66435583D01*
X37990025Y-66471020D01*
X38115658Y-66544369D01*
X38230904Y-66671222D01*
X38346845Y-66859458D01*
X38383074Y-67131404D01*
X38366947Y-67208602D01*
X38281591Y-67415215D01*
X38125333Y-67544079D01*
X37865920Y-67613202D01*
X37471097Y-67640592D01*
X37449261Y-67641144D01*
X37423524Y-67641794D01*
X37107361Y-67642488D01*
X36904401Y-67618353D01*
X36764877Y-67557987D01*
X36639022Y-67449992D01*
X36628158Y-67438928D01*
X36468335Y-67171934D01*
X36470323Y-67047569D01*
X36750885Y-67047569D01*
X36851166Y-67200184D01*
X36939897Y-67232600D01*
X37163285Y-67262718D01*
X37449261Y-67270265D01*
X37763365Y-67241984D01*
X37985584Y-67165698D01*
X38061495Y-67049350D01*
X37980539Y-66900292D01*
X37946865Y-66874438D01*
X37745551Y-66803564D01*
X37464208Y-66765730D01*
X37170580Y-66766641D01*
X36932413Y-66812005D01*
X36801911Y-66895371D01*
X36750885Y-67047569D01*
X36470323Y-67047569D01*
X36472870Y-66888227D01*
X36641690Y-66610533D01*
X36754168Y-66509884D01*
X36894448Y-66448531D01*
X37104398Y-66422915D01*
X37433639Y-66421169D01*
X37508718Y-66422463D01*
G37*
G36*
X37373856Y-34550084D02*
G01*
X37681342Y-34586265D01*
X37831671Y-34653736D01*
X37875763Y-34737156D01*
X37906245Y-34909549D01*
X37890129Y-35067498D01*
X37827982Y-35136667D01*
X37810053Y-35139983D01*
X37761333Y-35226331D01*
X37765093Y-35253397D01*
X37829066Y-35274133D01*
X37871850Y-35289829D01*
X37896800Y-35418548D01*
X37892037Y-35489372D01*
X37853296Y-35553312D01*
X37746572Y-35587899D01*
X37538088Y-35602085D01*
X37194066Y-35604824D01*
X36913266Y-35603463D01*
X36677925Y-35592860D01*
X36551710Y-35563748D01*
X36500789Y-35506898D01*
X36491333Y-35413079D01*
X36491407Y-35399888D01*
X36507507Y-35301623D01*
X36578284Y-35248064D01*
X36741939Y-35225778D01*
X37036670Y-35221334D01*
X37303940Y-35212075D01*
X37525880Y-35184968D01*
X37628404Y-35146260D01*
X37645686Y-35084637D01*
X37558950Y-34992669D01*
X37330836Y-34936638D01*
X36978166Y-34922340D01*
X36731927Y-34923738D01*
X36571371Y-34904212D01*
X36504620Y-34847459D01*
X36491333Y-34738224D01*
X36492980Y-34685057D01*
X36520206Y-34606628D01*
X36609218Y-34564405D01*
X36795858Y-34547244D01*
X37115966Y-34544000D01*
X37373856Y-34550084D01*
G37*
G36*
X37001302Y-38283948D02*
G01*
X37194950Y-38390090D01*
X37330607Y-38630890D01*
X37386170Y-38737730D01*
X37501073Y-38845272D01*
X37603900Y-38851203D01*
X37648444Y-38739704D01*
X37638690Y-38685699D01*
X37560571Y-38633871D01*
X37508114Y-38610912D01*
X37468848Y-38481000D01*
X37509519Y-38356276D01*
X37644486Y-38307314D01*
X37824833Y-38380340D01*
X37918565Y-38504620D01*
X37943792Y-38725724D01*
X37874202Y-38961191D01*
X37728595Y-39156021D01*
X37525771Y-39255218D01*
X37481871Y-39257605D01*
X37307989Y-39220353D01*
X37154163Y-39139479D01*
X37093999Y-39049973D01*
X37095873Y-39013770D01*
X37056817Y-38839469D01*
X36971140Y-38678649D01*
X36876569Y-38608000D01*
X36769539Y-38625973D01*
X36713160Y-38721238D01*
X36804280Y-38880358D01*
X36822362Y-38900818D01*
X36946155Y-39095862D01*
X36946622Y-39233322D01*
X36822508Y-39285334D01*
X36731188Y-39269590D01*
X36660666Y-39195670D01*
X36655719Y-39167429D01*
X36582408Y-39154374D01*
X36532834Y-39155762D01*
X36470123Y-39053537D01*
X36447383Y-38816926D01*
X36507629Y-38539715D01*
X36652531Y-38343911D01*
X36861533Y-38270630D01*
X37001302Y-38283948D01*
G37*
G36*
X37595404Y-26145396D02*
G01*
X37803590Y-26290075D01*
X37909572Y-26506748D01*
X37894661Y-26751352D01*
X37740166Y-26979824D01*
X37595657Y-27063985D01*
X37517090Y-27083667D01*
X37335436Y-27129173D01*
X37051314Y-27141822D01*
X36804453Y-27100564D01*
X36656012Y-27004035D01*
X36611624Y-26950301D01*
X36571345Y-26966334D01*
X36551094Y-26981203D01*
X36496355Y-26881667D01*
X36476199Y-26822579D01*
X36453040Y-26565901D01*
X36513387Y-26329417D01*
X36637463Y-26162263D01*
X36805494Y-26113573D01*
X36828275Y-26118268D01*
X36942379Y-26214498D01*
X36951665Y-26364565D01*
X36847672Y-26492460D01*
X36822058Y-26507420D01*
X36756209Y-26587677D01*
X36826178Y-26707728D01*
X36889074Y-26766116D01*
X37008330Y-26774214D01*
X37093694Y-26642410D01*
X37093776Y-26641778D01*
X37338000Y-26641778D01*
X37390950Y-26730026D01*
X37517090Y-26750432D01*
X37628404Y-26679594D01*
X37637225Y-26655356D01*
X37596366Y-26548991D01*
X37491445Y-26467379D01*
X37393710Y-26473180D01*
X37375074Y-26498350D01*
X37338000Y-26641778D01*
X37093776Y-26641778D01*
X37126333Y-26390600D01*
X37135423Y-26238661D01*
X37201052Y-26138049D01*
X37371618Y-26110952D01*
X37595404Y-26145396D01*
G37*
G36*
X37807243Y-65120408D02*
G01*
X37894887Y-65256931D01*
X37917742Y-65489496D01*
X37864269Y-65738537D01*
X37740113Y-65935499D01*
X37646409Y-66016247D01*
X37508150Y-66070098D01*
X37343480Y-66015223D01*
X37178196Y-65874416D01*
X37048760Y-65659000D01*
X37046491Y-65652801D01*
X36951273Y-65471189D01*
X36851166Y-65383834D01*
X36785851Y-65399411D01*
X36747703Y-65503085D01*
X36775309Y-65637461D01*
X36865610Y-65729372D01*
X36895496Y-65747143D01*
X36956917Y-65857946D01*
X36956502Y-65984326D01*
X36888194Y-66042328D01*
X36852531Y-66041367D01*
X36700272Y-66040000D01*
X36602449Y-65997156D01*
X36499013Y-65849500D01*
X36457923Y-65604943D01*
X36487779Y-65343603D01*
X36579916Y-65156382D01*
X36727156Y-65071957D01*
X36966284Y-65060886D01*
X37179580Y-65160877D01*
X37270418Y-65266268D01*
X37295666Y-65362667D01*
X37313698Y-65444084D01*
X37424663Y-65576141D01*
X37540451Y-65670094D01*
X37598478Y-65693289D01*
X37605527Y-65656323D01*
X37632934Y-65513459D01*
X37632696Y-65436457D01*
X37566805Y-65386459D01*
X37510557Y-65364590D01*
X37468848Y-65235667D01*
X37503375Y-65120301D01*
X37633777Y-65059537D01*
X37807243Y-65120408D01*
G37*
G36*
X37386243Y-27523651D02*
G01*
X37647740Y-27542123D01*
X37796742Y-27568059D01*
X37827220Y-27583997D01*
X37915203Y-27724629D01*
X37917411Y-27919933D01*
X37829066Y-28092400D01*
X37794962Y-28137762D01*
X37836599Y-28181902D01*
X38023800Y-28194000D01*
X38183475Y-28202088D01*
X38294026Y-28255502D01*
X38320133Y-28386421D01*
X38318985Y-28434886D01*
X38298731Y-28503685D01*
X38229469Y-28545139D01*
X38081126Y-28565289D01*
X37823628Y-28570176D01*
X37426900Y-28565841D01*
X37140255Y-28561154D01*
X36821691Y-28554486D01*
X36600438Y-28548049D01*
X36512500Y-28542754D01*
X36500352Y-28506092D01*
X36491333Y-28363334D01*
X36500099Y-28289981D01*
X36560522Y-28227931D01*
X36712306Y-28200301D01*
X36994336Y-28194000D01*
X37215323Y-28185194D01*
X37466401Y-28139496D01*
X37585665Y-28061610D01*
X37554773Y-27959219D01*
X37487726Y-27936111D01*
X37289379Y-27911443D01*
X37017129Y-27899755D01*
X36814198Y-27894753D01*
X36628114Y-27871033D01*
X36539788Y-27813374D01*
X36506611Y-27705570D01*
X36501549Y-27664148D01*
X36512566Y-27582049D01*
X36587831Y-27537914D01*
X36762364Y-27520026D01*
X37071187Y-27516667D01*
X37386243Y-27523651D01*
G37*
G36*
X37184599Y-60029448D02*
G01*
X37483770Y-60047365D01*
X37671685Y-60096306D01*
X37792804Y-60185997D01*
X37870527Y-60329272D01*
X37911999Y-60566287D01*
X37891091Y-60798007D01*
X37806451Y-60948917D01*
X37673740Y-61006501D01*
X37527696Y-60972964D01*
X37468848Y-60833000D01*
X37491003Y-60736984D01*
X37574682Y-60684834D01*
X37623530Y-60679354D01*
X37676666Y-60579000D01*
X37664045Y-60520130D01*
X37566600Y-60452000D01*
X37477644Y-60470932D01*
X37320819Y-60599276D01*
X37253333Y-60787234D01*
X37250633Y-60821603D01*
X37157719Y-60972687D01*
X36974944Y-61062416D01*
X36861966Y-61073410D01*
X36760419Y-61083292D01*
X36572255Y-61027817D01*
X36468562Y-60888493D01*
X36458325Y-60814416D01*
X36477114Y-60671531D01*
X36479111Y-60667391D01*
X36481149Y-60655609D01*
X36758590Y-60655609D01*
X36861966Y-60706000D01*
X36892125Y-60702884D01*
X37023890Y-60635444D01*
X37119062Y-60525150D01*
X37120696Y-60432252D01*
X37065585Y-60413563D01*
X36909764Y-60428750D01*
X36857000Y-60449031D01*
X36760699Y-60548114D01*
X36758590Y-60655609D01*
X36481149Y-60655609D01*
X36503184Y-60528216D01*
X36507130Y-60311698D01*
X36496490Y-60028667D01*
X37073456Y-60028667D01*
X37184599Y-60029448D01*
G37*
G36*
X37892339Y-36423093D02*
G01*
X37879866Y-36711409D01*
X37777080Y-36939693D01*
X37559277Y-37061869D01*
X37205944Y-37098112D01*
X37173621Y-37097567D01*
X37156195Y-37097273D01*
X36840097Y-37045807D01*
X36617647Y-36928879D01*
X36514046Y-36766572D01*
X36554496Y-36578971D01*
X36571873Y-36549248D01*
X36577030Y-36527242D01*
X36850027Y-36527242D01*
X36857348Y-36620610D01*
X36974205Y-36693277D01*
X37173621Y-36726540D01*
X37428615Y-36701694D01*
X37512628Y-36680727D01*
X37621436Y-36621225D01*
X37593273Y-36535201D01*
X37542674Y-36484067D01*
X37303395Y-36381397D01*
X37017342Y-36416575D01*
X36979222Y-36431877D01*
X36850027Y-36527242D01*
X36577030Y-36527242D01*
X36605244Y-36406856D01*
X36523116Y-36365724D01*
X36355640Y-36446013D01*
X36333303Y-36462934D01*
X36246942Y-36568558D01*
X36300833Y-36671901D01*
X36337390Y-36719563D01*
X36395774Y-36872882D01*
X36402844Y-37018934D01*
X36349833Y-37084000D01*
X36282342Y-37054870D01*
X36145164Y-36950210D01*
X36065426Y-36819974D01*
X36023566Y-36573753D01*
X36051595Y-36314551D01*
X36149130Y-36122122D01*
X36167497Y-36109132D01*
X36338946Y-36064696D01*
X36645216Y-36035908D01*
X37058951Y-36025667D01*
X37872533Y-36025667D01*
X37892339Y-36423093D01*
G37*
G36*
X37234623Y-43518940D02*
G01*
X37573971Y-43526083D01*
X37779116Y-43546227D01*
X37877710Y-43583798D01*
X37897403Y-43643217D01*
X37885804Y-43696712D01*
X37825211Y-43821678D01*
X37813128Y-43887988D01*
X37870753Y-44034840D01*
X37878803Y-44048523D01*
X37900130Y-44229172D01*
X37782366Y-44392585D01*
X37553433Y-44514918D01*
X37241255Y-44572331D01*
X37103425Y-44564062D01*
X36958347Y-44555358D01*
X36695547Y-44465671D01*
X36531443Y-44321610D01*
X36489438Y-44145317D01*
X36538393Y-44057154D01*
X36769936Y-44057154D01*
X36810655Y-44141711D01*
X36892617Y-44181334D01*
X37103425Y-44226167D01*
X37324969Y-44222633D01*
X37512436Y-44178657D01*
X37621016Y-44102163D01*
X37605895Y-44001077D01*
X37600474Y-43995045D01*
X37450477Y-43916367D01*
X37227134Y-43873073D01*
X37217946Y-43872530D01*
X37016075Y-43895154D01*
X36852574Y-43965832D01*
X36769936Y-44057154D01*
X36538393Y-44057154D01*
X36592933Y-43958934D01*
X36647339Y-43881066D01*
X36567533Y-43857334D01*
X36395126Y-43907366D01*
X36300815Y-44027349D01*
X36330514Y-44163926D01*
X36378231Y-44266916D01*
X36391999Y-44466507D01*
X36364333Y-44661667D01*
X36173833Y-44471167D01*
X36014213Y-44214050D01*
X36006305Y-43938475D01*
X36152666Y-43688000D01*
X36192964Y-43650921D01*
X36307175Y-43582807D01*
X36473559Y-43542617D01*
X36731114Y-43523515D01*
X37118842Y-43518667D01*
X37234623Y-43518940D01*
G37*
G36*
X37490752Y-53384373D02*
G01*
X37738300Y-53404140D01*
X37860741Y-53449406D01*
X37880767Y-53528975D01*
X37821071Y-53651650D01*
X37802667Y-53699504D01*
X37844619Y-53804814D01*
X37910875Y-53871350D01*
X37937832Y-54040805D01*
X37856590Y-54221036D01*
X37684473Y-54352767D01*
X37641373Y-54368629D01*
X37375563Y-54419923D01*
X37249951Y-54423925D01*
X37066635Y-54429765D01*
X36784024Y-54399561D01*
X36597166Y-54330719D01*
X36507931Y-54175515D01*
X36503692Y-53962565D01*
X36552400Y-53860220D01*
X36794207Y-53860220D01*
X36806853Y-53951453D01*
X36957036Y-54026522D01*
X37234501Y-54063166D01*
X37249951Y-54063504D01*
X37476868Y-54035031D01*
X37609452Y-53959757D01*
X37623756Y-53864128D01*
X37495831Y-53774588D01*
X37335791Y-53737327D01*
X37084000Y-53736473D01*
X36929352Y-53775082D01*
X36794207Y-53860220D01*
X36552400Y-53860220D01*
X36588196Y-53785004D01*
X36598623Y-53774308D01*
X36621666Y-53718687D01*
X36502210Y-53735957D01*
X36362462Y-53788266D01*
X36268035Y-53882302D01*
X36320619Y-53974147D01*
X36374916Y-54054349D01*
X36406666Y-54233997D01*
X36393959Y-54330316D01*
X36307899Y-54432927D01*
X36183566Y-54407035D01*
X36072090Y-54250167D01*
X36022042Y-54075330D01*
X36033137Y-53767135D01*
X36179259Y-53527601D01*
X36274631Y-53465372D01*
X36448147Y-53416194D01*
X36719350Y-53389969D01*
X37123854Y-53381176D01*
X37490752Y-53384373D01*
G37*
G36*
X37395490Y-61474822D02*
G01*
X37691110Y-61512303D01*
X37836794Y-61583909D01*
X37895334Y-61725912D01*
X37895884Y-61943580D01*
X37822261Y-62112628D01*
X37805540Y-62140376D01*
X37824628Y-62262976D01*
X37842715Y-62297263D01*
X37887760Y-62482211D01*
X37884467Y-62674303D01*
X37831703Y-62789170D01*
X37806595Y-62817893D01*
X37821071Y-62934351D01*
X37869263Y-63023257D01*
X37875841Y-63118267D01*
X37781796Y-63173757D01*
X37564315Y-63199723D01*
X37200584Y-63206157D01*
X36910461Y-63204709D01*
X36676575Y-63193931D01*
X36551211Y-63164692D01*
X36500689Y-63107888D01*
X36491333Y-63014412D01*
X36500213Y-62921598D01*
X36557371Y-62855903D01*
X36703273Y-62827814D01*
X36978166Y-62821371D01*
X37186262Y-62814751D01*
X37433908Y-62788890D01*
X37574841Y-62750397D01*
X37596498Y-62735343D01*
X37636470Y-62649261D01*
X37532354Y-62579823D01*
X37305727Y-62535228D01*
X36978166Y-62523673D01*
X36731927Y-62525072D01*
X36571371Y-62505545D01*
X36504620Y-62448792D01*
X36491333Y-62339557D01*
X36500359Y-62244055D01*
X36557553Y-62178325D01*
X36703388Y-62150381D01*
X36978166Y-62144037D01*
X37186262Y-62137418D01*
X37433908Y-62111557D01*
X37574841Y-62073064D01*
X37596498Y-62058009D01*
X37636470Y-61971928D01*
X37532354Y-61902490D01*
X37305727Y-61857894D01*
X36978166Y-61846340D01*
X36731927Y-61847738D01*
X36571371Y-61828212D01*
X36504620Y-61771459D01*
X36491333Y-61662224D01*
X36492980Y-61609057D01*
X36520206Y-61530628D01*
X36609218Y-61488405D01*
X36795858Y-61471244D01*
X37115966Y-61468000D01*
X37395490Y-61474822D01*
G37*
G36*
X36863792Y-32166245D02*
G01*
X36946878Y-32221292D01*
X36999333Y-32212912D01*
X37035400Y-32202237D01*
X37147500Y-32279570D01*
X37259977Y-32362114D01*
X37422666Y-32433270D01*
X37488379Y-32435155D01*
X37701882Y-32386387D01*
X37919211Y-32289306D01*
X38054439Y-32178556D01*
X38054882Y-32177842D01*
X38168470Y-32092563D01*
X38278213Y-32117796D01*
X38310653Y-32236834D01*
X38296977Y-32316275D01*
X38275811Y-32490834D01*
X38268513Y-32529835D01*
X38205833Y-32578713D01*
X38128107Y-32593249D01*
X37973533Y-32671672D01*
X37826681Y-32774838D01*
X37761333Y-32856617D01*
X37762108Y-32860346D01*
X37849115Y-32890917D01*
X38036367Y-32899750D01*
X38143392Y-32901069D01*
X38276988Y-32943569D01*
X38311534Y-33062334D01*
X38310984Y-33084784D01*
X38290602Y-33152855D01*
X38218985Y-33197710D01*
X38066610Y-33225620D01*
X37803955Y-33242858D01*
X37634333Y-33248270D01*
X37401500Y-33255698D01*
X37115319Y-33262909D01*
X36811212Y-33266072D01*
X36626562Y-33254999D01*
X36531567Y-33223881D01*
X36496425Y-33166909D01*
X36491333Y-33078273D01*
X36494802Y-33008535D01*
X36553489Y-32906461D01*
X36724166Y-32892072D01*
X36829853Y-32896734D01*
X36874761Y-32893000D01*
X37592000Y-32893000D01*
X37634333Y-32935334D01*
X37676666Y-32893000D01*
X37634333Y-32850667D01*
X37592000Y-32893000D01*
X36874761Y-32893000D01*
X37071363Y-32876653D01*
X37153997Y-32809945D01*
X37074595Y-32706088D01*
X36830000Y-32574558D01*
X36682209Y-32502924D01*
X36532811Y-32378803D01*
X36491333Y-32223410D01*
X36535386Y-32070105D01*
X36664568Y-32047492D01*
X36863792Y-32166245D01*
G37*
G36*
X40055739Y-25026607D02*
G01*
X40164939Y-25107115D01*
X40216666Y-25103667D01*
X40264147Y-25099136D01*
X40386000Y-25188334D01*
X40503288Y-25275249D01*
X40555333Y-25273001D01*
X40602814Y-25268470D01*
X40724666Y-25357667D01*
X40841954Y-25444582D01*
X40894000Y-25442334D01*
X40941480Y-25437803D01*
X41063333Y-25527000D01*
X41180621Y-25613915D01*
X41232666Y-25611667D01*
X41280147Y-25607136D01*
X41402000Y-25696334D01*
X41519288Y-25783249D01*
X41571333Y-25781001D01*
X41618814Y-25776470D01*
X41740666Y-25865667D01*
X41857954Y-25952582D01*
X41910000Y-25950334D01*
X41957480Y-25945803D01*
X42079333Y-26035000D01*
X42196621Y-26121915D01*
X42248666Y-26119667D01*
X42296147Y-26115136D01*
X42418000Y-26204334D01*
X42535288Y-26291249D01*
X42587333Y-26289000D01*
X42634814Y-26284470D01*
X42756666Y-26373667D01*
X42873954Y-26460582D01*
X42926000Y-26458334D01*
X42973480Y-26453803D01*
X43095333Y-26543001D01*
X43212621Y-26629915D01*
X43264666Y-26627667D01*
X43312147Y-26623136D01*
X43434000Y-26712334D01*
X43551288Y-26799249D01*
X43603333Y-26797000D01*
X43650814Y-26792470D01*
X43772666Y-26881667D01*
X43889954Y-26968582D01*
X43942000Y-26966334D01*
X43989480Y-26961803D01*
X44111333Y-27051000D01*
X44228621Y-27137915D01*
X44280666Y-27135667D01*
X44328147Y-27131136D01*
X44450000Y-27220334D01*
X44567288Y-27307249D01*
X44619333Y-27305000D01*
X44666814Y-27300470D01*
X44788666Y-27389667D01*
X44905867Y-27477308D01*
X44958000Y-27477089D01*
X44983151Y-27458897D01*
X45086009Y-27517505D01*
X45115601Y-27537825D01*
X45284766Y-27634234D01*
X45575656Y-27789168D01*
X45968794Y-27992968D01*
X46444702Y-28235973D01*
X46983903Y-28508524D01*
X47566918Y-28800962D01*
X48174269Y-29103627D01*
X48786480Y-29406860D01*
X49384073Y-29701002D01*
X49947569Y-29976393D01*
X50457491Y-30223373D01*
X50894361Y-30432283D01*
X51238702Y-30593464D01*
X51471035Y-30697257D01*
X51571884Y-30734000D01*
X51661772Y-30714260D01*
X51817698Y-30604954D01*
X51888052Y-30538481D01*
X51969361Y-30520473D01*
X52036183Y-30515370D01*
X52168962Y-30424730D01*
X52272084Y-30345695D01*
X52324000Y-30340489D01*
X52374056Y-30331671D01*
X52527147Y-30245530D01*
X52747333Y-30099000D01*
X52946413Y-29965700D01*
X53108480Y-29872061D01*
X53170666Y-29857512D01*
X53217767Y-29853590D01*
X53340000Y-29760334D01*
X53456892Y-29670143D01*
X53509333Y-29663155D01*
X53559390Y-29654337D01*
X53712480Y-29568197D01*
X53932666Y-29421667D01*
X54131746Y-29288367D01*
X54293814Y-29194727D01*
X54356000Y-29180179D01*
X54391048Y-29186188D01*
X54504166Y-29108992D01*
X54611728Y-29026166D01*
X54779333Y-28925604D01*
X54788874Y-28921251D01*
X54952575Y-28831507D01*
X55160333Y-28702001D01*
X55178281Y-28690228D01*
X55385771Y-28561448D01*
X55541333Y-28476285D01*
X55589859Y-28451835D01*
X55775966Y-28346650D01*
X56007000Y-28206929D01*
X56116000Y-28140766D01*
X56297504Y-28040119D01*
X56388000Y-28004210D01*
X56447721Y-27979508D01*
X56578500Y-27878512D01*
X56675032Y-27804770D01*
X56726666Y-27800489D01*
X56776723Y-27791671D01*
X56929814Y-27705530D01*
X57150000Y-27559000D01*
X57349079Y-27425700D01*
X57511147Y-27332061D01*
X57573333Y-27317512D01*
X57620434Y-27313590D01*
X57742666Y-27220334D01*
X57859558Y-27130143D01*
X57912000Y-27123155D01*
X57962056Y-27114337D01*
X58115147Y-27028197D01*
X58335333Y-26881667D01*
X58534413Y-26748367D01*
X58696480Y-26654727D01*
X58758666Y-26640179D01*
X58793715Y-26646188D01*
X58906833Y-26568992D01*
X59014394Y-26486166D01*
X59182000Y-26385604D01*
X59190390Y-26381799D01*
X59354210Y-26293689D01*
X59563000Y-26167002D01*
X59662985Y-26105013D01*
X59932453Y-25946593D01*
X60219166Y-25786119D01*
X60621333Y-25567704D01*
X60618633Y-28468352D01*
X60615933Y-31369000D01*
X56718752Y-33316334D01*
X56472739Y-33439345D01*
X55731713Y-33810919D01*
X55041784Y-34158412D01*
X54417313Y-34474494D01*
X53872661Y-34751835D01*
X53422188Y-34983103D01*
X53080256Y-35160968D01*
X52861225Y-35278099D01*
X52779455Y-35327167D01*
X52843416Y-35339240D01*
X53060477Y-35351284D01*
X53415142Y-35362207D01*
X53891033Y-35371741D01*
X54471774Y-35379621D01*
X55140989Y-35385580D01*
X55882302Y-35389351D01*
X56679336Y-35390667D01*
X60621333Y-35390667D01*
X60621333Y-38122301D01*
X60621333Y-40853936D01*
X58253769Y-40851670D01*
X57826460Y-40851901D01*
X57145700Y-40856127D01*
X56625473Y-40865684D01*
X56260067Y-40881015D01*
X56043770Y-40902566D01*
X55970869Y-40930782D01*
X56035652Y-40966105D01*
X56232407Y-41008982D01*
X56409761Y-41055304D01*
X56655740Y-41155354D01*
X56797834Y-41224761D01*
X56896000Y-41257754D01*
X56901355Y-41257431D01*
X56972161Y-41268572D01*
X57110894Y-41315695D01*
X57361666Y-41413561D01*
X57372125Y-41417724D01*
X57557488Y-41489477D01*
X57658000Y-41524717D01*
X57768627Y-41580194D01*
X57965020Y-41703440D01*
X58192992Y-41858360D01*
X58399994Y-42009208D01*
X58533479Y-42120242D01*
X58624751Y-42198893D01*
X58674000Y-42208439D01*
X58722429Y-42230733D01*
X58859826Y-42346751D01*
X59055000Y-42531727D01*
X59233287Y-42717276D01*
X59379770Y-42891942D01*
X59436000Y-42990968D01*
X59460340Y-43058795D01*
X59571820Y-43187321D01*
X59658123Y-43276587D01*
X59784540Y-43472854D01*
X59791886Y-43488985D01*
X59894905Y-43688811D01*
X60028000Y-43920834D01*
X60060418Y-43976109D01*
X60137802Y-44132963D01*
X60143579Y-44196000D01*
X60130933Y-44213948D01*
X60185948Y-44308479D01*
X60249951Y-44418120D01*
X60317023Y-44625979D01*
X60344672Y-44759417D01*
X60367520Y-44831000D01*
X60391619Y-44895289D01*
X60440383Y-45111857D01*
X60508707Y-45466000D01*
X60514059Y-45515084D01*
X60525282Y-45732342D01*
X60536842Y-46093880D01*
X60548440Y-46582957D01*
X60559773Y-47182833D01*
X60570543Y-47876767D01*
X60580449Y-48648016D01*
X60589189Y-49479841D01*
X60596464Y-50355500D01*
X60629637Y-54948667D01*
X52455152Y-54948667D01*
X44280666Y-54948667D01*
X44280666Y-58611392D01*
X44280666Y-62274117D01*
X46263705Y-62272798D01*
X46608173Y-62271509D01*
X47141343Y-62265056D01*
X47603336Y-62253960D01*
X47969614Y-62239074D01*
X48215639Y-62221253D01*
X48316872Y-62201350D01*
X48317950Y-62199904D01*
X48333764Y-62091566D01*
X48348291Y-61834307D01*
X48361113Y-61447279D01*
X48371812Y-60949629D01*
X48379972Y-60360507D01*
X48385173Y-59699063D01*
X48387000Y-58984445D01*
X48387000Y-55837667D01*
X50523826Y-55815049D01*
X52660652Y-55792430D01*
X52682826Y-59032382D01*
X52705000Y-62272334D01*
X54356000Y-62277528D01*
X54409975Y-62277665D01*
X54920309Y-62275596D01*
X55371193Y-62267950D01*
X55735158Y-62255629D01*
X55984738Y-62239535D01*
X56092463Y-62220567D01*
X56104459Y-62191487D01*
X56126311Y-62008383D01*
X56144375Y-61663430D01*
X56158532Y-61161632D01*
X56168658Y-60507992D01*
X56174634Y-59707515D01*
X56176336Y-58765206D01*
X56174745Y-55372000D01*
X58398592Y-55372000D01*
X60622439Y-55372000D01*
X60600720Y-61531500D01*
X60579000Y-67691000D01*
X58278115Y-67690227D01*
X58181933Y-67690215D01*
X57440959Y-67691913D01*
X56862133Y-67697046D01*
X56439038Y-67705901D01*
X56165255Y-67718764D01*
X56034370Y-67735922D01*
X56039963Y-67757663D01*
X56175619Y-67784273D01*
X56538412Y-67867827D01*
X57046436Y-68046852D01*
X57592691Y-68289608D01*
X58127554Y-68571684D01*
X58601402Y-68868672D01*
X58964612Y-69156162D01*
X59151537Y-69325637D01*
X59296022Y-69442520D01*
X59351333Y-69467177D01*
X59376237Y-69478094D01*
X59476485Y-69588559D01*
X59627330Y-69780015D01*
X59864407Y-70103228D01*
X60175962Y-70566463D01*
X60385395Y-70936158D01*
X60484459Y-71198662D01*
X60502974Y-71273192D01*
X60572801Y-71473222D01*
X60603235Y-71552340D01*
X60663710Y-71769555D01*
X60681961Y-71854552D01*
X60706000Y-71924334D01*
X60715202Y-71938918D01*
X60746751Y-72051334D01*
X60780750Y-72206995D01*
X60829884Y-72432334D01*
X60880050Y-72722790D01*
X60930864Y-73187851D01*
X60967050Y-73728392D01*
X60988342Y-74309552D01*
X60994469Y-74896476D01*
X60985165Y-75454304D01*
X60960162Y-75948179D01*
X60919190Y-76343242D01*
X60861982Y-76604637D01*
X60811388Y-76797211D01*
X60773324Y-77055573D01*
X60740186Y-77249144D01*
X60687500Y-77354434D01*
X60646053Y-77424811D01*
X60621333Y-77597001D01*
X60604740Y-77733197D01*
X60546046Y-77845204D01*
X60479455Y-77939036D01*
X60412449Y-78125367D01*
X60342302Y-78311147D01*
X60212570Y-78516056D01*
X60127918Y-78622975D01*
X60106591Y-78685389D01*
X60105917Y-78709026D01*
X60044423Y-78837021D01*
X59924456Y-79036334D01*
X59877299Y-79104239D01*
X59718691Y-79302530D01*
X59511032Y-79538553D01*
X59281094Y-79784790D01*
X59055649Y-80013725D01*
X58861470Y-80197842D01*
X58725329Y-80309623D01*
X58674000Y-80321552D01*
X58673861Y-80319187D01*
X58617162Y-80328382D01*
X58488702Y-80430036D01*
X58332634Y-80549299D01*
X58202735Y-80602667D01*
X58130931Y-80623421D01*
X57994968Y-80731713D01*
X57924614Y-80798186D01*
X57843306Y-80816195D01*
X57789262Y-80813963D01*
X57664871Y-80892782D01*
X57577960Y-80964165D01*
X57488666Y-81014502D01*
X57463979Y-81017008D01*
X57392273Y-81036509D01*
X57245055Y-81087135D01*
X56980666Y-81182679D01*
X56826490Y-81236522D01*
X56706678Y-81273197D01*
X56682073Y-81279855D01*
X56529061Y-81329209D01*
X56304512Y-81406585D01*
X56213303Y-81437422D01*
X56035362Y-81487273D01*
X55964666Y-81490007D01*
X55964666Y-81489959D01*
X55896397Y-81490182D01*
X55732604Y-81541755D01*
X55484285Y-81613440D01*
X55203437Y-81664141D01*
X55203151Y-81664174D01*
X54931269Y-81702534D01*
X54694666Y-81746788D01*
X54589277Y-81766311D01*
X54322593Y-81801780D01*
X54017333Y-81831127D01*
X53860474Y-81844519D01*
X53490268Y-81883257D01*
X53170666Y-81924925D01*
X53023826Y-81939857D01*
X52696235Y-81957572D01*
X52248566Y-81972016D01*
X51709290Y-81983106D01*
X51106877Y-81990761D01*
X50469795Y-81994899D01*
X50249666Y-81995083D01*
X49826513Y-81995436D01*
X49205502Y-81992292D01*
X48635230Y-81985384D01*
X48144167Y-81974629D01*
X47760782Y-81959946D01*
X47513544Y-81941252D01*
X47238054Y-81909953D01*
X46782618Y-81864472D01*
X46366511Y-81829094D01*
X46365118Y-81828991D01*
X46063086Y-81801216D01*
X45828912Y-81769776D01*
X45713188Y-81741457D01*
X45698367Y-81734239D01*
X45547232Y-81696148D01*
X45319906Y-81663420D01*
X45300610Y-81661301D01*
X45014175Y-81611499D01*
X44766729Y-81541755D01*
X44766424Y-81541639D01*
X44602734Y-81490137D01*
X44534666Y-81490007D01*
X44522406Y-81495393D01*
X44402463Y-81472231D01*
X44196000Y-81407000D01*
X44105263Y-81376782D01*
X43927832Y-81331525D01*
X43857333Y-81336457D01*
X43839446Y-81348013D01*
X43744855Y-81292052D01*
X43668129Y-81242727D01*
X43469688Y-81173403D01*
X43375311Y-81151217D01*
X43180000Y-81068265D01*
X43109630Y-81029890D01*
X42942749Y-80971725D01*
X42942146Y-80971632D01*
X42797180Y-80914776D01*
X42604083Y-80802349D01*
X42592732Y-80794827D01*
X42421883Y-80697056D01*
X42320287Y-80665798D01*
X42272866Y-80654122D01*
X42161753Y-80557627D01*
X42092393Y-80492394D01*
X41956988Y-80433334D01*
X41886367Y-80397980D01*
X41717949Y-80263770D01*
X41490978Y-80058157D01*
X41236241Y-79811867D01*
X40984522Y-79555624D01*
X40766607Y-79320155D01*
X40613283Y-79136183D01*
X40555333Y-79034435D01*
X40514724Y-78933076D01*
X40389360Y-78785375D01*
X40281505Y-78671816D01*
X40233468Y-78581753D01*
X40232135Y-78543109D01*
X40190287Y-78401334D01*
X40065913Y-78094669D01*
X39966004Y-77827714D01*
X39915556Y-77665551D01*
X39914077Y-77658755D01*
X39872469Y-77504154D01*
X39806229Y-77284551D01*
X39800122Y-77264747D01*
X39726399Y-76974743D01*
X39668878Y-76670604D01*
X39658198Y-76602338D01*
X39617904Y-76400088D01*
X39583945Y-76301057D01*
X39572947Y-76233977D01*
X39564843Y-76022173D01*
X39562032Y-75695746D01*
X39563917Y-75284708D01*
X39569901Y-74819072D01*
X39576679Y-74468765D01*
X43141192Y-74468765D01*
X43162730Y-74932115D01*
X43290198Y-75353334D01*
X43364949Y-75489822D01*
X43474990Y-75647645D01*
X43565649Y-75740162D01*
X43603333Y-75727259D01*
X43641348Y-75721062D01*
X43755141Y-75803140D01*
X43762506Y-75809447D01*
X43937986Y-75903789D01*
X44225726Y-76010037D01*
X44574910Y-76113075D01*
X44934718Y-76197788D01*
X45254333Y-76249061D01*
X45646637Y-76286951D01*
X46096955Y-76322094D01*
X46577813Y-76349872D01*
X47112339Y-76370998D01*
X47723659Y-76386187D01*
X48434902Y-76396152D01*
X49269196Y-76401608D01*
X50249666Y-76403267D01*
X51249127Y-76400274D01*
X52312269Y-76389185D01*
X53243131Y-76370171D01*
X54035558Y-76343501D01*
X54683392Y-76309443D01*
X55180480Y-76268266D01*
X55520663Y-76220238D01*
X55697787Y-76165627D01*
X55702300Y-76163048D01*
X55836542Y-76118921D01*
X56049333Y-76073000D01*
X56061294Y-76070856D01*
X56280706Y-76019202D01*
X56423208Y-75964782D01*
X56454437Y-75946877D01*
X56582791Y-75904964D01*
X56633679Y-75879778D01*
X56780429Y-75763189D01*
X56972188Y-75583980D01*
X57009488Y-75546701D01*
X57167549Y-75372076D01*
X57254911Y-75212175D01*
X57294822Y-75005645D01*
X57310530Y-74691136D01*
X57301690Y-74378675D01*
X57260212Y-74081836D01*
X57195507Y-73849451D01*
X57117428Y-73716441D01*
X57035830Y-73717726D01*
X57007833Y-73727678D01*
X56980667Y-73643341D01*
X56939646Y-73569348D01*
X56768147Y-73439538D01*
X56493833Y-73298063D01*
X56492286Y-73297377D01*
X56278670Y-73207615D01*
X56075498Y-73137601D01*
X55847024Y-73079624D01*
X55557503Y-73025971D01*
X55171188Y-72968933D01*
X54652333Y-72900796D01*
X54479293Y-72886971D01*
X54140541Y-72872901D01*
X53675132Y-72861112D01*
X53104208Y-72851587D01*
X52448910Y-72844309D01*
X51730380Y-72839262D01*
X50969758Y-72836429D01*
X50188186Y-72835794D01*
X49406805Y-72837339D01*
X48646756Y-72841048D01*
X47929181Y-72846905D01*
X47275221Y-72854893D01*
X46706016Y-72864996D01*
X46242709Y-72877196D01*
X45906440Y-72891477D01*
X45718351Y-72907822D01*
X45548099Y-72934467D01*
X45214525Y-72982181D01*
X44948070Y-73014988D01*
X44945600Y-73015246D01*
X44420421Y-73116966D01*
X43949230Y-73296745D01*
X43569998Y-73535899D01*
X43320693Y-73815745D01*
X43224225Y-74031755D01*
X43141192Y-74468765D01*
X39576679Y-74468765D01*
X39579386Y-74328848D01*
X39591775Y-73844048D01*
X39606471Y-73394685D01*
X39622875Y-73010771D01*
X39640391Y-72722316D01*
X39658422Y-72559334D01*
X39724079Y-72276492D01*
X39806143Y-71982783D01*
X39810702Y-71968236D01*
X39875461Y-71743005D01*
X39912004Y-71583067D01*
X39922417Y-71535623D01*
X39988438Y-71404673D01*
X40015546Y-71361653D01*
X40047333Y-71204905D01*
X40091073Y-71000677D01*
X40234402Y-70686835D01*
X40453371Y-70321499D01*
X40723018Y-69939691D01*
X41018378Y-69576435D01*
X41314489Y-69266753D01*
X41586387Y-69045667D01*
X41632997Y-69014926D01*
X41817568Y-68892410D01*
X42045501Y-68740467D01*
X42150318Y-68672688D01*
X42333430Y-68566644D01*
X42430278Y-68528800D01*
X42516442Y-68490772D01*
X42663111Y-68376378D01*
X42788894Y-68281849D01*
X42841333Y-68280912D01*
X42856496Y-68302755D01*
X42947166Y-68262971D01*
X43050783Y-68209173D01*
X43276945Y-68117863D01*
X43568797Y-68011817D01*
X43874862Y-67908935D01*
X44143661Y-67827119D01*
X44323714Y-67784273D01*
X44327392Y-67783731D01*
X44462604Y-67756836D01*
X44464447Y-67735141D01*
X44326934Y-67718388D01*
X44044077Y-67706321D01*
X43718364Y-67700590D01*
X43609888Y-67698682D01*
X43018380Y-67695212D01*
X42263566Y-67695655D01*
X41673563Y-67695123D01*
X41122497Y-67690347D01*
X40648491Y-67681839D01*
X40274611Y-67670152D01*
X40023925Y-67655838D01*
X39919498Y-67639451D01*
X39914094Y-67604714D01*
X39905593Y-67418661D01*
X39897608Y-67082883D01*
X39890150Y-66609582D01*
X39883230Y-66010960D01*
X39876859Y-65299221D01*
X39871050Y-64486566D01*
X39865813Y-63585198D01*
X39861160Y-62607320D01*
X39857103Y-61565135D01*
X39853652Y-60470844D01*
X39850820Y-59336650D01*
X39848618Y-58174755D01*
X39847057Y-56997363D01*
X39846148Y-55816676D01*
X39845904Y-54644896D01*
X39846335Y-53494225D01*
X39847454Y-52376867D01*
X39849270Y-51305023D01*
X39851797Y-50290896D01*
X39854411Y-49531044D01*
X43718364Y-49531044D01*
X50201349Y-49509356D01*
X56684333Y-49487667D01*
X56676246Y-48725667D01*
X56670864Y-48421465D01*
X56642399Y-47894080D01*
X56580521Y-47493257D01*
X56472938Y-47190497D01*
X56307352Y-46957301D01*
X56071471Y-46765172D01*
X55753000Y-46585610D01*
X55658034Y-46539048D01*
X55583666Y-46505659D01*
X55458771Y-46449584D01*
X55349424Y-46412829D01*
X55243967Y-46397496D01*
X55050958Y-46358872D01*
X54681959Y-46297139D01*
X54150744Y-46240814D01*
X53502509Y-46194690D01*
X52761089Y-46158764D01*
X51950322Y-46133034D01*
X51094046Y-46117497D01*
X50216099Y-46112151D01*
X49340317Y-46116993D01*
X48490538Y-46132021D01*
X47690600Y-46157232D01*
X46964339Y-46192624D01*
X46335594Y-46238195D01*
X45828202Y-46293941D01*
X45466000Y-46359861D01*
X45304578Y-46398753D01*
X45089193Y-46446019D01*
X44915666Y-46494799D01*
X44909215Y-46496612D01*
X44746333Y-46577584D01*
X44517587Y-46691299D01*
X44184345Y-46962951D01*
X44145954Y-47004953D01*
X43989617Y-47216388D01*
X43884444Y-47464207D01*
X43800533Y-47814774D01*
X43793251Y-47859613D01*
X43770218Y-48092933D01*
X43750080Y-48421679D01*
X43736523Y-48789689D01*
X43718364Y-49531044D01*
X39854411Y-49531044D01*
X39855045Y-49346689D01*
X39859026Y-48484604D01*
X39863751Y-47716844D01*
X39869231Y-47055611D01*
X39875479Y-46513108D01*
X39882505Y-46101536D01*
X39890322Y-45833100D01*
X39898940Y-45720000D01*
X39899847Y-45716823D01*
X39946009Y-45527226D01*
X40010622Y-45227706D01*
X40081793Y-44873334D01*
X40099672Y-44800380D01*
X40168066Y-44604779D01*
X40199066Y-44525887D01*
X40249672Y-44350779D01*
X40280987Y-44239396D01*
X40381513Y-43995955D01*
X40516423Y-43726014D01*
X40654070Y-43491118D01*
X40762809Y-43352812D01*
X40835658Y-43278403D01*
X40894000Y-43161633D01*
X40923245Y-43098168D01*
X41047771Y-42936778D01*
X41237987Y-42724048D01*
X41458714Y-42495957D01*
X41674774Y-42288487D01*
X41850988Y-42137619D01*
X41952176Y-42079334D01*
X41960057Y-42078741D01*
X42086883Y-42011894D01*
X42248353Y-41868001D01*
X42271570Y-41843869D01*
X42410089Y-41724874D01*
X42489074Y-41698852D01*
X42554341Y-41692199D01*
X42686296Y-41600730D01*
X42789844Y-41524668D01*
X42841333Y-41529000D01*
X42888814Y-41533531D01*
X43010666Y-41444334D01*
X43127608Y-41354549D01*
X43180000Y-41348719D01*
X43181802Y-41354647D01*
X43264998Y-41347695D01*
X43434000Y-41275000D01*
X43464040Y-41259851D01*
X43623150Y-41195536D01*
X43688000Y-41198527D01*
X43704760Y-41213728D01*
X43797295Y-41162694D01*
X43804412Y-41157135D01*
X43968610Y-41080716D01*
X44199462Y-41020630D01*
X44390042Y-40982767D01*
X44505962Y-40944288D01*
X44490674Y-40913265D01*
X44337832Y-40889154D01*
X44041091Y-40871409D01*
X43594104Y-40859485D01*
X42990528Y-40852837D01*
X42522947Y-40851667D01*
X44704000Y-40851667D01*
X44746333Y-40894000D01*
X44788666Y-40851667D01*
X44873333Y-40851667D01*
X44915666Y-40894000D01*
X44958000Y-40851667D01*
X55541333Y-40851667D01*
X55583666Y-40894000D01*
X55626000Y-40851667D01*
X55710666Y-40851667D01*
X55753000Y-40894000D01*
X55795333Y-40851667D01*
X55753000Y-40809334D01*
X55710666Y-40851667D01*
X55626000Y-40851667D01*
X55583666Y-40809334D01*
X55541333Y-40851667D01*
X44958000Y-40851667D01*
X44915666Y-40809334D01*
X44873333Y-40851667D01*
X44788666Y-40851667D01*
X44746333Y-40809334D01*
X44704000Y-40851667D01*
X42522947Y-40851667D01*
X42224015Y-40850919D01*
X39835667Y-40851667D01*
X39835667Y-38142334D01*
X39835666Y-35433000D01*
X42545000Y-35410985D01*
X42690185Y-35409812D01*
X43414209Y-35403724D01*
X43993722Y-35396739D01*
X44449796Y-35386414D01*
X44803502Y-35370304D01*
X45075911Y-35345964D01*
X45288095Y-35310950D01*
X45461125Y-35262818D01*
X45616073Y-35199123D01*
X45774010Y-35117419D01*
X45956007Y-35015264D01*
X46128232Y-34901076D01*
X46337007Y-34730237D01*
X46491245Y-34603566D01*
X46609000Y-34539102D01*
X46694603Y-34507726D01*
X46839013Y-34421122D01*
X46956114Y-34325191D01*
X46984892Y-34264506D01*
X46910938Y-34223274D01*
X46734209Y-34135549D01*
X46519692Y-34033442D01*
X46330064Y-33946712D01*
X46228000Y-33905119D01*
X46188513Y-33892326D01*
X46005050Y-33818995D01*
X45722488Y-33697368D01*
X45378661Y-33543550D01*
X44929377Y-33339983D01*
X44494153Y-33145230D01*
X44186857Y-33011413D01*
X43993394Y-32932419D01*
X43899666Y-32902133D01*
X43843670Y-32885584D01*
X43688000Y-32807249D01*
X43617764Y-32765436D01*
X43518666Y-32720702D01*
X43481271Y-32708336D01*
X43323674Y-32642968D01*
X43095333Y-32541383D01*
X42747809Y-32385925D01*
X42476019Y-32271520D01*
X42333333Y-32221683D01*
X42294387Y-32206143D01*
X42164000Y-32132085D01*
X42092954Y-32091685D01*
X41952333Y-32037201D01*
X41846702Y-32000188D01*
X41632024Y-31909041D01*
X41359666Y-31784896D01*
X41103376Y-31666104D01*
X40901997Y-31575681D01*
X40809333Y-31537967D01*
X40765320Y-31526086D01*
X40582647Y-31454556D01*
X40350215Y-31346494D01*
X40119328Y-31227812D01*
X39941293Y-31124424D01*
X39867416Y-31062241D01*
X39865458Y-31040217D01*
X39859689Y-30870236D01*
X39854628Y-30566100D01*
X39850304Y-30151155D01*
X39846746Y-29648745D01*
X39843983Y-29082216D01*
X39842045Y-28474912D01*
X39840961Y-27850178D01*
X39840760Y-27231359D01*
X39841472Y-26641801D01*
X39843126Y-26104848D01*
X39845751Y-25643845D01*
X39849377Y-25282137D01*
X39854032Y-25043068D01*
X39859747Y-24949985D01*
X39925216Y-24941590D01*
X40055739Y-25026607D01*
G37*
G36*
X64748833Y-24764734D02*
G01*
X68114333Y-24765533D01*
X68114333Y-53297934D01*
X68114333Y-81830334D01*
X64748833Y-81852472D01*
X63239102Y-81862403D01*
X62855850Y-81864924D01*
X61383333Y-81874610D01*
X61383333Y-79200927D01*
X62865574Y-79200927D01*
X62877960Y-79611544D01*
X62933986Y-79880496D01*
X63049188Y-80030069D01*
X63239102Y-80082548D01*
X63519267Y-80060219D01*
X63588575Y-80049304D01*
X63871665Y-80005615D01*
X64092666Y-79972740D01*
X64095413Y-79972347D01*
X64331361Y-79933530D01*
X64600666Y-79883000D01*
X64604720Y-79882188D01*
X64874410Y-79833200D01*
X65108666Y-79798334D01*
X65330434Y-79765356D01*
X65661934Y-79705738D01*
X65997666Y-79637215D01*
X66151060Y-79596998D01*
X66415234Y-79465032D01*
X66556867Y-79267012D01*
X66562973Y-79248368D01*
X66591319Y-79078324D01*
X66611002Y-78823638D01*
X66621704Y-78526584D01*
X66623102Y-78229435D01*
X66614878Y-77974466D01*
X66596712Y-77803950D01*
X66568282Y-77760163D01*
X66525820Y-77763081D01*
X66413817Y-77686580D01*
X66261473Y-77615786D01*
X66021730Y-77604884D01*
X65755667Y-77637182D01*
X65548027Y-77681139D01*
X65440939Y-77758120D01*
X65397150Y-77898803D01*
X65379409Y-78133869D01*
X65372806Y-78299294D01*
X65376329Y-78494546D01*
X65395063Y-78570667D01*
X65481700Y-78548358D01*
X65656509Y-78486948D01*
X65707197Y-78468758D01*
X65854496Y-78449919D01*
X65927263Y-78534972D01*
X65945027Y-78618126D01*
X65892746Y-78733078D01*
X65722431Y-78822679D01*
X65416992Y-78894354D01*
X64959338Y-78955529D01*
X64948987Y-78956672D01*
X64740802Y-78989381D01*
X64617701Y-79025806D01*
X64549643Y-79047095D01*
X64349371Y-79084462D01*
X64077764Y-79121608D01*
X63804420Y-79139292D01*
X63596024Y-79111853D01*
X63530898Y-79035585D01*
X63619780Y-78915326D01*
X63723206Y-78863136D01*
X63910713Y-78812041D01*
X64112461Y-78780923D01*
X64269360Y-78778386D01*
X64322322Y-78813034D01*
X64338036Y-78869983D01*
X64487106Y-78902350D01*
X64771628Y-78876561D01*
X65069590Y-78828915D01*
X65069590Y-78285082D01*
X65068878Y-78106199D01*
X65052178Y-77880576D01*
X64990591Y-77780731D01*
X64854696Y-77778128D01*
X64615070Y-77844229D01*
X64548325Y-77860630D01*
X64327394Y-77901373D01*
X64051615Y-77942110D01*
X63915586Y-77962042D01*
X63638857Y-78014585D01*
X63446488Y-78066917D01*
X63324182Y-78102080D01*
X63228595Y-78099156D01*
X63225964Y-78099076D01*
X63158071Y-78120154D01*
X63033397Y-78233035D01*
X62974782Y-78314278D01*
X62914752Y-78481213D01*
X62881144Y-78737920D01*
X62866548Y-79123981D01*
X62865574Y-79200927D01*
X61383333Y-79200927D01*
X61383333Y-76986263D01*
X62863362Y-76986263D01*
X62878751Y-77354609D01*
X62932419Y-77590125D01*
X63042867Y-77719786D01*
X63228595Y-77770569D01*
X63508105Y-77769452D01*
X63696181Y-77755495D01*
X63985185Y-77720493D01*
X64184308Y-77679453D01*
X64340974Y-77638937D01*
X64600666Y-77597000D01*
X64761119Y-77575815D01*
X64982797Y-77526336D01*
X65033138Y-77512902D01*
X65258506Y-77470783D01*
X65532356Y-77435421D01*
X65922937Y-77370941D01*
X66289321Y-77241362D01*
X66517241Y-77064505D01*
X66569855Y-76933074D01*
X66613400Y-76641772D01*
X66629974Y-76234289D01*
X66626649Y-76005123D01*
X66589000Y-75651599D01*
X66500423Y-75433012D01*
X66349463Y-75328579D01*
X66124666Y-75317520D01*
X65962999Y-75335429D01*
X65542279Y-75387620D01*
X65258239Y-75432623D01*
X65126989Y-75468005D01*
X65079949Y-75483961D01*
X64898462Y-75520867D01*
X64643000Y-75559124D01*
X64503749Y-75578603D01*
X64233322Y-75624489D01*
X64050333Y-75666236D01*
X63901956Y-75703730D01*
X63687241Y-75736156D01*
X63360720Y-75768269D01*
X63354718Y-75769109D01*
X63228315Y-75838864D01*
X63065677Y-75982488D01*
X63003818Y-76059225D01*
X62965655Y-76106566D01*
X62902905Y-76260089D01*
X62872761Y-76484774D01*
X62863539Y-76829581D01*
X62863362Y-76986263D01*
X61383333Y-76986263D01*
X61383333Y-74396552D01*
X62860296Y-74396552D01*
X62865267Y-74579046D01*
X62905189Y-74766089D01*
X63003818Y-74829017D01*
X63183257Y-74795109D01*
X63319782Y-74757955D01*
X63542333Y-74718512D01*
X63573399Y-74715190D01*
X63788752Y-74682506D01*
X64050333Y-74633395D01*
X64106155Y-74622184D01*
X64365975Y-74576005D01*
X64558333Y-74550509D01*
X64740759Y-74525616D01*
X64983798Y-74477102D01*
X65243122Y-74426674D01*
X65534132Y-74385411D01*
X65578447Y-74380231D01*
X65876731Y-74333371D01*
X66183993Y-74270895D01*
X66277631Y-74250998D01*
X66482629Y-74223409D01*
X66586160Y-74234383D01*
X66606174Y-74208064D01*
X66625283Y-74055427D01*
X66632666Y-73807839D01*
X66632666Y-73805069D01*
X66627527Y-73535841D01*
X66596049Y-73388308D01*
X66514087Y-73315224D01*
X66357500Y-73269341D01*
X66353856Y-73268476D01*
X66124107Y-73219985D01*
X65955333Y-73194334D01*
X65951900Y-73194060D01*
X65780085Y-73167434D01*
X65549120Y-73118438D01*
X65419547Y-73082362D01*
X65330949Y-73021422D01*
X65368213Y-72933650D01*
X65431333Y-72876403D01*
X65532000Y-72855667D01*
X65586541Y-72856742D01*
X65701333Y-72771000D01*
X65770731Y-72707956D01*
X65870666Y-72686334D01*
X65925207Y-72687409D01*
X66040000Y-72601667D01*
X66109398Y-72538623D01*
X66209333Y-72517000D01*
X66263874Y-72518075D01*
X66378667Y-72432334D01*
X66449693Y-72370326D01*
X66557593Y-72353596D01*
X66590343Y-72325597D01*
X66620879Y-72170765D01*
X66632666Y-71921396D01*
X66632666Y-71442797D01*
X66148803Y-71499315D01*
X65940552Y-71526581D01*
X65714531Y-71564564D01*
X65601314Y-71595156D01*
X65587413Y-71601759D01*
X65441602Y-71637655D01*
X65217344Y-71671054D01*
X65193688Y-71673816D01*
X64916216Y-71712931D01*
X64685333Y-71755359D01*
X64481489Y-71793918D01*
X64214464Y-71831772D01*
X63996965Y-71863706D01*
X63791131Y-71908627D01*
X63765256Y-71915757D01*
X63553878Y-71961674D01*
X63293270Y-72006185D01*
X63226481Y-72016831D01*
X63019851Y-72060708D01*
X62914143Y-72100968D01*
X62902185Y-72125269D01*
X62875899Y-72279231D01*
X62862480Y-72514091D01*
X62866672Y-72706381D01*
X62903597Y-72836156D01*
X62987607Y-72858743D01*
X63015819Y-72853672D01*
X63208079Y-72817341D01*
X63457666Y-72768634D01*
X63512944Y-72757922D01*
X63773056Y-72712661D01*
X63965666Y-72686606D01*
X63996751Y-72683352D01*
X64212100Y-72650917D01*
X64473666Y-72601877D01*
X64538176Y-72588611D01*
X64773772Y-72540442D01*
X64925925Y-72509757D01*
X64973534Y-72502763D01*
X64994263Y-72527868D01*
X64862941Y-72614802D01*
X64582706Y-72761264D01*
X64357125Y-72891481D01*
X64237887Y-73027823D01*
X64193135Y-73216027D01*
X64191200Y-73236853D01*
X64182215Y-73417812D01*
X64193135Y-73493865D01*
X64295743Y-73506893D01*
X64623217Y-73558900D01*
X64859900Y-73612556D01*
X64986621Y-73661190D01*
X64984212Y-73698131D01*
X64833500Y-73716707D01*
X64827185Y-73716930D01*
X64606695Y-73739670D01*
X64346666Y-73784114D01*
X64065605Y-73835306D01*
X63796333Y-73873595D01*
X63580225Y-73910883D01*
X63330666Y-73980752D01*
X63165031Y-74026676D01*
X62989648Y-74039550D01*
X62923597Y-74050209D01*
X62874145Y-74155912D01*
X62860296Y-74396552D01*
X61383333Y-74396552D01*
X61383333Y-71887172D01*
X62855850Y-71887172D01*
X63124038Y-71844550D01*
X63360769Y-71794201D01*
X63615446Y-71717060D01*
X63771144Y-71672292D01*
X63838666Y-71682796D01*
X63856603Y-71695241D01*
X63951145Y-71640052D01*
X64060786Y-71576049D01*
X64268645Y-71508977D01*
X64405531Y-71480726D01*
X64494833Y-71454375D01*
X64500788Y-71450567D01*
X64600666Y-71416334D01*
X64618043Y-71411751D01*
X64706500Y-71378106D01*
X64742167Y-71364347D01*
X64882445Y-71331710D01*
X64966051Y-71312217D01*
X65178778Y-71240734D01*
X65257450Y-71209460D01*
X65432778Y-71156067D01*
X65501283Y-71138281D01*
X65686778Y-71071400D01*
X65765875Y-71039663D01*
X65929116Y-70988445D01*
X65944147Y-70984985D01*
X66105959Y-70939008D01*
X66331283Y-70867667D01*
X66632666Y-70768202D01*
X66632666Y-70196985D01*
X66632666Y-69625769D01*
X65099064Y-69645597D01*
X64667353Y-69653488D01*
X64180771Y-69668017D01*
X63760781Y-69686593D01*
X63441630Y-69707651D01*
X63257564Y-69729630D01*
X63210804Y-69739172D01*
X63008965Y-69775096D01*
X62983649Y-69777498D01*
X62902897Y-69785161D01*
X62888043Y-69804040D01*
X62867845Y-69942618D01*
X62862904Y-70173077D01*
X62869681Y-70569667D01*
X63239731Y-70569667D01*
X63421227Y-70576782D01*
X63576365Y-70620537D01*
X63632016Y-70717498D01*
X63638030Y-70774680D01*
X63610340Y-70876074D01*
X63490942Y-70940062D01*
X63241447Y-70993803D01*
X63216198Y-70998386D01*
X63016909Y-71044828D01*
X62911778Y-71087333D01*
X62899553Y-71114289D01*
X62875019Y-71271080D01*
X62862298Y-71508769D01*
X62855850Y-71887172D01*
X61383333Y-71887172D01*
X61383333Y-69144778D01*
X62860296Y-69144778D01*
X62863274Y-69289813D01*
X62897184Y-69499407D01*
X62983649Y-69581197D01*
X63140924Y-69562345D01*
X63209568Y-69545384D01*
X63433918Y-69503905D01*
X63711666Y-69463124D01*
X63861443Y-69442026D01*
X64082548Y-69403137D01*
X64195656Y-69372005D01*
X64221684Y-69361899D01*
X64381864Y-69329079D01*
X64618989Y-69298126D01*
X64678587Y-69291563D01*
X64981798Y-69248806D01*
X65235666Y-69200312D01*
X65444523Y-69155322D01*
X65616666Y-69126829D01*
X65663338Y-69120850D01*
X65865123Y-69088220D01*
X66124666Y-69041002D01*
X66237129Y-69020787D01*
X66454079Y-68989938D01*
X66569166Y-68985787D01*
X66595167Y-68952398D01*
X66622188Y-68792761D01*
X66632666Y-68543274D01*
X66628820Y-68284615D01*
X66603475Y-68149823D01*
X66536000Y-68109100D01*
X66405766Y-68124359D01*
X66241578Y-68159850D01*
X66127629Y-68197169D01*
X66052494Y-68216238D01*
X65848662Y-68246639D01*
X65571363Y-68277514D01*
X65421095Y-68291067D01*
X65234693Y-68300061D01*
X65192290Y-68282558D01*
X65278000Y-68236329D01*
X65430825Y-68175865D01*
X65532000Y-68145532D01*
X65591309Y-68115251D01*
X65722500Y-68010512D01*
X65819474Y-67939586D01*
X65870666Y-67945000D01*
X65918147Y-67949531D01*
X66040000Y-67860334D01*
X66157288Y-67773419D01*
X66209333Y-67775667D01*
X66249231Y-67785363D01*
X66364371Y-67703938D01*
X66479313Y-67626202D01*
X66576037Y-67620260D01*
X66599007Y-67604490D01*
X66623256Y-67466011D01*
X66632666Y-67228862D01*
X66632666Y-66780834D01*
X66357500Y-66840146D01*
X66349880Y-66841787D01*
X66131201Y-66888171D01*
X65985041Y-66917940D01*
X65930643Y-66934724D01*
X65773374Y-67021288D01*
X65681017Y-67080465D01*
X65469478Y-67202144D01*
X65206637Y-67344641D01*
X65112317Y-67393369D01*
X64850620Y-67506334D01*
X64637535Y-67543577D01*
X64402304Y-67520575D01*
X64014900Y-67465391D01*
X63630308Y-67434980D01*
X63295787Y-67431224D01*
X63050322Y-67454529D01*
X62932895Y-67505299D01*
X62929123Y-67511640D01*
X62880560Y-67676716D01*
X62863177Y-67897373D01*
X62877781Y-68099761D01*
X62925181Y-68210031D01*
X62998953Y-68231860D01*
X63205211Y-68264109D01*
X63481435Y-68291645D01*
X63623408Y-68302816D01*
X63948633Y-68333260D01*
X64146496Y-68363858D01*
X64248336Y-68400789D01*
X64285494Y-68450236D01*
X64285718Y-68475755D01*
X64226220Y-68523014D01*
X64059181Y-68565657D01*
X63754000Y-68613058D01*
X63721925Y-68617607D01*
X63478880Y-68655847D01*
X63201315Y-68703572D01*
X63052360Y-68732657D01*
X62917981Y-68790220D01*
X62867798Y-68909690D01*
X62862984Y-69060545D01*
X62860296Y-69144778D01*
X61383333Y-69144778D01*
X61383333Y-66433639D01*
X62862984Y-66433639D01*
X62862984Y-67307055D01*
X63226398Y-67269601D01*
X63317968Y-67259196D01*
X63535088Y-67225849D01*
X63650739Y-67194669D01*
X63713921Y-67174805D01*
X63909407Y-67137206D01*
X64177333Y-67098334D01*
X64368187Y-67071735D01*
X64591784Y-67032709D01*
X64703656Y-67002166D01*
X64717273Y-66995808D01*
X64861342Y-66961149D01*
X65084656Y-66928280D01*
X65108319Y-66925518D01*
X65385788Y-66886517D01*
X65616666Y-66844334D01*
X65632770Y-66840821D01*
X65873056Y-66798126D01*
X66148677Y-66760387D01*
X66196485Y-66754485D01*
X66418313Y-66715396D01*
X66550844Y-66673243D01*
X66573720Y-66625369D01*
X66604097Y-66436082D01*
X66624931Y-66141277D01*
X66632666Y-65779796D01*
X66632667Y-64936919D01*
X66357500Y-64990054D01*
X66352047Y-64991104D01*
X66129595Y-65029281D01*
X65976500Y-65047706D01*
X65950888Y-65056166D01*
X65890754Y-65191099D01*
X65870666Y-65489573D01*
X65866876Y-65712223D01*
X65835814Y-65870564D01*
X65748110Y-65954994D01*
X65574416Y-66017845D01*
X65391407Y-66060473D01*
X65243124Y-66031433D01*
X65171644Y-65884671D01*
X65152296Y-65595500D01*
X65151396Y-65539160D01*
X65136239Y-65351543D01*
X65108666Y-65273615D01*
X65090754Y-65274008D01*
X64948022Y-65290632D01*
X64723691Y-65324021D01*
X64381050Y-65378811D01*
X64385025Y-65808779D01*
X64383948Y-66020951D01*
X64359092Y-66173072D01*
X64284520Y-66237189D01*
X64135000Y-66258708D01*
X63929696Y-66279898D01*
X63755953Y-66307502D01*
X63750569Y-66308644D01*
X63677998Y-66284660D01*
X63641924Y-66155403D01*
X63633075Y-65889320D01*
X63635244Y-65442307D01*
X63334789Y-65495730D01*
X63317638Y-65498752D01*
X63303095Y-65501314D01*
X63084216Y-65537091D01*
X62948659Y-65554689D01*
X62927926Y-65575929D01*
X62893322Y-65734105D01*
X62870937Y-66027572D01*
X62862984Y-66433639D01*
X61383333Y-66433639D01*
X61383333Y-63729748D01*
X62861816Y-63729748D01*
X62876131Y-64031520D01*
X62916214Y-64241215D01*
X63057291Y-64404168D01*
X63317638Y-64474677D01*
X63669333Y-64441102D01*
X63913016Y-64386210D01*
X64047563Y-64357887D01*
X64118575Y-64347883D01*
X64177333Y-64346667D01*
X64208285Y-64316924D01*
X64246908Y-64162069D01*
X64262000Y-63919245D01*
X64262000Y-63491822D01*
X63930222Y-63541306D01*
X63862013Y-63549874D01*
X63658292Y-63553672D01*
X63554809Y-63520186D01*
X63543473Y-63498456D01*
X63562353Y-63365977D01*
X63716654Y-63258266D01*
X63977099Y-63197684D01*
X63988531Y-63196576D01*
X64158180Y-63187831D01*
X64276326Y-63220613D01*
X64370323Y-63324320D01*
X64467524Y-63528351D01*
X64595282Y-63862107D01*
X64738073Y-64074608D01*
X64983117Y-64192326D01*
X65277561Y-64165078D01*
X65513824Y-64103251D01*
X65786000Y-64057625D01*
X65903623Y-64042721D01*
X66236736Y-63970811D01*
X66442899Y-63859864D01*
X66554496Y-63694582D01*
X66568238Y-63652416D01*
X66609414Y-63415787D01*
X66630245Y-63104069D01*
X66631568Y-62765992D01*
X66614216Y-62450285D01*
X66579026Y-62205677D01*
X66526833Y-62080900D01*
X66429185Y-62046978D01*
X66177969Y-62027595D01*
X65818411Y-62037404D01*
X65383833Y-62076531D01*
X65357212Y-62088077D01*
X65298035Y-62231154D01*
X65278000Y-62531529D01*
X65278000Y-62974168D01*
X65579928Y-62906072D01*
X65691358Y-62884162D01*
X65855121Y-62885036D01*
X65929837Y-62963013D01*
X65941100Y-63030094D01*
X65881909Y-63183958D01*
X65832482Y-63225153D01*
X65786000Y-63222696D01*
X65732988Y-63204453D01*
X65582685Y-63242825D01*
X65454426Y-63270878D01*
X65304948Y-63219083D01*
X65160556Y-63045269D01*
X64997423Y-62728498D01*
X64988797Y-62709754D01*
X64829982Y-62431263D01*
X64667372Y-62295648D01*
X64473666Y-62279508D01*
X64403821Y-62290281D01*
X64169791Y-62323381D01*
X63887914Y-62360815D01*
X63790214Y-62374094D01*
X63416219Y-62447501D01*
X63228595Y-62522599D01*
X63164402Y-62548293D01*
X62996040Y-62690799D01*
X62945711Y-62811203D01*
X62899382Y-63065667D01*
X62870492Y-63389823D01*
X62861816Y-63729748D01*
X61383333Y-63729748D01*
X61383333Y-61407597D01*
X62863362Y-61407597D01*
X62878751Y-61775943D01*
X62932419Y-62011458D01*
X63042867Y-62141119D01*
X63228595Y-62191903D01*
X63508105Y-62190786D01*
X63699629Y-62177493D01*
X63969882Y-62148843D01*
X64143105Y-62117785D01*
X64165609Y-62111557D01*
X64373594Y-62066239D01*
X64631713Y-62022158D01*
X64690913Y-62012971D01*
X64902553Y-61972344D01*
X65017550Y-61937654D01*
X65061863Y-61923053D01*
X65240686Y-61890986D01*
X65494503Y-61860317D01*
X65905224Y-61795443D01*
X66284315Y-61665673D01*
X66517241Y-61485839D01*
X66569855Y-61354407D01*
X66613400Y-61063105D01*
X66629974Y-60655623D01*
X66626649Y-60426456D01*
X66589000Y-60072933D01*
X66500423Y-59854345D01*
X66349463Y-59749912D01*
X66124666Y-59738853D01*
X65962999Y-59756762D01*
X65542279Y-59808954D01*
X65258239Y-59853956D01*
X65126989Y-59889339D01*
X65079949Y-59905294D01*
X64898462Y-59942200D01*
X64643000Y-59980457D01*
X64503749Y-59999936D01*
X64233322Y-60045822D01*
X64050333Y-60087569D01*
X63901956Y-60125063D01*
X63687241Y-60157489D01*
X63360720Y-60189602D01*
X63354718Y-60190443D01*
X63228315Y-60260198D01*
X63065677Y-60403822D01*
X62965655Y-60527899D01*
X62902905Y-60681423D01*
X62872761Y-60906108D01*
X62863539Y-61250914D01*
X62863362Y-61407597D01*
X61383333Y-61407597D01*
X61383333Y-59648927D01*
X62860296Y-59648927D01*
X62860296Y-60025998D01*
X63225054Y-59988406D01*
X63317261Y-59977849D01*
X63536707Y-59943323D01*
X63655576Y-59910170D01*
X63710216Y-59892327D01*
X63899942Y-59858140D01*
X64162179Y-59826366D01*
X64328009Y-59807878D01*
X64551471Y-59774320D01*
X64665343Y-59744866D01*
X64728979Y-59724682D01*
X64925084Y-59686699D01*
X65193333Y-59647667D01*
X65384187Y-59621068D01*
X65607784Y-59582042D01*
X65719656Y-59551499D01*
X65740065Y-59542870D01*
X65893408Y-59509426D01*
X66124667Y-59478334D01*
X66195088Y-59470153D01*
X66419823Y-59432278D01*
X66550844Y-59391910D01*
X66571160Y-59368782D01*
X66612014Y-59221484D01*
X66629933Y-58999800D01*
X66625110Y-58764294D01*
X66597734Y-58575534D01*
X66548000Y-58494084D01*
X66491124Y-58486934D01*
X66315166Y-58464632D01*
X66265126Y-58457466D01*
X66051707Y-58421741D01*
X65786000Y-58373002D01*
X65673537Y-58352787D01*
X65456587Y-58321938D01*
X65341500Y-58317787D01*
X65335206Y-58319207D01*
X65278000Y-58270402D01*
X65290830Y-58250975D01*
X65414065Y-58160328D01*
X65640013Y-58024562D01*
X65934166Y-57864997D01*
X66590333Y-57524523D01*
X66615710Y-57041423D01*
X66617458Y-57008027D01*
X66626774Y-56751827D01*
X66610115Y-56627085D01*
X66552628Y-56599553D01*
X66439463Y-56634981D01*
X66339815Y-56665483D01*
X66079754Y-56722306D01*
X65779086Y-56769748D01*
X65593982Y-56794875D01*
X65379052Y-56829525D01*
X65278000Y-56853667D01*
X65220975Y-56869139D01*
X65033669Y-56901598D01*
X64770000Y-56938334D01*
X64579233Y-56964984D01*
X64354876Y-57004407D01*
X64241995Y-57035541D01*
X64239326Y-57037075D01*
X64112355Y-57072302D01*
X63903329Y-57103805D01*
X63627480Y-57141581D01*
X63330666Y-57193788D01*
X63302152Y-57199507D01*
X63083214Y-57239540D01*
X62945376Y-57258372D01*
X62919082Y-57276841D01*
X62910005Y-57307041D01*
X62877106Y-57416501D01*
X62864449Y-57650945D01*
X62867923Y-57769227D01*
X62890332Y-57947333D01*
X62952841Y-58017017D01*
X63080406Y-58021046D01*
X63358363Y-57990606D01*
X63754053Y-57933301D01*
X64092666Y-57870653D01*
X64326415Y-57823875D01*
X64596435Y-57775554D01*
X64774109Y-57752318D01*
X64831915Y-57774773D01*
X64778814Y-57859046D01*
X64705813Y-57932088D01*
X64613713Y-57976006D01*
X64531213Y-57979315D01*
X64370072Y-58078626D01*
X64234382Y-58249308D01*
X64177333Y-58435370D01*
X64179082Y-58507412D01*
X64218999Y-58662138D01*
X64343719Y-58739897D01*
X64595399Y-58774930D01*
X64780917Y-58804848D01*
X64897983Y-58857169D01*
X64896318Y-58907794D01*
X64753830Y-58934478D01*
X64659148Y-58939125D01*
X64487031Y-58957575D01*
X64260140Y-58996548D01*
X63923333Y-59064688D01*
X63901578Y-59069189D01*
X63666639Y-59113441D01*
X63500000Y-59137883D01*
X63341629Y-59162655D01*
X63116648Y-59210542D01*
X63047516Y-59228380D01*
X62922340Y-59290002D01*
X62870516Y-59412088D01*
X62860296Y-59648927D01*
X61383333Y-59648927D01*
X61383333Y-56403583D01*
X62856716Y-56403583D01*
X62858555Y-56694588D01*
X62874133Y-56904924D01*
X62905154Y-56990693D01*
X62910005Y-56991621D01*
X63028590Y-56985552D01*
X63038437Y-56983786D01*
X63186477Y-56962908D01*
X63409590Y-56935711D01*
X63414802Y-56935110D01*
X63688016Y-56896736D01*
X63923333Y-56853309D01*
X64122668Y-56814652D01*
X64389000Y-56774263D01*
X64652312Y-56735008D01*
X64939333Y-56682839D01*
X64952345Y-56680213D01*
X65205031Y-56633625D01*
X65405000Y-56603566D01*
X65412700Y-56602669D01*
X65618414Y-56571011D01*
X65870666Y-56523620D01*
X66068008Y-56483734D01*
X66386963Y-56422990D01*
X66569166Y-56394478D01*
X66587915Y-56354318D01*
X66611005Y-56177150D01*
X66626808Y-55891513D01*
X66632666Y-55533440D01*
X66632666Y-54678880D01*
X66272833Y-54724804D01*
X66178821Y-54736858D01*
X65980669Y-54762713D01*
X65969658Y-54764240D01*
X65891833Y-54775031D01*
X65884389Y-54803411D01*
X65874528Y-54956711D01*
X65870666Y-55197670D01*
X65861578Y-55446241D01*
X65807262Y-55621121D01*
X65672250Y-55706867D01*
X65421244Y-55746592D01*
X65138830Y-55773960D01*
X65151356Y-55360240D01*
X65163881Y-54946519D01*
X64861107Y-55003685D01*
X64827057Y-55010014D01*
X64607004Y-55046233D01*
X64469775Y-55061203D01*
X64439575Y-55085253D01*
X64398950Y-55235224D01*
X64385109Y-55483480D01*
X64384870Y-55626512D01*
X64365713Y-55814562D01*
X64303691Y-55904762D01*
X64177333Y-55944785D01*
X64044053Y-55969088D01*
X63805764Y-55997429D01*
X63682091Y-55957889D01*
X63636114Y-55825504D01*
X63630909Y-55575309D01*
X63634818Y-55143617D01*
X63355742Y-55206559D01*
X63324886Y-55213211D01*
X63148608Y-55236579D01*
X63076666Y-55219151D01*
X63059445Y-55208808D01*
X62971833Y-55273634D01*
X62952647Y-55310809D01*
X62916580Y-55485522D01*
X62887433Y-55755153D01*
X62866910Y-56075806D01*
X62858872Y-56334259D01*
X62856716Y-56403583D01*
X61383333Y-56403583D01*
X61383333Y-53694155D01*
X62861151Y-53694155D01*
X62861151Y-54145182D01*
X62865527Y-54324104D01*
X62884189Y-54506628D01*
X62912534Y-54564453D01*
X63002666Y-54534094D01*
X63215849Y-54486100D01*
X63486404Y-54436876D01*
X63754000Y-54398334D01*
X63757062Y-54397967D01*
X63992941Y-54362375D01*
X64262000Y-54312623D01*
X64275099Y-54309960D01*
X64527742Y-54263076D01*
X64727666Y-54232899D01*
X64758356Y-54229072D01*
X64973785Y-54195048D01*
X65235666Y-54146700D01*
X65294097Y-54135177D01*
X65545207Y-54086495D01*
X65722500Y-54053361D01*
X65779528Y-54050228D01*
X65851495Y-54115264D01*
X65870666Y-54309303D01*
X65870753Y-54343745D01*
X65887633Y-54512243D01*
X65969658Y-54570659D01*
X66168162Y-54562720D01*
X66194015Y-54560055D01*
X66413565Y-54524887D01*
X66549162Y-54482282D01*
X66578641Y-54404475D01*
X66606857Y-54184297D01*
X66625765Y-53856441D01*
X66632666Y-53454110D01*
X66632666Y-52477546D01*
X66272833Y-52523471D01*
X66178821Y-52535524D01*
X65980669Y-52561380D01*
X65891833Y-52573698D01*
X65889135Y-52576661D01*
X65876008Y-52676979D01*
X65870666Y-52874334D01*
X65870153Y-52912027D01*
X65849235Y-53098026D01*
X65807166Y-53177145D01*
X65736873Y-53186741D01*
X65484200Y-53231682D01*
X65108666Y-53306287D01*
X65095524Y-53308967D01*
X64842903Y-53355997D01*
X64643000Y-53386233D01*
X64635203Y-53387143D01*
X64429503Y-53419056D01*
X64177333Y-53467000D01*
X64164105Y-53469737D01*
X63911526Y-53517841D01*
X63711666Y-53549487D01*
X63680532Y-53553577D01*
X63464541Y-53586903D01*
X63201742Y-53632262D01*
X62907594Y-53685715D01*
X62861151Y-53694155D01*
X61383333Y-53694155D01*
X61383333Y-53319273D01*
X61383333Y-52659634D01*
X62863170Y-52659634D01*
X62874670Y-52845299D01*
X62902802Y-52926693D01*
X62907594Y-52927575D01*
X63028590Y-52921552D01*
X63038437Y-52919786D01*
X63186477Y-52898908D01*
X63409590Y-52871711D01*
X63414809Y-52871109D01*
X63688020Y-52832843D01*
X63923333Y-52789667D01*
X63939437Y-52786154D01*
X64179723Y-52743459D01*
X64455344Y-52705721D01*
X64506763Y-52699478D01*
X64719132Y-52665292D01*
X64836344Y-52632662D01*
X64883384Y-52616707D01*
X65064871Y-52579801D01*
X65320333Y-52541544D01*
X65459584Y-52522065D01*
X65730011Y-52476179D01*
X65913000Y-52434432D01*
X66053855Y-52399500D01*
X66294000Y-52361376D01*
X66443086Y-52346371D01*
X66569166Y-52332399D01*
X66591919Y-52301095D01*
X66621208Y-52143763D01*
X66632666Y-51900063D01*
X66632666Y-51476125D01*
X66249094Y-51515656D01*
X66140694Y-51528434D01*
X65912728Y-51566730D01*
X65784589Y-51605205D01*
X65776372Y-51609692D01*
X65628892Y-51651284D01*
X65406162Y-51684054D01*
X65225271Y-51691817D01*
X65129647Y-51646855D01*
X65108666Y-51517933D01*
X65137409Y-51382217D01*
X65255056Y-51344469D01*
X65287784Y-51347036D01*
X65489150Y-51331846D01*
X65741889Y-51284845D01*
X65793869Y-51272743D01*
X66071329Y-51215413D01*
X66294000Y-51179600D01*
X66443249Y-51162315D01*
X66569166Y-51147066D01*
X66591919Y-51115762D01*
X66621208Y-50958429D01*
X66632666Y-50714729D01*
X66632666Y-50290791D01*
X66249094Y-50330322D01*
X66138308Y-50343014D01*
X65919477Y-50376675D01*
X65804594Y-50407332D01*
X65741412Y-50427196D01*
X65545926Y-50464795D01*
X65278000Y-50503667D01*
X65087146Y-50530266D01*
X64863549Y-50569292D01*
X64751677Y-50599835D01*
X64731268Y-50608464D01*
X64577925Y-50641908D01*
X64346666Y-50673000D01*
X64273050Y-50681357D01*
X64057891Y-50714483D01*
X63941656Y-50746166D01*
X63878562Y-50765968D01*
X63683197Y-50803492D01*
X63415333Y-50842334D01*
X63223803Y-50868493D01*
X63006400Y-50904291D01*
X62902713Y-50930033D01*
X62887839Y-50962379D01*
X62869051Y-51123043D01*
X62866340Y-51366271D01*
X62878045Y-51561189D01*
X62918679Y-51715650D01*
X62995366Y-51746310D01*
X63145994Y-51720050D01*
X63370406Y-51691100D01*
X63418730Y-51685214D01*
X63692462Y-51640310D01*
X63986833Y-51579291D01*
X64114107Y-51550541D01*
X64273383Y-51530571D01*
X64335865Y-51574763D01*
X64346666Y-51698000D01*
X64331383Y-51825636D01*
X64283166Y-51884538D01*
X64164625Y-51890692D01*
X63965666Y-51928570D01*
X63915082Y-51939772D01*
X63639688Y-51988109D01*
X63340028Y-52027059D01*
X63239502Y-52039038D01*
X63026575Y-52076820D01*
X62918568Y-52115210D01*
X62915998Y-52118174D01*
X62885079Y-52231956D01*
X62867055Y-52433815D01*
X62863170Y-52659634D01*
X61383333Y-52659634D01*
X61383333Y-50691843D01*
X62858872Y-50691843D01*
X63158269Y-50652833D01*
X63176705Y-50650248D01*
X63416893Y-50587952D01*
X63588862Y-50497481D01*
X63612952Y-50479054D01*
X63804136Y-50392646D01*
X64054529Y-50332477D01*
X64109442Y-50324159D01*
X64352345Y-50280152D01*
X64516000Y-50239582D01*
X64572093Y-50224633D01*
X64781663Y-50187922D01*
X65050131Y-50155025D01*
X65166004Y-50141444D01*
X65452988Y-50092438D01*
X65663964Y-50036113D01*
X65692504Y-50025604D01*
X65832223Y-50000856D01*
X65870666Y-50074938D01*
X65881635Y-50143178D01*
X65940583Y-50167998D01*
X66086281Y-50149565D01*
X66357500Y-50089000D01*
X66632667Y-50024546D01*
X66632667Y-49436994D01*
X66632361Y-49293490D01*
X66625079Y-49045783D01*
X66598920Y-48919737D01*
X66541933Y-48881482D01*
X66442166Y-48897151D01*
X66307957Y-48925363D01*
X66061166Y-48959115D01*
X65942583Y-48994921D01*
X65870666Y-49096462D01*
X65864266Y-49149561D01*
X65819628Y-49168517D01*
X65723068Y-49156945D01*
X65544461Y-49202960D01*
X65472405Y-49226493D01*
X65209801Y-49285956D01*
X64913202Y-49328537D01*
X64794244Y-49342132D01*
X64516926Y-49386743D01*
X64320536Y-49435614D01*
X64162082Y-49465328D01*
X63885062Y-49483971D01*
X63562213Y-49484130D01*
X63308275Y-49483447D01*
X63049283Y-49508687D01*
X62979583Y-49539254D01*
X62929234Y-49561334D01*
X62902018Y-49657711D01*
X62875989Y-49883847D01*
X62863956Y-50174422D01*
X62858872Y-50691843D01*
X61383333Y-50691843D01*
X61383333Y-47621324D01*
X62860296Y-47621324D01*
X62862188Y-47727862D01*
X62878122Y-47914433D01*
X62904981Y-47983941D01*
X62963744Y-47986530D01*
X63151970Y-48009408D01*
X63415333Y-48048605D01*
X63694266Y-48092133D01*
X63963412Y-48129654D01*
X64178331Y-48151348D01*
X64403111Y-48164750D01*
X64540489Y-48179201D01*
X64581521Y-48212833D01*
X64470016Y-48256991D01*
X64214729Y-48305149D01*
X64167046Y-48312434D01*
X63908025Y-48358693D01*
X63716869Y-48402707D01*
X63714501Y-48403396D01*
X63513289Y-48445375D01*
X63261606Y-48479092D01*
X63235646Y-48481785D01*
X63031259Y-48516165D01*
X62920032Y-48557746D01*
X62905929Y-48578573D01*
X62871527Y-48729752D01*
X62863205Y-48941697D01*
X62880597Y-49138326D01*
X62923337Y-49243558D01*
X62979583Y-49259370D01*
X63140924Y-49242345D01*
X63209568Y-49225384D01*
X63433918Y-49183905D01*
X63711666Y-49143124D01*
X63861443Y-49122026D01*
X64082548Y-49083137D01*
X64195656Y-49052005D01*
X64221684Y-49041899D01*
X64381864Y-49009079D01*
X64618989Y-48978126D01*
X64678587Y-48971563D01*
X64981798Y-48928806D01*
X65235666Y-48880312D01*
X65444523Y-48835322D01*
X65616666Y-48806829D01*
X65663338Y-48800850D01*
X65865123Y-48768220D01*
X66124666Y-48721002D01*
X66236700Y-48700959D01*
X66455729Y-48670587D01*
X66573870Y-48667355D01*
X66594961Y-48651288D01*
X66618406Y-48517737D01*
X66616203Y-48290402D01*
X66607923Y-48159154D01*
X66586166Y-48013342D01*
X66525318Y-47923208D01*
X66393157Y-47869498D01*
X66157458Y-47832958D01*
X65786000Y-47794334D01*
X65597159Y-47774655D01*
X65302530Y-47740277D01*
X65122942Y-47710182D01*
X65021910Y-47677287D01*
X64962950Y-47634507D01*
X64944190Y-47610893D01*
X64981666Y-47589862D01*
X65005875Y-47592718D01*
X65170791Y-47580568D01*
X65405000Y-47540779D01*
X65460954Y-47529428D01*
X65720703Y-47482836D01*
X65913000Y-47457176D01*
X66110725Y-47429404D01*
X66357500Y-47379588D01*
X66434105Y-47360461D01*
X66567947Y-47299016D01*
X66622369Y-47179560D01*
X66632666Y-46946547D01*
X66632714Y-46893732D01*
X66625645Y-46724935D01*
X66582610Y-46632875D01*
X66471137Y-46606912D01*
X66258758Y-46636406D01*
X65913000Y-46710717D01*
X65698142Y-46752822D01*
X65489666Y-46784013D01*
X65481946Y-46784834D01*
X65276235Y-46815219D01*
X65024000Y-46861956D01*
X65019807Y-46862811D01*
X64749841Y-46911476D01*
X64514869Y-46944193D01*
X64355745Y-46966740D01*
X64133869Y-47015335D01*
X64105426Y-47023135D01*
X63890275Y-47069078D01*
X63627000Y-47112507D01*
X63496405Y-47130929D01*
X63357023Y-47152893D01*
X63182198Y-47180442D01*
X62993437Y-47233032D01*
X62898168Y-47309905D01*
X62864439Y-47432267D01*
X62860296Y-47621324D01*
X61383333Y-47621324D01*
X61383333Y-45993827D01*
X62851949Y-45993827D01*
X62868268Y-46339424D01*
X62918942Y-46621835D01*
X63004807Y-46789924D01*
X63010186Y-46794651D01*
X63143456Y-46859386D01*
X63357023Y-46882078D01*
X63671470Y-46861442D01*
X64107379Y-46796193D01*
X64685333Y-46685048D01*
X64698475Y-46682367D01*
X64951097Y-46635337D01*
X65151000Y-46605102D01*
X65330490Y-46578856D01*
X65574333Y-46534348D01*
X65796521Y-46490008D01*
X66081588Y-46434687D01*
X66262086Y-46389803D01*
X66439532Y-46291647D01*
X66547330Y-46122480D01*
X66603265Y-45849790D01*
X66625123Y-45441065D01*
X66626778Y-45079428D01*
X66607393Y-44840718D01*
X66559502Y-44684487D01*
X66475701Y-44567448D01*
X66408314Y-44504830D01*
X66235021Y-44423889D01*
X65992616Y-44418302D01*
X65637833Y-44483747D01*
X65520151Y-44514866D01*
X65412737Y-44579886D01*
X65370203Y-44710846D01*
X65362666Y-44959405D01*
X65362666Y-45370688D01*
X65659000Y-45322599D01*
X65795808Y-45305372D01*
X65922534Y-45324234D01*
X65955333Y-45414685D01*
X65935955Y-45491295D01*
X65802321Y-45603271D01*
X65529157Y-45691865D01*
X65101752Y-45763081D01*
X64917636Y-45788772D01*
X64694409Y-45827804D01*
X64582344Y-45858502D01*
X64561935Y-45867131D01*
X64408592Y-45900575D01*
X64177333Y-45931667D01*
X64105445Y-45939937D01*
X63885045Y-45975693D01*
X63760749Y-46012162D01*
X63708687Y-46018414D01*
X63593216Y-45941968D01*
X63543085Y-45849958D01*
X63604789Y-45740031D01*
X63715201Y-45686742D01*
X63905092Y-45635390D01*
X64108861Y-45601440D01*
X64267563Y-45594434D01*
X64322252Y-45623911D01*
X64338088Y-45680767D01*
X64487274Y-45713013D01*
X64771628Y-45687227D01*
X65069590Y-45639581D01*
X65069590Y-45100514D01*
X65069590Y-44561447D01*
X64771628Y-44627928D01*
X64679656Y-44647160D01*
X64372753Y-44702426D01*
X64051615Y-44751194D01*
X63915459Y-44771625D01*
X63638803Y-44824951D01*
X63446488Y-44877584D01*
X63324182Y-44912747D01*
X63225964Y-44909743D01*
X63158071Y-44930821D01*
X63033397Y-45043702D01*
X63000748Y-45089267D01*
X62919026Y-45317614D01*
X62869147Y-45636179D01*
X62860296Y-45820244D01*
X62851949Y-45993827D01*
X61383333Y-45993827D01*
X61383333Y-42724690D01*
X62856483Y-42724690D01*
X63220575Y-42669435D01*
X63321014Y-42654530D01*
X63512244Y-42628608D01*
X63591144Y-42621923D01*
X63598816Y-42648258D01*
X63625937Y-42777498D01*
X63628497Y-42794716D01*
X63575524Y-42964528D01*
X63415333Y-43056484D01*
X63414870Y-43056552D01*
X63309086Y-43079023D01*
X63116648Y-43123875D01*
X63039560Y-43144001D01*
X62919452Y-43206246D01*
X62869956Y-43330432D01*
X62860296Y-43570134D01*
X62860296Y-43955078D01*
X63201315Y-43912770D01*
X63241768Y-43907359D01*
X63532328Y-43851647D01*
X63775166Y-43781327D01*
X63777205Y-43780549D01*
X63940276Y-43733130D01*
X64008000Y-43742796D01*
X64025936Y-43755241D01*
X64120478Y-43700052D01*
X64197426Y-43649823D01*
X64395645Y-43575405D01*
X64489940Y-43553122D01*
X64699888Y-43482532D01*
X64779006Y-43452099D01*
X64996221Y-43391624D01*
X65082567Y-43373209D01*
X65172166Y-43345228D01*
X65178119Y-43341385D01*
X65278000Y-43307000D01*
X65295376Y-43302418D01*
X65383833Y-43268773D01*
X65419500Y-43255013D01*
X65559778Y-43222377D01*
X65643386Y-43202890D01*
X65856112Y-43131469D01*
X65942925Y-43098467D01*
X66160355Y-43038596D01*
X66255991Y-43011521D01*
X66422145Y-42925050D01*
X66474005Y-42893506D01*
X66576957Y-42898513D01*
X66583204Y-42900741D01*
X66608351Y-42818102D01*
X66626005Y-42610877D01*
X66632666Y-42315661D01*
X66632666Y-41677098D01*
X66230500Y-41704785D01*
X66169010Y-41708683D01*
X65890897Y-41723274D01*
X65501109Y-41741054D01*
X65042602Y-41760127D01*
X64558333Y-41778597D01*
X64484068Y-41781280D01*
X63928236Y-41801559D01*
X63517103Y-41821744D01*
X63288333Y-41843691D01*
X63228768Y-41849405D01*
X63041334Y-41892115D01*
X62932900Y-41957445D01*
X62881568Y-42052965D01*
X62865439Y-42186246D01*
X62862614Y-42364861D01*
X62856483Y-42724690D01*
X61383333Y-42724690D01*
X61383333Y-40947068D01*
X62861151Y-40947068D01*
X62875556Y-41254917D01*
X62935996Y-41440321D01*
X63065812Y-41520072D01*
X63288333Y-41525773D01*
X63307211Y-41524409D01*
X63509629Y-41511724D01*
X63833858Y-41493094D01*
X64239294Y-41470806D01*
X64685333Y-41447144D01*
X65267829Y-41415502D01*
X65741258Y-41386082D01*
X66085603Y-41359073D01*
X66321536Y-41332549D01*
X66469726Y-41304581D01*
X66550844Y-41273243D01*
X66572404Y-41246760D01*
X66615522Y-41088791D01*
X66632666Y-40851532D01*
X66632633Y-40831633D01*
X66620537Y-40610519D01*
X66574357Y-40516489D01*
X66476187Y-40510525D01*
X66451173Y-40515226D01*
X66148353Y-40563022D01*
X65765902Y-40613075D01*
X65384168Y-40655567D01*
X65083498Y-40680682D01*
X64925846Y-40678976D01*
X64835591Y-40642594D01*
X64898608Y-40585047D01*
X65111164Y-40527057D01*
X65127609Y-40524023D01*
X65373622Y-40469255D01*
X65687800Y-40389131D01*
X65992313Y-40304317D01*
X66209333Y-40235477D01*
X66397220Y-40172473D01*
X66548000Y-40142584D01*
X66585945Y-40084142D01*
X66619674Y-39897485D01*
X66632666Y-39628862D01*
X66630474Y-39438659D01*
X66612699Y-39243471D01*
X66567716Y-39160364D01*
X66484500Y-39154004D01*
X66475342Y-39155660D01*
X66306956Y-39178507D01*
X66030634Y-39209703D01*
X65701333Y-39243000D01*
X65666000Y-39246400D01*
X65339670Y-39279771D01*
X65072073Y-39310385D01*
X64918166Y-39331997D01*
X64837529Y-39334447D01*
X64770000Y-39280472D01*
X64771053Y-39265892D01*
X64833500Y-39194189D01*
X64840858Y-39193311D01*
X64995899Y-39163118D01*
X65268915Y-39101088D01*
X65618191Y-39017218D01*
X66002013Y-38921503D01*
X66378666Y-38823938D01*
X66437203Y-38809370D01*
X66569166Y-38783812D01*
X66589029Y-38762050D01*
X66620326Y-38618279D01*
X66632666Y-38385750D01*
X66632666Y-37994167D01*
X66357500Y-38052877D01*
X66111095Y-38104614D01*
X65873296Y-38153144D01*
X65722037Y-38197717D01*
X65555796Y-38284718D01*
X65498929Y-38324790D01*
X65447333Y-38327078D01*
X65445110Y-38323703D01*
X65348954Y-38334325D01*
X65139094Y-38390146D01*
X64854666Y-38481000D01*
X64803291Y-38498296D01*
X64528666Y-38583970D01*
X64335189Y-38632900D01*
X64262000Y-38634923D01*
X64245452Y-38623522D01*
X64152705Y-38677973D01*
X64148233Y-38681544D01*
X63986465Y-38758636D01*
X63757663Y-38819022D01*
X63742309Y-38821785D01*
X63522264Y-38873353D01*
X63380125Y-38926801D01*
X63350197Y-38943423D01*
X63175888Y-39001265D01*
X63018403Y-39038392D01*
X62915001Y-39123901D01*
X62871646Y-39295153D01*
X62866739Y-39593524D01*
X62879469Y-39845382D01*
X62917411Y-40022969D01*
X62984149Y-40065918D01*
X63004117Y-40062492D01*
X63171574Y-40045257D01*
X63447183Y-40024297D01*
X63782632Y-40003392D01*
X63831571Y-40000568D01*
X64210450Y-39974331D01*
X64560700Y-39943486D01*
X64812053Y-39914126D01*
X64828975Y-39911649D01*
X65041440Y-39892498D01*
X65098632Y-39910350D01*
X65006474Y-39952149D01*
X64770890Y-40004844D01*
X64755430Y-40007666D01*
X64526813Y-40070097D01*
X64371295Y-40146694D01*
X64313592Y-40187156D01*
X64262000Y-40188457D01*
X64249577Y-40179726D01*
X64129563Y-40196427D01*
X63923333Y-40259000D01*
X63833256Y-40289523D01*
X63655369Y-40339954D01*
X63584666Y-40343667D01*
X63573997Y-40338674D01*
X63457391Y-40361177D01*
X63253655Y-40425633D01*
X63173627Y-40452659D01*
X62982845Y-40505391D01*
X62891897Y-40511675D01*
X62879008Y-40541984D01*
X62866135Y-40698411D01*
X62862984Y-40855618D01*
X62861151Y-40947068D01*
X61383333Y-40947068D01*
X61383333Y-36749933D01*
X62862984Y-36749933D01*
X62862984Y-37627371D01*
X62862984Y-38504810D01*
X63075659Y-38470002D01*
X63278609Y-38432960D01*
X63542333Y-38378211D01*
X63750891Y-38336587D01*
X63923333Y-38311667D01*
X64081586Y-38288147D01*
X64306465Y-38240841D01*
X64570445Y-38189841D01*
X64862001Y-38150560D01*
X64874128Y-38149359D01*
X65127800Y-38114892D01*
X65325535Y-38073374D01*
X65353855Y-38065641D01*
X65566449Y-38020532D01*
X65828333Y-37977494D01*
X65867708Y-37971849D01*
X66157173Y-37925917D01*
X66399833Y-37881167D01*
X66632667Y-37832546D01*
X66632667Y-36955135D01*
X66632667Y-36951708D01*
X66632951Y-36553267D01*
X66621754Y-36298128D01*
X66581144Y-36160574D01*
X66493186Y-36114887D01*
X66339950Y-36135346D01*
X66103500Y-36196235D01*
X66007560Y-36225395D01*
X65916214Y-36294256D01*
X65878230Y-36434160D01*
X65870666Y-36694170D01*
X65867214Y-36921132D01*
X65839807Y-37069533D01*
X65763019Y-37131649D01*
X65611436Y-37152401D01*
X65405022Y-37171500D01*
X65255451Y-37191577D01*
X65233082Y-37188996D01*
X65176827Y-37079195D01*
X65154389Y-36830000D01*
X65152752Y-36732578D01*
X65132345Y-36555165D01*
X65058670Y-36473843D01*
X64894014Y-36467034D01*
X64600666Y-36513157D01*
X64597088Y-36513794D01*
X64462229Y-36560773D01*
X64402494Y-36671253D01*
X64389000Y-36897704D01*
X64385171Y-37028636D01*
X64329547Y-37269578D01*
X64182529Y-37399905D01*
X63912119Y-37457151D01*
X63619128Y-37485544D01*
X63623064Y-37051968D01*
X63623447Y-36996130D01*
X63611399Y-36758072D01*
X63548014Y-36645396D01*
X63395981Y-36631282D01*
X63307739Y-36649576D01*
X63117992Y-36688913D01*
X62862984Y-36749933D01*
X61383333Y-36749933D01*
X61383333Y-35845085D01*
X62872339Y-35845085D01*
X62892586Y-36067844D01*
X62942820Y-36209566D01*
X63031569Y-36314238D01*
X63063655Y-36342550D01*
X63173059Y-36413631D01*
X63307739Y-36437836D01*
X63514130Y-36417510D01*
X63838666Y-36354998D01*
X63872433Y-36348164D01*
X64079905Y-36314049D01*
X64198500Y-36307750D01*
X64224210Y-36274177D01*
X64251434Y-36114392D01*
X64262000Y-35865250D01*
X64262000Y-35408500D01*
X63946638Y-35479625D01*
X63920718Y-35485305D01*
X63684060Y-35509169D01*
X63568700Y-35449542D01*
X63560825Y-35435313D01*
X63571272Y-35300217D01*
X63716184Y-35187224D01*
X63964086Y-35122375D01*
X64015674Y-35117673D01*
X64162216Y-35134857D01*
X64273092Y-35235068D01*
X64396845Y-35455694D01*
X64460402Y-35579324D01*
X64640770Y-35867113D01*
X64833380Y-36039561D01*
X65074716Y-36110392D01*
X65401261Y-36093329D01*
X65849500Y-36002093D01*
X65951756Y-35979807D01*
X66136237Y-35953143D01*
X66209333Y-35964759D01*
X66210202Y-35968424D01*
X66274506Y-35938958D01*
X66409578Y-35824731D01*
X66436369Y-35798795D01*
X66528138Y-35681943D01*
X66582925Y-35529830D01*
X66611630Y-35297783D01*
X66625151Y-34941130D01*
X66625873Y-34907015D01*
X66626410Y-34557824D01*
X66605569Y-34329829D01*
X66555483Y-34178878D01*
X66468283Y-34060819D01*
X66308173Y-33941063D01*
X66146877Y-33903679D01*
X66107991Y-33910742D01*
X65899276Y-33947049D01*
X65637833Y-33991127D01*
X65278000Y-34050885D01*
X65278000Y-34452665D01*
X65280509Y-34581175D01*
X65298294Y-34796759D01*
X65327531Y-34903976D01*
X65329002Y-34905318D01*
X65439052Y-34912885D01*
X65628186Y-34865965D01*
X65657324Y-34856170D01*
X65867911Y-34819830D01*
X65953473Y-34880512D01*
X65902905Y-35031522D01*
X65890320Y-35048357D01*
X65728419Y-35147535D01*
X65482566Y-35204321D01*
X65405042Y-35210357D01*
X65244035Y-35208243D01*
X65206340Y-35180576D01*
X65207353Y-35111864D01*
X65146685Y-34930024D01*
X65032558Y-34686216D01*
X65022975Y-34667889D01*
X64890322Y-34429507D01*
X64780198Y-34303947D01*
X64642439Y-34254684D01*
X64426884Y-34245192D01*
X64139638Y-34261863D01*
X63793899Y-34317072D01*
X63459719Y-34399629D01*
X63281650Y-34461342D01*
X63176265Y-34497865D01*
X62982704Y-34600110D01*
X62918202Y-34694695D01*
X62907470Y-34798000D01*
X62905190Y-34806666D01*
X62893819Y-34936677D01*
X62882546Y-35182194D01*
X62873513Y-35499030D01*
X62872339Y-35845085D01*
X61383333Y-35845085D01*
X61383333Y-33340823D01*
X62858449Y-33340823D01*
X62872372Y-33663083D01*
X62909590Y-33917186D01*
X62970666Y-34053429D01*
X63036199Y-34089015D01*
X63281650Y-34131213D01*
X63639683Y-34125883D01*
X64076508Y-34074610D01*
X64558333Y-33978978D01*
X64767234Y-33934451D01*
X64939333Y-33907216D01*
X64967482Y-33904092D01*
X65157080Y-33874272D01*
X65405000Y-33827769D01*
X65467139Y-33815310D01*
X65708805Y-33767501D01*
X65870666Y-33736444D01*
X65904789Y-33730047D01*
X66217307Y-33645133D01*
X66427422Y-33512749D01*
X66554067Y-33302958D01*
X66616172Y-32985823D01*
X66632666Y-32531407D01*
X66632630Y-32499670D01*
X66618950Y-32120944D01*
X66562939Y-31880741D01*
X66438907Y-31750844D01*
X66221160Y-31703030D01*
X65884007Y-31709080D01*
X65641421Y-31728134D01*
X65404715Y-31758619D01*
X65281390Y-31790239D01*
X65265910Y-31798073D01*
X65108970Y-31841201D01*
X64878677Y-31877721D01*
X64855014Y-31880483D01*
X64577545Y-31919484D01*
X64346666Y-31961667D01*
X64346446Y-31961716D01*
X64109728Y-32005184D01*
X63837896Y-32043194D01*
X63648695Y-32071872D01*
X63250008Y-32196397D01*
X62989582Y-32387913D01*
X62951025Y-32461704D01*
X62950800Y-32462135D01*
X62898227Y-32690646D01*
X62867255Y-33000110D01*
X62858449Y-33340823D01*
X61383333Y-33340823D01*
X61383333Y-31551237D01*
X62860296Y-31551237D01*
X62862885Y-31731954D01*
X62886374Y-31903078D01*
X62951025Y-31965837D01*
X63076666Y-31957459D01*
X63103535Y-31952425D01*
X63293276Y-31919591D01*
X63542333Y-31878824D01*
X63594727Y-31870213D01*
X63855996Y-31820968D01*
X64049203Y-31775335D01*
X64190630Y-31741762D01*
X64430203Y-31704193D01*
X64433071Y-31703899D01*
X64669784Y-31671043D01*
X64939333Y-31623000D01*
X64943387Y-31622188D01*
X65213077Y-31573200D01*
X65447333Y-31538334D01*
X65450605Y-31537942D01*
X65686437Y-31501932D01*
X65955333Y-31451231D01*
X65965113Y-31449205D01*
X66225829Y-31405015D01*
X66442166Y-31383374D01*
X66513742Y-31376633D01*
X66591809Y-31327323D01*
X66625452Y-31193848D01*
X66632666Y-30933731D01*
X66627673Y-30764574D01*
X66602893Y-30549523D01*
X66564330Y-30447760D01*
X66517394Y-30431262D01*
X66333802Y-30396058D01*
X66077496Y-30363916D01*
X65950010Y-30348735D01*
X65659940Y-30298266D01*
X65447333Y-30240539D01*
X65235666Y-30158772D01*
X65460275Y-30070609D01*
X65625963Y-29987521D01*
X65741292Y-29891175D01*
X65767874Y-29860195D01*
X65870666Y-29845000D01*
X65897572Y-29855151D01*
X65995413Y-29806314D01*
X66006757Y-29791886D01*
X66136084Y-29694815D01*
X66339930Y-29583619D01*
X66490139Y-29505175D01*
X66587307Y-29408120D01*
X66625823Y-29252507D01*
X66632666Y-28982981D01*
X66629525Y-28748203D01*
X66608209Y-28601943D01*
X66551772Y-28558288D01*
X66443297Y-28581360D01*
X66291947Y-28619956D01*
X66040000Y-28659667D01*
X65879534Y-28680399D01*
X65657869Y-28728024D01*
X65607100Y-28741368D01*
X65381956Y-28786511D01*
X65108666Y-28829000D01*
X65013526Y-28842484D01*
X64746907Y-28887756D01*
X64559464Y-28929977D01*
X64418043Y-28963958D01*
X64178464Y-29001808D01*
X64175439Y-29002119D01*
X63938761Y-29035290D01*
X63669333Y-29084045D01*
X63659434Y-29086055D01*
X63400009Y-29131901D01*
X63186557Y-29159134D01*
X63093632Y-29170835D01*
X63091456Y-29171109D01*
X62951446Y-29237237D01*
X62883560Y-29391078D01*
X62862480Y-29672758D01*
X62868233Y-29889756D01*
X62920676Y-29998266D01*
X63057528Y-30006178D01*
X63316263Y-29935163D01*
X63363016Y-29922963D01*
X63573124Y-29884066D01*
X63838666Y-29847891D01*
X63906258Y-29839643D01*
X64239837Y-29787999D01*
X64537166Y-29727870D01*
X64761210Y-29687887D01*
X64841025Y-29710023D01*
X64766266Y-29792162D01*
X64536938Y-29929667D01*
X64392948Y-30015708D01*
X64247593Y-30167203D01*
X64193135Y-30374167D01*
X64191332Y-30395759D01*
X64202554Y-30578932D01*
X64256635Y-30659917D01*
X64266352Y-30661119D01*
X64431333Y-30691667D01*
X64540755Y-30707965D01*
X64741778Y-30723417D01*
X64872511Y-30758220D01*
X64896597Y-30822930D01*
X64784111Y-30865143D01*
X64784084Y-30865145D01*
X64666608Y-30881098D01*
X64421308Y-30918878D01*
X64087338Y-30972319D01*
X63703852Y-31035255D01*
X63484284Y-31075184D01*
X63203666Y-31132865D01*
X63203486Y-31132906D01*
X63011083Y-31170044D01*
X62904981Y-31179734D01*
X62891470Y-31194678D01*
X62869123Y-31326302D01*
X62860296Y-31551237D01*
X61383333Y-31551237D01*
X61383333Y-28055805D01*
X62863877Y-28055805D01*
X62865645Y-28281408D01*
X62878710Y-28601790D01*
X62901764Y-28830520D01*
X62931787Y-28928781D01*
X62946162Y-28934702D01*
X63093632Y-28939758D01*
X63314993Y-28908525D01*
X63343798Y-28902671D01*
X63599446Y-28856244D01*
X63796333Y-28828822D01*
X63904346Y-28813936D01*
X64135000Y-28760903D01*
X64208206Y-28741985D01*
X64443928Y-28696394D01*
X64727666Y-28653790D01*
X64877443Y-28632693D01*
X65098548Y-28593804D01*
X65211656Y-28562672D01*
X65237684Y-28552565D01*
X65397864Y-28519745D01*
X65634989Y-28488793D01*
X65694591Y-28482232D01*
X65997800Y-28439562D01*
X66251666Y-28391236D01*
X66448787Y-28353614D01*
X66569166Y-28347205D01*
X66589325Y-28306516D01*
X66611728Y-28129257D01*
X66627013Y-27842902D01*
X66632666Y-27481720D01*
X66632666Y-26600106D01*
X66357500Y-26639059D01*
X66345991Y-26640691D01*
X66077509Y-26689160D01*
X65935696Y-26767250D01*
X65880199Y-26921239D01*
X65870666Y-27197407D01*
X65867362Y-27420483D01*
X65842176Y-27575064D01*
X65773016Y-27639315D01*
X65637833Y-27656730D01*
X65457741Y-27671234D01*
X65281848Y-27698166D01*
X65220684Y-27692380D01*
X65171140Y-27588962D01*
X65154848Y-27347334D01*
X65153101Y-27249431D01*
X65132645Y-27061107D01*
X65068857Y-26979462D01*
X64935564Y-26958029D01*
X64778793Y-26958129D01*
X64535330Y-27013583D01*
X64413476Y-27162233D01*
X64388670Y-27425052D01*
X64390527Y-27575717D01*
X64343208Y-27785968D01*
X64197975Y-27901191D01*
X63919408Y-27961908D01*
X63619149Y-28001408D01*
X63623074Y-27568567D01*
X63623344Y-27532875D01*
X63612208Y-27282621D01*
X63549840Y-27159669D01*
X63398409Y-27134662D01*
X63120083Y-27178241D01*
X62867166Y-27226833D01*
X62863877Y-28055805D01*
X61383333Y-28055805D01*
X61383333Y-24763935D01*
X64748833Y-24764734D01*
G37*
%TD*%
%LPC*%
D12*
%TO.C,J2*%
X48270000Y-80645000D03*
D13*
X50810000Y-80645000D03*
X53350000Y-80645000D03*
X55890000Y-80645000D03*
%TD*%
D14*
%TO.C,REF\u002A\u002A*%
X33020000Y-40640000D03*
%TD*%
D15*
%TO.C,U1*%
X44070000Y-30940000D03*
X44070000Y-33480000D03*
X44070000Y-36020000D03*
X44070000Y-38560000D03*
X44070000Y-41100000D03*
X44070000Y-43640000D03*
X44070000Y-46180000D03*
X44070000Y-48720000D03*
X44070000Y-51260000D03*
X44070000Y-53800000D03*
X44070000Y-56340000D03*
X44070000Y-58880000D03*
X44070000Y-61420000D03*
X44070000Y-63960000D03*
X46610000Y-63960000D03*
X49150000Y-63960000D03*
X51690000Y-63960000D03*
X54230000Y-63960000D03*
X56770000Y-63960000D03*
X59310000Y-63960000D03*
X59310000Y-61420000D03*
X59310000Y-58880000D03*
X59310000Y-56340000D03*
X59310000Y-53800000D03*
X59310000Y-51260000D03*
X59310000Y-48720000D03*
X59310000Y-46180000D03*
X59310000Y-43640000D03*
X59310000Y-41100000D03*
X59310000Y-38560000D03*
X59310000Y-36020000D03*
X59310000Y-33480000D03*
X59310000Y-30940000D03*
X56770000Y-33480000D03*
X56770000Y-58880000D03*
X56770000Y-56340000D03*
X54230000Y-58880000D03*
X54230000Y-56340000D03*
X51690000Y-58880000D03*
X51690000Y-56340000D03*
X49150000Y-58880000D03*
X49150000Y-56340000D03*
X46610000Y-58880000D03*
X46610000Y-56340000D03*
%TD*%
D14*
%TO.C,REF\u002A\u002A*%
X33020000Y-78740000D03*
%TD*%
D12*
%TO.C,J6*%
X31000000Y-50000000D03*
D13*
X31000000Y-52540000D03*
X31000000Y-55080000D03*
%TD*%
D14*
%TO.C,REF\u002A\u002A*%
X71120000Y-78740000D03*
%TD*%
D12*
%TO.C,J3*%
X72136000Y-35570000D03*
D13*
X72136000Y-38110000D03*
X72136000Y-40650000D03*
X72136000Y-43190000D03*
%TD*%
D12*
%TO.C,J4*%
X72136000Y-51816000D03*
D13*
X72136000Y-54356000D03*
X72136000Y-56896000D03*
%TD*%
D14*
%TO.C,REF\u002A\u002A*%
X71120000Y-27940000D03*
%TD*%
D16*
%TO.C,J1*%
X35560000Y-31400000D03*
D17*
X35560000Y-25400000D03*
X40260000Y-28400000D03*
%TD*%
%LPD*%
M02*
