%TF.GenerationSoftware,KiCad,Pcbnew,8.0.5*%
%TF.CreationDate,2025-06-27T14:54:40-05:00*%
%TF.ProjectId,ULACIT 2025,554c4143-4954-4203-9230-32352e6b6963,rev?*%
%TF.SameCoordinates,Original*%
%TF.FileFunction,Legend,Top*%
%TF.FilePolarity,Positive*%
%FSLAX46Y46*%
G04 Gerber Fmt 4.6, Leading zero omitted, Abs format (unit mm)*
G04 Created by KiCad (PCBNEW 8.0.5) date 2025-06-27 14:54:40*
%MOMM*%
%LPD*%
G01*
G04 APERTURE LIST*
G04 Aperture macros list*
%AMFreePoly0*
4,1,33,-1.500000,1.250000,-1.484505,1.401663,-1.429731,1.566964,-1.338312,1.715177,-1.215177,1.838312,-1.066964,1.929731,-0.901663,1.984505,-0.750000,2.000000,0.750000,2.000000,0.901663,1.984505,1.066964,1.929731,1.215177,1.838312,1.338312,1.715177,1.429731,1.566964,1.484505,1.401663,1.500000,1.250000,1.500000,-1.250000,1.484505,-1.401663,1.429731,-1.566964,1.338312,-1.715177,
1.215177,-1.838312,1.066964,-1.929731,0.901663,-1.984505,0.750000,-2.000000,-0.750000,-2.000000,-0.901663,-1.984505,-1.066964,-1.929731,-1.215177,-1.838312,-1.338312,-1.715177,-1.429731,-1.566964,-1.484505,-1.401663,-1.500000,-1.250000,-1.500000,1.250000,-1.500000,1.250000,$1*%
G04 Aperture macros list end*
%ADD10C,0.150000*%
%ADD11C,0.000000*%
%ADD12C,0.120000*%
%ADD13C,0.100000*%
%ADD14R,1.700000X1.700000*%
%ADD15O,1.700000X1.700000*%
%ADD16C,3.200000*%
%ADD17FreePoly0,90.000000*%
%ADD18C,1.600000*%
%ADD19FreePoly0,270.000000*%
%ADD20R,2.600000X2.600000*%
%ADD21C,2.600000*%
G04 APERTURE END LIST*
D10*
X48606666Y-48020033D02*
X48606666Y-47320033D01*
X48606666Y-47320033D02*
X48840000Y-47820033D01*
X48840000Y-47820033D02*
X49073333Y-47320033D01*
X49073333Y-47320033D02*
X49073333Y-48020033D01*
X49406666Y-48020033D02*
X49406666Y-47320033D01*
X49739999Y-48020033D02*
X49739999Y-47320033D01*
X49739999Y-47320033D02*
X49973333Y-47820033D01*
X49973333Y-47820033D02*
X50206666Y-47320033D01*
X50206666Y-47320033D02*
X50206666Y-48020033D01*
X50473333Y-47320033D02*
X50939999Y-48020033D01*
X50939999Y-47320033D02*
X50473333Y-48020033D01*
X51606666Y-48020033D02*
X51373333Y-47686700D01*
X51206666Y-48020033D02*
X51206666Y-47320033D01*
X51206666Y-47320033D02*
X51473333Y-47320033D01*
X51473333Y-47320033D02*
X51540000Y-47353366D01*
X51540000Y-47353366D02*
X51573333Y-47386700D01*
X51573333Y-47386700D02*
X51606666Y-47453366D01*
X51606666Y-47453366D02*
X51606666Y-47553366D01*
X51606666Y-47553366D02*
X51573333Y-47620033D01*
X51573333Y-47620033D02*
X51540000Y-47653366D01*
X51540000Y-47653366D02*
X51473333Y-47686700D01*
X51473333Y-47686700D02*
X51206666Y-47686700D01*
X51806666Y-47320033D02*
X52206666Y-47320033D01*
X52006666Y-48020033D02*
X52006666Y-47320033D01*
X52806666Y-48020033D02*
X52406666Y-48020033D01*
X52606666Y-48020033D02*
X52606666Y-47320033D01*
X52606666Y-47320033D02*
X52539999Y-47420033D01*
X52539999Y-47420033D02*
X52473333Y-47486700D01*
X52473333Y-47486700D02*
X52406666Y-47520033D01*
X53240000Y-47320033D02*
X53306666Y-47320033D01*
X53306666Y-47320033D02*
X53373333Y-47353366D01*
X53373333Y-47353366D02*
X53406666Y-47386700D01*
X53406666Y-47386700D02*
X53440000Y-47453366D01*
X53440000Y-47453366D02*
X53473333Y-47586700D01*
X53473333Y-47586700D02*
X53473333Y-47753366D01*
X53473333Y-47753366D02*
X53440000Y-47886700D01*
X53440000Y-47886700D02*
X53406666Y-47953366D01*
X53406666Y-47953366D02*
X53373333Y-47986700D01*
X53373333Y-47986700D02*
X53306666Y-48020033D01*
X53306666Y-48020033D02*
X53240000Y-48020033D01*
X53240000Y-48020033D02*
X53173333Y-47986700D01*
X53173333Y-47986700D02*
X53140000Y-47953366D01*
X53140000Y-47953366D02*
X53106666Y-47886700D01*
X53106666Y-47886700D02*
X53073333Y-47753366D01*
X53073333Y-47753366D02*
X53073333Y-47586700D01*
X53073333Y-47586700D02*
X53106666Y-47453366D01*
X53106666Y-47453366D02*
X53140000Y-47386700D01*
X53140000Y-47386700D02*
X53173333Y-47353366D01*
X53173333Y-47353366D02*
X53240000Y-47320033D01*
X54073333Y-47320033D02*
X53940000Y-47320033D01*
X53940000Y-47320033D02*
X53873333Y-47353366D01*
X53873333Y-47353366D02*
X53840000Y-47386700D01*
X53840000Y-47386700D02*
X53773333Y-47486700D01*
X53773333Y-47486700D02*
X53740000Y-47620033D01*
X53740000Y-47620033D02*
X53740000Y-47886700D01*
X53740000Y-47886700D02*
X53773333Y-47953366D01*
X53773333Y-47953366D02*
X53806667Y-47986700D01*
X53806667Y-47986700D02*
X53873333Y-48020033D01*
X53873333Y-48020033D02*
X54006667Y-48020033D01*
X54006667Y-48020033D02*
X54073333Y-47986700D01*
X54073333Y-47986700D02*
X54106667Y-47953366D01*
X54106667Y-47953366D02*
X54140000Y-47886700D01*
X54140000Y-47886700D02*
X54140000Y-47720033D01*
X54140000Y-47720033D02*
X54106667Y-47653366D01*
X54106667Y-47653366D02*
X54073333Y-47620033D01*
X54073333Y-47620033D02*
X54006667Y-47586700D01*
X54006667Y-47586700D02*
X53873333Y-47586700D01*
X53873333Y-47586700D02*
X53806667Y-47620033D01*
X53806667Y-47620033D02*
X53773333Y-47653366D01*
X53773333Y-47653366D02*
X53740000Y-47720033D01*
X54406667Y-47386700D02*
X54440000Y-47353366D01*
X54440000Y-47353366D02*
X54506667Y-47320033D01*
X54506667Y-47320033D02*
X54673334Y-47320033D01*
X54673334Y-47320033D02*
X54740000Y-47353366D01*
X54740000Y-47353366D02*
X54773334Y-47386700D01*
X54773334Y-47386700D02*
X54806667Y-47453366D01*
X54806667Y-47453366D02*
X54806667Y-47520033D01*
X54806667Y-47520033D02*
X54773334Y-47620033D01*
X54773334Y-47620033D02*
X54373334Y-48020033D01*
X54373334Y-48020033D02*
X54806667Y-48020033D01*
X50289999Y-49544033D02*
X50289999Y-48844033D01*
X50289999Y-48844033D02*
X50456666Y-48844033D01*
X50456666Y-48844033D02*
X50556666Y-48877366D01*
X50556666Y-48877366D02*
X50623333Y-48944033D01*
X50623333Y-48944033D02*
X50656666Y-49010700D01*
X50656666Y-49010700D02*
X50689999Y-49144033D01*
X50689999Y-49144033D02*
X50689999Y-49244033D01*
X50689999Y-49244033D02*
X50656666Y-49377366D01*
X50656666Y-49377366D02*
X50623333Y-49444033D01*
X50623333Y-49444033D02*
X50556666Y-49510700D01*
X50556666Y-49510700D02*
X50456666Y-49544033D01*
X50456666Y-49544033D02*
X50289999Y-49544033D01*
X50889999Y-48844033D02*
X51123333Y-49544033D01*
X51123333Y-49544033D02*
X51356666Y-48844033D01*
X51923333Y-49544033D02*
X51589999Y-49544033D01*
X51589999Y-49544033D02*
X51589999Y-48844033D01*
X52456666Y-48844033D02*
X52323333Y-48844033D01*
X52323333Y-48844033D02*
X52256666Y-48877366D01*
X52256666Y-48877366D02*
X52223333Y-48910700D01*
X52223333Y-48910700D02*
X52156666Y-49010700D01*
X52156666Y-49010700D02*
X52123333Y-49144033D01*
X52123333Y-49144033D02*
X52123333Y-49410700D01*
X52123333Y-49410700D02*
X52156666Y-49477366D01*
X52156666Y-49477366D02*
X52190000Y-49510700D01*
X52190000Y-49510700D02*
X52256666Y-49544033D01*
X52256666Y-49544033D02*
X52390000Y-49544033D01*
X52390000Y-49544033D02*
X52456666Y-49510700D01*
X52456666Y-49510700D02*
X52490000Y-49477366D01*
X52490000Y-49477366D02*
X52523333Y-49410700D01*
X52523333Y-49410700D02*
X52523333Y-49244033D01*
X52523333Y-49244033D02*
X52490000Y-49177366D01*
X52490000Y-49177366D02*
X52456666Y-49144033D01*
X52456666Y-49144033D02*
X52390000Y-49110700D01*
X52390000Y-49110700D02*
X52256666Y-49110700D01*
X52256666Y-49110700D02*
X52190000Y-49144033D01*
X52190000Y-49144033D02*
X52156666Y-49177366D01*
X52156666Y-49177366D02*
X52123333Y-49244033D01*
X52790000Y-49344033D02*
X53123333Y-49344033D01*
X52723333Y-49544033D02*
X52956667Y-48844033D01*
X52956667Y-48844033D02*
X53190000Y-49544033D01*
D11*
%TO.C,kibuzzard-68263405*%
G36*
X49712280Y-26773070D02*
G01*
X49735170Y-26815273D01*
X49696544Y-26849608D01*
X49536315Y-26849608D01*
X49569934Y-26785946D01*
X49650764Y-26758049D01*
X49712280Y-26773070D01*
G37*
G36*
X50477660Y-26773070D02*
G01*
X50500549Y-26815273D01*
X50461923Y-26849608D01*
X50301694Y-26849608D01*
X50335313Y-26785946D01*
X50416143Y-26758049D01*
X50477660Y-26773070D01*
G37*
G36*
X54955753Y-26532190D02*
G01*
X54993754Y-26579937D01*
X55016554Y-26659515D01*
X55024155Y-26770924D01*
X55024155Y-26778077D01*
X55023439Y-26835302D01*
X55015571Y-26898249D01*
X54996973Y-26962627D01*
X54960492Y-27006260D01*
X54901122Y-27025574D01*
X54847921Y-27009747D01*
X54809920Y-26962269D01*
X54787119Y-26883138D01*
X54779519Y-26772355D01*
X54787209Y-26660320D01*
X54810278Y-26580295D01*
X54848725Y-26532280D01*
X54902552Y-26516275D01*
X54955753Y-26532190D01*
G37*
G36*
X55405175Y-26924000D02*
G01*
X55931959Y-27714176D01*
X55405175Y-27714176D01*
X55285957Y-27714176D01*
X54906844Y-27714176D01*
X54340320Y-27714176D01*
X54009848Y-27714176D01*
X52611422Y-27714176D01*
X51893969Y-27714176D01*
X51410421Y-27714176D01*
X50417574Y-27714176D01*
X49652195Y-27714176D01*
X48780950Y-27714176D01*
X48346043Y-27714176D01*
X48226825Y-27714176D01*
X47700041Y-27714176D01*
X48226825Y-26924000D01*
X47861541Y-26376074D01*
X48346043Y-26376074D01*
X48354627Y-26440452D01*
X48381808Y-26474072D01*
X48413997Y-26485516D01*
X48454770Y-26487662D01*
X48653625Y-26487662D01*
X48653625Y-27141454D01*
X48655771Y-27189379D01*
X48668647Y-27228006D01*
X48707273Y-27260195D01*
X48780950Y-27270209D01*
X48855342Y-27260195D01*
X48895399Y-27228721D01*
X48908990Y-27190810D01*
X48911136Y-27142884D01*
X48911136Y-26909694D01*
X49261637Y-26909694D01*
X49267180Y-26974787D01*
X49283811Y-27038449D01*
X49311351Y-27099966D01*
X49349619Y-27158621D01*
X49402016Y-27210302D01*
X49471937Y-27250896D01*
X49556343Y-27277183D01*
X49652195Y-27285946D01*
X49782381Y-27277809D01*
X49875371Y-27253399D01*
X49931165Y-27212716D01*
X49949763Y-27155760D01*
X49931165Y-27089951D01*
X49892538Y-27038449D01*
X49845328Y-27021282D01*
X49779519Y-27039880D01*
X49663639Y-27058478D01*
X49579233Y-27038449D01*
X49536315Y-26984086D01*
X49841036Y-26984086D01*
X49899155Y-26973177D01*
X49944755Y-26940452D01*
X49961959Y-26909694D01*
X50027016Y-26909694D01*
X50032559Y-26974787D01*
X50049190Y-27038449D01*
X50076730Y-27099966D01*
X50114999Y-27158621D01*
X50167395Y-27210302D01*
X50237316Y-27250896D01*
X50321722Y-27277183D01*
X50417574Y-27285946D01*
X50547760Y-27277809D01*
X50640750Y-27253399D01*
X50696544Y-27212716D01*
X50715142Y-27155760D01*
X50696544Y-27089951D01*
X50657917Y-27038449D01*
X50610707Y-27021282D01*
X50544898Y-27039880D01*
X50429019Y-27058478D01*
X50344612Y-27038449D01*
X50301694Y-26984086D01*
X50606415Y-26984086D01*
X50664534Y-26973177D01*
X50710134Y-26940452D01*
X50739641Y-26887698D01*
X50749476Y-26816704D01*
X50728196Y-26716203D01*
X50695917Y-26667920D01*
X50813854Y-26667920D01*
X50813854Y-27138592D01*
X50816000Y-27187948D01*
X50829591Y-27226575D01*
X50868933Y-27258764D01*
X50942609Y-27268778D01*
X51017001Y-27258764D01*
X51057059Y-27226575D01*
X51070649Y-27187948D01*
X51072795Y-27140023D01*
X51072795Y-26905402D01*
X51101408Y-26830295D01*
X51177230Y-26802398D01*
X51252338Y-26829579D01*
X51278804Y-26905402D01*
X51278804Y-27138592D01*
X51280950Y-27186518D01*
X51294541Y-27225860D01*
X51334598Y-27258764D01*
X51410421Y-27268778D01*
X51485528Y-27258764D01*
X51524870Y-27226575D01*
X51538461Y-27187948D01*
X51540223Y-27148607D01*
X51602123Y-27148607D01*
X51626980Y-27201182D01*
X51701551Y-27244458D01*
X51799369Y-27273428D01*
X51893969Y-27283084D01*
X52008818Y-27273185D01*
X52098146Y-27243485D01*
X52161951Y-27193986D01*
X52200235Y-27124687D01*
X52212996Y-27035588D01*
X52193682Y-26932584D01*
X52137888Y-26866775D01*
X52069219Y-26833871D01*
X51991250Y-26815273D01*
X51968361Y-26811697D01*
X51945471Y-26808120D01*
X51925442Y-26803828D01*
X51906844Y-26798821D01*
X51891107Y-26793814D01*
X51877516Y-26787376D01*
X51868217Y-26779508D01*
X51861780Y-26769494D01*
X51859634Y-26756618D01*
X51912567Y-26728006D01*
X52001265Y-26753757D01*
X52079948Y-26779508D01*
X52151479Y-26725144D01*
X52181350Y-26639308D01*
X52250192Y-26639308D01*
X52280235Y-26733728D01*
X52553482Y-27145745D01*
X52441894Y-27394672D01*
X52423296Y-27494100D01*
X52504841Y-27563485D01*
X52611422Y-27581368D01*
X52675084Y-27500538D01*
X52962380Y-26856761D01*
X53401837Y-26856761D01*
X53403983Y-26906117D01*
X53417574Y-26945459D01*
X53457631Y-26978363D01*
X53532023Y-26988378D01*
X53879662Y-26988378D01*
X53879662Y-27137162D01*
X53881808Y-27186518D01*
X53895399Y-27225860D01*
X53935456Y-27258764D01*
X54009848Y-27268778D01*
X54085671Y-27258764D01*
X54125728Y-27227290D01*
X54140034Y-27187948D01*
X54142896Y-27138592D01*
X54142896Y-27137162D01*
X54202981Y-27137162D01*
X54233740Y-27241597D01*
X54340320Y-27271639D01*
X54446901Y-27241597D01*
X54477660Y-27135731D01*
X54470149Y-27070102D01*
X54447617Y-27027720D01*
X54341751Y-26996961D01*
X54276122Y-27004651D01*
X54233740Y-27027720D01*
X54210671Y-27070459D01*
X54202981Y-27137162D01*
X54142896Y-27137162D01*
X54142896Y-26770924D01*
X54517717Y-26770924D01*
X54523439Y-26875359D01*
X54543468Y-26989093D01*
X54561529Y-27048464D01*
X54587102Y-27102112D01*
X54657202Y-27196532D01*
X54703876Y-27235338D01*
X54762352Y-27264486D01*
X54830664Y-27282727D01*
X54906844Y-27288807D01*
X54993039Y-27279866D01*
X55068504Y-27253041D01*
X55131093Y-27212627D01*
X55178661Y-27162913D01*
X55214963Y-27104079D01*
X55243754Y-27036303D01*
X55264677Y-26966203D01*
X55277373Y-26900395D01*
X55283811Y-26836554D01*
X55285957Y-26772355D01*
X55283990Y-26709765D01*
X55278089Y-26647891D01*
X55265928Y-26583335D01*
X55245185Y-26512698D01*
X55216393Y-26443671D01*
X55180092Y-26383943D01*
X55132166Y-26333335D01*
X55068504Y-26291668D01*
X54991608Y-26263771D01*
X54903983Y-26254472D01*
X54813854Y-26263950D01*
X54735170Y-26292383D01*
X54670435Y-26334765D01*
X54622152Y-26386089D01*
X54585850Y-26446532D01*
X54557059Y-26516275D01*
X54536494Y-26587090D01*
X54524870Y-26650753D01*
X54519505Y-26710838D01*
X54517717Y-26770924D01*
X54142896Y-26770924D01*
X54142896Y-26398964D01*
X54140034Y-26350323D01*
X54126443Y-26310266D01*
X54087102Y-26277362D01*
X54012710Y-26267348D01*
X53936172Y-26276647D01*
X53895399Y-26307405D01*
X53881808Y-26344601D01*
X53879662Y-26391811D01*
X53879662Y-26742312D01*
X53692252Y-26742312D01*
X53780950Y-26377505D01*
X53760921Y-26314558D01*
X53677946Y-26273070D01*
X53569934Y-26271639D01*
X53516286Y-26366060D01*
X53406129Y-26810981D01*
X53401837Y-26856761D01*
X52962380Y-26856761D01*
X53025585Y-26715130D01*
X53040607Y-26619279D01*
X52959777Y-26552040D01*
X52853911Y-26536303D01*
X52789534Y-26616418D01*
X52676515Y-26868206D01*
X52497688Y-26597820D01*
X52421866Y-26529866D01*
X52318861Y-26562054D01*
X52250192Y-26639308D01*
X52181350Y-26639308D01*
X52182595Y-26635731D01*
X52127159Y-26576361D01*
X52027373Y-26540953D01*
X51928303Y-26529150D01*
X51837141Y-26535588D01*
X51762034Y-26554901D01*
X51702981Y-26587090D01*
X51645578Y-26658084D01*
X51626443Y-26755187D01*
X51637441Y-26835570D01*
X51670435Y-26900753D01*
X51725424Y-26950735D01*
X51802409Y-26985516D01*
X51879662Y-27004830D01*
X51950478Y-27024858D01*
X51971222Y-27049894D01*
X51916858Y-27072784D01*
X51810278Y-27037734D01*
X51710850Y-27002684D01*
X51655056Y-27031296D01*
X51615356Y-27097820D01*
X51602123Y-27148607D01*
X51540223Y-27148607D01*
X51540607Y-27140023D01*
X51540607Y-26905402D01*
X51532182Y-26805895D01*
X51506908Y-26719104D01*
X51464784Y-26645030D01*
X51407241Y-26588600D01*
X51335711Y-26554742D01*
X51250192Y-26543456D01*
X51146472Y-26570638D01*
X51069934Y-26632155D01*
X51065642Y-26602827D01*
X51049906Y-26575645D01*
X51011279Y-26552040D01*
X50944040Y-26543456D01*
X50869648Y-26552755D01*
X50830306Y-26583514D01*
X50816715Y-26620710D01*
X50813854Y-26667920D01*
X50695917Y-26667920D01*
X50664355Y-26620710D01*
X50599262Y-26569048D01*
X50517478Y-26538052D01*
X50419004Y-26527720D01*
X50310675Y-26539562D01*
X50216493Y-26575089D01*
X50136458Y-26634300D01*
X50075657Y-26712269D01*
X50039176Y-26804067D01*
X50027016Y-26909694D01*
X49961959Y-26909694D01*
X49974262Y-26887698D01*
X49984097Y-26816704D01*
X49962817Y-26716203D01*
X49898976Y-26620710D01*
X49833883Y-26569048D01*
X49752099Y-26538052D01*
X49653625Y-26527720D01*
X49545296Y-26539562D01*
X49451114Y-26575089D01*
X49371079Y-26634300D01*
X49310278Y-26712269D01*
X49273797Y-26804067D01*
X49261637Y-26909694D01*
X48911136Y-26909694D01*
X48911136Y-26487662D01*
X49108561Y-26487662D01*
X49149333Y-26485516D01*
X49182237Y-26474072D01*
X49210134Y-26440452D01*
X49218718Y-26377505D01*
X49210134Y-26314558D01*
X49182953Y-26280938D01*
X49150764Y-26269494D01*
X49109991Y-26267348D01*
X48456200Y-26267348D01*
X48415428Y-26269494D01*
X48382524Y-26280938D01*
X48354627Y-26313843D01*
X48346043Y-26376074D01*
X47861541Y-26376074D01*
X47700041Y-26133824D01*
X48226825Y-26133824D01*
X48346043Y-26133824D01*
X55285957Y-26133824D01*
X55405175Y-26133824D01*
X55931959Y-26133824D01*
X55405175Y-26924000D01*
G37*
D12*
%TO.C,J2*%
X46940000Y-81975000D02*
X46940000Y-80645000D01*
X48270000Y-81975000D02*
X46940000Y-81975000D01*
X49540000Y-79315000D02*
X57220000Y-79315000D01*
X49540000Y-81975000D02*
X49540000Y-79315000D01*
X49540000Y-81975000D02*
X57220000Y-81975000D01*
X57220000Y-81975000D02*
X57220000Y-79315000D01*
D11*
%TO.C,kibuzzard-68263181*%
G36*
X66115940Y-42870630D02*
G01*
X66182176Y-42945751D01*
X66216101Y-43053990D01*
X66225795Y-43180000D01*
X66222765Y-43251284D01*
X66213678Y-43316511D01*
X66173290Y-43423942D01*
X66098977Y-43495024D01*
X65985084Y-43520872D01*
X65967313Y-43520872D01*
X65949543Y-43519257D01*
X65949543Y-42847205D01*
X65978622Y-42843166D01*
X66007701Y-42842359D01*
X66115940Y-42870630D01*
G37*
G36*
X69346958Y-42870630D02*
G01*
X69413194Y-42945751D01*
X69447119Y-43053990D01*
X69456812Y-43180000D01*
X69453783Y-43251284D01*
X69444696Y-43316511D01*
X69404308Y-43423942D01*
X69329995Y-43495024D01*
X69216101Y-43520872D01*
X69198331Y-43520872D01*
X69180560Y-43519257D01*
X69180560Y-42847205D01*
X69209639Y-42843166D01*
X69238719Y-42842359D01*
X69346958Y-42870630D01*
G37*
G36*
X70231000Y-43180000D02*
G01*
X69793377Y-43836435D01*
X69658751Y-43836435D01*
X69195100Y-43836435D01*
X68660366Y-43836435D01*
X67731449Y-43836435D01*
X65964082Y-43836435D01*
X65334034Y-43836435D01*
X64791223Y-43836435D01*
X64162790Y-43836435D01*
X64028164Y-43836435D01*
X64028164Y-43680808D01*
X64162790Y-43680808D01*
X64791223Y-43680808D01*
X64791223Y-43516026D01*
X64363113Y-43516026D01*
X64363113Y-43180000D01*
X64899462Y-43180000D01*
X64906429Y-43298033D01*
X64927329Y-43401729D01*
X64962164Y-43491086D01*
X65010932Y-43566107D01*
X65096374Y-43641497D01*
X65204075Y-43686731D01*
X65334034Y-43701809D01*
X65422281Y-43696357D01*
X65499623Y-43680000D01*
X65613517Y-43632342D01*
X65563436Y-43475638D01*
X65481853Y-43511179D01*
X65353420Y-43528950D01*
X65238113Y-43506131D01*
X65160366Y-43437674D01*
X65127607Y-43367938D01*
X65107952Y-43280431D01*
X65101400Y-43175153D01*
X65106853Y-43084685D01*
X65123210Y-43010372D01*
X65179753Y-42904556D01*
X65258912Y-42848013D01*
X65350189Y-42831050D01*
X65470544Y-42848013D01*
X65560205Y-42889208D01*
X65611901Y-42730889D01*
X65578783Y-42711502D01*
X65539096Y-42693732D01*
X65750835Y-42693732D01*
X65750835Y-43669499D01*
X65859882Y-43688078D01*
X65964082Y-43693732D01*
X66061618Y-43686664D01*
X66150673Y-43665460D01*
X66229631Y-43628910D01*
X66296877Y-43575800D01*
X66351602Y-43505323D01*
X66393000Y-43416672D01*
X66419050Y-43308635D01*
X66427733Y-43180000D01*
X67322725Y-43180000D01*
X67329995Y-43301365D01*
X67351804Y-43406979D01*
X67386942Y-43496640D01*
X67434195Y-43570145D01*
X67492959Y-43627496D01*
X67562628Y-43668691D01*
X67642394Y-43693530D01*
X67731449Y-43701809D01*
X67830197Y-43697771D01*
X67913194Y-43685654D01*
X67931636Y-43680808D01*
X68161174Y-43680808D01*
X68340496Y-43680808D01*
X68340496Y-43016834D01*
X68400539Y-43127675D01*
X68457889Y-43238338D01*
X68512547Y-43348821D01*
X68564513Y-43459304D01*
X68613786Y-43569966D01*
X68660366Y-43680808D01*
X68820302Y-43680808D01*
X68820302Y-42693732D01*
X68981853Y-42693732D01*
X68981853Y-43669499D01*
X69090900Y-43688078D01*
X69195100Y-43693732D01*
X69292636Y-43686664D01*
X69381691Y-43665460D01*
X69460649Y-43628910D01*
X69527895Y-43575800D01*
X69582620Y-43505323D01*
X69624017Y-43416672D01*
X69650068Y-43308635D01*
X69658751Y-43180000D01*
X69650875Y-43054192D01*
X69627248Y-42948174D01*
X69589486Y-42860533D01*
X69539203Y-42789855D01*
X69476400Y-42735937D01*
X69401077Y-42698578D01*
X69315253Y-42676769D01*
X69220948Y-42669499D01*
X69109478Y-42674346D01*
X68981853Y-42693732D01*
X68820302Y-42693732D01*
X68820302Y-42680808D01*
X68640980Y-42680808D01*
X68640980Y-43296317D01*
X68612507Y-43233312D01*
X68578783Y-43160614D01*
X68540819Y-43081858D01*
X68499623Y-43000679D01*
X68456206Y-42918086D01*
X68411578Y-42835089D01*
X68366344Y-42754919D01*
X68321110Y-42680808D01*
X68161174Y-42680808D01*
X68161174Y-43680808D01*
X67931636Y-43680808D01*
X68023856Y-43656575D01*
X68023856Y-43157383D01*
X67825148Y-43157383D01*
X67825148Y-43522488D01*
X67786376Y-43527334D01*
X67747604Y-43528950D01*
X67651077Y-43507746D01*
X67581206Y-43444136D01*
X67549794Y-43377092D01*
X67530946Y-43289047D01*
X67524664Y-43180000D01*
X67528097Y-43105889D01*
X67538395Y-43038643D01*
X67583630Y-42928788D01*
X67663597Y-42856898D01*
X67783145Y-42831050D01*
X67889769Y-42848821D01*
X67977006Y-42889208D01*
X68028702Y-42730889D01*
X67995585Y-42711502D01*
X67939849Y-42687270D01*
X67859882Y-42667076D01*
X67755681Y-42658191D01*
X67668040Y-42666470D01*
X67586053Y-42691309D01*
X67512143Y-42732706D01*
X67448735Y-42790662D01*
X67396635Y-42864774D01*
X67356651Y-42954637D01*
X67331206Y-43059847D01*
X67322725Y-43180000D01*
X66427733Y-43180000D01*
X66419858Y-43054192D01*
X66396231Y-42948174D01*
X66358468Y-42860533D01*
X66308185Y-42789855D01*
X66245383Y-42735937D01*
X66170059Y-42698578D01*
X66084236Y-42676769D01*
X65989930Y-42669499D01*
X65878460Y-42674346D01*
X65750835Y-42693732D01*
X65539096Y-42693732D01*
X65524664Y-42687270D01*
X65449543Y-42667076D01*
X65353420Y-42658191D01*
X65258711Y-42666874D01*
X65171675Y-42692924D01*
X65094131Y-42735735D01*
X65027895Y-42794701D01*
X64973977Y-42869216D01*
X64933387Y-42958675D01*
X64907943Y-43062472D01*
X64899462Y-43180000D01*
X64363113Y-43180000D01*
X64363113Y-42680808D01*
X64162790Y-42680808D01*
X64162790Y-43680808D01*
X64028164Y-43680808D01*
X64028164Y-42523565D01*
X64162790Y-42523565D01*
X69658751Y-42523565D01*
X69793377Y-42523565D01*
X70231000Y-43180000D01*
G37*
%TO.C,kibuzzard-6846F3E4*%
G36*
X36836834Y-50400646D02*
G01*
X36837641Y-50449919D01*
X36828554Y-50521204D01*
X36801292Y-50576737D01*
X36752221Y-50612480D01*
X36677706Y-50624394D01*
X36599152Y-50612278D01*
X36547658Y-50575929D01*
X36519184Y-50515751D01*
X36509693Y-50432149D01*
X36509693Y-50351373D01*
X36832795Y-50351373D01*
X36836834Y-50400646D01*
G37*
G36*
X36836834Y-55226979D02*
G01*
X36837641Y-55256058D01*
X36809370Y-55364297D01*
X36734249Y-55430533D01*
X36626010Y-55464459D01*
X36500000Y-55474152D01*
X36428716Y-55471123D01*
X36363489Y-55462036D01*
X36256058Y-55421648D01*
X36184976Y-55347334D01*
X36159128Y-55233441D01*
X36159128Y-55215670D01*
X36160743Y-55197900D01*
X36832795Y-55197900D01*
X36836834Y-55226979D01*
G37*
G36*
X36628064Y-48545462D02*
G01*
X36751207Y-48582817D01*
X36864696Y-48643478D01*
X36964170Y-48725114D01*
X37045806Y-48824588D01*
X37106467Y-48938077D01*
X37143822Y-49061220D01*
X37156435Y-49189284D01*
X37156435Y-49323910D01*
X37156435Y-55676091D01*
X37156435Y-55810716D01*
X37143822Y-55938780D01*
X37106467Y-56061923D01*
X37045806Y-56175412D01*
X36964170Y-56274886D01*
X36864696Y-56356522D01*
X36751207Y-56417183D01*
X36628064Y-56454538D01*
X36500000Y-56467151D01*
X36371936Y-56454538D01*
X36248793Y-56417183D01*
X36135304Y-56356522D01*
X36035830Y-56274886D01*
X35954194Y-56175412D01*
X35893533Y-56061923D01*
X35856178Y-55938780D01*
X35843565Y-55810716D01*
X35843565Y-55676091D01*
X35843565Y-55212439D01*
X35986268Y-55212439D01*
X35993336Y-55309976D01*
X36014540Y-55399031D01*
X36051090Y-55477989D01*
X36104200Y-55545234D01*
X36174677Y-55599960D01*
X36263328Y-55641357D01*
X36371365Y-55667407D01*
X36500000Y-55676091D01*
X36625808Y-55668215D01*
X36731826Y-55644588D01*
X36819467Y-55606826D01*
X36890145Y-55556543D01*
X36944063Y-55493740D01*
X36981422Y-55418417D01*
X37003231Y-55332593D01*
X37010501Y-55238288D01*
X37005654Y-55126817D01*
X36986268Y-54999192D01*
X36010501Y-54999192D01*
X35991922Y-55108239D01*
X35986268Y-55212439D01*
X35843565Y-55212439D01*
X35843565Y-54582391D01*
X35978191Y-54582391D01*
X35983643Y-54670638D01*
X36000000Y-54747981D01*
X36047658Y-54861874D01*
X36204362Y-54811793D01*
X36168821Y-54730210D01*
X36151050Y-54601777D01*
X36173869Y-54486470D01*
X36242326Y-54408724D01*
X36312062Y-54375965D01*
X36399569Y-54356310D01*
X36504847Y-54349758D01*
X36595315Y-54355210D01*
X36669628Y-54371567D01*
X36775444Y-54428110D01*
X36831987Y-54507270D01*
X36848950Y-54598546D01*
X36831987Y-54718901D01*
X36790792Y-54808562D01*
X36949111Y-54860259D01*
X36968498Y-54827141D01*
X36992730Y-54773021D01*
X37012924Y-54697900D01*
X37021809Y-54601777D01*
X37013126Y-54507068D01*
X36987076Y-54420032D01*
X36944265Y-54342488D01*
X36885299Y-54276252D01*
X36810784Y-54222334D01*
X36721325Y-54181745D01*
X36617528Y-54156301D01*
X36500000Y-54147819D01*
X36381967Y-54154786D01*
X36278271Y-54175687D01*
X36188914Y-54210521D01*
X36113893Y-54259289D01*
X36038503Y-54344732D01*
X35993269Y-54452432D01*
X35978191Y-54582391D01*
X35843565Y-54582391D01*
X35843565Y-54039580D01*
X35843565Y-53411147D01*
X35999192Y-53411147D01*
X35999192Y-54039580D01*
X36163974Y-54039580D01*
X36163974Y-53611470D01*
X36999192Y-53611470D01*
X36999192Y-53411147D01*
X35999192Y-53411147D01*
X35843565Y-53411147D01*
X35843565Y-52414378D01*
X35999192Y-52414378D01*
X36999192Y-52414378D01*
X36999192Y-52235057D01*
X36383683Y-52235057D01*
X36446688Y-52206583D01*
X36519386Y-52172859D01*
X36598142Y-52134895D01*
X36679321Y-52093700D01*
X36761914Y-52050283D01*
X36844911Y-52005654D01*
X36925081Y-51960420D01*
X36999192Y-51915186D01*
X36999192Y-51755250D01*
X35999192Y-51755250D01*
X35999192Y-51934572D01*
X36663166Y-51934572D01*
X36552325Y-51994615D01*
X36441662Y-52051966D01*
X36331179Y-52106624D01*
X36220696Y-52158589D01*
X36110034Y-52207862D01*
X35999192Y-52254443D01*
X35999192Y-52414378D01*
X35843565Y-52414378D01*
X35843565Y-52254443D01*
X35843565Y-51595315D01*
X35999192Y-51595315D01*
X36163974Y-51595315D01*
X36163974Y-51378837D01*
X36834410Y-51378837D01*
X36834410Y-51595315D01*
X36999192Y-51595315D01*
X36999192Y-50960420D01*
X36834410Y-50960420D01*
X36834410Y-51178514D01*
X36163974Y-51178514D01*
X36163974Y-50960420D01*
X35999192Y-50960420D01*
X35999192Y-51595315D01*
X35843565Y-51595315D01*
X35843565Y-50960420D01*
X35843565Y-50351373D01*
X35843565Y-50152666D01*
X35999192Y-50152666D01*
X35999192Y-50351373D01*
X36336834Y-50351373D01*
X36336834Y-50422456D01*
X36345719Y-50541914D01*
X36372375Y-50641806D01*
X36416801Y-50722133D01*
X36481152Y-50780919D01*
X36567582Y-50816191D01*
X36676090Y-50827948D01*
X36783522Y-50816281D01*
X36868875Y-50781278D01*
X36932149Y-50722940D01*
X36975678Y-50643421D01*
X37001795Y-50544875D01*
X37010501Y-50427302D01*
X37008885Y-50364297D01*
X37004847Y-50291599D01*
X36997577Y-50218094D01*
X36986268Y-50152666D01*
X35999192Y-50152666D01*
X35843565Y-50152666D01*
X35843565Y-49601777D01*
X35978191Y-49601777D01*
X35984047Y-49695073D01*
X36001616Y-49774637D01*
X36029887Y-49840872D01*
X36067851Y-49894184D01*
X36168821Y-49963651D01*
X36296446Y-49986268D01*
X36377625Y-49975565D01*
X36446688Y-49943457D01*
X36502019Y-49891963D01*
X36542003Y-49823102D01*
X36626010Y-49913570D01*
X36740711Y-49947496D01*
X36852181Y-49928110D01*
X36941842Y-49868336D01*
X37000808Y-49765751D01*
X37016559Y-49698102D01*
X37021809Y-49619548D01*
X37014338Y-49533724D01*
X36991922Y-49457189D01*
X36932956Y-49341680D01*
X36787561Y-49412763D01*
X36833603Y-49508885D01*
X36852181Y-49621163D01*
X36820679Y-49712439D01*
X36734249Y-49745557D01*
X36672859Y-49730210D01*
X36634087Y-49690630D01*
X36613086Y-49635703D01*
X36606624Y-49574313D01*
X36606624Y-49500000D01*
X36441842Y-49500000D01*
X36441842Y-49561389D01*
X36433966Y-49649838D01*
X36410339Y-49721325D01*
X36366922Y-49768578D01*
X36299677Y-49784330D01*
X36191438Y-49743134D01*
X36158724Y-49686793D01*
X36147819Y-49600162D01*
X36152262Y-49523627D01*
X36165590Y-49458805D01*
X36199515Y-49362682D01*
X36033118Y-49323910D01*
X36015347Y-49373990D01*
X35997577Y-49444265D01*
X35983845Y-49523425D01*
X35978191Y-49601777D01*
X35843565Y-49601777D01*
X35843565Y-49323910D01*
X35843565Y-49189284D01*
X35856178Y-49061220D01*
X35893533Y-48938077D01*
X35954194Y-48824588D01*
X36035830Y-48725114D01*
X36135304Y-48643478D01*
X36248793Y-48582817D01*
X36371936Y-48545462D01*
X36500000Y-48532849D01*
X36628064Y-48545462D01*
G37*
%TO.C,kibuzzard-6826303F*%
G36*
X67856209Y-38273667D02*
G01*
X67903059Y-38279321D01*
X67903059Y-38453796D01*
X67849747Y-38457835D01*
X67786742Y-38458643D01*
X67686581Y-38436834D01*
X67647809Y-38363328D01*
X67660733Y-38316478D01*
X67695466Y-38289015D01*
X67746355Y-38275283D01*
X67806129Y-38271244D01*
X67856209Y-38273667D01*
G37*
G36*
X69471718Y-38273667D02*
G01*
X69518568Y-38279321D01*
X69518568Y-38453796D01*
X69465256Y-38457835D01*
X69402251Y-38458643D01*
X69302090Y-38436834D01*
X69263318Y-38363328D01*
X69276242Y-38316478D01*
X69310975Y-38289015D01*
X69361864Y-38275283D01*
X69421637Y-38271244D01*
X69471718Y-38273667D01*
G37*
G36*
X65410329Y-37790630D02*
G01*
X65476565Y-37865751D01*
X65510490Y-37973990D01*
X65520183Y-38100000D01*
X65517154Y-38171284D01*
X65508067Y-38236511D01*
X65467679Y-38343942D01*
X65393366Y-38415024D01*
X65279473Y-38440872D01*
X65261702Y-38440872D01*
X65243931Y-38439257D01*
X65243931Y-37767205D01*
X65273011Y-37763166D01*
X65302090Y-37762359D01*
X65410329Y-37790630D01*
G37*
G36*
X67025838Y-37790630D02*
G01*
X67092074Y-37865751D01*
X67125999Y-37973990D01*
X67135692Y-38100000D01*
X67132663Y-38171284D01*
X67123576Y-38236511D01*
X67083188Y-38343942D01*
X67008875Y-38415024D01*
X66894982Y-38440872D01*
X66877211Y-38440872D01*
X66859440Y-38439257D01*
X66859440Y-37767205D01*
X66888519Y-37763166D01*
X66917599Y-37762359D01*
X67025838Y-37790630D01*
G37*
G36*
X70281447Y-38100000D02*
G01*
X69843824Y-38756435D01*
X69709198Y-38756435D01*
X69387712Y-38756435D01*
X68709198Y-38756435D01*
X67772203Y-38756435D01*
X66873980Y-38756435D01*
X65258471Y-38756435D01*
X64628423Y-38756435D01*
X64085612Y-38756435D01*
X63457179Y-38756435D01*
X63322553Y-38756435D01*
X63322553Y-38600808D01*
X63457179Y-38600808D01*
X64085612Y-38600808D01*
X64085612Y-38436026D01*
X63657502Y-38436026D01*
X63657502Y-38100000D01*
X64193851Y-38100000D01*
X64200818Y-38218033D01*
X64221718Y-38321729D01*
X64256553Y-38411086D01*
X64305321Y-38486107D01*
X64390763Y-38561497D01*
X64498464Y-38606731D01*
X64628423Y-38621809D01*
X64716670Y-38616357D01*
X64794012Y-38600000D01*
X64907906Y-38552342D01*
X64857825Y-38395638D01*
X64776242Y-38431179D01*
X64647809Y-38448950D01*
X64532502Y-38426131D01*
X64454755Y-38357674D01*
X64421996Y-38287938D01*
X64402341Y-38200431D01*
X64395789Y-38095153D01*
X64401242Y-38004685D01*
X64417599Y-37930372D01*
X64474141Y-37824556D01*
X64553301Y-37768013D01*
X64644578Y-37751050D01*
X64764933Y-37768013D01*
X64854594Y-37809208D01*
X64906290Y-37650889D01*
X64873172Y-37631502D01*
X64833485Y-37613732D01*
X65045224Y-37613732D01*
X65045224Y-38589499D01*
X65154271Y-38608078D01*
X65258471Y-38613732D01*
X65356007Y-38606664D01*
X65445062Y-38585460D01*
X65524020Y-38548910D01*
X65591266Y-38495800D01*
X65645991Y-38425323D01*
X65687389Y-38336672D01*
X65713439Y-38228635D01*
X65722122Y-38100000D01*
X65714246Y-37974192D01*
X65690620Y-37868174D01*
X65652857Y-37780533D01*
X65602574Y-37709855D01*
X65539771Y-37655937D01*
X65464448Y-37618578D01*
X65445378Y-37613732D01*
X66660733Y-37613732D01*
X66660733Y-38589499D01*
X66769780Y-38608078D01*
X66873980Y-38613732D01*
X66971516Y-38606664D01*
X67060571Y-38585460D01*
X67139529Y-38548910D01*
X67206775Y-38495800D01*
X67261500Y-38425323D01*
X67288187Y-38368174D01*
X67452332Y-38368174D01*
X67474949Y-38485299D01*
X67539570Y-38562843D01*
X67640539Y-38605654D01*
X67772203Y-38618578D01*
X67873576Y-38615347D01*
X67964448Y-38605654D01*
X68093689Y-38583037D01*
X68093689Y-38130695D01*
X68077534Y-38002262D01*
X68024222Y-37905331D01*
X67924868Y-37843942D01*
X67914488Y-37841519D01*
X68247162Y-37841519D01*
X68247162Y-38006300D01*
X68420022Y-38006300D01*
X68420022Y-38318094D01*
X68424868Y-38404321D01*
X68439408Y-38472375D01*
X68495951Y-38563651D01*
X68586419Y-38607270D01*
X68709198Y-38618578D01*
X68832784Y-38608885D01*
X68951524Y-38576575D01*
X68924061Y-38405331D01*
X68873172Y-38426333D01*
X68827938Y-38438449D01*
X68782704Y-38444103D01*
X68731815Y-38445719D01*
X68684965Y-38440872D01*
X68649424Y-38421486D01*
X68626807Y-38381099D01*
X68625268Y-38368174D01*
X69067841Y-38368174D01*
X69090458Y-38485299D01*
X69155078Y-38562843D01*
X69256048Y-38605654D01*
X69387712Y-38618578D01*
X69489085Y-38615347D01*
X69579957Y-38605654D01*
X69709198Y-38583037D01*
X69709198Y-38130695D01*
X69693043Y-38002262D01*
X69639731Y-37905331D01*
X69540377Y-37843942D01*
X69470305Y-37827585D01*
X69384481Y-37822132D01*
X69312994Y-37824758D01*
X69243931Y-37832633D01*
X69138923Y-37856058D01*
X69166387Y-38015994D01*
X69251201Y-37996607D01*
X69360248Y-37988530D01*
X69434561Y-37998021D01*
X69483027Y-38026494D01*
X69518568Y-38121002D01*
X69518568Y-38145234D01*
X69454351Y-38135541D01*
X69381250Y-38132310D01*
X69263318Y-38144426D01*
X69163156Y-38184006D01*
X69093689Y-38256704D01*
X69067841Y-38368174D01*
X68625268Y-38368174D01*
X68618729Y-38313247D01*
X68618729Y-38006300D01*
X68936985Y-38006300D01*
X68936985Y-37841519D01*
X68618729Y-37841519D01*
X68618729Y-37618578D01*
X68420022Y-37650889D01*
X68420022Y-37841519D01*
X68247162Y-37841519D01*
X67914488Y-37841519D01*
X67854796Y-37827585D01*
X67768972Y-37822132D01*
X67697486Y-37824758D01*
X67628423Y-37832633D01*
X67523414Y-37856058D01*
X67550878Y-38015994D01*
X67635692Y-37996607D01*
X67744739Y-37988530D01*
X67819053Y-37998021D01*
X67867518Y-38026494D01*
X67903059Y-38121002D01*
X67903059Y-38145234D01*
X67838843Y-38135541D01*
X67765741Y-38132310D01*
X67647809Y-38144426D01*
X67547647Y-38184006D01*
X67478180Y-38256704D01*
X67452332Y-38368174D01*
X67288187Y-38368174D01*
X67302898Y-38336672D01*
X67328948Y-38228635D01*
X67337631Y-38100000D01*
X67329755Y-37974192D01*
X67306129Y-37868174D01*
X67268366Y-37780533D01*
X67218083Y-37709855D01*
X67155280Y-37655937D01*
X67079957Y-37618578D01*
X66994133Y-37596769D01*
X66899828Y-37589499D01*
X66788358Y-37594346D01*
X66660733Y-37613732D01*
X65445378Y-37613732D01*
X65378624Y-37596769D01*
X65284319Y-37589499D01*
X65172849Y-37594346D01*
X65045224Y-37613732D01*
X64833485Y-37613732D01*
X64819053Y-37607270D01*
X64743931Y-37587076D01*
X64647809Y-37578191D01*
X64553099Y-37586874D01*
X64466064Y-37612924D01*
X64388519Y-37655735D01*
X64322284Y-37714701D01*
X64268366Y-37789216D01*
X64227776Y-37878675D01*
X64202332Y-37982472D01*
X64193851Y-38100000D01*
X63657502Y-38100000D01*
X63657502Y-37600808D01*
X63457179Y-37600808D01*
X63457179Y-38600808D01*
X63322553Y-38600808D01*
X63322553Y-37443565D01*
X63457179Y-37443565D01*
X69709198Y-37443565D01*
X69843824Y-37443565D01*
X70281447Y-38100000D01*
G37*
D10*
%TO.C,U1*%
X42800000Y-29670000D02*
X60580000Y-29670000D01*
X42800000Y-65230000D02*
X42800000Y-29670000D01*
X46610000Y-51895000D02*
X46610000Y-41735000D01*
X46610000Y-51895000D02*
X56770000Y-51895000D01*
X47880000Y-28400000D02*
X55500000Y-28400000D01*
X47880000Y-29670000D02*
X47880000Y-28400000D01*
X47880000Y-34750000D02*
X47880000Y-29670000D01*
X47880000Y-34750000D02*
X55500000Y-34750000D01*
X50420000Y-57610000D02*
X52960000Y-57610000D01*
X50420000Y-62182000D02*
X50420000Y-57610000D01*
X52960000Y-57610000D02*
X52960000Y-62182000D01*
X52960000Y-62182000D02*
X50420000Y-62182000D01*
X53595000Y-52530000D02*
X56770000Y-52530000D01*
X53595000Y-55070000D02*
X53595000Y-52530000D01*
X55500000Y-28400000D02*
X55500000Y-29670000D01*
X55500000Y-34750000D02*
X55500000Y-29670000D01*
X56770000Y-41735000D02*
X46610000Y-41735000D01*
X56770000Y-51895000D02*
X56770000Y-41735000D01*
X56770000Y-52530000D02*
X56770000Y-55070000D01*
X56770000Y-55070000D02*
X53595000Y-55070000D01*
X60580000Y-29670000D02*
X60580000Y-65230000D01*
X60580000Y-65230000D02*
X42800000Y-65230000D01*
D13*
X51436000Y-46053000D02*
X51055000Y-46307000D01*
X50801000Y-46053000D01*
X51182000Y-45799000D01*
X51436000Y-46053000D01*
G36*
X51436000Y-46053000D02*
G01*
X51055000Y-46307000D01*
X50801000Y-46053000D01*
X51182000Y-45799000D01*
X51436000Y-46053000D01*
G37*
X51563000Y-45291000D02*
X51182000Y-45545000D01*
X50928000Y-45291000D01*
X51309000Y-45037000D01*
X51563000Y-45291000D01*
G36*
X51563000Y-45291000D02*
G01*
X51182000Y-45545000D01*
X50928000Y-45291000D01*
X51309000Y-45037000D01*
X51563000Y-45291000D01*
G37*
X51817000Y-43767000D02*
X51436000Y-44021000D01*
X51182000Y-43767000D01*
X51563000Y-43513000D01*
X51817000Y-43767000D01*
G36*
X51817000Y-43767000D02*
G01*
X51436000Y-44021000D01*
X51182000Y-43767000D01*
X51563000Y-43513000D01*
X51817000Y-43767000D01*
G37*
X51944000Y-45672000D02*
X51563000Y-45926000D01*
X51309000Y-45672000D01*
X51690000Y-45418000D01*
X51944000Y-45672000D01*
G36*
X51944000Y-45672000D02*
G01*
X51563000Y-45926000D01*
X51309000Y-45672000D01*
X51690000Y-45418000D01*
X51944000Y-45672000D01*
G37*
X52071000Y-44910000D02*
X51690000Y-45164000D01*
X51436000Y-44910000D01*
X51817000Y-44656000D01*
X52071000Y-44910000D01*
G36*
X52071000Y-44910000D02*
G01*
X51690000Y-45164000D01*
X51436000Y-44910000D01*
X51817000Y-44656000D01*
X52071000Y-44910000D01*
G37*
X52198000Y-44148000D02*
X51817000Y-44402000D01*
X51563000Y-44148000D01*
X51944000Y-43894000D01*
X52198000Y-44148000D01*
G36*
X52198000Y-44148000D02*
G01*
X51817000Y-44402000D01*
X51563000Y-44148000D01*
X51944000Y-43894000D01*
X52198000Y-44148000D01*
G37*
X52452000Y-45291000D02*
X52071000Y-45545000D01*
X51817000Y-45291000D01*
X52198000Y-45037000D01*
X52452000Y-45291000D01*
G36*
X52452000Y-45291000D02*
G01*
X52071000Y-45545000D01*
X51817000Y-45291000D01*
X52198000Y-45037000D01*
X52452000Y-45291000D01*
G37*
X52579000Y-44529000D02*
X52198000Y-44783000D01*
X51944000Y-44529000D01*
X52325000Y-44275000D01*
X52579000Y-44529000D01*
G36*
X52579000Y-44529000D02*
G01*
X52198000Y-44783000D01*
X51944000Y-44529000D01*
X52325000Y-44275000D01*
X52579000Y-44529000D01*
G37*
D12*
%TO.C,J6*%
X29670000Y-48670000D02*
X31000000Y-48670000D01*
X29670000Y-50000000D02*
X29670000Y-48670000D01*
X29670000Y-51270000D02*
X29670000Y-56410000D01*
X29670000Y-51270000D02*
X32330000Y-51270000D01*
X29670000Y-56410000D02*
X32330000Y-56410000D01*
X32330000Y-51270000D02*
X32330000Y-56410000D01*
D11*
%TO.C,kibuzzard-68263383*%
G36*
X48196995Y-71458361D02*
G01*
X48165493Y-71581948D01*
X48061292Y-71627990D01*
X47989402Y-71611835D01*
X47945784Y-71570639D01*
X47924782Y-71513288D01*
X47919128Y-71447053D01*
X47920743Y-71397780D01*
X47925590Y-71351738D01*
X48196995Y-71351738D01*
X48196995Y-71458361D01*
G37*
G36*
X48596026Y-71395356D02*
G01*
X48597641Y-71442206D01*
X48593603Y-71495518D01*
X48577447Y-71540752D01*
X48543522Y-71571447D01*
X48486171Y-71582755D01*
X48394895Y-71543983D01*
X48361777Y-71429282D01*
X48361777Y-71351738D01*
X48591179Y-71351738D01*
X48596026Y-71395356D01*
G37*
G36*
X48230719Y-74555494D02*
G01*
X48302811Y-74585179D01*
X48349459Y-74634250D01*
X48365008Y-74702303D01*
X48349459Y-74771972D01*
X48302811Y-74819427D01*
X48230719Y-74846689D01*
X48138837Y-74855776D01*
X48046753Y-74845881D01*
X47974055Y-74816196D01*
X47926801Y-74767125D01*
X47911050Y-74699072D01*
X47926801Y-74629403D01*
X47974055Y-74581948D01*
X48046753Y-74554686D01*
X48138837Y-74545599D01*
X48230719Y-74555494D01*
G37*
G36*
X48366713Y-76960784D02*
G01*
X48453682Y-76975324D01*
X48522520Y-76999557D01*
X48589766Y-77052465D01*
X48612181Y-77123951D01*
X48589766Y-77196447D01*
X48522520Y-77249153D01*
X48453682Y-77272937D01*
X48366713Y-77287207D01*
X48261616Y-77291964D01*
X48155620Y-77287207D01*
X48068113Y-77272937D01*
X47999095Y-77249153D01*
X47931850Y-77196447D01*
X47909934Y-77125566D01*
X48171147Y-77125566D01*
X48202649Y-77189379D01*
X48277771Y-77214419D01*
X48353700Y-77189379D01*
X48386010Y-77125566D01*
X48353700Y-77059330D01*
X48277771Y-77035098D01*
X48202649Y-77059330D01*
X48171147Y-77125566D01*
X47909934Y-77125566D01*
X47909435Y-77123951D01*
X47931850Y-77052465D01*
X47999095Y-76999557D01*
X48068113Y-76975324D01*
X48155620Y-76960784D01*
X48261616Y-76955938D01*
X48366713Y-76960784D01*
G37*
G36*
X48916435Y-71153030D02*
G01*
X48916435Y-78269347D01*
X48916435Y-78403972D01*
X48260000Y-78841596D01*
X47603565Y-78403972D01*
X47603565Y-78269347D01*
X47603565Y-77661915D01*
X47759192Y-77661915D01*
X47759192Y-78269347D01*
X47923974Y-78269347D01*
X47923974Y-78070639D01*
X48759192Y-78070639D01*
X48759192Y-77934936D01*
X48696187Y-77865469D01*
X48638029Y-77779847D01*
X48587948Y-77689379D01*
X48550792Y-77605372D01*
X48386010Y-77669993D01*
X48425590Y-77768539D01*
X48482940Y-77871931D01*
X47923974Y-77871931D01*
X47923974Y-77661915D01*
X47759192Y-77661915D01*
X47603565Y-77661915D01*
X47603565Y-77123951D01*
X47738191Y-77123951D01*
X47752551Y-77228061D01*
X47795631Y-77314222D01*
X47867431Y-77382432D01*
X47940533Y-77421305D01*
X48030598Y-77449072D01*
X48137625Y-77465732D01*
X48261616Y-77471285D01*
X48384849Y-77465732D01*
X48491220Y-77449072D01*
X48580729Y-77421305D01*
X48653376Y-77382432D01*
X48724728Y-77314222D01*
X48767539Y-77228061D01*
X48781809Y-77123951D01*
X48767449Y-77021456D01*
X48724369Y-76935834D01*
X48652569Y-76867085D01*
X48579669Y-76827505D01*
X48490210Y-76799234D01*
X48384192Y-76782271D01*
X48261616Y-76776616D01*
X48137625Y-76782170D01*
X48030598Y-76798830D01*
X47940533Y-76826596D01*
X47867431Y-76865469D01*
X47795631Y-76933680D01*
X47752551Y-77019840D01*
X47738191Y-77123951D01*
X47603565Y-77123951D01*
X47603565Y-75817004D01*
X47603565Y-75206342D01*
X47759192Y-75206342D01*
X47759192Y-75405049D01*
X48355315Y-75405049D01*
X48360162Y-75451091D01*
X48361777Y-75495518D01*
X48314927Y-75594064D01*
X48253134Y-75612238D01*
X48161454Y-75618297D01*
X47759192Y-75618297D01*
X47759192Y-75817004D01*
X48187302Y-75817004D01*
X48261414Y-75813369D01*
X48328659Y-75802465D01*
X48438514Y-75753192D01*
X48509596Y-75658684D01*
X48528376Y-75591237D01*
X48534637Y-75508442D01*
X48531405Y-75419791D01*
X48521712Y-75338006D01*
X48508384Y-75265914D01*
X48494249Y-75206342D01*
X47759192Y-75206342D01*
X47603565Y-75206342D01*
X47603565Y-74702303D01*
X47738191Y-74702303D01*
X47745460Y-74779242D01*
X47767270Y-74848507D01*
X47802407Y-74909290D01*
X47849661Y-74960784D01*
X47908021Y-75002384D01*
X47976478Y-75033482D01*
X48054225Y-75052868D01*
X48140452Y-75059330D01*
X48225468Y-75052868D01*
X48302811Y-75033482D01*
X48371066Y-75002182D01*
X48428821Y-74959977D01*
X48475267Y-74907877D01*
X48509596Y-74846891D01*
X48530800Y-74778030D01*
X48537868Y-74702303D01*
X48530800Y-74627586D01*
X48509596Y-74558523D01*
X48475267Y-74496931D01*
X48428821Y-74444629D01*
X48371066Y-74402222D01*
X48302811Y-74370316D01*
X48225468Y-74350324D01*
X48140452Y-74343660D01*
X48054225Y-74350122D01*
X47976478Y-74369508D01*
X47908021Y-74400809D01*
X47849661Y-74443014D01*
X47802407Y-74495114D01*
X47767270Y-74556099D01*
X47745460Y-74625364D01*
X47738191Y-74702303D01*
X47603565Y-74702303D01*
X47603565Y-74009250D01*
X47741422Y-74009250D01*
X47751115Y-74132836D01*
X47783425Y-74251576D01*
X47954669Y-74224112D01*
X47933667Y-74173224D01*
X47921551Y-74127990D01*
X47915897Y-74082755D01*
X47914281Y-74031867D01*
X47919128Y-73985017D01*
X47938514Y-73949476D01*
X47978901Y-73926859D01*
X48046753Y-73918781D01*
X48353700Y-73918781D01*
X48353700Y-74237036D01*
X48518481Y-74237036D01*
X48518481Y-73918781D01*
X48741422Y-73918781D01*
X48709111Y-73720074D01*
X48518481Y-73720074D01*
X48518481Y-73547214D01*
X48353700Y-73547214D01*
X48353700Y-73720074D01*
X48041906Y-73720074D01*
X47955679Y-73724920D01*
X47887625Y-73739460D01*
X47796349Y-73796003D01*
X47752730Y-73886471D01*
X47741422Y-74009250D01*
X47603565Y-74009250D01*
X47603565Y-73201495D01*
X47741422Y-73201495D01*
X47751115Y-73325082D01*
X47783425Y-73443822D01*
X47954669Y-73416358D01*
X47933667Y-73365469D01*
X47921551Y-73320235D01*
X47915897Y-73275001D01*
X47914281Y-73224112D01*
X47919128Y-73177263D01*
X47938514Y-73141721D01*
X47978901Y-73119104D01*
X48046753Y-73111027D01*
X48353700Y-73111027D01*
X48353700Y-73429282D01*
X48518481Y-73429282D01*
X48518481Y-73111027D01*
X48741422Y-73111027D01*
X48709111Y-72912319D01*
X48518481Y-72912319D01*
X48518481Y-72739460D01*
X48353700Y-72739460D01*
X48353700Y-72912319D01*
X48041906Y-72912319D01*
X47955679Y-72917166D01*
X47887625Y-72931705D01*
X47796349Y-72988248D01*
X47752730Y-73078717D01*
X47741422Y-73201495D01*
X47603565Y-73201495D01*
X47603565Y-72277424D01*
X47741422Y-72277424D01*
X47745057Y-72366075D01*
X47755961Y-72447860D01*
X47770501Y-72520356D01*
X47785040Y-72581140D01*
X48518481Y-72581140D01*
X48518481Y-72380817D01*
X47922359Y-72380817D01*
X47914281Y-72290348D01*
X47965170Y-72192610D01*
X48029588Y-72173830D01*
X48121066Y-72167570D01*
X48518481Y-72167570D01*
X48518481Y-71968862D01*
X48095218Y-71968862D01*
X48020905Y-71972093D01*
X47953053Y-71981786D01*
X47840775Y-72029444D01*
X47767270Y-72123951D01*
X47747884Y-72192206D01*
X47741422Y-72277424D01*
X47603565Y-72277424D01*
X47603565Y-71430898D01*
X47746268Y-71430898D01*
X47750105Y-71510663D01*
X47761616Y-71585179D01*
X47782213Y-71652222D01*
X47813312Y-71709573D01*
X47910242Y-71792771D01*
X47978296Y-71815792D01*
X48061292Y-71823466D01*
X48129144Y-71814379D01*
X48193764Y-71787117D01*
X48250307Y-71734411D01*
X48293926Y-71648991D01*
X48381163Y-71741883D01*
X48440129Y-71767933D01*
X48507173Y-71776616D01*
X48600872Y-71762077D01*
X48685687Y-71707150D01*
X48747076Y-71595679D01*
X48764645Y-71514096D01*
X48770501Y-71411511D01*
X48763231Y-71277424D01*
X48746268Y-71153030D01*
X47775347Y-71153030D01*
X47762625Y-71222901D01*
X47753538Y-71293579D01*
X47748086Y-71363450D01*
X47746268Y-71430898D01*
X47603565Y-71430898D01*
X47603565Y-71153030D01*
X47603565Y-71018404D01*
X48916435Y-71018404D01*
X48916435Y-71153030D01*
G37*
%TO.C,kibuzzard-6846F3F3*%
G36*
X34922753Y-49367269D02*
G01*
X35043774Y-49403981D01*
X35155308Y-49463597D01*
X35253068Y-49543827D01*
X35333298Y-49641587D01*
X35392914Y-49753121D01*
X35429625Y-49874142D01*
X35442021Y-50000000D01*
X35429625Y-50125858D01*
X35392914Y-50246879D01*
X35333298Y-50358413D01*
X35253068Y-50456173D01*
X35155308Y-50536403D01*
X35043774Y-50596019D01*
X34922753Y-50632731D01*
X34796895Y-50645127D01*
X34662269Y-50645127D01*
X34174385Y-50645127D01*
X33392479Y-50645127D01*
X33122689Y-50645127D01*
X32988063Y-50645127D01*
X32863849Y-50458805D01*
X33122689Y-50458805D01*
X33168731Y-50476575D01*
X33235775Y-50493538D01*
X33313319Y-50505654D01*
X33392479Y-50510501D01*
X33484967Y-50504443D01*
X33565338Y-50486268D01*
X33633594Y-50457189D01*
X33689733Y-50418417D01*
X33764046Y-50315832D01*
X33788279Y-50187399D01*
X33777329Y-50093700D01*
X33744480Y-50015078D01*
X33689733Y-49951535D01*
X33612727Y-49903428D01*
X33513104Y-49871118D01*
X33390863Y-49854604D01*
X33398941Y-49762520D01*
X33407018Y-49654281D01*
X33751122Y-49654281D01*
X33751122Y-49489499D01*
X33894902Y-49489499D01*
X33913481Y-49579968D01*
X33940136Y-49693053D01*
X33961497Y-49777688D01*
X33984653Y-49865733D01*
X34009603Y-49957189D01*
X34035990Y-50050440D01*
X34063454Y-50143870D01*
X34091994Y-50237480D01*
X34134401Y-50370759D01*
X34174385Y-50489499D01*
X34379555Y-50489499D01*
X34410429Y-50403428D01*
X34440585Y-50315383D01*
X34470023Y-50225363D01*
X34498295Y-50134895D01*
X34524951Y-50045504D01*
X34549991Y-49957189D01*
X34584321Y-49828554D01*
X34614611Y-49705977D01*
X34640661Y-49592084D01*
X34662269Y-49489499D01*
X34453868Y-49489499D01*
X34439329Y-49573506D01*
X34421558Y-49670436D01*
X34401364Y-49775242D01*
X34379555Y-49882876D01*
X34356130Y-49991115D01*
X34331090Y-50097738D01*
X34305241Y-50197698D01*
X34279393Y-50285945D01*
X34253343Y-50196486D01*
X34226889Y-50096123D01*
X34201041Y-49989499D01*
X34176808Y-49881260D01*
X34154393Y-49773829D01*
X34133997Y-49669628D01*
X34117035Y-49573304D01*
X34104918Y-49489499D01*
X33894902Y-49489499D01*
X33751122Y-49489499D01*
X33240621Y-49489499D01*
X33234563Y-49612884D01*
X33226081Y-49740711D01*
X33214773Y-49872173D01*
X33200233Y-50006462D01*
X33311300Y-50009895D01*
X33398941Y-50020194D01*
X33516065Y-50058966D01*
X33570993Y-50118740D01*
X33584724Y-50195477D01*
X33576647Y-50248788D01*
X33546760Y-50294830D01*
X33486986Y-50327948D01*
X33390863Y-50340872D01*
X33315338Y-50337237D01*
X33253545Y-50326333D01*
X33163077Y-50294023D01*
X33122689Y-50458805D01*
X32863849Y-50458805D01*
X32557979Y-50000000D01*
X32988063Y-49354873D01*
X33122689Y-49354873D01*
X34662269Y-49354873D01*
X34796895Y-49354873D01*
X34922753Y-49367269D01*
G37*
%TO.C,kibuzzard-682631CB*%
G36*
X66222476Y-51500976D02*
G01*
X66288712Y-51576097D01*
X66322638Y-51684336D01*
X66332331Y-51810346D01*
X66329302Y-51881630D01*
X66320215Y-51946856D01*
X66279827Y-52054288D01*
X66205514Y-52125370D01*
X66091620Y-52151218D01*
X66073850Y-52151218D01*
X66056079Y-52149603D01*
X66056079Y-51477551D01*
X66085158Y-51473512D01*
X66114237Y-51472704D01*
X66222476Y-51500976D01*
G37*
G36*
X70358000Y-51816000D02*
G01*
X69924146Y-52466781D01*
X69789520Y-52466781D01*
X69301636Y-52466781D01*
X68519730Y-52466781D01*
X67875142Y-52466781D01*
X66070619Y-52466781D01*
X65064156Y-52466781D01*
X64897759Y-52466781D01*
X64269326Y-52466781D01*
X64134700Y-52466781D01*
X64134700Y-52311153D01*
X64269326Y-52311153D01*
X64897759Y-52311153D01*
X65064156Y-52311153D01*
X65705514Y-52311153D01*
X65705514Y-52146372D01*
X65262864Y-52146372D01*
X65262864Y-51865273D01*
X65616661Y-51865273D01*
X65616661Y-51700491D01*
X65262864Y-51700491D01*
X65262864Y-51475935D01*
X65669972Y-51475935D01*
X65669972Y-51324078D01*
X65857371Y-51324078D01*
X65857371Y-52299845D01*
X65966418Y-52318423D01*
X66070619Y-52324078D01*
X66168155Y-52317010D01*
X66257210Y-52295806D01*
X66290363Y-52280459D01*
X68249940Y-52280459D01*
X68295982Y-52298229D01*
X68363026Y-52315192D01*
X68440570Y-52327309D01*
X68519730Y-52332155D01*
X68612218Y-52326097D01*
X68692589Y-52307922D01*
X68760845Y-52278843D01*
X68816984Y-52240071D01*
X68891297Y-52137486D01*
X68915530Y-52009053D01*
X68904580Y-51915354D01*
X68871731Y-51836732D01*
X68816984Y-51773189D01*
X68739978Y-51725083D01*
X68640355Y-51692773D01*
X68518114Y-51676258D01*
X68526192Y-51584174D01*
X68534270Y-51475935D01*
X68878373Y-51475935D01*
X68878373Y-51311153D01*
X69022153Y-51311153D01*
X69040732Y-51401622D01*
X69067388Y-51514708D01*
X69088748Y-51599342D01*
X69111904Y-51687388D01*
X69136854Y-51778843D01*
X69163241Y-51872094D01*
X69190705Y-51965524D01*
X69219245Y-52059134D01*
X69261652Y-52192414D01*
X69301636Y-52311153D01*
X69506806Y-52311153D01*
X69537680Y-52225083D01*
X69567836Y-52137038D01*
X69597274Y-52047018D01*
X69625546Y-51956549D01*
X69652202Y-51867158D01*
X69677242Y-51778843D01*
X69711572Y-51650208D01*
X69741862Y-51527632D01*
X69767913Y-51413738D01*
X69789520Y-51311153D01*
X69581119Y-51311153D01*
X69566580Y-51395160D01*
X69548809Y-51492090D01*
X69528615Y-51596897D01*
X69506806Y-51704530D01*
X69483381Y-51812769D01*
X69458341Y-51919393D01*
X69432493Y-52019352D01*
X69406644Y-52107599D01*
X69380594Y-52018141D01*
X69354140Y-51917777D01*
X69328292Y-51811153D01*
X69304060Y-51702914D01*
X69281644Y-51595483D01*
X69261249Y-51491283D01*
X69244286Y-51394958D01*
X69232169Y-51311153D01*
X69022153Y-51311153D01*
X68878373Y-51311153D01*
X68367872Y-51311153D01*
X68361814Y-51434538D01*
X68353333Y-51562365D01*
X68342024Y-51693827D01*
X68327484Y-51828116D01*
X68438551Y-51831549D01*
X68526192Y-51841848D01*
X68643316Y-51880620D01*
X68698244Y-51940394D01*
X68711976Y-52017131D01*
X68703898Y-52070443D01*
X68674011Y-52116485D01*
X68614237Y-52149603D01*
X68518114Y-52162527D01*
X68442589Y-52158892D01*
X68380796Y-52147987D01*
X68290328Y-52115677D01*
X68249940Y-52280459D01*
X66290363Y-52280459D01*
X66336168Y-52259255D01*
X66403413Y-52206145D01*
X66458139Y-52135669D01*
X66499536Y-52047018D01*
X66525586Y-51938981D01*
X66534270Y-51810346D01*
X66533967Y-51805499D01*
X67450263Y-51805499D01*
X67450263Y-51968666D01*
X67703898Y-51968666D01*
X67703898Y-52249764D01*
X67875142Y-52249764D01*
X67875142Y-51968666D01*
X68128777Y-51968666D01*
X68128777Y-51805499D01*
X67875142Y-51805499D01*
X67875142Y-51524401D01*
X67703898Y-51524401D01*
X67703898Y-51805499D01*
X67450263Y-51805499D01*
X66533967Y-51805499D01*
X66526394Y-51684538D01*
X66502767Y-51578520D01*
X66465005Y-51490879D01*
X66414722Y-51420200D01*
X66351919Y-51366283D01*
X66276596Y-51328924D01*
X66190772Y-51307115D01*
X66096467Y-51299845D01*
X65984997Y-51304691D01*
X65857371Y-51324078D01*
X65669972Y-51324078D01*
X65669972Y-51311153D01*
X65064156Y-51311153D01*
X65064156Y-52311153D01*
X64897759Y-52311153D01*
X64897759Y-52146372D01*
X64469649Y-52146372D01*
X64469649Y-51311153D01*
X64269326Y-51311153D01*
X64269326Y-52311153D01*
X64134700Y-52311153D01*
X64134700Y-51165219D01*
X64269326Y-51165219D01*
X69789520Y-51165219D01*
X69924146Y-51165219D01*
X70358000Y-51816000D01*
G37*
%TO.C,kibuzzard-68389B69*%
G36*
X71349817Y-66685127D02*
G01*
X71215192Y-66685127D01*
X70727308Y-66685127D01*
X69945402Y-66685127D01*
X69300814Y-66685127D01*
X68875935Y-66685127D01*
X68741309Y-66685127D01*
X68615451Y-66672731D01*
X68494430Y-66636019D01*
X68382896Y-66576403D01*
X68288343Y-66498805D01*
X69675612Y-66498805D01*
X69721654Y-66516575D01*
X69788697Y-66533538D01*
X69866242Y-66545654D01*
X69945402Y-66550501D01*
X70037890Y-66544443D01*
X70118261Y-66526268D01*
X70186516Y-66497189D01*
X70242655Y-66458417D01*
X70316969Y-66355832D01*
X70341201Y-66227399D01*
X70330252Y-66133700D01*
X70297403Y-66055078D01*
X70242655Y-65991535D01*
X70165649Y-65943428D01*
X70066026Y-65911118D01*
X69943786Y-65894604D01*
X69951864Y-65802520D01*
X69959941Y-65694281D01*
X70304045Y-65694281D01*
X70304045Y-65529499D01*
X70447825Y-65529499D01*
X70466403Y-65619968D01*
X70493059Y-65733053D01*
X70514420Y-65817688D01*
X70537575Y-65905733D01*
X70562526Y-65997189D01*
X70588913Y-66090440D01*
X70616376Y-66183870D01*
X70644917Y-66277480D01*
X70687324Y-66410759D01*
X70727308Y-66529499D01*
X70932478Y-66529499D01*
X70963352Y-66443428D01*
X70993508Y-66355383D01*
X71022946Y-66265363D01*
X71051218Y-66174895D01*
X71077873Y-66085504D01*
X71102914Y-65997189D01*
X71137243Y-65868554D01*
X71167534Y-65745977D01*
X71193584Y-65632084D01*
X71215192Y-65529499D01*
X71006791Y-65529499D01*
X70992251Y-65613506D01*
X70974481Y-65710436D01*
X70954287Y-65815242D01*
X70932478Y-65922876D01*
X70909053Y-66031115D01*
X70884012Y-66137738D01*
X70858164Y-66237698D01*
X70832316Y-66325945D01*
X70806266Y-66236486D01*
X70779812Y-66136123D01*
X70753964Y-66029499D01*
X70729731Y-65921260D01*
X70707316Y-65813829D01*
X70686920Y-65709628D01*
X70669957Y-65613304D01*
X70657841Y-65529499D01*
X70447825Y-65529499D01*
X70304045Y-65529499D01*
X69793544Y-65529499D01*
X69787486Y-65652884D01*
X69779004Y-65780711D01*
X69767696Y-65912173D01*
X69753156Y-66046462D01*
X69864222Y-66049895D01*
X69951864Y-66060194D01*
X70068988Y-66098966D01*
X70123915Y-66158740D01*
X70137647Y-66235477D01*
X70129570Y-66288788D01*
X70099683Y-66334830D01*
X70039909Y-66367948D01*
X69943786Y-66380872D01*
X69868261Y-66377237D01*
X69806468Y-66366333D01*
X69715999Y-66334023D01*
X69675612Y-66498805D01*
X68288343Y-66498805D01*
X68285136Y-66496173D01*
X68204906Y-66398413D01*
X68145290Y-66286879D01*
X68108578Y-66165858D01*
X68096183Y-66040000D01*
X68097774Y-66023845D01*
X68875935Y-66023845D01*
X68875935Y-66187011D01*
X69129570Y-66187011D01*
X69129570Y-66468110D01*
X69300814Y-66468110D01*
X69300814Y-66187011D01*
X69554449Y-66187011D01*
X69554449Y-66023845D01*
X69300814Y-66023845D01*
X69300814Y-65742746D01*
X69129570Y-65742746D01*
X69129570Y-66023845D01*
X68875935Y-66023845D01*
X68097774Y-66023845D01*
X68108578Y-65914142D01*
X68145290Y-65793121D01*
X68204906Y-65681587D01*
X68285136Y-65583827D01*
X68382896Y-65503597D01*
X68494430Y-65443981D01*
X68615451Y-65407269D01*
X68741309Y-65394873D01*
X68875935Y-65394873D01*
X71215192Y-65394873D01*
X71349817Y-65394873D01*
X71349817Y-66685127D01*
G37*
%TO.C,kibuzzard-6826302B*%
G36*
X66942119Y-35250630D02*
G01*
X67008355Y-35325751D01*
X67042280Y-35433990D01*
X67051973Y-35560000D01*
X67048944Y-35631284D01*
X67039857Y-35696511D01*
X66999469Y-35803942D01*
X66925156Y-35875024D01*
X66811263Y-35900872D01*
X66793492Y-35900872D01*
X66775721Y-35899257D01*
X66775721Y-35227205D01*
X66804801Y-35223166D01*
X66833880Y-35222359D01*
X66942119Y-35250630D01*
G37*
G36*
X70273657Y-35560000D02*
G01*
X69836034Y-36216435D01*
X69701408Y-36216435D01*
X69213524Y-36216435D01*
X68431618Y-36216435D01*
X66790261Y-36216435D01*
X66160213Y-36216435D01*
X65617402Y-36216435D01*
X64988969Y-36216435D01*
X64854343Y-36216435D01*
X64854343Y-36060808D01*
X64988969Y-36060808D01*
X65617402Y-36060808D01*
X65617402Y-35896026D01*
X65189292Y-35896026D01*
X65189292Y-35560000D01*
X65725641Y-35560000D01*
X65732608Y-35678033D01*
X65753508Y-35781729D01*
X65788343Y-35871086D01*
X65837111Y-35946107D01*
X65922553Y-36021497D01*
X66030254Y-36066731D01*
X66160213Y-36081809D01*
X66248460Y-36076357D01*
X66325802Y-36060000D01*
X66439696Y-36012342D01*
X66389615Y-35855638D01*
X66308032Y-35891179D01*
X66179599Y-35908950D01*
X66064292Y-35886131D01*
X65986545Y-35817674D01*
X65953786Y-35747938D01*
X65934131Y-35660431D01*
X65927579Y-35555153D01*
X65933032Y-35464685D01*
X65949389Y-35390372D01*
X66005931Y-35284556D01*
X66085091Y-35228013D01*
X66176368Y-35211050D01*
X66296723Y-35228013D01*
X66386384Y-35269208D01*
X66438080Y-35110889D01*
X66404962Y-35091502D01*
X66365275Y-35073732D01*
X66577014Y-35073732D01*
X66577014Y-36049499D01*
X66686061Y-36068078D01*
X66790261Y-36073732D01*
X66887797Y-36066664D01*
X66976852Y-36045460D01*
X67010006Y-36030113D01*
X68161828Y-36030113D01*
X68207870Y-36047884D01*
X68274914Y-36064847D01*
X68352458Y-36076963D01*
X68431618Y-36081809D01*
X68524106Y-36075751D01*
X68604477Y-36057577D01*
X68672733Y-36028498D01*
X68728872Y-35989725D01*
X68803185Y-35887141D01*
X68827418Y-35758708D01*
X68816468Y-35665008D01*
X68783619Y-35586387D01*
X68728872Y-35522843D01*
X68651866Y-35474737D01*
X68552243Y-35442427D01*
X68430003Y-35425913D01*
X68438080Y-35333829D01*
X68446158Y-35225590D01*
X68790261Y-35225590D01*
X68790261Y-35060808D01*
X68934041Y-35060808D01*
X68952620Y-35151276D01*
X68979276Y-35264362D01*
X69000636Y-35348997D01*
X69023792Y-35437042D01*
X69048742Y-35528498D01*
X69075129Y-35621748D01*
X69102593Y-35715179D01*
X69131133Y-35808788D01*
X69173540Y-35942068D01*
X69213524Y-36060808D01*
X69418694Y-36060808D01*
X69449568Y-35974737D01*
X69479724Y-35886692D01*
X69509162Y-35796672D01*
X69537434Y-35706204D01*
X69564090Y-35616812D01*
X69589130Y-35528498D01*
X69623460Y-35399863D01*
X69653750Y-35277286D01*
X69679801Y-35163393D01*
X69701408Y-35060808D01*
X69493007Y-35060808D01*
X69478468Y-35144814D01*
X69460697Y-35241745D01*
X69440503Y-35346551D01*
X69418694Y-35454184D01*
X69395269Y-35562423D01*
X69370229Y-35669047D01*
X69344381Y-35769006D01*
X69318532Y-35857254D01*
X69292482Y-35767795D01*
X69266028Y-35667431D01*
X69240180Y-35560808D01*
X69215948Y-35452569D01*
X69193532Y-35345137D01*
X69173137Y-35240937D01*
X69156174Y-35144612D01*
X69144057Y-35060808D01*
X68934041Y-35060808D01*
X68790261Y-35060808D01*
X68279760Y-35060808D01*
X68273702Y-35184192D01*
X68265221Y-35312019D01*
X68253912Y-35443481D01*
X68239372Y-35577771D01*
X68350439Y-35581204D01*
X68438080Y-35591502D01*
X68555204Y-35630275D01*
X68610132Y-35690048D01*
X68623864Y-35766785D01*
X68615786Y-35820097D01*
X68585899Y-35866139D01*
X68526125Y-35899257D01*
X68430003Y-35912181D01*
X68354477Y-35908546D01*
X68292684Y-35897641D01*
X68202216Y-35865331D01*
X68161828Y-36030113D01*
X67010006Y-36030113D01*
X67055810Y-36008910D01*
X67123056Y-35955800D01*
X67177781Y-35885323D01*
X67219179Y-35796672D01*
X67245229Y-35688635D01*
X67253912Y-35560000D01*
X67246036Y-35434192D01*
X67222410Y-35328174D01*
X67184647Y-35240533D01*
X67134364Y-35169855D01*
X67071561Y-35115937D01*
X66996238Y-35078578D01*
X66910414Y-35056769D01*
X66816109Y-35049499D01*
X66704639Y-35054346D01*
X66577014Y-35073732D01*
X66365275Y-35073732D01*
X66350843Y-35067270D01*
X66275721Y-35047076D01*
X66179599Y-35038191D01*
X66084889Y-35046874D01*
X65997854Y-35072924D01*
X65920309Y-35115735D01*
X65854074Y-35174701D01*
X65800156Y-35249216D01*
X65759566Y-35338675D01*
X65734122Y-35442472D01*
X65725641Y-35560000D01*
X65189292Y-35560000D01*
X65189292Y-35060808D01*
X64988969Y-35060808D01*
X64988969Y-36060808D01*
X64854343Y-36060808D01*
X64854343Y-34903565D01*
X64988969Y-34903565D01*
X69701408Y-34903565D01*
X69836034Y-34903565D01*
X70273657Y-35560000D01*
G37*
%TO.C,kibuzzard-6838990E*%
G36*
X66090092Y-40330630D02*
G01*
X66156328Y-40405751D01*
X66190253Y-40513990D01*
X66199946Y-40640000D01*
X66196917Y-40711284D01*
X66187830Y-40776511D01*
X66147442Y-40883942D01*
X66073129Y-40955024D01*
X65959236Y-40980872D01*
X65941465Y-40980872D01*
X65923694Y-40979257D01*
X65923694Y-40307205D01*
X65952774Y-40303166D01*
X65981853Y-40302359D01*
X66090092Y-40330630D01*
G37*
G36*
X70231000Y-40640000D02*
G01*
X69793377Y-41296435D01*
X69658751Y-41296435D01*
X69434195Y-41296435D01*
X68804147Y-41296435D01*
X67731449Y-41296435D01*
X65938234Y-41296435D01*
X65308186Y-41296435D01*
X64765375Y-41296435D01*
X64136942Y-41296435D01*
X64002316Y-41296435D01*
X64002316Y-41140808D01*
X64136942Y-41140808D01*
X64765375Y-41140808D01*
X64765375Y-40976026D01*
X64337265Y-40976026D01*
X64337265Y-40640000D01*
X64873614Y-40640000D01*
X64880581Y-40758033D01*
X64901481Y-40861729D01*
X64936316Y-40951086D01*
X64985084Y-41026107D01*
X65070526Y-41101497D01*
X65178227Y-41146731D01*
X65308186Y-41161809D01*
X65396433Y-41156357D01*
X65473775Y-41140000D01*
X65587669Y-41092342D01*
X65537588Y-40935638D01*
X65456005Y-40971179D01*
X65327572Y-40988950D01*
X65212265Y-40966131D01*
X65134518Y-40897674D01*
X65101759Y-40827938D01*
X65082104Y-40740431D01*
X65075552Y-40635153D01*
X65081005Y-40544685D01*
X65097362Y-40470372D01*
X65153904Y-40364556D01*
X65233064Y-40308013D01*
X65324341Y-40291050D01*
X65444696Y-40308013D01*
X65534357Y-40349208D01*
X65586053Y-40190889D01*
X65552935Y-40171502D01*
X65513248Y-40153732D01*
X65724987Y-40153732D01*
X65724987Y-41129499D01*
X65834034Y-41148078D01*
X65938234Y-41153732D01*
X66035770Y-41146664D01*
X66124825Y-41125460D01*
X66203783Y-41088910D01*
X66271029Y-41035800D01*
X66325754Y-40965323D01*
X66367152Y-40876672D01*
X66393202Y-40768635D01*
X66401885Y-40640000D01*
X67296877Y-40640000D01*
X67303844Y-40758033D01*
X67324745Y-40861729D01*
X67359579Y-40951086D01*
X67408347Y-41026107D01*
X67493790Y-41101497D01*
X67601490Y-41146731D01*
X67731449Y-41161809D01*
X67819696Y-41156357D01*
X67893218Y-41140808D01*
X68175714Y-41140808D01*
X68804147Y-41140808D01*
X68941465Y-41140808D01*
X69140173Y-41140808D01*
X69140173Y-40683619D01*
X69224987Y-40774895D01*
X69268404Y-40831034D01*
X69309801Y-40891212D01*
X69348371Y-40954216D01*
X69383307Y-41018837D01*
X69434195Y-41140808D01*
X69658751Y-41140808D01*
X69632499Y-41068716D01*
X69598977Y-40994604D01*
X69559599Y-40920291D01*
X69515778Y-40847593D01*
X69468323Y-40777924D01*
X69418040Y-40712698D01*
X69366748Y-40653328D01*
X69316263Y-40601228D01*
X69365334Y-40541858D01*
X69412386Y-40480065D01*
X69457014Y-40417666D01*
X69498816Y-40356478D01*
X69536982Y-40297108D01*
X69570706Y-40240162D01*
X69624825Y-40140808D01*
X69400270Y-40140808D01*
X69351804Y-40237738D01*
X69287992Y-40345977D01*
X69214486Y-40455832D01*
X69140173Y-40555994D01*
X69140173Y-40140808D01*
X68941465Y-40140808D01*
X68941465Y-41140808D01*
X68804147Y-41140808D01*
X68804147Y-40976026D01*
X68376037Y-40976026D01*
X68376037Y-40140808D01*
X68175714Y-40140808D01*
X68175714Y-41140808D01*
X67893218Y-41140808D01*
X67897039Y-41140000D01*
X68010932Y-41092342D01*
X67960851Y-40935638D01*
X67879268Y-40971179D01*
X67750835Y-40988950D01*
X67635528Y-40966131D01*
X67557782Y-40897674D01*
X67525023Y-40827938D01*
X67505367Y-40740431D01*
X67498816Y-40635153D01*
X67504268Y-40544685D01*
X67520625Y-40470372D01*
X67577168Y-40364556D01*
X67656328Y-40308013D01*
X67747604Y-40291050D01*
X67867959Y-40308013D01*
X67957620Y-40349208D01*
X68009316Y-40190889D01*
X67976198Y-40171502D01*
X67922079Y-40147270D01*
X67846958Y-40127076D01*
X67750835Y-40118191D01*
X67656126Y-40126874D01*
X67569090Y-40152924D01*
X67491546Y-40195735D01*
X67425310Y-40254701D01*
X67371392Y-40329216D01*
X67330803Y-40418675D01*
X67305358Y-40522472D01*
X67296877Y-40640000D01*
X66401885Y-40640000D01*
X66394009Y-40514192D01*
X66370383Y-40408174D01*
X66332620Y-40320533D01*
X66282337Y-40249855D01*
X66219535Y-40195937D01*
X66144211Y-40158578D01*
X66058387Y-40136769D01*
X65964082Y-40129499D01*
X65852612Y-40134346D01*
X65724987Y-40153732D01*
X65513248Y-40153732D01*
X65498816Y-40147270D01*
X65423694Y-40127076D01*
X65327572Y-40118191D01*
X65232862Y-40126874D01*
X65145827Y-40152924D01*
X65068282Y-40195735D01*
X65002047Y-40254701D01*
X64948129Y-40329216D01*
X64907539Y-40418675D01*
X64882095Y-40522472D01*
X64873614Y-40640000D01*
X64337265Y-40640000D01*
X64337265Y-40140808D01*
X64136942Y-40140808D01*
X64136942Y-41140808D01*
X64002316Y-41140808D01*
X64002316Y-39983565D01*
X64136942Y-39983565D01*
X69658751Y-39983565D01*
X69793377Y-39983565D01*
X70231000Y-40640000D01*
G37*
D12*
%TO.C,J3*%
X70806000Y-34240000D02*
X72136000Y-34240000D01*
X70806000Y-35570000D02*
X70806000Y-34240000D01*
X70806000Y-36840000D02*
X70806000Y-44520000D01*
X70806000Y-36840000D02*
X73466000Y-36840000D01*
X70806000Y-44520000D02*
X73466000Y-44520000D01*
X73466000Y-36840000D02*
X73466000Y-44520000D01*
D11*
%TO.C,kibuzzard-6846F40C*%
G36*
X34931339Y-51877568D02*
G01*
X35050391Y-51913682D01*
X35160109Y-51972328D01*
X35256278Y-52051252D01*
X35335202Y-52147421D01*
X35393848Y-52257139D01*
X35429962Y-52376191D01*
X35442156Y-52500000D01*
X35429962Y-52623809D01*
X35393848Y-52742861D01*
X35335202Y-52852579D01*
X35256278Y-52948748D01*
X35160109Y-53027672D01*
X35050391Y-53086318D01*
X34931339Y-53122432D01*
X34807530Y-53134626D01*
X34672904Y-53134626D01*
X34458042Y-53134626D01*
X33579205Y-53134626D01*
X33115554Y-53134626D01*
X32980928Y-53134626D01*
X32557844Y-52500000D01*
X32781323Y-52164782D01*
X33115554Y-52164782D01*
X33378882Y-52164782D01*
X33378882Y-53000000D01*
X33579205Y-53000000D01*
X33900691Y-53000000D01*
X34115554Y-53000000D01*
X34152710Y-52912561D01*
X34196329Y-52815024D01*
X34243179Y-52714257D01*
X34290029Y-52617124D01*
X34337484Y-52717286D01*
X34382920Y-52817447D01*
X34423914Y-52913166D01*
X34458042Y-53000000D01*
X34672904Y-53000000D01*
X34629286Y-52894184D01*
X34599601Y-52829564D01*
X34565473Y-52760097D01*
X34527710Y-52687197D01*
X34487121Y-52612278D01*
X34444714Y-52537964D01*
X34401499Y-52466882D01*
X34656749Y-52000000D01*
X34456426Y-52000000D01*
X34290029Y-52319871D01*
X34131709Y-52000000D01*
X33916846Y-52000000D01*
X34178559Y-52471729D01*
X34138979Y-52542609D01*
X34097783Y-52616317D01*
X34056790Y-52690428D01*
X34017815Y-52762520D01*
X33981467Y-52831179D01*
X33948349Y-52894992D01*
X33900691Y-53000000D01*
X33579205Y-53000000D01*
X33579205Y-52164782D01*
X33842533Y-52164782D01*
X33842533Y-52000000D01*
X33115554Y-52000000D01*
X33115554Y-52164782D01*
X32781323Y-52164782D01*
X32980928Y-51865374D01*
X33115554Y-51865374D01*
X34672904Y-51865374D01*
X34807530Y-51865374D01*
X34931339Y-51877568D01*
G37*
%TO.C,kibuzzard-68389B78*%
G36*
X70907437Y-72080630D02*
G01*
X70973673Y-72155751D01*
X71007599Y-72263990D01*
X71017292Y-72390000D01*
X71014263Y-72461284D01*
X71005176Y-72526511D01*
X70964788Y-72633942D01*
X70890474Y-72705024D01*
X70776581Y-72730872D01*
X70758810Y-72730872D01*
X70741040Y-72729257D01*
X70741040Y-72057205D01*
X70770119Y-72053166D01*
X70799198Y-72052359D01*
X70907437Y-72080630D01*
G37*
G36*
X71353856Y-73046435D02*
G01*
X71219230Y-73046435D01*
X70755579Y-73046435D01*
X70220846Y-73046435D01*
X69291928Y-73046435D01*
X68883205Y-73046435D01*
X68748579Y-73046435D01*
X68620515Y-73033822D01*
X68497372Y-72996467D01*
X68383883Y-72935806D01*
X68284409Y-72854170D01*
X68202773Y-72754696D01*
X68142112Y-72641207D01*
X68104757Y-72518064D01*
X68092144Y-72390000D01*
X68883205Y-72390000D01*
X68890474Y-72511365D01*
X68912284Y-72616979D01*
X68947421Y-72706640D01*
X68994675Y-72780145D01*
X69053439Y-72837496D01*
X69123108Y-72878691D01*
X69202873Y-72903530D01*
X69291928Y-72911809D01*
X69390676Y-72907771D01*
X69473673Y-72895654D01*
X69492115Y-72890808D01*
X69721654Y-72890808D01*
X69900975Y-72890808D01*
X69900975Y-72226834D01*
X69961018Y-72337675D01*
X70018369Y-72448338D01*
X70073027Y-72558821D01*
X70124992Y-72669304D01*
X70174265Y-72779966D01*
X70220846Y-72890808D01*
X70380781Y-72890808D01*
X70380781Y-71903732D01*
X70542332Y-71903732D01*
X70542332Y-72879499D01*
X70651379Y-72898078D01*
X70755579Y-72903732D01*
X70853116Y-72896664D01*
X70942171Y-72875460D01*
X71021129Y-72838910D01*
X71088374Y-72785800D01*
X71143100Y-72715323D01*
X71184497Y-72626672D01*
X71210547Y-72518635D01*
X71219230Y-72390000D01*
X71211355Y-72264192D01*
X71187728Y-72158174D01*
X71149966Y-72070533D01*
X71099683Y-71999855D01*
X71036880Y-71945937D01*
X70961557Y-71908578D01*
X70875733Y-71886769D01*
X70781428Y-71879499D01*
X70669957Y-71884346D01*
X70542332Y-71903732D01*
X70380781Y-71903732D01*
X70380781Y-71890808D01*
X70201460Y-71890808D01*
X70201460Y-72506317D01*
X70172987Y-72443312D01*
X70139263Y-72370614D01*
X70101298Y-72291858D01*
X70060103Y-72210679D01*
X70016686Y-72128086D01*
X69972058Y-72045089D01*
X69926823Y-71964919D01*
X69881589Y-71890808D01*
X69721654Y-71890808D01*
X69721654Y-72890808D01*
X69492115Y-72890808D01*
X69584335Y-72866575D01*
X69584335Y-72367383D01*
X69385628Y-72367383D01*
X69385628Y-72732488D01*
X69346856Y-72737334D01*
X69308083Y-72738950D01*
X69211557Y-72717746D01*
X69141686Y-72654136D01*
X69110273Y-72587092D01*
X69091426Y-72499047D01*
X69085143Y-72390000D01*
X69088576Y-72315889D01*
X69098875Y-72248643D01*
X69144109Y-72138788D01*
X69224077Y-72066898D01*
X69343625Y-72041050D01*
X69450248Y-72058821D01*
X69537486Y-72099208D01*
X69589182Y-71940889D01*
X69556064Y-71921502D01*
X69500329Y-71897270D01*
X69420361Y-71877076D01*
X69316161Y-71868191D01*
X69228520Y-71876470D01*
X69146533Y-71901309D01*
X69072623Y-71942706D01*
X69009214Y-72000662D01*
X68957114Y-72074774D01*
X68917130Y-72164637D01*
X68891686Y-72269847D01*
X68883205Y-72390000D01*
X68092144Y-72390000D01*
X68104757Y-72261936D01*
X68142112Y-72138793D01*
X68202773Y-72025304D01*
X68284409Y-71925830D01*
X68383883Y-71844194D01*
X68497372Y-71783533D01*
X68620515Y-71746178D01*
X68748579Y-71733565D01*
X68883205Y-71733565D01*
X71219230Y-71733565D01*
X71353856Y-71733565D01*
X71353856Y-73046435D01*
G37*
%TO.C,kibuzzard-68389467*%
G36*
X55816995Y-70526393D02*
G01*
X55785493Y-70649980D01*
X55681292Y-70696022D01*
X55609402Y-70679867D01*
X55565784Y-70638671D01*
X55544782Y-70581321D01*
X55539128Y-70515085D01*
X55540743Y-70465812D01*
X55545590Y-70419770D01*
X55816995Y-70419770D01*
X55816995Y-70526393D01*
G37*
G36*
X56216026Y-70463389D02*
G01*
X56217641Y-70510238D01*
X56213603Y-70563550D01*
X56197447Y-70608784D01*
X56163522Y-70639479D01*
X56106171Y-70650788D01*
X56014895Y-70612015D01*
X55981777Y-70497314D01*
X55981777Y-70419770D01*
X56211179Y-70419770D01*
X56216026Y-70463389D01*
G37*
G36*
X56216834Y-77718639D02*
G01*
X56217641Y-77747718D01*
X56189370Y-77855957D01*
X56114249Y-77922193D01*
X56006010Y-77956119D01*
X55880000Y-77965812D01*
X55808716Y-77962783D01*
X55743489Y-77953695D01*
X55636058Y-77913308D01*
X55564976Y-77838994D01*
X55539128Y-77725101D01*
X55539128Y-77707330D01*
X55540743Y-77689560D01*
X56212795Y-77689560D01*
X56216834Y-77718639D01*
G37*
G36*
X55850719Y-73623526D02*
G01*
X55922811Y-73653211D01*
X55969459Y-73702282D01*
X55985008Y-73770335D01*
X55969459Y-73840004D01*
X55922811Y-73887460D01*
X55850719Y-73914721D01*
X55758837Y-73923809D01*
X55666753Y-73913914D01*
X55594055Y-73884229D01*
X55546801Y-73835158D01*
X55531050Y-73767104D01*
X55546801Y-73697435D01*
X55594055Y-73649980D01*
X55666753Y-73622718D01*
X55758837Y-73613631D01*
X55850719Y-73623526D01*
G37*
G36*
X56536435Y-70221062D02*
G01*
X56536435Y-78167750D01*
X56536435Y-78302376D01*
X55880000Y-78740000D01*
X55223565Y-78302376D01*
X55223565Y-78167750D01*
X55223565Y-77704099D01*
X55366268Y-77704099D01*
X55373336Y-77801636D01*
X55394540Y-77890691D01*
X55431090Y-77969649D01*
X55484200Y-78036894D01*
X55554677Y-78091620D01*
X55643328Y-78133017D01*
X55751365Y-78159067D01*
X55880000Y-78167750D01*
X56005808Y-78159875D01*
X56111826Y-78136248D01*
X56199467Y-78098485D01*
X56270145Y-78048203D01*
X56324063Y-77985400D01*
X56361422Y-77910077D01*
X56383231Y-77824253D01*
X56390501Y-77729947D01*
X56385654Y-77618477D01*
X56366268Y-77490852D01*
X55390501Y-77490852D01*
X55371922Y-77599899D01*
X55366268Y-77704099D01*
X55223565Y-77704099D01*
X55223565Y-77329301D01*
X55379192Y-77329301D01*
X56379192Y-77329301D01*
X56379192Y-77149980D01*
X55763683Y-77149980D01*
X55826688Y-77121506D01*
X55899386Y-77087783D01*
X55978142Y-77049818D01*
X56059321Y-77008623D01*
X56141914Y-76965206D01*
X56224911Y-76920578D01*
X56305081Y-76875343D01*
X56379192Y-76830109D01*
X56379192Y-76670174D01*
X55379192Y-76670174D01*
X55379192Y-76849495D01*
X56043166Y-76849495D01*
X55932325Y-76909538D01*
X55821662Y-76966889D01*
X55711179Y-77021547D01*
X55600696Y-77073512D01*
X55490034Y-77122785D01*
X55379192Y-77169366D01*
X55379192Y-77329301D01*
X55223565Y-77329301D01*
X55223565Y-77169366D01*
X55223565Y-76240448D01*
X55358191Y-76240448D01*
X55362229Y-76339196D01*
X55374346Y-76422193D01*
X55403425Y-76532855D01*
X55902617Y-76532855D01*
X55902617Y-76334148D01*
X55537512Y-76334148D01*
X55532666Y-76295376D01*
X55531050Y-76256603D01*
X55552254Y-76160077D01*
X55615864Y-76090206D01*
X55682908Y-76058793D01*
X55770953Y-76039946D01*
X55880000Y-76033663D01*
X55954111Y-76037096D01*
X56021357Y-76047395D01*
X56131212Y-76092629D01*
X56203102Y-76172597D01*
X56228950Y-76292145D01*
X56211179Y-76398768D01*
X56170792Y-76486006D01*
X56329111Y-76537702D01*
X56348498Y-76504584D01*
X56372730Y-76448849D01*
X56392924Y-76368881D01*
X56401809Y-76264681D01*
X56393530Y-76177040D01*
X56368691Y-76095053D01*
X56327294Y-76021143D01*
X56269338Y-75957734D01*
X56195226Y-75905634D01*
X56105363Y-75865650D01*
X56000153Y-75840206D01*
X55880000Y-75831725D01*
X55758635Y-75838994D01*
X55653021Y-75860804D01*
X55563360Y-75895941D01*
X55489855Y-75943195D01*
X55432504Y-76001959D01*
X55391309Y-76071628D01*
X55366470Y-76151393D01*
X55358191Y-76240448D01*
X55223565Y-76240448D01*
X55223565Y-74885036D01*
X55223565Y-74274374D01*
X55379192Y-74274374D01*
X55379192Y-74473082D01*
X55975315Y-74473082D01*
X55980162Y-74519124D01*
X55981777Y-74563550D01*
X55934927Y-74662096D01*
X55873134Y-74680271D01*
X55781454Y-74686329D01*
X55379192Y-74686329D01*
X55379192Y-74885036D01*
X55807302Y-74885036D01*
X55881414Y-74881401D01*
X55948659Y-74870497D01*
X56058514Y-74821224D01*
X56129596Y-74726716D01*
X56148376Y-74659269D01*
X56154637Y-74576474D01*
X56151405Y-74487823D01*
X56141712Y-74406038D01*
X56128384Y-74333946D01*
X56114249Y-74274374D01*
X55379192Y-74274374D01*
X55223565Y-74274374D01*
X55223565Y-73770335D01*
X55358191Y-73770335D01*
X55365460Y-73847274D01*
X55387270Y-73916539D01*
X55422407Y-73977322D01*
X55469661Y-74028817D01*
X55528021Y-74070416D01*
X55596478Y-74101515D01*
X55674225Y-74120901D01*
X55760452Y-74127363D01*
X55845468Y-74120901D01*
X55922811Y-74101515D01*
X55991066Y-74070214D01*
X56048821Y-74028009D01*
X56095267Y-73975909D01*
X56129596Y-73914923D01*
X56150800Y-73846062D01*
X56157868Y-73770335D01*
X56150800Y-73695618D01*
X56129596Y-73626555D01*
X56095267Y-73564964D01*
X56048821Y-73512662D01*
X55991066Y-73470254D01*
X55922811Y-73438348D01*
X55845468Y-73418356D01*
X55760452Y-73411692D01*
X55674225Y-73418154D01*
X55596478Y-73437540D01*
X55528021Y-73468841D01*
X55469661Y-73511046D01*
X55422407Y-73563146D01*
X55387270Y-73624132D01*
X55365460Y-73693397D01*
X55358191Y-73770335D01*
X55223565Y-73770335D01*
X55223565Y-73077282D01*
X55361422Y-73077282D01*
X55371115Y-73200868D01*
X55403425Y-73319608D01*
X55574669Y-73292145D01*
X55553667Y-73241256D01*
X55541551Y-73196022D01*
X55535897Y-73150788D01*
X55534281Y-73099899D01*
X55539128Y-73053049D01*
X55558514Y-73017508D01*
X55598901Y-72994891D01*
X55666753Y-72986813D01*
X55973700Y-72986813D01*
X55973700Y-73305069D01*
X56138481Y-73305069D01*
X56138481Y-72986813D01*
X56361422Y-72986813D01*
X56329111Y-72788106D01*
X56138481Y-72788106D01*
X56138481Y-72615246D01*
X55973700Y-72615246D01*
X55973700Y-72788106D01*
X55661906Y-72788106D01*
X55575679Y-72792952D01*
X55507625Y-72807492D01*
X55416349Y-72864035D01*
X55372730Y-72954503D01*
X55361422Y-73077282D01*
X55223565Y-73077282D01*
X55223565Y-72269527D01*
X55361422Y-72269527D01*
X55371115Y-72393114D01*
X55403425Y-72511854D01*
X55574669Y-72484390D01*
X55553667Y-72433502D01*
X55541551Y-72388267D01*
X55535897Y-72343033D01*
X55534281Y-72292145D01*
X55539128Y-72245295D01*
X55558514Y-72209754D01*
X55598901Y-72187137D01*
X55666753Y-72179059D01*
X55973700Y-72179059D01*
X55973700Y-72497314D01*
X56138481Y-72497314D01*
X56138481Y-72179059D01*
X56361422Y-72179059D01*
X56329111Y-71980351D01*
X56138481Y-71980351D01*
X56138481Y-71807492D01*
X55973700Y-71807492D01*
X55973700Y-71980351D01*
X55661906Y-71980351D01*
X55575679Y-71985198D01*
X55507625Y-71999737D01*
X55416349Y-72056280D01*
X55372730Y-72146749D01*
X55361422Y-72269527D01*
X55223565Y-72269527D01*
X55223565Y-71345456D01*
X55361422Y-71345456D01*
X55365057Y-71434107D01*
X55375961Y-71515893D01*
X55390501Y-71588389D01*
X55405040Y-71649172D01*
X56138481Y-71649172D01*
X56138481Y-71448849D01*
X55542359Y-71448849D01*
X55534281Y-71358380D01*
X55585170Y-71260642D01*
X55649588Y-71241862D01*
X55741066Y-71235602D01*
X56138481Y-71235602D01*
X56138481Y-71036894D01*
X55715218Y-71036894D01*
X55640905Y-71040125D01*
X55573053Y-71049818D01*
X55460775Y-71097476D01*
X55387270Y-71191983D01*
X55367884Y-71260238D01*
X55361422Y-71345456D01*
X55223565Y-71345456D01*
X55223565Y-70498930D01*
X55366268Y-70498930D01*
X55370105Y-70578695D01*
X55381616Y-70653211D01*
X55402213Y-70720254D01*
X55433312Y-70777605D01*
X55530242Y-70860804D01*
X55598296Y-70883825D01*
X55681292Y-70891498D01*
X55749144Y-70882411D01*
X55813764Y-70855149D01*
X55870307Y-70802443D01*
X55913926Y-70717023D01*
X56001163Y-70809915D01*
X56060129Y-70835965D01*
X56127173Y-70844649D01*
X56220872Y-70830109D01*
X56305687Y-70775182D01*
X56367076Y-70663712D01*
X56384645Y-70582128D01*
X56390501Y-70479544D01*
X56383231Y-70345456D01*
X56366268Y-70221062D01*
X55395347Y-70221062D01*
X55382625Y-70290933D01*
X55373538Y-70361611D01*
X55368086Y-70431482D01*
X55366268Y-70498930D01*
X55223565Y-70498930D01*
X55223565Y-70221062D01*
X55223565Y-70086436D01*
X56536435Y-70086436D01*
X56536435Y-70221062D01*
G37*
%TO.C,kibuzzard-682631F2*%
G36*
X66242940Y-56586630D02*
G01*
X66309176Y-56661751D01*
X66343101Y-56769990D01*
X66352795Y-56896000D01*
X66349765Y-56967284D01*
X66340678Y-57032511D01*
X66300290Y-57139942D01*
X66225977Y-57211024D01*
X66112084Y-57236872D01*
X66094313Y-57236872D01*
X66076543Y-57235257D01*
X66076543Y-56563205D01*
X66105622Y-56559166D01*
X66134701Y-56558359D01*
X66242940Y-56586630D01*
G37*
G36*
X69473958Y-56586630D02*
G01*
X69540194Y-56661751D01*
X69574119Y-56769990D01*
X69583812Y-56896000D01*
X69580783Y-56967284D01*
X69571696Y-57032511D01*
X69531308Y-57139942D01*
X69456995Y-57211024D01*
X69343101Y-57236872D01*
X69325331Y-57236872D01*
X69307560Y-57235257D01*
X69307560Y-56563205D01*
X69336639Y-56559166D01*
X69365719Y-56558359D01*
X69473958Y-56586630D01*
G37*
G36*
X70358000Y-56896000D02*
G01*
X69920377Y-57552435D01*
X69785751Y-57552435D01*
X69322100Y-57552435D01*
X68787366Y-57552435D01*
X67858449Y-57552435D01*
X66091082Y-57552435D01*
X65084620Y-57552435D01*
X64918223Y-57552435D01*
X64289790Y-57552435D01*
X64155164Y-57552435D01*
X64155164Y-57396808D01*
X64289790Y-57396808D01*
X64918223Y-57396808D01*
X65084620Y-57396808D01*
X65725977Y-57396808D01*
X65725977Y-57232026D01*
X65283328Y-57232026D01*
X65283328Y-56950927D01*
X65637124Y-56950927D01*
X65637124Y-56786145D01*
X65283328Y-56786145D01*
X65283328Y-56561590D01*
X65690436Y-56561590D01*
X65690436Y-56409732D01*
X65877835Y-56409732D01*
X65877835Y-57385499D01*
X65986882Y-57404078D01*
X66091082Y-57409732D01*
X66188618Y-57402664D01*
X66277673Y-57381460D01*
X66356631Y-57344910D01*
X66423877Y-57291800D01*
X66478602Y-57221323D01*
X66520000Y-57132672D01*
X66546050Y-57024635D01*
X66554733Y-56896000D01*
X67449725Y-56896000D01*
X67456995Y-57017365D01*
X67478804Y-57122979D01*
X67513942Y-57212640D01*
X67561195Y-57286145D01*
X67619959Y-57343496D01*
X67689628Y-57384691D01*
X67769394Y-57409530D01*
X67858449Y-57417809D01*
X67957197Y-57413771D01*
X68040194Y-57401654D01*
X68058636Y-57396808D01*
X68288174Y-57396808D01*
X68467496Y-57396808D01*
X68467496Y-56732834D01*
X68527539Y-56843675D01*
X68584889Y-56954338D01*
X68639547Y-57064821D01*
X68691513Y-57175304D01*
X68740786Y-57285966D01*
X68787366Y-57396808D01*
X68947302Y-57396808D01*
X68947302Y-56409732D01*
X69108853Y-56409732D01*
X69108853Y-57385499D01*
X69217900Y-57404078D01*
X69322100Y-57409732D01*
X69419636Y-57402664D01*
X69508691Y-57381460D01*
X69587649Y-57344910D01*
X69654895Y-57291800D01*
X69709620Y-57221323D01*
X69751017Y-57132672D01*
X69777068Y-57024635D01*
X69785751Y-56896000D01*
X69777875Y-56770192D01*
X69754248Y-56664174D01*
X69716486Y-56576533D01*
X69666203Y-56505855D01*
X69603400Y-56451937D01*
X69528077Y-56414578D01*
X69442253Y-56392769D01*
X69347948Y-56385499D01*
X69236478Y-56390346D01*
X69108853Y-56409732D01*
X68947302Y-56409732D01*
X68947302Y-56396808D01*
X68767980Y-56396808D01*
X68767980Y-57012317D01*
X68739507Y-56949312D01*
X68705783Y-56876614D01*
X68667819Y-56797858D01*
X68626623Y-56716679D01*
X68583206Y-56634086D01*
X68538578Y-56551089D01*
X68493344Y-56470919D01*
X68448110Y-56396808D01*
X68288174Y-56396808D01*
X68288174Y-57396808D01*
X68058636Y-57396808D01*
X68150856Y-57372575D01*
X68150856Y-56873383D01*
X67952148Y-56873383D01*
X67952148Y-57238488D01*
X67913376Y-57243334D01*
X67874604Y-57244950D01*
X67778077Y-57223746D01*
X67708206Y-57160136D01*
X67676794Y-57093092D01*
X67657946Y-57005047D01*
X67651664Y-56896000D01*
X67655097Y-56821889D01*
X67665395Y-56754643D01*
X67710630Y-56644788D01*
X67790597Y-56572898D01*
X67910145Y-56547050D01*
X68016769Y-56564821D01*
X68104006Y-56605208D01*
X68155702Y-56446889D01*
X68122585Y-56427502D01*
X68066849Y-56403270D01*
X67986882Y-56383076D01*
X67882681Y-56374191D01*
X67795040Y-56382470D01*
X67713053Y-56407309D01*
X67639143Y-56448706D01*
X67575735Y-56506662D01*
X67523635Y-56580774D01*
X67483651Y-56670637D01*
X67458206Y-56775847D01*
X67449725Y-56896000D01*
X66554733Y-56896000D01*
X66546858Y-56770192D01*
X66523231Y-56664174D01*
X66485468Y-56576533D01*
X66435185Y-56505855D01*
X66372383Y-56451937D01*
X66297059Y-56414578D01*
X66211236Y-56392769D01*
X66116930Y-56385499D01*
X66005460Y-56390346D01*
X65877835Y-56409732D01*
X65690436Y-56409732D01*
X65690436Y-56396808D01*
X65084620Y-56396808D01*
X65084620Y-57396808D01*
X64918223Y-57396808D01*
X64918223Y-57232026D01*
X64490113Y-57232026D01*
X64490113Y-56396808D01*
X64289790Y-56396808D01*
X64289790Y-57396808D01*
X64155164Y-57396808D01*
X64155164Y-56239565D01*
X64289790Y-56239565D01*
X69785751Y-56239565D01*
X69920377Y-56239565D01*
X70358000Y-56896000D01*
G37*
D12*
%TO.C,J4*%
X70806000Y-50486000D02*
X72136000Y-50486000D01*
X70806000Y-51816000D02*
X70806000Y-50486000D01*
X70806000Y-53086000D02*
X70806000Y-58226000D01*
X70806000Y-53086000D02*
X73466000Y-53086000D01*
X70806000Y-58226000D02*
X73466000Y-58226000D01*
X73466000Y-53086000D02*
X73466000Y-58226000D01*
D11*
%TO.C,kibuzzard-68389B91*%
G36*
X35524549Y-65407269D02*
G01*
X35645570Y-65443981D01*
X35757104Y-65503597D01*
X35854864Y-65583827D01*
X35935094Y-65681587D01*
X35994710Y-65793121D01*
X36031422Y-65914142D01*
X36043817Y-66040000D01*
X36031422Y-66165858D01*
X35994710Y-66286879D01*
X35935094Y-66398413D01*
X35854864Y-66496173D01*
X35757104Y-66576403D01*
X35645570Y-66636019D01*
X35524549Y-66672731D01*
X35398691Y-66685127D01*
X35264065Y-66685127D01*
X34776181Y-66685127D01*
X33994275Y-66685127D01*
X33349687Y-66685127D01*
X32924808Y-66685127D01*
X32790183Y-66685127D01*
X32790183Y-66498805D01*
X33724485Y-66498805D01*
X33770527Y-66516575D01*
X33837571Y-66533538D01*
X33915115Y-66545654D01*
X33994275Y-66550501D01*
X34086763Y-66544443D01*
X34167135Y-66526268D01*
X34235390Y-66497189D01*
X34291529Y-66458417D01*
X34365842Y-66355832D01*
X34390075Y-66227399D01*
X34379125Y-66133700D01*
X34346277Y-66055078D01*
X34291529Y-65991535D01*
X34214523Y-65943428D01*
X34114900Y-65911118D01*
X33992660Y-65894604D01*
X34000737Y-65802520D01*
X34008815Y-65694281D01*
X34352918Y-65694281D01*
X34352918Y-65529499D01*
X34496698Y-65529499D01*
X34515277Y-65619968D01*
X34541933Y-65733053D01*
X34563293Y-65817688D01*
X34586449Y-65905733D01*
X34611400Y-65997189D01*
X34637786Y-66090440D01*
X34665250Y-66183870D01*
X34693791Y-66277480D01*
X34736198Y-66410759D01*
X34776181Y-66529499D01*
X34981351Y-66529499D01*
X35012225Y-66443428D01*
X35042381Y-66355383D01*
X35071820Y-66265363D01*
X35100091Y-66174895D01*
X35126747Y-66085504D01*
X35151787Y-65997189D01*
X35186117Y-65868554D01*
X35216408Y-65745977D01*
X35242458Y-65632084D01*
X35264065Y-65529499D01*
X35055665Y-65529499D01*
X35041125Y-65613506D01*
X35023354Y-65710436D01*
X35003160Y-65815242D01*
X34981351Y-65922876D01*
X34957926Y-66031115D01*
X34932886Y-66137738D01*
X34907038Y-66237698D01*
X34881190Y-66325945D01*
X34855139Y-66236486D01*
X34828686Y-66136123D01*
X34802837Y-66029499D01*
X34778605Y-65921260D01*
X34756190Y-65813829D01*
X34735794Y-65709628D01*
X34718831Y-65613304D01*
X34706715Y-65529499D01*
X34496698Y-65529499D01*
X34352918Y-65529499D01*
X33842417Y-65529499D01*
X33836359Y-65652884D01*
X33827878Y-65780711D01*
X33816569Y-65912173D01*
X33802030Y-66046462D01*
X33913096Y-66049895D01*
X34000737Y-66060194D01*
X34117862Y-66098966D01*
X34172789Y-66158740D01*
X34186521Y-66235477D01*
X34178443Y-66288788D01*
X34148556Y-66334830D01*
X34088782Y-66367948D01*
X33992660Y-66380872D01*
X33917135Y-66377237D01*
X33855341Y-66366333D01*
X33764873Y-66334023D01*
X33724485Y-66498805D01*
X32790183Y-66498805D01*
X32790183Y-66023845D01*
X32924808Y-66023845D01*
X32924808Y-66187011D01*
X33178443Y-66187011D01*
X33178443Y-66468110D01*
X33349687Y-66468110D01*
X33349687Y-66187011D01*
X33603322Y-66187011D01*
X33603322Y-66023845D01*
X33349687Y-66023845D01*
X33349687Y-65742746D01*
X33178443Y-65742746D01*
X33178443Y-66023845D01*
X32924808Y-66023845D01*
X32790183Y-66023845D01*
X32790183Y-65394873D01*
X32924808Y-65394873D01*
X35264065Y-65394873D01*
X35398691Y-65394873D01*
X35524549Y-65407269D01*
G37*
%TO.C,kibuzzard-6846F41F*%
G36*
X34814059Y-54690630D02*
G01*
X34880295Y-54765751D01*
X34914221Y-54873990D01*
X34923914Y-55000000D01*
X34920885Y-55071284D01*
X34911798Y-55136511D01*
X34871410Y-55243942D01*
X34797097Y-55315024D01*
X34683203Y-55340872D01*
X34665433Y-55340872D01*
X34647662Y-55339257D01*
X34647662Y-54667205D01*
X34676741Y-54663166D01*
X34705820Y-54662359D01*
X34814059Y-54690630D01*
G37*
G36*
X35254051Y-54356178D02*
G01*
X35377194Y-54393533D01*
X35490683Y-54454194D01*
X35590157Y-54535830D01*
X35671793Y-54635304D01*
X35732454Y-54748793D01*
X35769809Y-54871936D01*
X35782422Y-55000000D01*
X35769809Y-55128064D01*
X35732454Y-55251207D01*
X35671793Y-55364696D01*
X35590157Y-55464170D01*
X35490683Y-55545806D01*
X35377194Y-55606467D01*
X35254051Y-55643822D01*
X35125987Y-55656435D01*
X35125853Y-55656435D01*
X34662202Y-55656435D01*
X34127468Y-55656435D01*
X33198551Y-55656435D01*
X32789827Y-55656435D01*
X32655201Y-55656435D01*
X32217578Y-55000000D01*
X32789827Y-55000000D01*
X32797097Y-55121365D01*
X32818906Y-55226979D01*
X32854043Y-55316640D01*
X32901297Y-55390145D01*
X32960061Y-55447496D01*
X33029730Y-55488691D01*
X33109496Y-55513530D01*
X33198551Y-55521809D01*
X33297299Y-55517771D01*
X33380295Y-55505654D01*
X33398737Y-55500808D01*
X33628276Y-55500808D01*
X33807597Y-55500808D01*
X33807597Y-54836834D01*
X33867640Y-54947675D01*
X33924991Y-55058338D01*
X33979649Y-55168821D01*
X34031615Y-55279304D01*
X34080888Y-55389966D01*
X34127468Y-55500808D01*
X34287404Y-55500808D01*
X34287404Y-54513732D01*
X34448954Y-54513732D01*
X34448954Y-55489499D01*
X34558001Y-55508078D01*
X34662202Y-55513732D01*
X34759738Y-55506664D01*
X34848793Y-55485460D01*
X34927751Y-55448910D01*
X34994996Y-55395800D01*
X35049722Y-55325323D01*
X35091119Y-55236672D01*
X35117169Y-55128635D01*
X35125853Y-55000000D01*
X35117977Y-54874192D01*
X35094350Y-54768174D01*
X35056588Y-54680533D01*
X35006305Y-54609855D01*
X34943502Y-54555937D01*
X34868179Y-54518578D01*
X34782355Y-54496769D01*
X34688050Y-54489499D01*
X34576580Y-54494346D01*
X34448954Y-54513732D01*
X34287404Y-54513732D01*
X34287404Y-54500808D01*
X34108082Y-54500808D01*
X34108082Y-55116317D01*
X34079609Y-55053312D01*
X34045885Y-54980614D01*
X34007920Y-54901858D01*
X33966725Y-54820679D01*
X33923308Y-54738086D01*
X33878680Y-54655089D01*
X33833446Y-54574919D01*
X33788211Y-54500808D01*
X33628276Y-54500808D01*
X33628276Y-55500808D01*
X33398737Y-55500808D01*
X33490958Y-55476575D01*
X33490958Y-54977383D01*
X33292250Y-54977383D01*
X33292250Y-55342488D01*
X33253478Y-55347334D01*
X33214706Y-55348950D01*
X33118179Y-55327746D01*
X33048308Y-55264136D01*
X33016896Y-55197092D01*
X32998048Y-55109047D01*
X32991765Y-55000000D01*
X32995198Y-54925889D01*
X33005497Y-54858643D01*
X33050731Y-54748788D01*
X33130699Y-54676898D01*
X33250247Y-54651050D01*
X33356870Y-54668821D01*
X33444108Y-54709208D01*
X33495804Y-54550889D01*
X33462686Y-54531502D01*
X33406951Y-54507270D01*
X33326983Y-54487076D01*
X33222783Y-54478191D01*
X33135142Y-54486470D01*
X33053155Y-54511309D01*
X32979245Y-54552706D01*
X32915836Y-54610662D01*
X32863736Y-54684774D01*
X32823752Y-54774637D01*
X32798308Y-54879847D01*
X32789827Y-55000000D01*
X32217578Y-55000000D01*
X32655201Y-54343565D01*
X32789827Y-54343565D01*
X35125853Y-54343565D01*
X35125987Y-54343565D01*
X35254051Y-54356178D01*
G37*
%TO.C,kibuzzard-68263394*%
G36*
X50736995Y-71455938D02*
G01*
X50705493Y-71579524D01*
X50601292Y-71625566D01*
X50529402Y-71609411D01*
X50485784Y-71568216D01*
X50464782Y-71510865D01*
X50459128Y-71444629D01*
X50460743Y-71395356D01*
X50465590Y-71349314D01*
X50736995Y-71349314D01*
X50736995Y-71455938D01*
G37*
G36*
X51136026Y-71392933D02*
G01*
X51137641Y-71439783D01*
X51133603Y-71493095D01*
X51117447Y-71538329D01*
X51083522Y-71569024D01*
X51026171Y-71580332D01*
X50934895Y-71541560D01*
X50901777Y-71426859D01*
X50901777Y-71349314D01*
X51131179Y-71349314D01*
X51136026Y-71392933D01*
G37*
G36*
X50770719Y-74553070D02*
G01*
X50842811Y-74582755D01*
X50889459Y-74631826D01*
X50905008Y-74699880D01*
X50889459Y-74769549D01*
X50842811Y-74817004D01*
X50770719Y-74844266D01*
X50678837Y-74853353D01*
X50586753Y-74843458D01*
X50514055Y-74813773D01*
X50466801Y-74764702D01*
X50451050Y-74696649D01*
X50466801Y-74626980D01*
X50514055Y-74579524D01*
X50586753Y-74552263D01*
X50678837Y-74543175D01*
X50770719Y-74553070D01*
G37*
G36*
X50906713Y-76958361D02*
G01*
X50993682Y-76972901D01*
X51062520Y-76997133D01*
X51129766Y-77050041D01*
X51152181Y-77121528D01*
X51129766Y-77194024D01*
X51062520Y-77246729D01*
X50993682Y-77270513D01*
X50906713Y-77284784D01*
X50801616Y-77289540D01*
X50695620Y-77284784D01*
X50608113Y-77270513D01*
X50539095Y-77246729D01*
X50471850Y-77194024D01*
X50449934Y-77123143D01*
X50711147Y-77123143D01*
X50742649Y-77186956D01*
X50817771Y-77211996D01*
X50893700Y-77186956D01*
X50926010Y-77123143D01*
X50893700Y-77056907D01*
X50817771Y-77032675D01*
X50742649Y-77056907D01*
X50711147Y-77123143D01*
X50449934Y-77123143D01*
X50449435Y-77121528D01*
X50471850Y-77050041D01*
X50539095Y-76997133D01*
X50608113Y-76972901D01*
X50695620Y-76958361D01*
X50801616Y-76953515D01*
X50906713Y-76958361D01*
G37*
G36*
X51456435Y-71150607D02*
G01*
X51456435Y-78271770D01*
X51456435Y-78406396D01*
X50800000Y-78844019D01*
X50143565Y-78406396D01*
X50143565Y-78271770D01*
X50143565Y-77619104D01*
X50299192Y-77619104D01*
X50299192Y-78271770D01*
X50463974Y-78271770D01*
X50463974Y-77842045D01*
X50517286Y-77859007D01*
X50574637Y-77900203D01*
X50629564Y-77951899D01*
X50675606Y-78000364D01*
X50756381Y-78082755D01*
X50843619Y-78155453D01*
X50936511Y-78207150D01*
X51035864Y-78226536D01*
X51161066Y-78200687D01*
X51250727Y-78131221D01*
X51304039Y-78031059D01*
X51321809Y-77913127D01*
X51313732Y-77828919D01*
X51289499Y-77744306D01*
X51248304Y-77664540D01*
X51189338Y-77594872D01*
X51050404Y-77693418D01*
X51126333Y-77795195D01*
X51148950Y-77893741D01*
X51115832Y-77987440D01*
X51021325Y-78024597D01*
X50935703Y-77994710D01*
X50848465Y-77918781D01*
X50802221Y-77871124D01*
X50753958Y-77820235D01*
X50702666Y-77769347D01*
X50647334Y-77721689D01*
X50587359Y-77679686D01*
X50522132Y-77645760D01*
X50451050Y-77623345D01*
X50373506Y-77615873D01*
X50339580Y-77615066D01*
X50299192Y-77619104D01*
X50143565Y-77619104D01*
X50143565Y-77121528D01*
X50278191Y-77121528D01*
X50292551Y-77225638D01*
X50335631Y-77311799D01*
X50407431Y-77380009D01*
X50480533Y-77418882D01*
X50570598Y-77446649D01*
X50677625Y-77463309D01*
X50801616Y-77468862D01*
X50924849Y-77463309D01*
X51031220Y-77446649D01*
X51120729Y-77418882D01*
X51193376Y-77380009D01*
X51264728Y-77311799D01*
X51307539Y-77225638D01*
X51321809Y-77121528D01*
X51307449Y-77019032D01*
X51264369Y-76933411D01*
X51192569Y-76864662D01*
X51119669Y-76825082D01*
X51030210Y-76796810D01*
X50924192Y-76779847D01*
X50801616Y-76774193D01*
X50677625Y-76779746D01*
X50570598Y-76796406D01*
X50480533Y-76824173D01*
X50407431Y-76863046D01*
X50335631Y-76931257D01*
X50292551Y-77017417D01*
X50278191Y-77121528D01*
X50143565Y-77121528D01*
X50143565Y-75814581D01*
X50143565Y-75203919D01*
X50299192Y-75203919D01*
X50299192Y-75402626D01*
X50895315Y-75402626D01*
X50900162Y-75448668D01*
X50901777Y-75493095D01*
X50854927Y-75591641D01*
X50793134Y-75609815D01*
X50701454Y-75615873D01*
X50299192Y-75615873D01*
X50299192Y-75814581D01*
X50727302Y-75814581D01*
X50801414Y-75810946D01*
X50868659Y-75800041D01*
X50978514Y-75750768D01*
X51049596Y-75656261D01*
X51068376Y-75588813D01*
X51074637Y-75506019D01*
X51071405Y-75417368D01*
X51061712Y-75335582D01*
X51048384Y-75263490D01*
X51034249Y-75203919D01*
X50299192Y-75203919D01*
X50143565Y-75203919D01*
X50143565Y-74699880D01*
X50278191Y-74699880D01*
X50285460Y-74776818D01*
X50307270Y-74846083D01*
X50342407Y-74906867D01*
X50389661Y-74958361D01*
X50448021Y-74999961D01*
X50516478Y-75031059D01*
X50594225Y-75050445D01*
X50680452Y-75056907D01*
X50765468Y-75050445D01*
X50842811Y-75031059D01*
X50911066Y-74999759D01*
X50968821Y-74957553D01*
X51015267Y-74905453D01*
X51049596Y-74844468D01*
X51070800Y-74775607D01*
X51077868Y-74699880D01*
X51070800Y-74625162D01*
X51049596Y-74556099D01*
X51015267Y-74494508D01*
X50968821Y-74442206D01*
X50911066Y-74399799D01*
X50842811Y-74367893D01*
X50765468Y-74347901D01*
X50680452Y-74341237D01*
X50594225Y-74347699D01*
X50516478Y-74367085D01*
X50448021Y-74398385D01*
X50389661Y-74440591D01*
X50342407Y-74492691D01*
X50307270Y-74553676D01*
X50285460Y-74622941D01*
X50278191Y-74699880D01*
X50143565Y-74699880D01*
X50143565Y-74006826D01*
X50281422Y-74006826D01*
X50291115Y-74130413D01*
X50323425Y-74249153D01*
X50494669Y-74221689D01*
X50473667Y-74170801D01*
X50461551Y-74125566D01*
X50455897Y-74080332D01*
X50454281Y-74029444D01*
X50459128Y-73982594D01*
X50478514Y-73947053D01*
X50518901Y-73924435D01*
X50586753Y-73916358D01*
X50893700Y-73916358D01*
X50893700Y-74234613D01*
X51058481Y-74234613D01*
X51058481Y-73916358D01*
X51281422Y-73916358D01*
X51249111Y-73717650D01*
X51058481Y-73717650D01*
X51058481Y-73544791D01*
X50893700Y-73544791D01*
X50893700Y-73717650D01*
X50581906Y-73717650D01*
X50495679Y-73722497D01*
X50427625Y-73737036D01*
X50336349Y-73793579D01*
X50292730Y-73884048D01*
X50281422Y-74006826D01*
X50143565Y-74006826D01*
X50143565Y-73199072D01*
X50281422Y-73199072D01*
X50291115Y-73322658D01*
X50323425Y-73441398D01*
X50494669Y-73413935D01*
X50473667Y-73363046D01*
X50461551Y-73317812D01*
X50455897Y-73272578D01*
X50454281Y-73221689D01*
X50459128Y-73174839D01*
X50478514Y-73139298D01*
X50518901Y-73116681D01*
X50586753Y-73108603D01*
X50893700Y-73108603D01*
X50893700Y-73426859D01*
X51058481Y-73426859D01*
X51058481Y-73108603D01*
X51281422Y-73108603D01*
X51249111Y-72909896D01*
X51058481Y-72909896D01*
X51058481Y-72737036D01*
X50893700Y-72737036D01*
X50893700Y-72909896D01*
X50581906Y-72909896D01*
X50495679Y-72914742D01*
X50427625Y-72929282D01*
X50336349Y-72985825D01*
X50292730Y-73076293D01*
X50281422Y-73199072D01*
X50143565Y-73199072D01*
X50143565Y-72275001D01*
X50281422Y-72275001D01*
X50285057Y-72363652D01*
X50295961Y-72445437D01*
X50310501Y-72517933D01*
X50325040Y-72578717D01*
X51058481Y-72578717D01*
X51058481Y-72378393D01*
X50462359Y-72378393D01*
X50454281Y-72287925D01*
X50505170Y-72190187D01*
X50569588Y-72171406D01*
X50661066Y-72165146D01*
X51058481Y-72165146D01*
X51058481Y-71966439D01*
X50635218Y-71966439D01*
X50560905Y-71969670D01*
X50493053Y-71979363D01*
X50380775Y-72027020D01*
X50307270Y-72121528D01*
X50287884Y-72189783D01*
X50281422Y-72275001D01*
X50143565Y-72275001D01*
X50143565Y-71428474D01*
X50286268Y-71428474D01*
X50290105Y-71508240D01*
X50301616Y-71582755D01*
X50322213Y-71649799D01*
X50353312Y-71707150D01*
X50450242Y-71790348D01*
X50518296Y-71813369D01*
X50601292Y-71821043D01*
X50669144Y-71811956D01*
X50733764Y-71784694D01*
X50790307Y-71731988D01*
X50833926Y-71646568D01*
X50921163Y-71739460D01*
X50980129Y-71765510D01*
X51047173Y-71774193D01*
X51140872Y-71759654D01*
X51225687Y-71704726D01*
X51287076Y-71593256D01*
X51304645Y-71511673D01*
X51310501Y-71409088D01*
X51303231Y-71275001D01*
X51286268Y-71150607D01*
X50315347Y-71150607D01*
X50302625Y-71220477D01*
X50293538Y-71291156D01*
X50288086Y-71361027D01*
X50286268Y-71428474D01*
X50143565Y-71428474D01*
X50143565Y-71150607D01*
X50143565Y-71015981D01*
X51456435Y-71015981D01*
X51456435Y-71150607D01*
G37*
%TO.C,kibuzzard-682633A0*%
G36*
X53276995Y-71464823D02*
G01*
X53245493Y-71588410D01*
X53141292Y-71634452D01*
X53069402Y-71618297D01*
X53025784Y-71577101D01*
X53004782Y-71519750D01*
X52999128Y-71453515D01*
X53000743Y-71404242D01*
X53005590Y-71358200D01*
X53276995Y-71358200D01*
X53276995Y-71464823D01*
G37*
G36*
X53676026Y-71401818D02*
G01*
X53677641Y-71448668D01*
X53673603Y-71501980D01*
X53657447Y-71547214D01*
X53623522Y-71577909D01*
X53566171Y-71589217D01*
X53474895Y-71550445D01*
X53441777Y-71435744D01*
X53441777Y-71358200D01*
X53671179Y-71358200D01*
X53676026Y-71401818D01*
G37*
G36*
X53310719Y-74561956D02*
G01*
X53382811Y-74591641D01*
X53429459Y-74640712D01*
X53445008Y-74708765D01*
X53429459Y-74778434D01*
X53382811Y-74825889D01*
X53310719Y-74853151D01*
X53218837Y-74862238D01*
X53126753Y-74852343D01*
X53054055Y-74822658D01*
X53006801Y-74773587D01*
X52991050Y-74705534D01*
X53006801Y-74635865D01*
X53054055Y-74588410D01*
X53126753Y-74561148D01*
X53218837Y-74552061D01*
X53310719Y-74561956D01*
G37*
G36*
X53446713Y-76967246D02*
G01*
X53533682Y-76981786D01*
X53602520Y-77006019D01*
X53669766Y-77058927D01*
X53692181Y-77130413D01*
X53669766Y-77202909D01*
X53602520Y-77255615D01*
X53533682Y-77279399D01*
X53446713Y-77293669D01*
X53341616Y-77298426D01*
X53235620Y-77293669D01*
X53148113Y-77279399D01*
X53079095Y-77255615D01*
X53011850Y-77202909D01*
X52989934Y-77132028D01*
X53251147Y-77132028D01*
X53282649Y-77195841D01*
X53357771Y-77220881D01*
X53433700Y-77195841D01*
X53466010Y-77132028D01*
X53433700Y-77065792D01*
X53357771Y-77041560D01*
X53282649Y-77065792D01*
X53251147Y-77132028D01*
X52989934Y-77132028D01*
X52989435Y-77130413D01*
X53011850Y-77058927D01*
X53079095Y-77006019D01*
X53148113Y-76981786D01*
X53235620Y-76967246D01*
X53341616Y-76962400D01*
X53446713Y-76967246D01*
G37*
G36*
X53996435Y-71159492D02*
G01*
X53996435Y-78262885D01*
X53996435Y-78397510D01*
X53340000Y-78835134D01*
X52683565Y-78397510D01*
X52683565Y-78262885D01*
X52683565Y-77878393D01*
X52818191Y-77878393D01*
X52824047Y-77971689D01*
X52841616Y-78051253D01*
X52869887Y-78117489D01*
X52907851Y-78170801D01*
X53008821Y-78240267D01*
X53136446Y-78262885D01*
X53217625Y-78252182D01*
X53286688Y-78220074D01*
X53342019Y-78168579D01*
X53382003Y-78099718D01*
X53466010Y-78190187D01*
X53580711Y-78224112D01*
X53692181Y-78204726D01*
X53781842Y-78144952D01*
X53840808Y-78042368D01*
X53856559Y-77974718D01*
X53861809Y-77896164D01*
X53854338Y-77810340D01*
X53831922Y-77733805D01*
X53772956Y-77618297D01*
X53627561Y-77689379D01*
X53673603Y-77785502D01*
X53692181Y-77897780D01*
X53660679Y-77989056D01*
X53574249Y-78022174D01*
X53512859Y-78006826D01*
X53474087Y-77967246D01*
X53453086Y-77912319D01*
X53446624Y-77850930D01*
X53446624Y-77776616D01*
X53281842Y-77776616D01*
X53281842Y-77838006D01*
X53273966Y-77926455D01*
X53250339Y-77997941D01*
X53206922Y-78045195D01*
X53139677Y-78060946D01*
X53031438Y-78019750D01*
X52998724Y-77963410D01*
X52987819Y-77876778D01*
X52992262Y-77800243D01*
X53005590Y-77735421D01*
X53039515Y-77639298D01*
X52873118Y-77600526D01*
X52855347Y-77650607D01*
X52837577Y-77720881D01*
X52823845Y-77800041D01*
X52818191Y-77878393D01*
X52683565Y-77878393D01*
X52683565Y-77130413D01*
X52818191Y-77130413D01*
X52832551Y-77234523D01*
X52875631Y-77320684D01*
X52947431Y-77388894D01*
X53020533Y-77427767D01*
X53110598Y-77455534D01*
X53217625Y-77472194D01*
X53341616Y-77477747D01*
X53464849Y-77472194D01*
X53571220Y-77455534D01*
X53660729Y-77427767D01*
X53733376Y-77388894D01*
X53804728Y-77320684D01*
X53847539Y-77234523D01*
X53861809Y-77130413D01*
X53847449Y-77027918D01*
X53804369Y-76942296D01*
X53732569Y-76873547D01*
X53659669Y-76833967D01*
X53570210Y-76805696D01*
X53464192Y-76788733D01*
X53341616Y-76783078D01*
X53217625Y-76788632D01*
X53110598Y-76805292D01*
X53020533Y-76833058D01*
X52947431Y-76871931D01*
X52875631Y-76940142D01*
X52832551Y-77026302D01*
X52818191Y-77130413D01*
X52683565Y-77130413D01*
X52683565Y-75823466D01*
X52683565Y-75212804D01*
X52839192Y-75212804D01*
X52839192Y-75411511D01*
X53435315Y-75411511D01*
X53440162Y-75457553D01*
X53441777Y-75501980D01*
X53394927Y-75600526D01*
X53333134Y-75618700D01*
X53241454Y-75624759D01*
X52839192Y-75624759D01*
X52839192Y-75823466D01*
X53267302Y-75823466D01*
X53341414Y-75819831D01*
X53408659Y-75808927D01*
X53518514Y-75759654D01*
X53589596Y-75665146D01*
X53608376Y-75597699D01*
X53614637Y-75514904D01*
X53611405Y-75426253D01*
X53601712Y-75344468D01*
X53588384Y-75272376D01*
X53574249Y-75212804D01*
X52839192Y-75212804D01*
X52683565Y-75212804D01*
X52683565Y-74708765D01*
X52818191Y-74708765D01*
X52825460Y-74785704D01*
X52847270Y-74854969D01*
X52882407Y-74915752D01*
X52929661Y-74967246D01*
X52988021Y-75008846D01*
X53056478Y-75039944D01*
X53134225Y-75059330D01*
X53220452Y-75065792D01*
X53305468Y-75059330D01*
X53382811Y-75039944D01*
X53451066Y-75008644D01*
X53508821Y-74966439D01*
X53555267Y-74914339D01*
X53589596Y-74853353D01*
X53610800Y-74784492D01*
X53617868Y-74708765D01*
X53610800Y-74634048D01*
X53589596Y-74564985D01*
X53555267Y-74503393D01*
X53508821Y-74451091D01*
X53451066Y-74408684D01*
X53382811Y-74376778D01*
X53305468Y-74356786D01*
X53220452Y-74350122D01*
X53134225Y-74356584D01*
X53056478Y-74375970D01*
X52988021Y-74407271D01*
X52929661Y-74449476D01*
X52882407Y-74501576D01*
X52847270Y-74562561D01*
X52825460Y-74631826D01*
X52818191Y-74708765D01*
X52683565Y-74708765D01*
X52683565Y-74015712D01*
X52821422Y-74015712D01*
X52831115Y-74139298D01*
X52863425Y-74258038D01*
X53034669Y-74230574D01*
X53013667Y-74179686D01*
X53001551Y-74134452D01*
X52995897Y-74089217D01*
X52994281Y-74038329D01*
X52999128Y-73991479D01*
X53018514Y-73955938D01*
X53058901Y-73933321D01*
X53126753Y-73925243D01*
X53433700Y-73925243D01*
X53433700Y-74243498D01*
X53598481Y-74243498D01*
X53598481Y-73925243D01*
X53821422Y-73925243D01*
X53789111Y-73726536D01*
X53598481Y-73726536D01*
X53598481Y-73553676D01*
X53433700Y-73553676D01*
X53433700Y-73726536D01*
X53121906Y-73726536D01*
X53035679Y-73731382D01*
X52967625Y-73745922D01*
X52876349Y-73802465D01*
X52832730Y-73892933D01*
X52821422Y-74015712D01*
X52683565Y-74015712D01*
X52683565Y-73207957D01*
X52821422Y-73207957D01*
X52831115Y-73331544D01*
X52863425Y-73450284D01*
X53034669Y-73422820D01*
X53013667Y-73371931D01*
X53001551Y-73326697D01*
X52995897Y-73281463D01*
X52994281Y-73230574D01*
X52999128Y-73183725D01*
X53018514Y-73148183D01*
X53058901Y-73125566D01*
X53126753Y-73117489D01*
X53433700Y-73117489D01*
X53433700Y-73435744D01*
X53598481Y-73435744D01*
X53598481Y-73117489D01*
X53821422Y-73117489D01*
X53789111Y-72918781D01*
X53598481Y-72918781D01*
X53598481Y-72745922D01*
X53433700Y-72745922D01*
X53433700Y-72918781D01*
X53121906Y-72918781D01*
X53035679Y-72923628D01*
X52967625Y-72938167D01*
X52876349Y-72994710D01*
X52832730Y-73085179D01*
X52821422Y-73207957D01*
X52683565Y-73207957D01*
X52683565Y-72283886D01*
X52821422Y-72283886D01*
X52825057Y-72372537D01*
X52835961Y-72454322D01*
X52850501Y-72526818D01*
X52865040Y-72587602D01*
X53598481Y-72587602D01*
X53598481Y-72387279D01*
X53002359Y-72387279D01*
X52994281Y-72296810D01*
X53045170Y-72199072D01*
X53109588Y-72180292D01*
X53201066Y-72174032D01*
X53598481Y-72174032D01*
X53598481Y-71975324D01*
X53175218Y-71975324D01*
X53100905Y-71978555D01*
X53033053Y-71988248D01*
X52920775Y-72035906D01*
X52847270Y-72130413D01*
X52827884Y-72198668D01*
X52821422Y-72283886D01*
X52683565Y-72283886D01*
X52683565Y-71437360D01*
X52826268Y-71437360D01*
X52830105Y-71517125D01*
X52841616Y-71591641D01*
X52862213Y-71658684D01*
X52893312Y-71716035D01*
X52990242Y-71799234D01*
X53058296Y-71822255D01*
X53141292Y-71829928D01*
X53209144Y-71820841D01*
X53273764Y-71793579D01*
X53330307Y-71740873D01*
X53373926Y-71655453D01*
X53461163Y-71748345D01*
X53520129Y-71774395D01*
X53587173Y-71783078D01*
X53680872Y-71768539D01*
X53765687Y-71713612D01*
X53827076Y-71602141D01*
X53844645Y-71520558D01*
X53850501Y-71417973D01*
X53843231Y-71283886D01*
X53826268Y-71159492D01*
X52855347Y-71159492D01*
X52842625Y-71229363D01*
X52833538Y-71300041D01*
X52828086Y-71369912D01*
X52826268Y-71437360D01*
X52683565Y-71437360D01*
X52683565Y-71159492D01*
X52683565Y-71024866D01*
X53996435Y-71024866D01*
X53996435Y-71159492D01*
G37*
%TO.C,kibuzzard-68389B9F*%
G36*
X34945002Y-72080630D02*
G01*
X35011238Y-72155751D01*
X35045164Y-72263990D01*
X35054857Y-72390000D01*
X35051828Y-72461284D01*
X35042740Y-72526511D01*
X35002353Y-72633942D01*
X34928039Y-72705024D01*
X34814146Y-72730872D01*
X34796375Y-72730872D01*
X34778605Y-72729257D01*
X34778605Y-72057205D01*
X34807684Y-72053166D01*
X34836763Y-72052359D01*
X34945002Y-72080630D01*
G37*
G36*
X35519485Y-71746178D02*
G01*
X35642628Y-71783533D01*
X35756117Y-71844194D01*
X35855591Y-71925830D01*
X35937227Y-72025304D01*
X35997888Y-72138793D01*
X36035243Y-72261936D01*
X36047856Y-72390000D01*
X36035243Y-72518064D01*
X35997888Y-72641207D01*
X35937227Y-72754696D01*
X35855591Y-72854170D01*
X35756117Y-72935806D01*
X35642628Y-72996467D01*
X35519485Y-73033822D01*
X35391421Y-73046435D01*
X35256795Y-73046435D01*
X34793144Y-73046435D01*
X34258411Y-73046435D01*
X33329493Y-73046435D01*
X32920770Y-73046435D01*
X32786144Y-73046435D01*
X32786144Y-72390000D01*
X32920770Y-72390000D01*
X32928039Y-72511365D01*
X32949849Y-72616979D01*
X32984986Y-72706640D01*
X33032240Y-72780145D01*
X33091004Y-72837496D01*
X33160673Y-72878691D01*
X33240438Y-72903530D01*
X33329493Y-72911809D01*
X33428241Y-72907771D01*
X33511238Y-72895654D01*
X33529680Y-72890808D01*
X33759219Y-72890808D01*
X33938540Y-72890808D01*
X33938540Y-72226834D01*
X33998583Y-72337675D01*
X34055934Y-72448338D01*
X34110592Y-72558821D01*
X34162557Y-72669304D01*
X34211830Y-72779966D01*
X34258411Y-72890808D01*
X34418346Y-72890808D01*
X34418346Y-71903732D01*
X34579897Y-71903732D01*
X34579897Y-72879499D01*
X34688944Y-72898078D01*
X34793144Y-72903732D01*
X34890681Y-72896664D01*
X34979736Y-72875460D01*
X35058694Y-72838910D01*
X35125939Y-72785800D01*
X35180665Y-72715323D01*
X35222062Y-72626672D01*
X35248112Y-72518635D01*
X35256795Y-72390000D01*
X35248920Y-72264192D01*
X35225293Y-72158174D01*
X35187530Y-72070533D01*
X35137248Y-71999855D01*
X35074445Y-71945937D01*
X34999122Y-71908578D01*
X34913298Y-71886769D01*
X34818992Y-71879499D01*
X34707522Y-71884346D01*
X34579897Y-71903732D01*
X34418346Y-71903732D01*
X34418346Y-71890808D01*
X34239025Y-71890808D01*
X34239025Y-72506317D01*
X34210551Y-72443312D01*
X34176828Y-72370614D01*
X34138863Y-72291858D01*
X34097668Y-72210679D01*
X34054251Y-72128086D01*
X34009623Y-72045089D01*
X33964388Y-71964919D01*
X33919154Y-71890808D01*
X33759219Y-71890808D01*
X33759219Y-72890808D01*
X33529680Y-72890808D01*
X33621900Y-72866575D01*
X33621900Y-72367383D01*
X33423193Y-72367383D01*
X33423193Y-72732488D01*
X33384421Y-72737334D01*
X33345648Y-72738950D01*
X33249122Y-72717746D01*
X33179251Y-72654136D01*
X33147838Y-72587092D01*
X33128991Y-72499047D01*
X33122708Y-72390000D01*
X33126141Y-72315889D01*
X33136440Y-72248643D01*
X33181674Y-72138788D01*
X33261642Y-72066898D01*
X33381190Y-72041050D01*
X33487813Y-72058821D01*
X33575051Y-72099208D01*
X33626747Y-71940889D01*
X33593629Y-71921502D01*
X33537894Y-71897270D01*
X33457926Y-71877076D01*
X33353726Y-71868191D01*
X33266085Y-71876470D01*
X33184097Y-71901309D01*
X33110188Y-71942706D01*
X33046779Y-72000662D01*
X32994679Y-72074774D01*
X32954695Y-72164637D01*
X32929251Y-72269847D01*
X32920770Y-72390000D01*
X32786144Y-72390000D01*
X32786144Y-71733565D01*
X32920770Y-71733565D01*
X35256795Y-71733565D01*
X35391421Y-71733565D01*
X35519485Y-71746178D01*
G37*
%TO.C,kibuzzard-682631E3*%
G36*
X67937609Y-54525628D02*
G01*
X67984458Y-54531283D01*
X67984458Y-54705758D01*
X67931147Y-54709796D01*
X67868142Y-54710604D01*
X67767980Y-54688795D01*
X67729208Y-54615289D01*
X67742132Y-54568439D01*
X67776865Y-54540976D01*
X67827754Y-54527244D01*
X67887528Y-54523205D01*
X67937609Y-54525628D01*
G37*
G36*
X69553117Y-54525628D02*
G01*
X69599967Y-54531283D01*
X69599967Y-54705758D01*
X69546655Y-54709796D01*
X69483651Y-54710604D01*
X69383489Y-54688795D01*
X69344717Y-54615289D01*
X69357641Y-54568439D01*
X69392374Y-54540976D01*
X69443263Y-54527244D01*
X69503037Y-54523205D01*
X69553117Y-54525628D01*
G37*
G36*
X65491728Y-54042591D02*
G01*
X65557964Y-54117712D01*
X65591890Y-54225952D01*
X65601583Y-54351961D01*
X65598554Y-54423246D01*
X65589466Y-54488472D01*
X65549079Y-54595903D01*
X65474765Y-54666985D01*
X65360872Y-54692834D01*
X65343101Y-54692834D01*
X65325331Y-54691218D01*
X65325331Y-54019166D01*
X65354410Y-54015128D01*
X65383489Y-54014320D01*
X65491728Y-54042591D01*
G37*
G36*
X67107237Y-54042591D02*
G01*
X67173473Y-54117712D01*
X67207399Y-54225952D01*
X67217092Y-54351961D01*
X67214063Y-54423246D01*
X67204975Y-54488472D01*
X67164588Y-54595903D01*
X67090274Y-54666985D01*
X66976381Y-54692834D01*
X66958610Y-54692834D01*
X66940840Y-54691218D01*
X66940840Y-54019166D01*
X66969919Y-54015128D01*
X66998998Y-54014320D01*
X67107237Y-54042591D01*
G37*
G36*
X70358000Y-54356000D02*
G01*
X69925223Y-55005165D01*
X69790597Y-55005165D01*
X69469111Y-55005165D01*
X68790597Y-55005165D01*
X67853602Y-55005165D01*
X66955379Y-55005165D01*
X65339870Y-55005165D01*
X64333408Y-55005165D01*
X64167011Y-55005165D01*
X63538578Y-55005165D01*
X63403952Y-55005165D01*
X63403952Y-54852769D01*
X63538578Y-54852769D01*
X64167011Y-54852769D01*
X64333408Y-54852769D01*
X64974765Y-54852769D01*
X64974765Y-54687987D01*
X64532116Y-54687987D01*
X64532116Y-54406889D01*
X64885912Y-54406889D01*
X64885912Y-54242107D01*
X64532116Y-54242107D01*
X64532116Y-54017551D01*
X64939224Y-54017551D01*
X64939224Y-53865693D01*
X65126623Y-53865693D01*
X65126623Y-54841460D01*
X65235670Y-54860039D01*
X65339870Y-54865693D01*
X65437407Y-54858625D01*
X65526462Y-54837422D01*
X65605420Y-54800871D01*
X65672665Y-54747761D01*
X65727390Y-54677284D01*
X65768788Y-54588633D01*
X65794838Y-54480596D01*
X65803521Y-54351961D01*
X65795646Y-54226153D01*
X65772019Y-54120136D01*
X65734256Y-54032494D01*
X65683974Y-53961816D01*
X65621171Y-53907898D01*
X65545848Y-53870540D01*
X65526775Y-53865693D01*
X66742132Y-53865693D01*
X66742132Y-54841460D01*
X66851179Y-54860039D01*
X66955379Y-54865693D01*
X67052916Y-54858625D01*
X67141970Y-54837422D01*
X67220928Y-54800871D01*
X67288174Y-54747761D01*
X67342899Y-54677284D01*
X67369586Y-54620136D01*
X67533731Y-54620136D01*
X67556348Y-54737260D01*
X67620969Y-54814805D01*
X67721938Y-54857616D01*
X67853602Y-54870540D01*
X67954975Y-54867309D01*
X68045848Y-54857616D01*
X68175088Y-54834998D01*
X68175088Y-54382656D01*
X68158933Y-54254223D01*
X68105621Y-54157292D01*
X68006268Y-54095903D01*
X67995888Y-54093480D01*
X68328562Y-54093480D01*
X68328562Y-54258262D01*
X68501421Y-54258262D01*
X68501421Y-54570055D01*
X68506268Y-54656283D01*
X68520807Y-54724336D01*
X68577350Y-54815612D01*
X68667819Y-54859231D01*
X68790597Y-54870540D01*
X68914184Y-54860847D01*
X69032924Y-54828536D01*
X69005460Y-54657292D01*
X68954571Y-54678294D01*
X68909337Y-54690410D01*
X68864103Y-54696065D01*
X68813214Y-54697680D01*
X68766365Y-54692834D01*
X68730823Y-54673447D01*
X68708206Y-54633060D01*
X68706668Y-54620136D01*
X69149240Y-54620136D01*
X69171857Y-54737260D01*
X69236478Y-54814805D01*
X69337447Y-54857616D01*
X69469111Y-54870540D01*
X69570484Y-54867309D01*
X69661357Y-54857616D01*
X69790597Y-54834998D01*
X69790597Y-54382656D01*
X69774442Y-54254223D01*
X69721130Y-54157292D01*
X69621777Y-54095903D01*
X69551704Y-54079546D01*
X69465880Y-54074094D01*
X69394394Y-54076719D01*
X69325331Y-54084595D01*
X69220323Y-54108019D01*
X69247786Y-54267955D01*
X69332600Y-54248569D01*
X69441647Y-54240491D01*
X69515961Y-54249982D01*
X69564426Y-54278456D01*
X69599967Y-54372963D01*
X69599967Y-54397195D01*
X69535751Y-54387502D01*
X69462649Y-54384271D01*
X69344717Y-54396388D01*
X69244555Y-54435968D01*
X69175088Y-54508666D01*
X69149240Y-54620136D01*
X68706668Y-54620136D01*
X68700129Y-54565208D01*
X68700129Y-54258262D01*
X69018384Y-54258262D01*
X69018384Y-54093480D01*
X68700129Y-54093480D01*
X68700129Y-53870540D01*
X68501421Y-53902850D01*
X68501421Y-54093480D01*
X68328562Y-54093480D01*
X67995888Y-54093480D01*
X67936195Y-54079546D01*
X67850371Y-54074094D01*
X67778885Y-54076719D01*
X67709822Y-54084595D01*
X67604814Y-54108019D01*
X67632277Y-54267955D01*
X67717092Y-54248569D01*
X67826138Y-54240491D01*
X67900452Y-54249982D01*
X67948917Y-54278456D01*
X67984458Y-54372963D01*
X67984458Y-54397195D01*
X67920242Y-54387502D01*
X67847140Y-54384271D01*
X67729208Y-54396388D01*
X67629046Y-54435968D01*
X67559579Y-54508666D01*
X67533731Y-54620136D01*
X67369586Y-54620136D01*
X67384297Y-54588633D01*
X67410347Y-54480596D01*
X67419030Y-54351961D01*
X67411155Y-54226153D01*
X67387528Y-54120136D01*
X67349765Y-54032494D01*
X67299483Y-53961816D01*
X67236680Y-53907898D01*
X67161357Y-53870540D01*
X67075533Y-53848730D01*
X66981227Y-53841460D01*
X66869757Y-53846307D01*
X66742132Y-53865693D01*
X65526775Y-53865693D01*
X65460024Y-53848730D01*
X65365718Y-53841460D01*
X65254248Y-53846307D01*
X65126623Y-53865693D01*
X64939224Y-53865693D01*
X64939224Y-53852769D01*
X64333408Y-53852769D01*
X64333408Y-54852769D01*
X64167011Y-54852769D01*
X64167011Y-54687987D01*
X63738901Y-54687987D01*
X63738901Y-53852769D01*
X63538578Y-53852769D01*
X63538578Y-54852769D01*
X63403952Y-54852769D01*
X63403952Y-53706835D01*
X63538578Y-53706835D01*
X69790597Y-53706835D01*
X69925223Y-53706835D01*
X70358000Y-54356000D01*
G37*
%TD*%
%LPC*%
D14*
%TO.C,J2*%
X48270000Y-80645000D03*
D15*
X50810000Y-80645000D03*
X53350000Y-80645000D03*
X55890000Y-80645000D03*
%TD*%
D16*
%TO.C,REF\u002A\u002A*%
X33020000Y-40640000D03*
%TD*%
D17*
%TO.C,REF\u002A\u002A*%
X73660000Y-72390000D03*
%TD*%
D18*
%TO.C,U1*%
X44070000Y-30940000D03*
X44070000Y-33480000D03*
X44070000Y-36020000D03*
X44070000Y-38560000D03*
X44070000Y-41100000D03*
X44070000Y-43640000D03*
X44070000Y-46180000D03*
X44070000Y-48720000D03*
X44070000Y-51260000D03*
X44070000Y-53800000D03*
X44070000Y-56340000D03*
X44070000Y-58880000D03*
X44070000Y-61420000D03*
X44070000Y-63960000D03*
X46610000Y-63960000D03*
X49150000Y-63960000D03*
X51690000Y-63960000D03*
X54230000Y-63960000D03*
X56770000Y-63960000D03*
X59310000Y-63960000D03*
X59310000Y-61420000D03*
X59310000Y-58880000D03*
X59310000Y-56340000D03*
X59310000Y-53800000D03*
X59310000Y-51260000D03*
X59310000Y-48720000D03*
X59310000Y-46180000D03*
X59310000Y-43640000D03*
X59310000Y-41100000D03*
X59310000Y-38560000D03*
X59310000Y-36020000D03*
X59310000Y-33480000D03*
X59310000Y-30940000D03*
X56770000Y-33480000D03*
X56770000Y-58880000D03*
X56770000Y-56340000D03*
X54230000Y-58880000D03*
X54230000Y-56340000D03*
X51690000Y-58880000D03*
X51690000Y-56340000D03*
X49150000Y-58880000D03*
X49150000Y-56340000D03*
X46610000Y-58880000D03*
X46610000Y-56340000D03*
%TD*%
D16*
%TO.C,REF\u002A\u002A*%
X33020000Y-78740000D03*
%TD*%
D14*
%TO.C,J6*%
X31000000Y-50000000D03*
D15*
X31000000Y-52540000D03*
X31000000Y-55080000D03*
%TD*%
D16*
%TO.C,REF\u002A\u002A*%
X71120000Y-78740000D03*
%TD*%
D14*
%TO.C,J3*%
X72136000Y-35570000D03*
D15*
X72136000Y-38110000D03*
X72136000Y-40650000D03*
X72136000Y-43190000D03*
%TD*%
D19*
%TO.C,REF\u002A\u002A*%
X30480000Y-66040000D03*
%TD*%
D14*
%TO.C,J4*%
X72136000Y-51816000D03*
D15*
X72136000Y-54356000D03*
X72136000Y-56896000D03*
%TD*%
D17*
%TO.C,REF\u002A\u002A*%
X73660000Y-66040000D03*
%TD*%
D19*
%TO.C,REF\u002A\u002A*%
X30480000Y-72390000D03*
%TD*%
D16*
%TO.C,REF\u002A\u002A*%
X71120000Y-27940000D03*
%TD*%
D20*
%TO.C,J1*%
X35560000Y-31400000D03*
D21*
X35560000Y-25400000D03*
X40260000Y-28400000D03*
%TD*%
%LPD*%
M02*
