M48
; DRILL file {KiCad 8.0.5} date 2025-06-27T14:54:40-0500
; FORMAT={-:-/ absolute / inch / decimal}
; #@! TF.CreationDate,2025-06-27T14:54:40-05:00
; #@! TF.GenerationSoftware,Kicad,Pcbnew,8.0.5
; #@! TF.FileFunction,Plated,1,2,PTH
FMAT,2
INCH
; #@! TA.AperFunction,Plated,PTH,ViaDrill
T1C0.0118
; #@! TA.AperFunction,Plated,PTH,ComponentDrill
T2C0.0394
; #@! TA.AperFunction,Plated,PTH,ComponentDrill
T3C0.0433
; #@! TA.AperFunction,Plated,PTH,ComponentDrill
T4C0.0630
%
G90
G05
T1
X1.55Y-2.7
X2.0Y-2.71
X2.045Y-1.62
X2.33Y-2.66
X2.38Y-2.72
X2.4149Y-1.7701
X2.6Y-2.58
T2
X1.2205Y-1.9685
X1.2205Y-2.0685
X1.2205Y-2.1685
X1.9004Y-3.175
X2.0004Y-3.175
X2.1004Y-3.175
X2.2004Y-3.175
X2.84Y-1.4004
X2.84Y-1.5004
X2.84Y-1.6004
X2.84Y-1.7004
X2.84Y-2.04
X2.84Y-2.14
X2.84Y-2.24
T3
X1.735Y-1.2181
X1.735Y-1.3181
X1.735Y-1.4181
X1.735Y-1.5181
X1.735Y-1.6181
X1.735Y-1.7181
X1.735Y-1.8181
X1.735Y-1.9181
X1.735Y-2.0181
X1.735Y-2.1181
X1.735Y-2.2181
X1.735Y-2.3181
X1.735Y-2.4181
X1.735Y-2.5181
X1.835Y-2.2181
X1.835Y-2.3181
X1.835Y-2.5181
X1.935Y-2.2181
X1.935Y-2.3181
X1.935Y-2.5181
X2.035Y-2.2181
X2.035Y-2.3181
X2.035Y-2.5181
X2.135Y-2.2181
X2.135Y-2.3181
X2.135Y-2.5181
X2.235Y-1.3181
X2.235Y-2.2181
X2.235Y-2.3181
X2.235Y-2.5181
X2.335Y-1.2181
X2.335Y-1.3181
X2.335Y-1.4181
X2.335Y-1.5181
X2.335Y-1.6181
X2.335Y-1.7181
X2.335Y-1.8181
X2.335Y-1.9181
X2.335Y-2.0181
X2.335Y-2.1181
X2.335Y-2.2181
X2.335Y-2.3181
X2.335Y-2.4181
X2.335Y-2.5181
T4
X1.4Y-1.0
X1.4Y-1.2362
X1.585Y-1.1181
M30
