%TF.GenerationSoftware,KiCad,Pcbnew,8.0.5*%
%TF.CreationDate,2025-05-30T10:51:22-05:00*%
%TF.ProjectId,ULACIT 2025 Button,554c4143-4954-4203-9230-323520427574,rev?*%
%TF.SameCoordinates,Original*%
%TF.FileFunction,Legend,Top*%
%TF.FilePolarity,Positive*%
%FSLAX46Y46*%
G04 Gerber Fmt 4.6, Leading zero omitted, Abs format (unit mm)*
G04 Created by KiCad (PCBNEW 8.0.5) date 2025-05-30 10:51:22*
%MOMM*%
%LPD*%
G01*
G04 APERTURE LIST*
%ADD10C,0.120000*%
%ADD11C,0.000000*%
%ADD12C,2.000000*%
%ADD13R,1.700000X1.700000*%
%ADD14O,1.700000X1.700000*%
G04 APERTURE END LIST*
D10*
%TO.C,SW2*%
X49459000Y-36588000D02*
X49459000Y-38088000D01*
X50709000Y-40588000D02*
X55209000Y-40588000D01*
X55209000Y-34088000D02*
X50709000Y-34088000D01*
X56459000Y-38088000D02*
X56459000Y-36588000D01*
%TO.C,SW3*%
X68890000Y-36715000D02*
X68890000Y-38215000D01*
X70140000Y-40715000D02*
X74640000Y-40715000D01*
X74640000Y-34215000D02*
X70140000Y-34215000D01*
X75890000Y-38215000D02*
X75890000Y-36715000D01*
D11*
%TO.C,kibuzzard-6839CA69*%
G36*
X30525759Y-42131507D02*
G01*
X30571801Y-42235708D01*
X30555646Y-42307598D01*
X30514451Y-42351216D01*
X30457100Y-42372218D01*
X30390864Y-42377872D01*
X30341591Y-42376257D01*
X30295549Y-42371410D01*
X30295549Y-42100005D01*
X30402173Y-42100005D01*
X30525759Y-42131507D01*
G37*
G36*
X30439330Y-41703397D02*
G01*
X30484564Y-41719553D01*
X30515258Y-41753478D01*
X30526567Y-41810829D01*
X30487795Y-41902105D01*
X30373094Y-41935223D01*
X30295549Y-41935223D01*
X30295549Y-41705821D01*
X30339168Y-41700974D01*
X30386018Y-41699359D01*
X30439330Y-41703397D01*
G37*
G36*
X33715784Y-41947541D02*
G01*
X33763239Y-41994189D01*
X33790501Y-42066281D01*
X33799588Y-42158163D01*
X33789693Y-42250247D01*
X33760008Y-42322945D01*
X33710937Y-42370199D01*
X33642884Y-42385950D01*
X33573215Y-42370199D01*
X33525759Y-42322945D01*
X33498498Y-42250247D01*
X33489410Y-42158163D01*
X33499305Y-42066281D01*
X33528990Y-41994189D01*
X33578061Y-41947541D01*
X33646115Y-41931992D01*
X33715784Y-41947541D01*
G37*
G36*
X36140258Y-41707234D02*
G01*
X36192964Y-41774480D01*
X36216748Y-41843318D01*
X36231019Y-41930287D01*
X36235775Y-42035384D01*
X36231019Y-42141380D01*
X36216748Y-42228887D01*
X36192964Y-42297905D01*
X36140258Y-42365150D01*
X36069378Y-42387066D01*
X36067763Y-42387565D01*
X35996276Y-42365150D01*
X35943368Y-42297905D01*
X35919136Y-42228887D01*
X35904596Y-42141380D01*
X35899750Y-42035384D01*
X35900495Y-42019229D01*
X35978910Y-42019229D01*
X36003142Y-42094351D01*
X36069378Y-42125853D01*
X36133191Y-42094351D01*
X36158231Y-42019229D01*
X36133191Y-41943300D01*
X36069378Y-41910990D01*
X36003142Y-41943300D01*
X35978910Y-42019229D01*
X35900495Y-42019229D01*
X35904596Y-41930287D01*
X35919136Y-41843318D01*
X35943368Y-41774480D01*
X35996276Y-41707234D01*
X36067763Y-41684819D01*
X36140258Y-41707234D01*
G37*
G36*
X37347784Y-42693435D02*
G01*
X37213158Y-42693435D01*
X36067763Y-42693435D01*
X34760816Y-42693435D01*
X33646115Y-42693435D01*
X32953061Y-42693435D01*
X32145307Y-42693435D01*
X31221236Y-42693435D01*
X30374709Y-42693435D01*
X30096842Y-42693435D01*
X29962216Y-42693435D01*
X29962216Y-41550732D01*
X30096842Y-41550732D01*
X30096842Y-42521653D01*
X30166712Y-42534375D01*
X30237391Y-42543462D01*
X30307262Y-42548914D01*
X30374709Y-42550732D01*
X30454475Y-42546895D01*
X30528990Y-42535384D01*
X30596034Y-42514787D01*
X30653384Y-42483688D01*
X30736583Y-42386758D01*
X30759604Y-42318704D01*
X30767278Y-42235708D01*
X30762734Y-42201782D01*
X30912674Y-42201782D01*
X30915905Y-42276095D01*
X30925598Y-42343947D01*
X30973255Y-42456225D01*
X31067763Y-42529730D01*
X31136018Y-42549116D01*
X31221236Y-42555578D01*
X31309887Y-42551943D01*
X31391672Y-42541039D01*
X31464168Y-42526499D01*
X31524952Y-42511960D01*
X31524952Y-41778519D01*
X31683271Y-41778519D01*
X31683271Y-41943300D01*
X31856131Y-41943300D01*
X31856131Y-42255094D01*
X31860977Y-42341321D01*
X31875517Y-42409375D01*
X31932060Y-42500651D01*
X32022528Y-42544270D01*
X32145307Y-42555578D01*
X32268893Y-42545885D01*
X32387633Y-42513575D01*
X32360170Y-42342331D01*
X32309281Y-42363333D01*
X32264047Y-42375449D01*
X32218813Y-42381103D01*
X32167924Y-42382719D01*
X32121074Y-42377872D01*
X32085533Y-42358486D01*
X32062916Y-42318099D01*
X32054838Y-42250247D01*
X32054838Y-41943300D01*
X32373094Y-41943300D01*
X32373094Y-41778519D01*
X32491026Y-41778519D01*
X32491026Y-41943300D01*
X32663885Y-41943300D01*
X32663885Y-42255094D01*
X32668732Y-42341321D01*
X32683271Y-42409375D01*
X32739814Y-42500651D01*
X32830283Y-42544270D01*
X32953061Y-42555578D01*
X33076648Y-42545885D01*
X33195388Y-42513575D01*
X33167924Y-42342331D01*
X33117036Y-42363333D01*
X33071801Y-42375449D01*
X33026567Y-42381103D01*
X32975679Y-42382719D01*
X32928829Y-42377872D01*
X32893288Y-42358486D01*
X32870670Y-42318099D01*
X32862593Y-42250247D01*
X32862593Y-42156548D01*
X33287472Y-42156548D01*
X33293934Y-42242775D01*
X33313320Y-42320522D01*
X33344620Y-42388979D01*
X33386826Y-42447339D01*
X33438926Y-42494593D01*
X33499911Y-42529730D01*
X33569176Y-42551540D01*
X33646115Y-42558809D01*
X33723053Y-42551540D01*
X33792318Y-42529730D01*
X33853102Y-42494593D01*
X33904596Y-42447339D01*
X33946195Y-42388979D01*
X33977294Y-42320522D01*
X33996680Y-42242775D01*
X34003142Y-42156548D01*
X33996680Y-42071532D01*
X33977294Y-41994189D01*
X33945994Y-41925934D01*
X33903788Y-41868179D01*
X33851688Y-41821733D01*
X33817967Y-41802751D01*
X34150153Y-41802751D01*
X34150153Y-42537808D01*
X34348861Y-42537808D01*
X34348861Y-41941685D01*
X34394903Y-41936838D01*
X34439330Y-41935223D01*
X34537876Y-41982073D01*
X34556050Y-42043866D01*
X34562108Y-42135546D01*
X34562108Y-42537808D01*
X34760816Y-42537808D01*
X34760816Y-42109698D01*
X34757181Y-42035586D01*
X34757148Y-42035384D01*
X35720428Y-42035384D01*
X35725981Y-42159375D01*
X35742641Y-42266402D01*
X35770408Y-42356467D01*
X35809281Y-42429569D01*
X35877491Y-42501369D01*
X35963652Y-42544449D01*
X36067763Y-42558809D01*
X36171873Y-42544449D01*
X36258034Y-42501369D01*
X36326244Y-42429569D01*
X36365117Y-42356467D01*
X36392884Y-42266402D01*
X36409544Y-42159375D01*
X36415097Y-42035384D01*
X36409544Y-41912151D01*
X36392884Y-41805780D01*
X36374404Y-41746208D01*
X36549184Y-41746208D01*
X36613805Y-41910990D01*
X36712351Y-41871410D01*
X36815743Y-41814060D01*
X36815743Y-42373026D01*
X36605727Y-42373026D01*
X36605727Y-42537808D01*
X37213158Y-42537808D01*
X37213158Y-42373026D01*
X37014451Y-42373026D01*
X37014451Y-41537808D01*
X36878748Y-41537808D01*
X36809281Y-41600813D01*
X36723659Y-41658971D01*
X36633191Y-41709052D01*
X36549184Y-41746208D01*
X36374404Y-41746208D01*
X36365117Y-41716271D01*
X36326244Y-41643624D01*
X36258034Y-41572272D01*
X36171873Y-41529461D01*
X36067763Y-41515191D01*
X35965267Y-41529551D01*
X35879645Y-41572631D01*
X35810897Y-41644431D01*
X35771317Y-41717331D01*
X35743045Y-41806790D01*
X35726082Y-41912808D01*
X35720428Y-42035384D01*
X34757148Y-42035384D01*
X34746276Y-41968341D01*
X34697003Y-41858486D01*
X34602496Y-41787404D01*
X34535048Y-41768624D01*
X34452254Y-41762363D01*
X34363603Y-41765595D01*
X34281817Y-41775288D01*
X34209725Y-41788616D01*
X34150153Y-41802751D01*
X33817967Y-41802751D01*
X33790703Y-41787404D01*
X33721842Y-41766200D01*
X33646115Y-41759132D01*
X33571397Y-41766200D01*
X33502334Y-41787404D01*
X33440743Y-41821733D01*
X33388441Y-41868179D01*
X33346034Y-41925934D01*
X33314128Y-41994189D01*
X33294136Y-42071532D01*
X33287472Y-42156548D01*
X32862593Y-42156548D01*
X32862593Y-41943300D01*
X33180848Y-41943300D01*
X33180848Y-41778519D01*
X32862593Y-41778519D01*
X32862593Y-41555578D01*
X32663885Y-41587889D01*
X32663885Y-41778519D01*
X32491026Y-41778519D01*
X32373094Y-41778519D01*
X32054838Y-41778519D01*
X32054838Y-41555578D01*
X31856131Y-41587889D01*
X31856131Y-41778519D01*
X31683271Y-41778519D01*
X31524952Y-41778519D01*
X31324628Y-41778519D01*
X31324628Y-42374641D01*
X31234160Y-42382719D01*
X31136422Y-42331830D01*
X31117641Y-42267412D01*
X31111381Y-42175934D01*
X31111381Y-41778519D01*
X30912674Y-41778519D01*
X30912674Y-42201782D01*
X30762734Y-42201782D01*
X30758191Y-42167856D01*
X30730929Y-42103236D01*
X30678223Y-42046693D01*
X30592803Y-42003074D01*
X30685695Y-41915837D01*
X30711745Y-41856871D01*
X30720428Y-41789827D01*
X30705889Y-41696128D01*
X30650961Y-41611313D01*
X30539491Y-41549924D01*
X30457908Y-41532355D01*
X30355323Y-41526499D01*
X30221236Y-41533769D01*
X30096842Y-41550732D01*
X29962216Y-41550732D01*
X29962216Y-41380565D01*
X30096842Y-41380565D01*
X37213158Y-41380565D01*
X37347784Y-41380565D01*
X37347784Y-42693435D01*
G37*
%TO.C,kibuzzard-6839CA80*%
G36*
X69394221Y-42258507D02*
G01*
X69440263Y-42362708D01*
X69424108Y-42434598D01*
X69382913Y-42478216D01*
X69325562Y-42499218D01*
X69259326Y-42504872D01*
X69210053Y-42503257D01*
X69164011Y-42498410D01*
X69164011Y-42227005D01*
X69270635Y-42227005D01*
X69394221Y-42258507D01*
G37*
G36*
X69307792Y-41830397D02*
G01*
X69353026Y-41846553D01*
X69383721Y-41880478D01*
X69395029Y-41937829D01*
X69356257Y-42029105D01*
X69241556Y-42062223D01*
X69164011Y-42062223D01*
X69164011Y-41832821D01*
X69207630Y-41827974D01*
X69254480Y-41826359D01*
X69307792Y-41830397D01*
G37*
G36*
X72584246Y-42074541D02*
G01*
X72631701Y-42121189D01*
X72658963Y-42193281D01*
X72668050Y-42285163D01*
X72658155Y-42377247D01*
X72628470Y-42449945D01*
X72579399Y-42497199D01*
X72511346Y-42512950D01*
X72441677Y-42497199D01*
X72394221Y-42449945D01*
X72366960Y-42377247D01*
X72357872Y-42285163D01*
X72367767Y-42193281D01*
X72397452Y-42121189D01*
X72446523Y-42074541D01*
X72514577Y-42058992D01*
X72584246Y-42074541D01*
G37*
G36*
X75008721Y-41834234D02*
G01*
X75061426Y-41901480D01*
X75085210Y-41970318D01*
X75099481Y-42057287D01*
X75104237Y-42162384D01*
X75099481Y-42268380D01*
X75085210Y-42355887D01*
X75061426Y-42424905D01*
X75008721Y-42492150D01*
X74937840Y-42514066D01*
X74936225Y-42514565D01*
X74864738Y-42492150D01*
X74811830Y-42424905D01*
X74787598Y-42355887D01*
X74773058Y-42268380D01*
X74768212Y-42162384D01*
X74768957Y-42146229D01*
X74847372Y-42146229D01*
X74871604Y-42221351D01*
X74937840Y-42252853D01*
X75001653Y-42221351D01*
X75026693Y-42146229D01*
X75001653Y-42070300D01*
X74937840Y-42037990D01*
X74871604Y-42070300D01*
X74847372Y-42146229D01*
X74768957Y-42146229D01*
X74773058Y-42057287D01*
X74787598Y-41970318D01*
X74811830Y-41901480D01*
X74864738Y-41834234D01*
X74936225Y-41811819D01*
X75008721Y-41834234D01*
G37*
G36*
X76203322Y-42820435D02*
G01*
X76068696Y-42820435D01*
X75684205Y-42820435D01*
X74936225Y-42820435D01*
X73629278Y-42820435D01*
X72514577Y-42820435D01*
X71821523Y-42820435D01*
X71013769Y-42820435D01*
X70089698Y-42820435D01*
X69243171Y-42820435D01*
X68965304Y-42820435D01*
X68830678Y-42820435D01*
X68830678Y-41677732D01*
X68965304Y-41677732D01*
X68965304Y-42648653D01*
X69035174Y-42661375D01*
X69105853Y-42670462D01*
X69175724Y-42675914D01*
X69243171Y-42677732D01*
X69322937Y-42673895D01*
X69397452Y-42662384D01*
X69464496Y-42641787D01*
X69521847Y-42610688D01*
X69605045Y-42513758D01*
X69628066Y-42445704D01*
X69635740Y-42362708D01*
X69631196Y-42328782D01*
X69781136Y-42328782D01*
X69784367Y-42403095D01*
X69794060Y-42470947D01*
X69841717Y-42583225D01*
X69936225Y-42656730D01*
X70004480Y-42676116D01*
X70089698Y-42682578D01*
X70178349Y-42678943D01*
X70260134Y-42668039D01*
X70332630Y-42653499D01*
X70393414Y-42638960D01*
X70393414Y-41905519D01*
X70551733Y-41905519D01*
X70551733Y-42070300D01*
X70724593Y-42070300D01*
X70724593Y-42382094D01*
X70729439Y-42468321D01*
X70743979Y-42536375D01*
X70800522Y-42627651D01*
X70890990Y-42671270D01*
X71013769Y-42682578D01*
X71137355Y-42672885D01*
X71256095Y-42640575D01*
X71228632Y-42469331D01*
X71177743Y-42490333D01*
X71132509Y-42502449D01*
X71087275Y-42508103D01*
X71036386Y-42509719D01*
X70989536Y-42504872D01*
X70953995Y-42485486D01*
X70931378Y-42445099D01*
X70923300Y-42377247D01*
X70923300Y-42070300D01*
X71241556Y-42070300D01*
X71241556Y-41905519D01*
X71359488Y-41905519D01*
X71359488Y-42070300D01*
X71532347Y-42070300D01*
X71532347Y-42382094D01*
X71537194Y-42468321D01*
X71551733Y-42536375D01*
X71608276Y-42627651D01*
X71698745Y-42671270D01*
X71821523Y-42682578D01*
X71945110Y-42672885D01*
X72063850Y-42640575D01*
X72036386Y-42469331D01*
X71985498Y-42490333D01*
X71940263Y-42502449D01*
X71895029Y-42508103D01*
X71844141Y-42509719D01*
X71797291Y-42504872D01*
X71761750Y-42485486D01*
X71739132Y-42445099D01*
X71731055Y-42377247D01*
X71731055Y-42283548D01*
X72155934Y-42283548D01*
X72162396Y-42369775D01*
X72181782Y-42447522D01*
X72213082Y-42515979D01*
X72255288Y-42574339D01*
X72307388Y-42621593D01*
X72368373Y-42656730D01*
X72437638Y-42678540D01*
X72514577Y-42685809D01*
X72591515Y-42678540D01*
X72660780Y-42656730D01*
X72721564Y-42621593D01*
X72773058Y-42574339D01*
X72814658Y-42515979D01*
X72845756Y-42447522D01*
X72865142Y-42369775D01*
X72871604Y-42283548D01*
X72865142Y-42198532D01*
X72845756Y-42121189D01*
X72814456Y-42052934D01*
X72772250Y-41995179D01*
X72720150Y-41948733D01*
X72686429Y-41929751D01*
X73018616Y-41929751D01*
X73018616Y-42664808D01*
X73217323Y-42664808D01*
X73217323Y-42068685D01*
X73263365Y-42063838D01*
X73307792Y-42062223D01*
X73406338Y-42109073D01*
X73424512Y-42170866D01*
X73430570Y-42262546D01*
X73430570Y-42664808D01*
X73629278Y-42664808D01*
X73629278Y-42236698D01*
X73625643Y-42162586D01*
X73625610Y-42162384D01*
X74588890Y-42162384D01*
X74594443Y-42286375D01*
X74611103Y-42393402D01*
X74638870Y-42483467D01*
X74677743Y-42556569D01*
X74745954Y-42628369D01*
X74832114Y-42671449D01*
X74936225Y-42685809D01*
X75040335Y-42671449D01*
X75121470Y-42630882D01*
X75406338Y-42630882D01*
X75456418Y-42648653D01*
X75526693Y-42666423D01*
X75605853Y-42680155D01*
X75684205Y-42685809D01*
X75777501Y-42679953D01*
X75857065Y-42662384D01*
X75923300Y-42634113D01*
X75976612Y-42596149D01*
X76046079Y-42495179D01*
X76068696Y-42367554D01*
X76057994Y-42286375D01*
X76025885Y-42217312D01*
X75974391Y-42161981D01*
X75905530Y-42121997D01*
X75995998Y-42037990D01*
X76029924Y-41923289D01*
X76010538Y-41811819D01*
X75950764Y-41722158D01*
X75848179Y-41663192D01*
X75780530Y-41647441D01*
X75701976Y-41642191D01*
X75616152Y-41649662D01*
X75539617Y-41672078D01*
X75424108Y-41731044D01*
X75495191Y-41876439D01*
X75591313Y-41830397D01*
X75703591Y-41811819D01*
X75794868Y-41843321D01*
X75827985Y-41929751D01*
X75812638Y-41991141D01*
X75773058Y-42029913D01*
X75718131Y-42050914D01*
X75656742Y-42057376D01*
X75582428Y-42057376D01*
X75582428Y-42222158D01*
X75643817Y-42222158D01*
X75732267Y-42230034D01*
X75803753Y-42253661D01*
X75851006Y-42297078D01*
X75866758Y-42364323D01*
X75825562Y-42472562D01*
X75769221Y-42505276D01*
X75682590Y-42516181D01*
X75606055Y-42511738D01*
X75541233Y-42498410D01*
X75445110Y-42464485D01*
X75406338Y-42630882D01*
X75121470Y-42630882D01*
X75126496Y-42628369D01*
X75194706Y-42556569D01*
X75233579Y-42483467D01*
X75261346Y-42393402D01*
X75278006Y-42286375D01*
X75283559Y-42162384D01*
X75278006Y-42039151D01*
X75261346Y-41932780D01*
X75233579Y-41843271D01*
X75194706Y-41770624D01*
X75126496Y-41699272D01*
X75040335Y-41656461D01*
X74936225Y-41642191D01*
X74833729Y-41656551D01*
X74748108Y-41699631D01*
X74679359Y-41771431D01*
X74639779Y-41844331D01*
X74611507Y-41933790D01*
X74594544Y-42039808D01*
X74588890Y-42162384D01*
X73625610Y-42162384D01*
X73614738Y-42095341D01*
X73565465Y-41985486D01*
X73470958Y-41914404D01*
X73403511Y-41895624D01*
X73320716Y-41889363D01*
X73232065Y-41892595D01*
X73150279Y-41902288D01*
X73078187Y-41915616D01*
X73018616Y-41929751D01*
X72686429Y-41929751D01*
X72659165Y-41914404D01*
X72590304Y-41893200D01*
X72514577Y-41886132D01*
X72439859Y-41893200D01*
X72370796Y-41914404D01*
X72309205Y-41948733D01*
X72256903Y-41995179D01*
X72214496Y-42052934D01*
X72182590Y-42121189D01*
X72162598Y-42198532D01*
X72155934Y-42283548D01*
X71731055Y-42283548D01*
X71731055Y-42070300D01*
X72049310Y-42070300D01*
X72049310Y-41905519D01*
X71731055Y-41905519D01*
X71731055Y-41682578D01*
X71532347Y-41714889D01*
X71532347Y-41905519D01*
X71359488Y-41905519D01*
X71241556Y-41905519D01*
X70923300Y-41905519D01*
X70923300Y-41682578D01*
X70724593Y-41714889D01*
X70724593Y-41905519D01*
X70551733Y-41905519D01*
X70393414Y-41905519D01*
X70193090Y-41905519D01*
X70193090Y-42501641D01*
X70102622Y-42509719D01*
X70004884Y-42458830D01*
X69986103Y-42394412D01*
X69979843Y-42302934D01*
X69979843Y-41905519D01*
X69781136Y-41905519D01*
X69781136Y-42328782D01*
X69631196Y-42328782D01*
X69626653Y-42294856D01*
X69599391Y-42230236D01*
X69546685Y-42173693D01*
X69461265Y-42130074D01*
X69554157Y-42042837D01*
X69580207Y-41983871D01*
X69588890Y-41916827D01*
X69574351Y-41823128D01*
X69519423Y-41738313D01*
X69407953Y-41676924D01*
X69326370Y-41659355D01*
X69223785Y-41653499D01*
X69089698Y-41660769D01*
X68965304Y-41677732D01*
X68830678Y-41677732D01*
X68830678Y-41507565D01*
X68965304Y-41507565D01*
X76068696Y-41507565D01*
X76203322Y-41507565D01*
X76203322Y-42820435D01*
G37*
D10*
%TO.C,SW1*%
X30028000Y-36588000D02*
X30028000Y-38088000D01*
X31278000Y-40588000D02*
X35778000Y-40588000D01*
X35778000Y-34088000D02*
X31278000Y-34088000D01*
X37028000Y-38088000D02*
X37028000Y-36588000D01*
D11*
%TO.C,kibuzzard-6839CA74*%
G36*
X49700336Y-42131507D02*
G01*
X49746378Y-42235708D01*
X49730223Y-42307598D01*
X49689027Y-42351216D01*
X49631677Y-42372218D01*
X49565441Y-42377872D01*
X49516168Y-42376257D01*
X49470126Y-42371410D01*
X49470126Y-42100005D01*
X49576750Y-42100005D01*
X49700336Y-42131507D01*
G37*
G36*
X49613906Y-41703397D02*
G01*
X49659141Y-41719553D01*
X49689835Y-41753478D01*
X49701144Y-41810829D01*
X49662372Y-41902105D01*
X49547670Y-41935223D01*
X49470126Y-41935223D01*
X49470126Y-41705821D01*
X49513745Y-41700974D01*
X49560595Y-41699359D01*
X49613906Y-41703397D01*
G37*
G36*
X52890360Y-41947541D02*
G01*
X52937816Y-41994189D01*
X52965078Y-42066281D01*
X52974165Y-42158163D01*
X52964270Y-42250247D01*
X52934585Y-42322945D01*
X52885514Y-42370199D01*
X52817460Y-42385950D01*
X52747792Y-42370199D01*
X52700336Y-42322945D01*
X52673074Y-42250247D01*
X52663987Y-42158163D01*
X52673882Y-42066281D01*
X52703567Y-41994189D01*
X52752638Y-41947541D01*
X52820691Y-41931992D01*
X52890360Y-41947541D01*
G37*
G36*
X55314835Y-41707234D02*
G01*
X55367541Y-41774480D01*
X55391325Y-41843318D01*
X55405595Y-41930287D01*
X55410352Y-42035384D01*
X55405595Y-42141380D01*
X55391325Y-42228887D01*
X55367541Y-42297905D01*
X55314835Y-42365150D01*
X55243955Y-42387066D01*
X55242339Y-42387565D01*
X55170853Y-42365150D01*
X55117945Y-42297905D01*
X55093712Y-42228887D01*
X55079173Y-42141380D01*
X55074326Y-42035384D01*
X55075071Y-42019229D01*
X55153486Y-42019229D01*
X55177719Y-42094351D01*
X55243955Y-42125853D01*
X55307767Y-42094351D01*
X55332808Y-42019229D01*
X55307767Y-41943300D01*
X55243955Y-41910990D01*
X55177719Y-41943300D01*
X55153486Y-42019229D01*
X55075071Y-42019229D01*
X55079173Y-41930287D01*
X55093712Y-41843318D01*
X55117945Y-41774480D01*
X55170853Y-41707234D01*
X55242339Y-41684819D01*
X55314835Y-41707234D01*
G37*
G36*
X56527207Y-42693435D02*
G01*
X56392582Y-42693435D01*
X55242339Y-42693435D01*
X53935393Y-42693435D01*
X52820691Y-42693435D01*
X52127638Y-42693435D01*
X51319884Y-42693435D01*
X50395813Y-42693435D01*
X49549286Y-42693435D01*
X49271418Y-42693435D01*
X49136793Y-42693435D01*
X49136793Y-41550732D01*
X49271418Y-41550732D01*
X49271418Y-42521653D01*
X49341289Y-42534375D01*
X49411968Y-42543462D01*
X49481838Y-42548914D01*
X49549286Y-42550732D01*
X49629052Y-42546895D01*
X49703567Y-42535384D01*
X49770611Y-42514787D01*
X49827961Y-42483688D01*
X49911160Y-42386758D01*
X49934181Y-42318704D01*
X49941855Y-42235708D01*
X49937311Y-42201782D01*
X50087250Y-42201782D01*
X50090481Y-42276095D01*
X50100174Y-42343947D01*
X50147832Y-42456225D01*
X50242339Y-42529730D01*
X50310595Y-42549116D01*
X50395813Y-42555578D01*
X50484464Y-42551943D01*
X50566249Y-42541039D01*
X50638745Y-42526499D01*
X50699528Y-42511960D01*
X50699528Y-41778519D01*
X50857848Y-41778519D01*
X50857848Y-41943300D01*
X51030708Y-41943300D01*
X51030708Y-42255094D01*
X51035554Y-42341321D01*
X51050094Y-42409375D01*
X51106637Y-42500651D01*
X51197105Y-42544270D01*
X51319884Y-42555578D01*
X51443470Y-42545885D01*
X51562210Y-42513575D01*
X51534746Y-42342331D01*
X51483858Y-42363333D01*
X51438624Y-42375449D01*
X51393389Y-42381103D01*
X51342501Y-42382719D01*
X51295651Y-42377872D01*
X51260110Y-42358486D01*
X51237493Y-42318099D01*
X51229415Y-42250247D01*
X51229415Y-41943300D01*
X51547670Y-41943300D01*
X51547670Y-41778519D01*
X51665603Y-41778519D01*
X51665603Y-41943300D01*
X51838462Y-41943300D01*
X51838462Y-42255094D01*
X51843309Y-42341321D01*
X51857848Y-42409375D01*
X51914391Y-42500651D01*
X52004859Y-42544270D01*
X52127638Y-42555578D01*
X52251225Y-42545885D01*
X52369964Y-42513575D01*
X52342501Y-42342331D01*
X52291612Y-42363333D01*
X52246378Y-42375449D01*
X52201144Y-42381103D01*
X52150255Y-42382719D01*
X52103405Y-42377872D01*
X52067864Y-42358486D01*
X52045247Y-42318099D01*
X52037170Y-42250247D01*
X52037170Y-42156548D01*
X52462048Y-42156548D01*
X52468511Y-42242775D01*
X52487897Y-42320522D01*
X52519197Y-42388979D01*
X52561402Y-42447339D01*
X52613502Y-42494593D01*
X52674488Y-42529730D01*
X52743753Y-42551540D01*
X52820691Y-42558809D01*
X52897630Y-42551540D01*
X52966895Y-42529730D01*
X53027679Y-42494593D01*
X53079173Y-42447339D01*
X53120772Y-42388979D01*
X53151871Y-42320522D01*
X53171257Y-42242775D01*
X53177719Y-42156548D01*
X53171257Y-42071532D01*
X53151871Y-41994189D01*
X53120570Y-41925934D01*
X53078365Y-41868179D01*
X53026265Y-41821733D01*
X52992543Y-41802751D01*
X53324730Y-41802751D01*
X53324730Y-42537808D01*
X53523438Y-42537808D01*
X53523438Y-41941685D01*
X53569480Y-41936838D01*
X53613906Y-41935223D01*
X53712452Y-41982073D01*
X53730627Y-42043866D01*
X53736685Y-42135546D01*
X53736685Y-42537808D01*
X53935393Y-42537808D01*
X53935393Y-42109698D01*
X53931758Y-42035586D01*
X53931725Y-42035384D01*
X54895005Y-42035384D01*
X54900558Y-42159375D01*
X54917218Y-42266402D01*
X54944985Y-42356467D01*
X54983858Y-42429569D01*
X55052068Y-42501369D01*
X55138229Y-42544449D01*
X55242339Y-42558809D01*
X55346450Y-42544449D01*
X55432610Y-42501369D01*
X55500821Y-42429569D01*
X55539694Y-42356467D01*
X55567460Y-42266402D01*
X55584120Y-42159375D01*
X55589674Y-42035384D01*
X55584120Y-41912151D01*
X55567460Y-41805780D01*
X55539694Y-41716271D01*
X55502982Y-41647662D01*
X55715683Y-41647662D01*
X55814229Y-41786596D01*
X55916006Y-41710667D01*
X56014553Y-41688050D01*
X56108252Y-41721168D01*
X56145409Y-41815675D01*
X56115522Y-41901297D01*
X56039593Y-41988535D01*
X55991935Y-42034779D01*
X55941047Y-42083042D01*
X55890158Y-42134334D01*
X55842501Y-42189666D01*
X55800498Y-42249641D01*
X55766572Y-42314868D01*
X55744157Y-42385950D01*
X55736685Y-42463494D01*
X55735877Y-42497420D01*
X55739916Y-42537808D01*
X56392582Y-42537808D01*
X56392582Y-42373026D01*
X55962856Y-42373026D01*
X55979819Y-42319714D01*
X56021015Y-42262363D01*
X56072711Y-42207436D01*
X56121176Y-42161394D01*
X56203567Y-42080619D01*
X56276265Y-41993381D01*
X56327961Y-41900489D01*
X56347347Y-41801136D01*
X56321499Y-41675934D01*
X56252032Y-41586273D01*
X56151871Y-41532961D01*
X56033939Y-41515191D01*
X55949730Y-41523268D01*
X55865118Y-41547501D01*
X55785352Y-41588696D01*
X55715683Y-41647662D01*
X55502982Y-41647662D01*
X55500821Y-41643624D01*
X55432610Y-41572272D01*
X55346450Y-41529461D01*
X55242339Y-41515191D01*
X55139844Y-41529551D01*
X55054222Y-41572631D01*
X54985473Y-41644431D01*
X54945893Y-41717331D01*
X54917622Y-41806790D01*
X54900659Y-41912808D01*
X54895005Y-42035384D01*
X53931725Y-42035384D01*
X53920853Y-41968341D01*
X53871580Y-41858486D01*
X53777073Y-41787404D01*
X53709625Y-41768624D01*
X53626830Y-41762363D01*
X53538179Y-41765595D01*
X53456394Y-41775288D01*
X53384302Y-41788616D01*
X53324730Y-41802751D01*
X52992543Y-41802751D01*
X52965279Y-41787404D01*
X52896418Y-41766200D01*
X52820691Y-41759132D01*
X52745974Y-41766200D01*
X52676911Y-41787404D01*
X52615320Y-41821733D01*
X52563018Y-41868179D01*
X52520611Y-41925934D01*
X52488704Y-41994189D01*
X52468712Y-42071532D01*
X52462048Y-42156548D01*
X52037170Y-42156548D01*
X52037170Y-41943300D01*
X52355425Y-41943300D01*
X52355425Y-41778519D01*
X52037170Y-41778519D01*
X52037170Y-41555578D01*
X51838462Y-41587889D01*
X51838462Y-41778519D01*
X51665603Y-41778519D01*
X51547670Y-41778519D01*
X51229415Y-41778519D01*
X51229415Y-41555578D01*
X51030708Y-41587889D01*
X51030708Y-41778519D01*
X50857848Y-41778519D01*
X50699528Y-41778519D01*
X50499205Y-41778519D01*
X50499205Y-42374641D01*
X50408737Y-42382719D01*
X50310998Y-42331830D01*
X50292218Y-42267412D01*
X50285958Y-42175934D01*
X50285958Y-41778519D01*
X50087250Y-41778519D01*
X50087250Y-42201782D01*
X49937311Y-42201782D01*
X49932767Y-42167856D01*
X49905506Y-42103236D01*
X49852800Y-42046693D01*
X49767380Y-42003074D01*
X49860271Y-41915837D01*
X49886321Y-41856871D01*
X49895005Y-41789827D01*
X49880465Y-41696128D01*
X49825538Y-41611313D01*
X49714068Y-41549924D01*
X49632485Y-41532355D01*
X49529900Y-41526499D01*
X49395813Y-41533769D01*
X49271418Y-41550732D01*
X49136793Y-41550732D01*
X49136793Y-41380565D01*
X49271418Y-41380565D01*
X56392582Y-41380565D01*
X56527207Y-41380565D01*
X56527207Y-42693435D01*
G37*
%TD*%
%LPC*%
D12*
%TO.C,SW2*%
X56209000Y-39588000D03*
X49709000Y-39588000D03*
X56209000Y-35088000D03*
X49709000Y-35088000D03*
%TD*%
%TO.C,SW3*%
X75640000Y-39715000D03*
X69140000Y-39715000D03*
X75640000Y-35215000D03*
X69140000Y-35215000D03*
%TD*%
%TO.C,SW1*%
X36778000Y-39588000D03*
X30278000Y-39588000D03*
X36778000Y-35088000D03*
X30278000Y-35088000D03*
%TD*%
D13*
%TO.C,J5*%
X62865000Y-33665000D03*
D14*
X62865000Y-36205000D03*
X62865000Y-38745000D03*
X62865000Y-41285000D03*
%TD*%
%LPD*%
M02*
