%TF.GenerationSoftware,KiCad,Pcbnew,8.0.5*%
%TF.CreationDate,2025-05-30T10:51:23-05:00*%
%TF.ProjectId,ULACIT 2025 Button,554c4143-4954-4203-9230-323520427574,rev?*%
%TF.SameCoordinates,Original*%
%TF.FileFunction,Legend,Bot*%
%TF.FilePolarity,Positive*%
%FSLAX46Y46*%
G04 Gerber Fmt 4.6, Leading zero omitted, Abs format (unit mm)*
G04 Created by KiCad (PCBNEW 8.0.5) date 2025-05-30 10:51:23*
%MOMM*%
%LPD*%
G01*
G04 APERTURE LIST*
%ADD10C,0.000000*%
%ADD11C,0.120000*%
%ADD12C,2.000000*%
%ADD13R,1.700000X1.700000*%
%ADD14O,1.700000X1.700000*%
G04 APERTURE END LIST*
D10*
%TO.C,kibuzzard-6839CAA6*%
G36*
X60236757Y-33318974D02*
G01*
X60280376Y-33323821D01*
X60280376Y-33553223D01*
X60202831Y-33553223D01*
X60088130Y-33520105D01*
X60049358Y-33428829D01*
X60060666Y-33371478D01*
X60091361Y-33337553D01*
X60136595Y-33321397D01*
X60189907Y-33317359D01*
X60236757Y-33318974D01*
G37*
G36*
X60280376Y-33989410D02*
G01*
X60234334Y-33994257D01*
X60185061Y-33995872D01*
X60118825Y-33990218D01*
X60061474Y-33969216D01*
X60020279Y-33925598D01*
X60004124Y-33853708D01*
X60050166Y-33749507D01*
X60173752Y-33718005D01*
X60280376Y-33718005D01*
X60280376Y-33989410D01*
G37*
G36*
X59426175Y-33325234D02*
G01*
X59479083Y-33392480D01*
X59503316Y-33461318D01*
X59517856Y-33548287D01*
X59522702Y-33653384D01*
X59517856Y-33759380D01*
X59503316Y-33846887D01*
X59479083Y-33915905D01*
X59426175Y-33983150D01*
X59354689Y-34005565D01*
X59353074Y-34005066D01*
X59282193Y-33983150D01*
X59229487Y-33915905D01*
X59205703Y-33846887D01*
X59191433Y-33759380D01*
X59186676Y-33653384D01*
X59187407Y-33637229D01*
X59264221Y-33637229D01*
X59289261Y-33712351D01*
X59353074Y-33743853D01*
X59419309Y-33712351D01*
X59443542Y-33637229D01*
X59419309Y-33561300D01*
X59353074Y-33528990D01*
X59289261Y-33561300D01*
X59264221Y-33637229D01*
X59187407Y-33637229D01*
X59191433Y-33548287D01*
X59205703Y-33461318D01*
X59229487Y-33392480D01*
X59282193Y-33325234D01*
X59354689Y-33302819D01*
X59426175Y-33325234D01*
G37*
G36*
X61051332Y-33655000D02*
G01*
X60613709Y-34311435D01*
X60479083Y-34311435D01*
X60201216Y-34311435D01*
X59354689Y-34311435D01*
X58209293Y-34311435D01*
X58074668Y-34311435D01*
X58074668Y-33991026D01*
X58209293Y-33991026D01*
X58209293Y-34155808D01*
X58816725Y-34155808D01*
X58816725Y-33991026D01*
X58606708Y-33991026D01*
X58606708Y-33653384D01*
X59007355Y-33653384D01*
X59012908Y-33777375D01*
X59029568Y-33884402D01*
X59057335Y-33974467D01*
X59096208Y-34047569D01*
X59164418Y-34119369D01*
X59250579Y-34162449D01*
X59354689Y-34176809D01*
X59458800Y-34162449D01*
X59544960Y-34119369D01*
X59613171Y-34047569D01*
X59652044Y-33974467D01*
X59679810Y-33884402D01*
X59684588Y-33853708D01*
X59808647Y-33853708D01*
X59816321Y-33936704D01*
X59839342Y-34004758D01*
X59922540Y-34101688D01*
X59979891Y-34132787D01*
X60046935Y-34153384D01*
X60121450Y-34164895D01*
X60201216Y-34168732D01*
X60268663Y-34166914D01*
X60338534Y-34161462D01*
X60409213Y-34152375D01*
X60479083Y-34139653D01*
X60479083Y-33168732D01*
X60354689Y-33151769D01*
X60220602Y-33144499D01*
X60118017Y-33150355D01*
X60036434Y-33167924D01*
X59924964Y-33229313D01*
X59870036Y-33314128D01*
X59855497Y-33407827D01*
X59864180Y-33474871D01*
X59890230Y-33533837D01*
X59983122Y-33621074D01*
X59897702Y-33664693D01*
X59844996Y-33721236D01*
X59817734Y-33785856D01*
X59808647Y-33853708D01*
X59684588Y-33853708D01*
X59696470Y-33777375D01*
X59702024Y-33653384D01*
X59696369Y-33530808D01*
X59679406Y-33424790D01*
X59651135Y-33335331D01*
X59611555Y-33262431D01*
X59542806Y-33190631D01*
X59457184Y-33147551D01*
X59354689Y-33133191D01*
X59250579Y-33147461D01*
X59164418Y-33190272D01*
X59096208Y-33261624D01*
X59057335Y-33334271D01*
X59029568Y-33423780D01*
X59012908Y-33530151D01*
X59007355Y-33653384D01*
X58606708Y-33653384D01*
X58606708Y-33432060D01*
X58710101Y-33489410D01*
X58808647Y-33528990D01*
X58873267Y-33364208D01*
X58789261Y-33327052D01*
X58698792Y-33276971D01*
X58613171Y-33218813D01*
X58543704Y-33155808D01*
X58408001Y-33155808D01*
X58408001Y-33991026D01*
X58209293Y-33991026D01*
X58074668Y-33991026D01*
X58074668Y-32998565D01*
X58209293Y-32998565D01*
X60479083Y-32998565D01*
X60613709Y-32998565D01*
X61051332Y-33655000D01*
G37*
%TO.C,kibuzzard-6839CABB*%
G36*
X60239180Y-35858974D02*
G01*
X60282799Y-35863821D01*
X60282799Y-36093223D01*
X60205255Y-36093223D01*
X60090553Y-36060105D01*
X60051781Y-35968829D01*
X60063090Y-35911478D01*
X60093784Y-35877553D01*
X60139019Y-35861397D01*
X60192330Y-35857359D01*
X60239180Y-35858974D01*
G37*
G36*
X60282799Y-36529410D02*
G01*
X60236757Y-36534257D01*
X60187484Y-36535872D01*
X60121248Y-36530218D01*
X60063898Y-36509216D01*
X60022702Y-36465598D01*
X60006547Y-36393708D01*
X60052589Y-36289507D01*
X60176175Y-36258005D01*
X60282799Y-36258005D01*
X60282799Y-36529410D01*
G37*
G36*
X59428599Y-35865234D02*
G01*
X59481507Y-35932480D01*
X59505739Y-36001318D01*
X59520279Y-36088287D01*
X59525125Y-36193384D01*
X59520279Y-36299380D01*
X59505739Y-36386887D01*
X59481507Y-36455905D01*
X59428599Y-36523150D01*
X59357112Y-36545565D01*
X59355497Y-36545066D01*
X59284616Y-36523150D01*
X59231910Y-36455905D01*
X59208127Y-36386887D01*
X59193856Y-36299380D01*
X59189099Y-36193384D01*
X59189830Y-36177229D01*
X59266644Y-36177229D01*
X59291684Y-36252351D01*
X59355497Y-36283853D01*
X59421733Y-36252351D01*
X59445965Y-36177229D01*
X59421733Y-36101300D01*
X59355497Y-36068990D01*
X59291684Y-36101300D01*
X59266644Y-36177229D01*
X59189830Y-36177229D01*
X59193856Y-36088287D01*
X59208127Y-36001318D01*
X59231910Y-35932480D01*
X59284616Y-35865234D01*
X59357112Y-35842819D01*
X59428599Y-35865234D01*
G37*
G36*
X61053756Y-36195000D02*
G01*
X60616132Y-36851435D01*
X60481507Y-36851435D01*
X60203639Y-36851435D01*
X59357112Y-36851435D01*
X58206870Y-36851435D01*
X58072244Y-36851435D01*
X58072244Y-36531026D01*
X58206870Y-36531026D01*
X58206870Y-36695808D01*
X58859536Y-36695808D01*
X58863574Y-36655420D01*
X58862767Y-36621494D01*
X58855295Y-36543950D01*
X58832880Y-36472868D01*
X58798954Y-36407641D01*
X58756951Y-36347666D01*
X58709293Y-36292334D01*
X58658405Y-36241042D01*
X58608154Y-36193384D01*
X59009778Y-36193384D01*
X59015331Y-36317375D01*
X59031991Y-36424402D01*
X59059758Y-36514467D01*
X59098631Y-36587569D01*
X59166841Y-36659369D01*
X59253002Y-36702449D01*
X59357112Y-36716809D01*
X59461223Y-36702449D01*
X59547383Y-36659369D01*
X59615594Y-36587569D01*
X59654467Y-36514467D01*
X59682234Y-36424402D01*
X59687012Y-36393708D01*
X59811070Y-36393708D01*
X59818744Y-36476704D01*
X59841765Y-36544758D01*
X59924964Y-36641688D01*
X59982314Y-36672787D01*
X60049358Y-36693384D01*
X60123873Y-36704895D01*
X60203639Y-36708732D01*
X60271087Y-36706914D01*
X60340957Y-36701462D01*
X60411636Y-36692375D01*
X60481507Y-36679653D01*
X60481507Y-35708732D01*
X60357112Y-35691769D01*
X60223025Y-35684499D01*
X60120440Y-35690355D01*
X60038857Y-35707924D01*
X59927387Y-35769313D01*
X59872460Y-35854128D01*
X59857920Y-35947827D01*
X59866603Y-36014871D01*
X59892654Y-36073837D01*
X59985545Y-36161074D01*
X59900125Y-36204693D01*
X59847419Y-36261236D01*
X59820158Y-36325856D01*
X59811070Y-36393708D01*
X59687012Y-36393708D01*
X59698893Y-36317375D01*
X59704447Y-36193384D01*
X59698792Y-36070808D01*
X59681830Y-35964790D01*
X59653558Y-35875331D01*
X59613978Y-35802431D01*
X59545229Y-35730631D01*
X59459607Y-35687551D01*
X59357112Y-35673191D01*
X59253002Y-35687461D01*
X59166841Y-35730272D01*
X59098631Y-35801624D01*
X59059758Y-35874271D01*
X59031991Y-35963780D01*
X59015331Y-36070151D01*
X59009778Y-36193384D01*
X58608154Y-36193384D01*
X58607516Y-36192779D01*
X58559859Y-36146535D01*
X58483930Y-36059297D01*
X58454043Y-35973675D01*
X58491200Y-35879168D01*
X58584899Y-35846050D01*
X58683445Y-35868667D01*
X58785222Y-35944596D01*
X58883768Y-35805662D01*
X58814099Y-35746696D01*
X58734334Y-35705501D01*
X58649721Y-35681268D01*
X58565513Y-35673191D01*
X58447581Y-35690961D01*
X58347419Y-35744273D01*
X58277952Y-35833934D01*
X58252104Y-35959136D01*
X58271490Y-36058489D01*
X58323187Y-36151381D01*
X58395885Y-36238619D01*
X58478276Y-36319394D01*
X58526741Y-36365436D01*
X58578437Y-36420363D01*
X58619633Y-36477714D01*
X58636595Y-36531026D01*
X58206870Y-36531026D01*
X58072244Y-36531026D01*
X58072244Y-35538565D01*
X58206870Y-35538565D01*
X60481507Y-35538565D01*
X60616132Y-35538565D01*
X61053756Y-36195000D01*
G37*
%TO.C,kibuzzard-6839CAC5*%
G36*
X58625287Y-40938166D02*
G01*
X58654366Y-40942205D01*
X58654366Y-41614257D01*
X58636595Y-41615872D01*
X58618825Y-41615872D01*
X58504931Y-41590024D01*
X58430618Y-41518942D01*
X58390230Y-41411511D01*
X58381143Y-41346284D01*
X58378114Y-41275000D01*
X58387807Y-41148990D01*
X58421733Y-41040751D01*
X58487969Y-40965630D01*
X58596208Y-40937359D01*
X58625287Y-40938166D01*
G37*
G36*
X61084450Y-41275000D02*
G01*
X60646827Y-41931435D01*
X60512201Y-41931435D01*
X60103477Y-41931435D01*
X59174560Y-41931435D01*
X58639826Y-41931435D01*
X58176175Y-41931435D01*
X58041550Y-41931435D01*
X58041550Y-41275000D01*
X58176175Y-41275000D01*
X58184859Y-41403635D01*
X58210909Y-41511672D01*
X58252306Y-41600323D01*
X58307032Y-41670800D01*
X58374277Y-41723910D01*
X58453235Y-41760460D01*
X58542290Y-41781664D01*
X58639826Y-41788732D01*
X58744027Y-41783078D01*
X58786697Y-41775808D01*
X59014624Y-41775808D01*
X59174560Y-41775808D01*
X59221140Y-41664966D01*
X59270413Y-41554304D01*
X59322379Y-41443821D01*
X59377037Y-41333338D01*
X59434388Y-41222675D01*
X59494431Y-41111834D01*
X59494431Y-41775808D01*
X59673752Y-41775808D01*
X59673752Y-40825889D01*
X59806224Y-40825889D01*
X59857920Y-40984208D01*
X59945158Y-40943821D01*
X60051781Y-40926050D01*
X60171329Y-40951898D01*
X60251297Y-41023788D01*
X60296531Y-41133643D01*
X60306830Y-41200889D01*
X60310263Y-41275000D01*
X60303980Y-41384047D01*
X60285132Y-41472092D01*
X60253720Y-41539136D01*
X60183849Y-41602746D01*
X60087322Y-41623950D01*
X60048550Y-41622334D01*
X60009778Y-41617488D01*
X60009778Y-41252383D01*
X59811070Y-41252383D01*
X59811070Y-41751575D01*
X59921733Y-41780654D01*
X60004729Y-41792771D01*
X60103477Y-41796809D01*
X60192532Y-41788530D01*
X60272298Y-41763691D01*
X60341967Y-41722496D01*
X60400731Y-41665145D01*
X60447985Y-41591640D01*
X60483122Y-41501979D01*
X60504931Y-41396365D01*
X60512201Y-41275000D01*
X60503720Y-41154847D01*
X60478276Y-41049637D01*
X60438292Y-40959774D01*
X60386192Y-40885662D01*
X60322783Y-40827706D01*
X60248873Y-40786309D01*
X60166886Y-40761470D01*
X60079245Y-40753191D01*
X59975045Y-40762076D01*
X59895077Y-40782270D01*
X59839342Y-40806502D01*
X59806224Y-40825889D01*
X59673752Y-40825889D01*
X59673752Y-40775808D01*
X59513817Y-40775808D01*
X59468582Y-40849919D01*
X59423348Y-40930089D01*
X59378720Y-41013086D01*
X59335303Y-41095679D01*
X59294108Y-41176858D01*
X59256143Y-41255614D01*
X59222419Y-41328312D01*
X59193946Y-41391317D01*
X59193946Y-40775808D01*
X59014624Y-40775808D01*
X59014624Y-41775808D01*
X58786697Y-41775808D01*
X58853074Y-41764499D01*
X58853074Y-40788732D01*
X58725448Y-40769346D01*
X58613978Y-40764499D01*
X58519673Y-40771769D01*
X58433849Y-40793578D01*
X58358526Y-40830937D01*
X58295723Y-40884855D01*
X58245440Y-40955533D01*
X58207678Y-41043174D01*
X58184051Y-41149192D01*
X58176175Y-41275000D01*
X58041550Y-41275000D01*
X58041550Y-40618565D01*
X58176175Y-40618565D01*
X60512201Y-40618565D01*
X60646827Y-40618565D01*
X61084450Y-41275000D01*
G37*
D11*
%TO.C,J5*%
X61535000Y-34935000D02*
X64195000Y-34935000D01*
X61535000Y-42615000D02*
X61535000Y-34935000D01*
X61535000Y-42615000D02*
X64195000Y-42615000D01*
X62865000Y-32335000D02*
X64195000Y-32335000D01*
X64195000Y-32335000D02*
X64195000Y-33665000D01*
X64195000Y-42615000D02*
X64195000Y-34935000D01*
D10*
%TO.C,kibuzzard-6839CAC0*%
G36*
X60230295Y-38398974D02*
G01*
X60273914Y-38403821D01*
X60273914Y-38633223D01*
X60196369Y-38633223D01*
X60081668Y-38600105D01*
X60042896Y-38508829D01*
X60054204Y-38451478D01*
X60084899Y-38417553D01*
X60130133Y-38401397D01*
X60183445Y-38397359D01*
X60230295Y-38398974D01*
G37*
G36*
X60273914Y-39069410D02*
G01*
X60227872Y-39074257D01*
X60178599Y-39075872D01*
X60112363Y-39070218D01*
X60055012Y-39049216D01*
X60013817Y-39005598D01*
X59997662Y-38933708D01*
X60043704Y-38829507D01*
X60167290Y-38798005D01*
X60273914Y-38798005D01*
X60273914Y-39069410D01*
G37*
G36*
X59419713Y-38405234D02*
G01*
X59472621Y-38472480D01*
X59496854Y-38541318D01*
X59511393Y-38628287D01*
X59516240Y-38733384D01*
X59511393Y-38839380D01*
X59496854Y-38926887D01*
X59472621Y-38995905D01*
X59419713Y-39063150D01*
X59348227Y-39085565D01*
X59346612Y-39085066D01*
X59275731Y-39063150D01*
X59223025Y-38995905D01*
X59199241Y-38926887D01*
X59184971Y-38839380D01*
X59180214Y-38733384D01*
X59180945Y-38717229D01*
X59257759Y-38717229D01*
X59282799Y-38792351D01*
X59346612Y-38823853D01*
X59412847Y-38792351D01*
X59437080Y-38717229D01*
X59412847Y-38641300D01*
X59346612Y-38608990D01*
X59282799Y-38641300D01*
X59257759Y-38717229D01*
X59180945Y-38717229D01*
X59184971Y-38628287D01*
X59199241Y-38541318D01*
X59223025Y-38472480D01*
X59275731Y-38405234D01*
X59348227Y-38382819D01*
X59419713Y-38405234D01*
G37*
G36*
X61044870Y-38735000D02*
G01*
X60607247Y-39391435D01*
X60472621Y-39391435D01*
X60194754Y-39391435D01*
X59348227Y-39391435D01*
X58600246Y-39391435D01*
X58215755Y-39391435D01*
X58081130Y-39391435D01*
X58081130Y-38938554D01*
X58215755Y-38938554D01*
X58238372Y-39066179D01*
X58307839Y-39167149D01*
X58361151Y-39205113D01*
X58427387Y-39233384D01*
X58506951Y-39250953D01*
X58600246Y-39256809D01*
X58678599Y-39251155D01*
X58757759Y-39237423D01*
X58828033Y-39219653D01*
X58878114Y-39201882D01*
X58839342Y-39035485D01*
X58743219Y-39069410D01*
X58678397Y-39082738D01*
X58601862Y-39087181D01*
X58515230Y-39076276D01*
X58458889Y-39043562D01*
X58417694Y-38935323D01*
X58433445Y-38868078D01*
X58480699Y-38824661D01*
X58552185Y-38801034D01*
X58640634Y-38793158D01*
X58702024Y-38793158D01*
X58702024Y-38733384D01*
X59000893Y-38733384D01*
X59006446Y-38857375D01*
X59023106Y-38964402D01*
X59050872Y-39054467D01*
X59089746Y-39127569D01*
X59157956Y-39199369D01*
X59244116Y-39242449D01*
X59348227Y-39256809D01*
X59452338Y-39242449D01*
X59538498Y-39199369D01*
X59606708Y-39127569D01*
X59645582Y-39054467D01*
X59673348Y-38964402D01*
X59678126Y-38933708D01*
X59802185Y-38933708D01*
X59809859Y-39016704D01*
X59832880Y-39084758D01*
X59916078Y-39181688D01*
X59973429Y-39212787D01*
X60040473Y-39233384D01*
X60114988Y-39244895D01*
X60194754Y-39248732D01*
X60262201Y-39246914D01*
X60332072Y-39241462D01*
X60402750Y-39232375D01*
X60472621Y-39219653D01*
X60472621Y-38248732D01*
X60348227Y-38231769D01*
X60214140Y-38224499D01*
X60111555Y-38230355D01*
X60029972Y-38247924D01*
X59918502Y-38309313D01*
X59863574Y-38394128D01*
X59849035Y-38487827D01*
X59857718Y-38554871D01*
X59883768Y-38613837D01*
X59976660Y-38701074D01*
X59891240Y-38744693D01*
X59838534Y-38801236D01*
X59811272Y-38865856D01*
X59802185Y-38933708D01*
X59678126Y-38933708D01*
X59690008Y-38857375D01*
X59695561Y-38733384D01*
X59689907Y-38610808D01*
X59672944Y-38504790D01*
X59644673Y-38415331D01*
X59605093Y-38342431D01*
X59536344Y-38270631D01*
X59450722Y-38227551D01*
X59348227Y-38213191D01*
X59244116Y-38227461D01*
X59157956Y-38270272D01*
X59089746Y-38341624D01*
X59050872Y-38414271D01*
X59023106Y-38503780D01*
X59006446Y-38610151D01*
X59000893Y-38733384D01*
X58702024Y-38733384D01*
X58702024Y-38628376D01*
X58627710Y-38628376D01*
X58566321Y-38621914D01*
X58511393Y-38600913D01*
X58471813Y-38562141D01*
X58456466Y-38500751D01*
X58489584Y-38414321D01*
X58580860Y-38382819D01*
X58693138Y-38401397D01*
X58789261Y-38447439D01*
X58860343Y-38302044D01*
X58744835Y-38243078D01*
X58668300Y-38220662D01*
X58582476Y-38213191D01*
X58503922Y-38218441D01*
X58436272Y-38234192D01*
X58333687Y-38293158D01*
X58273914Y-38382819D01*
X58254528Y-38494289D01*
X58288453Y-38608990D01*
X58378922Y-38692997D01*
X58310061Y-38732981D01*
X58258566Y-38788312D01*
X58226458Y-38857375D01*
X58215755Y-38938554D01*
X58081130Y-38938554D01*
X58081130Y-38078565D01*
X58215755Y-38078565D01*
X60472621Y-38078565D01*
X60607247Y-38078565D01*
X61044870Y-38735000D01*
G37*
%TD*%
%LPC*%
D12*
%TO.C,SW2*%
X56209000Y-39588000D03*
X49709000Y-39588000D03*
X56209000Y-35088000D03*
X49709000Y-35088000D03*
%TD*%
%TO.C,SW3*%
X75640000Y-39715000D03*
X69140000Y-39715000D03*
X75640000Y-35215000D03*
X69140000Y-35215000D03*
%TD*%
%TO.C,SW1*%
X36778000Y-39588000D03*
X30278000Y-39588000D03*
X36778000Y-35088000D03*
X30278000Y-35088000D03*
%TD*%
D13*
%TO.C,J5*%
X62865000Y-33665000D03*
D14*
X62865000Y-36205000D03*
X62865000Y-38745000D03*
X62865000Y-41285000D03*
%TD*%
%LPD*%
M02*
