%TF.GenerationSoftware,KiCad,Pcbnew,8.0.5*%
%TF.CreationDate,2025-05-30T10:51:23-05:00*%
%TF.ProjectId,ULACIT 2025 Button,554c4143-4954-4203-9230-323520427574,rev?*%
%TF.SameCoordinates,Original*%
%TF.FileFunction,Copper,L2,Bot*%
%TF.FilePolarity,Positive*%
%FSLAX46Y46*%
G04 Gerber Fmt 4.6, Leading zero omitted, Abs format (unit mm)*
G04 Created by KiCad (PCBNEW 8.0.5) date 2025-05-30 10:51:23*
%MOMM*%
%LPD*%
G01*
G04 APERTURE LIST*
%TA.AperFunction,ComponentPad*%
%ADD10C,2.000000*%
%TD*%
%TA.AperFunction,ComponentPad*%
%ADD11R,1.700000X1.700000*%
%TD*%
%TA.AperFunction,ComponentPad*%
%ADD12O,1.700000X1.700000*%
%TD*%
G04 APERTURE END LIST*
D10*
%TO.P,SW2,1,1*%
%TO.N,GND*%
X56209000Y-39588000D03*
X49709000Y-39588000D03*
%TO.P,SW2,2,2*%
%TO.N,Net-(J5-Pin_2)*%
X56209000Y-35088000D03*
X49709000Y-35088000D03*
%TD*%
%TO.P,SW3,1,1*%
%TO.N,GND*%
X75640000Y-39715000D03*
X69140000Y-39715000D03*
%TO.P,SW3,2,2*%
%TO.N,Net-(J5-Pin_3)*%
X75640000Y-35215000D03*
X69140000Y-35215000D03*
%TD*%
%TO.P,SW1,1,1*%
%TO.N,GND*%
X36778000Y-39588000D03*
X30278000Y-39588000D03*
%TO.P,SW1,2,2*%
%TO.N,Net-(J5-Pin_1)*%
X36778000Y-35088000D03*
X30278000Y-35088000D03*
%TD*%
D11*
%TO.P,J5,1,Pin_1*%
%TO.N,Net-(J5-Pin_1)*%
X62865000Y-33665000D03*
D12*
%TO.P,J5,2,Pin_2*%
%TO.N,Net-(J5-Pin_2)*%
X62865000Y-36205000D03*
%TO.P,J5,3,Pin_3*%
%TO.N,Net-(J5-Pin_3)*%
X62865000Y-38745000D03*
%TO.P,J5,4,Pin_4*%
%TO.N,GND*%
X62865000Y-41285000D03*
%TD*%
%TA.AperFunction,Conductor*%
%TO.N,GND*%
G36*
X82602139Y-27190185D02*
G01*
X82647894Y-27242989D01*
X82659100Y-27294500D01*
X82659100Y-47330700D01*
X82639415Y-47397739D01*
X82586611Y-47443494D01*
X82535100Y-47454700D01*
X23484500Y-47454700D01*
X23417461Y-47435015D01*
X23371706Y-47382211D01*
X23360500Y-47330700D01*
X23360500Y-39587994D01*
X28772859Y-39587994D01*
X28772859Y-39588005D01*
X28793385Y-39835729D01*
X28793387Y-39835738D01*
X28854412Y-40076717D01*
X28954266Y-40304364D01*
X29054564Y-40457882D01*
X29754212Y-39758234D01*
X29765482Y-39800292D01*
X29837890Y-39925708D01*
X29940292Y-40028110D01*
X30065708Y-40100518D01*
X30107765Y-40111787D01*
X29407942Y-40811609D01*
X29454768Y-40848055D01*
X29454770Y-40848056D01*
X29673385Y-40966364D01*
X29673396Y-40966369D01*
X29908506Y-41047083D01*
X30153707Y-41088000D01*
X30402293Y-41088000D01*
X30647493Y-41047083D01*
X30882603Y-40966369D01*
X30882614Y-40966364D01*
X31101228Y-40848057D01*
X31101231Y-40848055D01*
X31148056Y-40811609D01*
X30448234Y-40111787D01*
X30490292Y-40100518D01*
X30615708Y-40028110D01*
X30718110Y-39925708D01*
X30790518Y-39800292D01*
X30801787Y-39758235D01*
X31501434Y-40457882D01*
X31601731Y-40304369D01*
X31701587Y-40076717D01*
X31762612Y-39835738D01*
X31762614Y-39835729D01*
X31783141Y-39588005D01*
X31783141Y-39587994D01*
X35272859Y-39587994D01*
X35272859Y-39588005D01*
X35293385Y-39835729D01*
X35293387Y-39835738D01*
X35354412Y-40076717D01*
X35454266Y-40304364D01*
X35554564Y-40457882D01*
X36254212Y-39758234D01*
X36265482Y-39800292D01*
X36337890Y-39925708D01*
X36440292Y-40028110D01*
X36565708Y-40100518D01*
X36607765Y-40111787D01*
X35907942Y-40811609D01*
X35954768Y-40848055D01*
X35954770Y-40848056D01*
X36173385Y-40966364D01*
X36173396Y-40966369D01*
X36408506Y-41047083D01*
X36653707Y-41088000D01*
X36902293Y-41088000D01*
X37147493Y-41047083D01*
X37382603Y-40966369D01*
X37382614Y-40966364D01*
X37601228Y-40848057D01*
X37601231Y-40848055D01*
X37648056Y-40811609D01*
X36948234Y-40111787D01*
X36990292Y-40100518D01*
X37115708Y-40028110D01*
X37218110Y-39925708D01*
X37290518Y-39800292D01*
X37301787Y-39758234D01*
X38001434Y-40457882D01*
X38101731Y-40304369D01*
X38201587Y-40076717D01*
X38262612Y-39835738D01*
X38262614Y-39835729D01*
X38283141Y-39588005D01*
X38283141Y-39587994D01*
X48203859Y-39587994D01*
X48203859Y-39588005D01*
X48224385Y-39835729D01*
X48224387Y-39835738D01*
X48285412Y-40076717D01*
X48385266Y-40304364D01*
X48485564Y-40457882D01*
X49185212Y-39758234D01*
X49196482Y-39800292D01*
X49268890Y-39925708D01*
X49371292Y-40028110D01*
X49496708Y-40100518D01*
X49538765Y-40111787D01*
X48838942Y-40811609D01*
X48885768Y-40848055D01*
X48885770Y-40848056D01*
X49104385Y-40966364D01*
X49104396Y-40966369D01*
X49339506Y-41047083D01*
X49584707Y-41088000D01*
X49833293Y-41088000D01*
X50078493Y-41047083D01*
X50313603Y-40966369D01*
X50313614Y-40966364D01*
X50532228Y-40848057D01*
X50532231Y-40848055D01*
X50579056Y-40811609D01*
X49879234Y-40111787D01*
X49921292Y-40100518D01*
X50046708Y-40028110D01*
X50149110Y-39925708D01*
X50221518Y-39800292D01*
X50232787Y-39758235D01*
X50932434Y-40457882D01*
X51032731Y-40304369D01*
X51132587Y-40076717D01*
X51193612Y-39835738D01*
X51193614Y-39835729D01*
X51214141Y-39588005D01*
X51214141Y-39587994D01*
X54703859Y-39587994D01*
X54703859Y-39588005D01*
X54724385Y-39835729D01*
X54724387Y-39835738D01*
X54785412Y-40076717D01*
X54885266Y-40304364D01*
X54985564Y-40457882D01*
X55685212Y-39758234D01*
X55696482Y-39800292D01*
X55768890Y-39925708D01*
X55871292Y-40028110D01*
X55996708Y-40100518D01*
X56038765Y-40111787D01*
X55338942Y-40811609D01*
X55385768Y-40848055D01*
X55385770Y-40848056D01*
X55604385Y-40966364D01*
X55604396Y-40966369D01*
X55839506Y-41047083D01*
X56084707Y-41088000D01*
X56333293Y-41088000D01*
X56578493Y-41047083D01*
X56813603Y-40966369D01*
X56813614Y-40966364D01*
X57032228Y-40848057D01*
X57032231Y-40848055D01*
X57079056Y-40811609D01*
X56379234Y-40111787D01*
X56421292Y-40100518D01*
X56546708Y-40028110D01*
X56649110Y-39925708D01*
X56721518Y-39800292D01*
X56732787Y-39758235D01*
X57432434Y-40457882D01*
X57532731Y-40304369D01*
X57632587Y-40076717D01*
X57693612Y-39835738D01*
X57693614Y-39835729D01*
X57714141Y-39588005D01*
X57714141Y-39587994D01*
X57693614Y-39340270D01*
X57693612Y-39340261D01*
X57632587Y-39099282D01*
X57532731Y-38871630D01*
X57432434Y-38718116D01*
X56732787Y-39417764D01*
X56721518Y-39375708D01*
X56649110Y-39250292D01*
X56546708Y-39147890D01*
X56421292Y-39075482D01*
X56379235Y-39064212D01*
X57079057Y-38364390D01*
X57079056Y-38364389D01*
X57032229Y-38327943D01*
X56813614Y-38209635D01*
X56813603Y-38209630D01*
X56578493Y-38128916D01*
X56333293Y-38088000D01*
X56084707Y-38088000D01*
X55839506Y-38128916D01*
X55604396Y-38209630D01*
X55604390Y-38209632D01*
X55385761Y-38327949D01*
X55338942Y-38364388D01*
X55338942Y-38364390D01*
X56038765Y-39064212D01*
X55996708Y-39075482D01*
X55871292Y-39147890D01*
X55768890Y-39250292D01*
X55696482Y-39375708D01*
X55685212Y-39417764D01*
X54985564Y-38718116D01*
X54885267Y-38871632D01*
X54785412Y-39099282D01*
X54724387Y-39340261D01*
X54724385Y-39340270D01*
X54703859Y-39587994D01*
X51214141Y-39587994D01*
X51193614Y-39340270D01*
X51193612Y-39340261D01*
X51132587Y-39099282D01*
X51032731Y-38871630D01*
X50932434Y-38718116D01*
X50232787Y-39417764D01*
X50221518Y-39375708D01*
X50149110Y-39250292D01*
X50046708Y-39147890D01*
X49921292Y-39075482D01*
X49879235Y-39064212D01*
X50579057Y-38364390D01*
X50579056Y-38364389D01*
X50532229Y-38327943D01*
X50313614Y-38209635D01*
X50313603Y-38209630D01*
X50078493Y-38128916D01*
X49833293Y-38088000D01*
X49584707Y-38088000D01*
X49339506Y-38128916D01*
X49104396Y-38209630D01*
X49104390Y-38209632D01*
X48885761Y-38327949D01*
X48838942Y-38364388D01*
X48838942Y-38364390D01*
X49538765Y-39064212D01*
X49496708Y-39075482D01*
X49371292Y-39147890D01*
X49268890Y-39250292D01*
X49196482Y-39375708D01*
X49185212Y-39417764D01*
X48485564Y-38718116D01*
X48385267Y-38871632D01*
X48285412Y-39099282D01*
X48224387Y-39340261D01*
X48224385Y-39340270D01*
X48203859Y-39587994D01*
X38283141Y-39587994D01*
X38262614Y-39340270D01*
X38262612Y-39340261D01*
X38201587Y-39099282D01*
X38101731Y-38871630D01*
X38001434Y-38718116D01*
X37301787Y-39417764D01*
X37290518Y-39375708D01*
X37218110Y-39250292D01*
X37115708Y-39147890D01*
X36990292Y-39075482D01*
X36948235Y-39064212D01*
X37648057Y-38364390D01*
X37648056Y-38364389D01*
X37601229Y-38327943D01*
X37382614Y-38209635D01*
X37382603Y-38209630D01*
X37147493Y-38128916D01*
X36902293Y-38088000D01*
X36653707Y-38088000D01*
X36408506Y-38128916D01*
X36173396Y-38209630D01*
X36173390Y-38209632D01*
X35954761Y-38327949D01*
X35907942Y-38364388D01*
X35907942Y-38364390D01*
X36607765Y-39064212D01*
X36565708Y-39075482D01*
X36440292Y-39147890D01*
X36337890Y-39250292D01*
X36265482Y-39375708D01*
X36254212Y-39417764D01*
X35554564Y-38718116D01*
X35454267Y-38871632D01*
X35354412Y-39099282D01*
X35293387Y-39340261D01*
X35293385Y-39340270D01*
X35272859Y-39587994D01*
X31783141Y-39587994D01*
X31762614Y-39340270D01*
X31762612Y-39340261D01*
X31701587Y-39099282D01*
X31601731Y-38871630D01*
X31501434Y-38718116D01*
X30801787Y-39417764D01*
X30790518Y-39375708D01*
X30718110Y-39250292D01*
X30615708Y-39147890D01*
X30490292Y-39075482D01*
X30448235Y-39064212D01*
X31148057Y-38364390D01*
X31148056Y-38364389D01*
X31101229Y-38327943D01*
X30882614Y-38209635D01*
X30882603Y-38209630D01*
X30647493Y-38128916D01*
X30402293Y-38088000D01*
X30153707Y-38088000D01*
X29908506Y-38128916D01*
X29673396Y-38209630D01*
X29673390Y-38209632D01*
X29454761Y-38327949D01*
X29407942Y-38364388D01*
X29407942Y-38364390D01*
X30107765Y-39064212D01*
X30065708Y-39075482D01*
X29940292Y-39147890D01*
X29837890Y-39250292D01*
X29765482Y-39375708D01*
X29754212Y-39417764D01*
X29054564Y-38718116D01*
X28954267Y-38871632D01*
X28854412Y-39099282D01*
X28793387Y-39340261D01*
X28793385Y-39340270D01*
X28772859Y-39587994D01*
X23360500Y-39587994D01*
X23360500Y-35087994D01*
X28772357Y-35087994D01*
X28772357Y-35088005D01*
X28792890Y-35335812D01*
X28792892Y-35335824D01*
X28853936Y-35576881D01*
X28953826Y-35804606D01*
X29089833Y-36012782D01*
X29089836Y-36012785D01*
X29258256Y-36195738D01*
X29454491Y-36348474D01*
X29673190Y-36466828D01*
X29908386Y-36547571D01*
X30153665Y-36588500D01*
X30402335Y-36588500D01*
X30647614Y-36547571D01*
X30882810Y-36466828D01*
X31101509Y-36348474D01*
X31297744Y-36195738D01*
X31466164Y-36012785D01*
X31602173Y-35804607D01*
X31702063Y-35576881D01*
X31763108Y-35335821D01*
X31773119Y-35215005D01*
X31783643Y-35088005D01*
X31783643Y-35087994D01*
X35272357Y-35087994D01*
X35272357Y-35088005D01*
X35292890Y-35335812D01*
X35292892Y-35335824D01*
X35353936Y-35576881D01*
X35453826Y-35804606D01*
X35589833Y-36012782D01*
X35589836Y-36012785D01*
X35758256Y-36195738D01*
X35954491Y-36348474D01*
X36173190Y-36466828D01*
X36408386Y-36547571D01*
X36653665Y-36588500D01*
X36902335Y-36588500D01*
X37147614Y-36547571D01*
X37382810Y-36466828D01*
X37601509Y-36348474D01*
X37797744Y-36195738D01*
X37966164Y-36012785D01*
X38102173Y-35804607D01*
X38202063Y-35576881D01*
X38263108Y-35335821D01*
X38273119Y-35215005D01*
X38283643Y-35088005D01*
X38283643Y-35087994D01*
X48203357Y-35087994D01*
X48203357Y-35088005D01*
X48223890Y-35335812D01*
X48223892Y-35335824D01*
X48284936Y-35576881D01*
X48384826Y-35804606D01*
X48520833Y-36012782D01*
X48520836Y-36012785D01*
X48689256Y-36195738D01*
X48885491Y-36348474D01*
X49104190Y-36466828D01*
X49339386Y-36547571D01*
X49584665Y-36588500D01*
X49833335Y-36588500D01*
X50078614Y-36547571D01*
X50313810Y-36466828D01*
X50532509Y-36348474D01*
X50728744Y-36195738D01*
X50897164Y-36012785D01*
X51033173Y-35804607D01*
X51133063Y-35576881D01*
X51194108Y-35335821D01*
X51204119Y-35215005D01*
X51214643Y-35088005D01*
X51214643Y-35087994D01*
X54703357Y-35087994D01*
X54703357Y-35088005D01*
X54723890Y-35335812D01*
X54723892Y-35335824D01*
X54784936Y-35576881D01*
X54884826Y-35804606D01*
X55020833Y-36012782D01*
X55020836Y-36012785D01*
X55189256Y-36195738D01*
X55385491Y-36348474D01*
X55604190Y-36466828D01*
X55839386Y-36547571D01*
X56084665Y-36588500D01*
X56333335Y-36588500D01*
X56578614Y-36547571D01*
X56813810Y-36466828D01*
X57032509Y-36348474D01*
X57216845Y-36204999D01*
X61509341Y-36204999D01*
X61509341Y-36205000D01*
X61529936Y-36440403D01*
X61529938Y-36440413D01*
X61591094Y-36668655D01*
X61591096Y-36668659D01*
X61591097Y-36668663D01*
X61593852Y-36674571D01*
X61690965Y-36882830D01*
X61690967Y-36882834D01*
X61826501Y-37076395D01*
X61826506Y-37076402D01*
X61993597Y-37243493D01*
X61993603Y-37243498D01*
X62179158Y-37373425D01*
X62222783Y-37428002D01*
X62229977Y-37497500D01*
X62198454Y-37559855D01*
X62179158Y-37576575D01*
X61993597Y-37706505D01*
X61826505Y-37873597D01*
X61690965Y-38067169D01*
X61690964Y-38067171D01*
X61591098Y-38281335D01*
X61591094Y-38281344D01*
X61529938Y-38509586D01*
X61529936Y-38509596D01*
X61509341Y-38744999D01*
X61509341Y-38745000D01*
X61529936Y-38980403D01*
X61529938Y-38980413D01*
X61591094Y-39208655D01*
X61591096Y-39208659D01*
X61591097Y-39208663D01*
X61652467Y-39340270D01*
X61690965Y-39422830D01*
X61690967Y-39422834D01*
X61826501Y-39616395D01*
X61826506Y-39616402D01*
X61993597Y-39783493D01*
X61993603Y-39783498D01*
X62179594Y-39913730D01*
X62223219Y-39968307D01*
X62230413Y-40037805D01*
X62198890Y-40100160D01*
X62179595Y-40116880D01*
X61993922Y-40246890D01*
X61993920Y-40246891D01*
X61826891Y-40413920D01*
X61826886Y-40413926D01*
X61691400Y-40607420D01*
X61691399Y-40607422D01*
X61591570Y-40821507D01*
X61591567Y-40821513D01*
X61534364Y-41034999D01*
X61534364Y-41035000D01*
X62431988Y-41035000D01*
X62399075Y-41092007D01*
X62365000Y-41219174D01*
X62365000Y-41350826D01*
X62399075Y-41477993D01*
X62431988Y-41535000D01*
X61534364Y-41535000D01*
X61591567Y-41748486D01*
X61591570Y-41748492D01*
X61691399Y-41962578D01*
X61826894Y-42156082D01*
X61993917Y-42323105D01*
X62187421Y-42458600D01*
X62401507Y-42558429D01*
X62401516Y-42558433D01*
X62615000Y-42615634D01*
X62615000Y-41718012D01*
X62672007Y-41750925D01*
X62799174Y-41785000D01*
X62930826Y-41785000D01*
X63057993Y-41750925D01*
X63115000Y-41718012D01*
X63115000Y-42615633D01*
X63328483Y-42558433D01*
X63328492Y-42558429D01*
X63542578Y-42458600D01*
X63736082Y-42323105D01*
X63903105Y-42156082D01*
X64038600Y-41962578D01*
X64138429Y-41748492D01*
X64138432Y-41748486D01*
X64195636Y-41535000D01*
X63298012Y-41535000D01*
X63330925Y-41477993D01*
X63365000Y-41350826D01*
X63365000Y-41219174D01*
X63330925Y-41092007D01*
X63298012Y-41035000D01*
X64195636Y-41035000D01*
X64195635Y-41034999D01*
X64138432Y-40821513D01*
X64138429Y-40821507D01*
X64038600Y-40607422D01*
X64038599Y-40607420D01*
X63903113Y-40413926D01*
X63903108Y-40413920D01*
X63736078Y-40246890D01*
X63550405Y-40116879D01*
X63506780Y-40062302D01*
X63499588Y-39992804D01*
X63531110Y-39930449D01*
X63550406Y-39913730D01*
X63730811Y-39787409D01*
X63736401Y-39783495D01*
X63804902Y-39714994D01*
X67634859Y-39714994D01*
X67634859Y-39715005D01*
X67655385Y-39962729D01*
X67655387Y-39962738D01*
X67716412Y-40203717D01*
X67816266Y-40431364D01*
X67916564Y-40584882D01*
X68616212Y-39885234D01*
X68627482Y-39927292D01*
X68699890Y-40052708D01*
X68802292Y-40155110D01*
X68927708Y-40227518D01*
X68969765Y-40238787D01*
X68269942Y-40938609D01*
X68316768Y-40975055D01*
X68316770Y-40975056D01*
X68535385Y-41093364D01*
X68535396Y-41093369D01*
X68770506Y-41174083D01*
X69015707Y-41215000D01*
X69264293Y-41215000D01*
X69509493Y-41174083D01*
X69744603Y-41093369D01*
X69744614Y-41093364D01*
X69963228Y-40975057D01*
X69963231Y-40975055D01*
X70010056Y-40938609D01*
X69310234Y-40238787D01*
X69352292Y-40227518D01*
X69477708Y-40155110D01*
X69580110Y-40052708D01*
X69652518Y-39927292D01*
X69663787Y-39885234D01*
X70363434Y-40584882D01*
X70463731Y-40431369D01*
X70563587Y-40203717D01*
X70624612Y-39962738D01*
X70624614Y-39962729D01*
X70645141Y-39715005D01*
X70645141Y-39714994D01*
X74134859Y-39714994D01*
X74134859Y-39715005D01*
X74155385Y-39962729D01*
X74155387Y-39962738D01*
X74216412Y-40203717D01*
X74316266Y-40431364D01*
X74416564Y-40584882D01*
X75116212Y-39885234D01*
X75127482Y-39927292D01*
X75199890Y-40052708D01*
X75302292Y-40155110D01*
X75427708Y-40227518D01*
X75469765Y-40238787D01*
X74769942Y-40938609D01*
X74816768Y-40975055D01*
X74816770Y-40975056D01*
X75035385Y-41093364D01*
X75035396Y-41093369D01*
X75270506Y-41174083D01*
X75515707Y-41215000D01*
X75764293Y-41215000D01*
X76009493Y-41174083D01*
X76244603Y-41093369D01*
X76244614Y-41093364D01*
X76463228Y-40975057D01*
X76463231Y-40975055D01*
X76510056Y-40938609D01*
X75810234Y-40238787D01*
X75852292Y-40227518D01*
X75977708Y-40155110D01*
X76080110Y-40052708D01*
X76152518Y-39927292D01*
X76163787Y-39885234D01*
X76863434Y-40584882D01*
X76963731Y-40431369D01*
X77063587Y-40203717D01*
X77124612Y-39962738D01*
X77124614Y-39962729D01*
X77145141Y-39715005D01*
X77145141Y-39714994D01*
X77124614Y-39467270D01*
X77124612Y-39467261D01*
X77063587Y-39226282D01*
X76963731Y-38998630D01*
X76863434Y-38845116D01*
X76163787Y-39544764D01*
X76152518Y-39502708D01*
X76080110Y-39377292D01*
X75977708Y-39274890D01*
X75852292Y-39202482D01*
X75810235Y-39191212D01*
X76510057Y-38491390D01*
X76510056Y-38491389D01*
X76463229Y-38454943D01*
X76244614Y-38336635D01*
X76244603Y-38336630D01*
X76009493Y-38255916D01*
X75764293Y-38215000D01*
X75515707Y-38215000D01*
X75270506Y-38255916D01*
X75035396Y-38336630D01*
X75035390Y-38336632D01*
X74816761Y-38454949D01*
X74769942Y-38491388D01*
X74769942Y-38491390D01*
X75469765Y-39191212D01*
X75427708Y-39202482D01*
X75302292Y-39274890D01*
X75199890Y-39377292D01*
X75127482Y-39502708D01*
X75116212Y-39544764D01*
X74416564Y-38845116D01*
X74316267Y-38998632D01*
X74216412Y-39226282D01*
X74155387Y-39467261D01*
X74155385Y-39467270D01*
X74134859Y-39714994D01*
X70645141Y-39714994D01*
X70624614Y-39467270D01*
X70624612Y-39467261D01*
X70563587Y-39226282D01*
X70463731Y-38998630D01*
X70363434Y-38845116D01*
X69663787Y-39544764D01*
X69652518Y-39502708D01*
X69580110Y-39377292D01*
X69477708Y-39274890D01*
X69352292Y-39202482D01*
X69310235Y-39191212D01*
X70010057Y-38491390D01*
X70010056Y-38491389D01*
X69963229Y-38454943D01*
X69744614Y-38336635D01*
X69744603Y-38336630D01*
X69509493Y-38255916D01*
X69264293Y-38215000D01*
X69015707Y-38215000D01*
X68770506Y-38255916D01*
X68535396Y-38336630D01*
X68535390Y-38336632D01*
X68316761Y-38454949D01*
X68269942Y-38491388D01*
X68269942Y-38491390D01*
X68969765Y-39191212D01*
X68927708Y-39202482D01*
X68802292Y-39274890D01*
X68699890Y-39377292D01*
X68627482Y-39502708D01*
X68616212Y-39544764D01*
X67916564Y-38845116D01*
X67816267Y-38998632D01*
X67716412Y-39226282D01*
X67655387Y-39467261D01*
X67655385Y-39467270D01*
X67634859Y-39714994D01*
X63804902Y-39714994D01*
X63903495Y-39616401D01*
X64039035Y-39422830D01*
X64138903Y-39208663D01*
X64200063Y-38980408D01*
X64220659Y-38745000D01*
X64200063Y-38509592D01*
X64153626Y-38336285D01*
X64138905Y-38281344D01*
X64138904Y-38281343D01*
X64138903Y-38281337D01*
X64039035Y-38067171D01*
X63903495Y-37873599D01*
X63903494Y-37873597D01*
X63736402Y-37706506D01*
X63736396Y-37706501D01*
X63550842Y-37576575D01*
X63507217Y-37521998D01*
X63500023Y-37452500D01*
X63531546Y-37390145D01*
X63550842Y-37373425D01*
X63573026Y-37357891D01*
X63736401Y-37243495D01*
X63903495Y-37076401D01*
X64039035Y-36882830D01*
X64138903Y-36668663D01*
X64200063Y-36440408D01*
X64220659Y-36205000D01*
X64200063Y-35969592D01*
X64138903Y-35741337D01*
X64039035Y-35527171D01*
X63903495Y-35333599D01*
X63784890Y-35214994D01*
X67634357Y-35214994D01*
X67634357Y-35215005D01*
X67654890Y-35462812D01*
X67654892Y-35462824D01*
X67715936Y-35703881D01*
X67815826Y-35931606D01*
X67951833Y-36139782D01*
X67951836Y-36139785D01*
X68120256Y-36322738D01*
X68316491Y-36475474D01*
X68535190Y-36593828D01*
X68770386Y-36674571D01*
X69015665Y-36715500D01*
X69264335Y-36715500D01*
X69509614Y-36674571D01*
X69744810Y-36593828D01*
X69963509Y-36475474D01*
X70159744Y-36322738D01*
X70328164Y-36139785D01*
X70464173Y-35931607D01*
X70564063Y-35703881D01*
X70625108Y-35462821D01*
X70625109Y-35462812D01*
X70645643Y-35215005D01*
X70645643Y-35214994D01*
X74134357Y-35214994D01*
X74134357Y-35215005D01*
X74154890Y-35462812D01*
X74154892Y-35462824D01*
X74215936Y-35703881D01*
X74315826Y-35931606D01*
X74451833Y-36139782D01*
X74451836Y-36139785D01*
X74620256Y-36322738D01*
X74816491Y-36475474D01*
X75035190Y-36593828D01*
X75270386Y-36674571D01*
X75515665Y-36715500D01*
X75764335Y-36715500D01*
X76009614Y-36674571D01*
X76244810Y-36593828D01*
X76463509Y-36475474D01*
X76659744Y-36322738D01*
X76828164Y-36139785D01*
X76964173Y-35931607D01*
X77064063Y-35703881D01*
X77125108Y-35462821D01*
X77125109Y-35462812D01*
X77145643Y-35215005D01*
X77145643Y-35214994D01*
X77125109Y-34967187D01*
X77125107Y-34967175D01*
X77064063Y-34726118D01*
X76964173Y-34498393D01*
X76828166Y-34290217D01*
X76806557Y-34266744D01*
X76659744Y-34107262D01*
X76463509Y-33954526D01*
X76463507Y-33954525D01*
X76463506Y-33954524D01*
X76244811Y-33836172D01*
X76244802Y-33836169D01*
X76009616Y-33755429D01*
X75764335Y-33714500D01*
X75515665Y-33714500D01*
X75270383Y-33755429D01*
X75035197Y-33836169D01*
X75035188Y-33836172D01*
X74816493Y-33954524D01*
X74620257Y-34107261D01*
X74451833Y-34290217D01*
X74315826Y-34498393D01*
X74215936Y-34726118D01*
X74154892Y-34967175D01*
X74154890Y-34967187D01*
X74134357Y-35214994D01*
X70645643Y-35214994D01*
X70625109Y-34967187D01*
X70625107Y-34967175D01*
X70564063Y-34726118D01*
X70464173Y-34498393D01*
X70328166Y-34290217D01*
X70306557Y-34266744D01*
X70159744Y-34107262D01*
X69963509Y-33954526D01*
X69963507Y-33954525D01*
X69963506Y-33954524D01*
X69744811Y-33836172D01*
X69744802Y-33836169D01*
X69509616Y-33755429D01*
X69264335Y-33714500D01*
X69015665Y-33714500D01*
X68770383Y-33755429D01*
X68535197Y-33836169D01*
X68535188Y-33836172D01*
X68316493Y-33954524D01*
X68120257Y-34107261D01*
X67951833Y-34290217D01*
X67815826Y-34498393D01*
X67715936Y-34726118D01*
X67654892Y-34967175D01*
X67654890Y-34967187D01*
X67634357Y-35214994D01*
X63784890Y-35214994D01*
X63781567Y-35211671D01*
X63748084Y-35150351D01*
X63753068Y-35080659D01*
X63794939Y-35024725D01*
X63825915Y-35007810D01*
X63957331Y-34958796D01*
X64072546Y-34872546D01*
X64158796Y-34757331D01*
X64209091Y-34622483D01*
X64215500Y-34562873D01*
X64215499Y-32767128D01*
X64209091Y-32707517D01*
X64158796Y-32572669D01*
X64158795Y-32572668D01*
X64158793Y-32572664D01*
X64072547Y-32457455D01*
X64072544Y-32457452D01*
X63957335Y-32371206D01*
X63957328Y-32371202D01*
X63822482Y-32320908D01*
X63822483Y-32320908D01*
X63762883Y-32314501D01*
X63762881Y-32314500D01*
X63762873Y-32314500D01*
X63762864Y-32314500D01*
X61967129Y-32314500D01*
X61967123Y-32314501D01*
X61907516Y-32320908D01*
X61772671Y-32371202D01*
X61772664Y-32371206D01*
X61657455Y-32457452D01*
X61657452Y-32457455D01*
X61571206Y-32572664D01*
X61571202Y-32572671D01*
X61520908Y-32707517D01*
X61514501Y-32767116D01*
X61514501Y-32767123D01*
X61514500Y-32767135D01*
X61514500Y-34562870D01*
X61514501Y-34562876D01*
X61520908Y-34622483D01*
X61571202Y-34757328D01*
X61571206Y-34757335D01*
X61657452Y-34872544D01*
X61657455Y-34872547D01*
X61772664Y-34958793D01*
X61772671Y-34958797D01*
X61904081Y-35007810D01*
X61960015Y-35049681D01*
X61984432Y-35115145D01*
X61969580Y-35183418D01*
X61948430Y-35211673D01*
X61826503Y-35333600D01*
X61690965Y-35527169D01*
X61690964Y-35527171D01*
X61591098Y-35741335D01*
X61591094Y-35741344D01*
X61529938Y-35969586D01*
X61529936Y-35969596D01*
X61509341Y-36204999D01*
X57216845Y-36204999D01*
X57228744Y-36195738D01*
X57397164Y-36012785D01*
X57533173Y-35804607D01*
X57633063Y-35576881D01*
X57694108Y-35335821D01*
X57704119Y-35215005D01*
X57714643Y-35088005D01*
X57714643Y-35087994D01*
X57694109Y-34840187D01*
X57694107Y-34840175D01*
X57633063Y-34599118D01*
X57533173Y-34371393D01*
X57397166Y-34163217D01*
X57375557Y-34139744D01*
X57228744Y-33980262D01*
X57032509Y-33827526D01*
X57032507Y-33827525D01*
X57032506Y-33827524D01*
X56813811Y-33709172D01*
X56813802Y-33709169D01*
X56578616Y-33628429D01*
X56333335Y-33587500D01*
X56084665Y-33587500D01*
X55839383Y-33628429D01*
X55604197Y-33709169D01*
X55604188Y-33709172D01*
X55385493Y-33827524D01*
X55189257Y-33980261D01*
X55020833Y-34163217D01*
X54884826Y-34371393D01*
X54784936Y-34599118D01*
X54723892Y-34840175D01*
X54723890Y-34840187D01*
X54703357Y-35087994D01*
X51214643Y-35087994D01*
X51194109Y-34840187D01*
X51194107Y-34840175D01*
X51133063Y-34599118D01*
X51033173Y-34371393D01*
X50897166Y-34163217D01*
X50875557Y-34139744D01*
X50728744Y-33980262D01*
X50532509Y-33827526D01*
X50532507Y-33827525D01*
X50532506Y-33827524D01*
X50313811Y-33709172D01*
X50313802Y-33709169D01*
X50078616Y-33628429D01*
X49833335Y-33587500D01*
X49584665Y-33587500D01*
X49339383Y-33628429D01*
X49104197Y-33709169D01*
X49104188Y-33709172D01*
X48885493Y-33827524D01*
X48689257Y-33980261D01*
X48520833Y-34163217D01*
X48384826Y-34371393D01*
X48284936Y-34599118D01*
X48223892Y-34840175D01*
X48223890Y-34840187D01*
X48203357Y-35087994D01*
X38283643Y-35087994D01*
X38263109Y-34840187D01*
X38263107Y-34840175D01*
X38202063Y-34599118D01*
X38102173Y-34371393D01*
X37966166Y-34163217D01*
X37944557Y-34139744D01*
X37797744Y-33980262D01*
X37601509Y-33827526D01*
X37601507Y-33827525D01*
X37601506Y-33827524D01*
X37382811Y-33709172D01*
X37382802Y-33709169D01*
X37147616Y-33628429D01*
X36902335Y-33587500D01*
X36653665Y-33587500D01*
X36408383Y-33628429D01*
X36173197Y-33709169D01*
X36173188Y-33709172D01*
X35954493Y-33827524D01*
X35758257Y-33980261D01*
X35589833Y-34163217D01*
X35453826Y-34371393D01*
X35353936Y-34599118D01*
X35292892Y-34840175D01*
X35292890Y-34840187D01*
X35272357Y-35087994D01*
X31783643Y-35087994D01*
X31763109Y-34840187D01*
X31763107Y-34840175D01*
X31702063Y-34599118D01*
X31602173Y-34371393D01*
X31466166Y-34163217D01*
X31444557Y-34139744D01*
X31297744Y-33980262D01*
X31101509Y-33827526D01*
X31101507Y-33827525D01*
X31101506Y-33827524D01*
X30882811Y-33709172D01*
X30882802Y-33709169D01*
X30647616Y-33628429D01*
X30402335Y-33587500D01*
X30153665Y-33587500D01*
X29908383Y-33628429D01*
X29673197Y-33709169D01*
X29673188Y-33709172D01*
X29454493Y-33827524D01*
X29258257Y-33980261D01*
X29089833Y-34163217D01*
X28953826Y-34371393D01*
X28853936Y-34599118D01*
X28792892Y-34840175D01*
X28792890Y-34840187D01*
X28772357Y-35087994D01*
X23360500Y-35087994D01*
X23360500Y-27294500D01*
X23380185Y-27227461D01*
X23432989Y-27181706D01*
X23484500Y-27170500D01*
X82535100Y-27170500D01*
X82602139Y-27190185D01*
G37*
%TD.AperFunction*%
%TD*%
M02*
